<svg width="247" height="224" viewBox="0 0 247 224" fill="none" xmlns="http://www.w3.org/2000/svg">
<path d="M126.725 224C192.979 224 246.688 192.991 246.688 154.739C246.688 116.486 192.979 85.4771 126.725 85.4771C60.4718 85.4771 6.7627 116.486 6.7627 154.739C6.7627 192.991 60.4718 224 126.725 224Z" fill="url(#paint0_linear_554_9930)" fill-opacity="0.05"/>
<path d="M204.401 181.729C222.343 181.729 236.888 173.331 236.888 162.972C236.888 152.613 222.343 144.215 204.401 144.215C186.459 144.215 171.914 152.613 171.914 162.972C171.914 173.331 186.459 181.729 204.401 181.729Z" fill="#DCDAF7"/>
<path d="M23.8856 168.365L34.0682 174.256C34.4954 174.475 34.9688 174.589 35.449 174.589C35.9292 174.589 36.4025 174.475 36.8297 174.256L155.774 105.579C156.539 105.139 156.539 104.425 155.774 103.986L145.586 98.1006C145.159 97.8839 144.686 97.771 144.208 97.771C143.729 97.771 143.256 97.8839 142.829 98.1006L23.8856 166.783C23.1202 167.212 23.1202 167.926 23.8856 168.365Z" fill="#DCDAF7"/>
<path d="M161.085 192.961L115.395 219.336C115.052 219.512 114.672 219.603 114.286 219.603C113.9 219.603 113.52 219.512 113.177 219.336L51.5224 183.74C51.3886 183.695 51.2723 183.608 51.19 183.493C51.1077 183.378 51.0635 183.241 51.0635 183.099C51.0635 182.958 51.1077 182.82 51.19 182.705C51.2723 182.59 51.3886 182.503 51.5224 182.458L97.2072 156.083C97.5505 155.907 97.9307 155.815 98.3165 155.815C98.7023 155.815 99.0825 155.907 99.4258 156.083L161.085 191.679C161.219 191.724 161.335 191.811 161.418 191.926C161.5 192.041 161.544 192.178 161.544 192.32C161.544 192.461 161.5 192.599 161.418 192.714C161.335 192.829 161.219 192.915 161.085 192.961Z" fill="#DCDAF7"/>
<path opacity="0.1" d="M187.945 123.632L183.374 120.995C182.951 120.748 182.471 120.619 181.982 120.619C181.494 120.619 181.014 120.748 180.591 120.995L123.705 154.273L118.348 160.577C118.291 160.644 118.258 160.727 118.251 160.815C118.245 160.902 118.267 160.989 118.314 161.063C118.36 161.137 118.429 161.195 118.511 161.227C118.592 161.26 118.682 161.266 118.766 161.244L130.428 158.141L187.945 124.972C188.062 124.903 188.159 124.805 188.227 124.688C188.294 124.57 188.329 124.437 188.329 124.302C188.329 124.166 188.294 124.033 188.227 123.916C188.159 123.798 188.062 123.7 187.945 123.632Z" fill="#3F3F3F"/>
<path d="M49.35 10.4547L47.3332 11.127V7.27424C47.3332 4.22308 44.5199 3.48873 41.4687 5.01948C38.4175 6.57092 35.9404 10.253 35.9404 13.2938V13.8524C35.5085 13.7335 35.0571 13.7025 34.613 13.7611C34.1688 13.8198 33.741 13.9668 33.3547 14.1937C31.1568 15.29 29.3778 17.9637 29.3778 20.1615V20.4149L26.5956 21.8371C25.1476 22.5611 23.9736 24.3194 23.9736 25.7674C23.9736 27.2154 25.1579 27.7998 26.5956 27.0758L49.35 15.6986C50.798 14.9746 51.972 13.2163 51.972 11.7683C51.972 10.3202 50.8187 9.73069 49.35 10.4547Z" fill="#DCDAF7"/>
<path d="M72.823 19.1116L69.1616 20.9423C69.1822 20.8036 69.1926 20.6636 69.1926 20.5234V19.6287C69.1926 17.9997 67.8687 17.3378 66.2346 18.1497C65.5497 18.5138 64.9489 19.0177 64.4711 19.6287C64.2073 17.5601 62.3456 16.8103 60.0857 17.9428C57.6396 19.1633 55.6589 22.1369 55.6589 24.5778V25.9534C55.6453 26.5074 55.7735 27.0557 56.0313 27.5462L52.9956 29.0615C52.5381 29.3023 52.148 29.6536 51.8608 30.0835C51.5736 30.5134 51.3984 31.0083 51.3511 31.5231C51.3511 32.4281 52.0906 32.7953 52.9956 32.3454L72.823 22.4317C73.2795 22.1902 73.6686 21.8386 73.9548 21.4087C74.2411 20.9789 74.4156 20.4844 74.4624 19.97C74.4624 19.0443 73.728 18.6772 72.823 19.1116Z" fill="#DCDAF7"/>
<path d="M28.1469 154.154L32.3617 152.639C32.3617 152.639 33.6028 143.428 32.4548 135.863C30.743 124.537 21.1551 113.574 14.3236 111.453C1.77245 107.544 1.84485 119.438 11.3242 126.078C19.5726 131.85 26.9213 140.476 28.1469 154.154Z" fill="#726BDF"/>
<path d="M30.2156 153.631H30.1639C30.0385 153.598 29.9301 153.519 29.8602 153.41C29.7903 153.301 29.7639 153.17 29.7863 153.042C32.0463 142.699 24.015 123.125 12.7205 117.323C12.6385 117.246 12.5838 117.144 12.5647 117.033C12.5455 116.923 12.563 116.809 12.6144 116.709C12.6659 116.609 12.7485 116.528 12.8497 116.48C12.951 116.431 13.0654 116.416 13.1756 116.438C24.8321 122.422 33.1064 142.575 30.7586 153.254C30.7264 153.37 30.6545 153.472 30.5553 153.541C30.4561 153.61 30.3359 153.642 30.2156 153.631Z" fill="white"/>
<path d="M33.6856 163.292C33.8873 162.066 34.0166 160.261 34.0528 159.822C34.2033 158.251 34.0273 156.667 33.5356 155.168C33.3081 154.511 32.8582 153.875 32.7754 153.208C32.6927 152.54 32.8478 151.946 32.6772 151.284C32.5126 150.625 32.219 150.005 31.8134 149.46C31.4077 148.915 30.898 148.455 30.3138 148.109C29.1864 147.467 27.7281 147.178 27.092 146.04C26.6679 145.275 26.7662 144.344 26.8024 143.454C26.8541 142.115 26.6938 140.677 25.8353 139.653C24.7286 138.334 22.7945 138.071 21.0827 138.247C19.371 138.422 17.6747 138.94 15.9578 138.795C13.0566 138.562 10.5795 136.499 7.68345 136.08C6.66208 135.941 5.6243 135.981 4.61676 136.199C3.12738 136.509 1.6018 137.233 0.908822 138.588C0.62541 139.227 0.505383 139.926 0.559548 140.623C0.613714 141.32 0.840371 141.993 1.21911 142.58C2.02069 143.904 3.2877 144.742 4.62711 145.471C5.96652 146.2 6.99564 146.992 6.31818 148.724C6.08106 149.212 5.9289 149.736 5.86826 150.275C5.88231 150.751 6.01986 151.215 6.2674 151.621C6.51493 152.027 6.86393 152.362 7.28007 152.592C8.11492 153.045 9.02374 153.347 9.96406 153.482L13.2583 154.149C14.215 154.345 15.3941 154.78 15.4406 155.757C15.4717 156.362 15.0166 156.869 14.7839 157.433C14.5883 158.009 14.5663 158.63 14.7208 159.218C14.8753 159.807 15.1993 160.337 15.6527 160.742C16.5787 161.542 17.7294 162.035 18.9469 162.154C20.1519 162.33 21.3723 162.309 22.5669 162.444C24.4357 162.659 26.242 163.248 27.878 164.176C28.2762 164.452 28.7162 164.662 29.1812 164.797C29.8897 164.947 33.5563 164.063 33.6856 163.292Z" fill="#726BDF"/>
<g opacity="0.1">
<path d="M33.6856 163.292C33.8873 162.066 34.0166 160.261 34.0528 159.822C34.2033 158.251 34.0273 156.667 33.5356 155.168C33.3081 154.511 32.8582 153.875 32.7754 153.208C32.6927 152.54 32.8478 151.946 32.6772 151.284C32.5126 150.625 32.219 150.005 31.8134 149.46C31.4077 148.915 30.898 148.455 30.3138 148.109C29.1864 147.467 27.7281 147.178 27.092 146.04C26.6679 145.275 26.7662 144.344 26.8024 143.454C26.8541 142.115 26.6938 140.677 25.8353 139.653C24.7286 138.334 22.7945 138.071 21.0827 138.247C19.371 138.422 17.6747 138.94 15.9578 138.795C13.0566 138.562 10.5795 136.499 7.68345 136.08C6.66208 135.941 5.6243 135.981 4.61676 136.199C3.12738 136.509 1.6018 137.233 0.908822 138.588C0.62541 139.227 0.505383 139.926 0.559548 140.623C0.613714 141.32 0.840371 141.993 1.21911 142.58C2.02069 143.904 3.2877 144.742 4.62711 145.471C5.96652 146.2 6.99564 146.992 6.31818 148.724C6.08106 149.212 5.9289 149.736 5.86826 150.275C5.88231 150.751 6.01986 151.215 6.2674 151.621C6.51493 152.027 6.86393 152.362 7.28007 152.592C8.11492 153.045 9.02374 153.347 9.96406 153.482L13.2583 154.149C14.215 154.345 15.3941 154.78 15.4406 155.757C15.4717 156.362 15.0166 156.869 14.7839 157.433C14.5883 158.009 14.5663 158.63 14.7208 159.218C14.8753 159.807 15.1993 160.337 15.6527 160.742C16.5787 161.542 17.7294 162.035 18.9469 162.154C20.1519 162.33 21.3723 162.309 22.5669 162.444C24.4357 162.659 26.242 163.248 27.878 164.176C28.2762 164.452 28.7162 164.662 29.1812 164.797C29.8897 164.947 33.5563 164.063 33.6856 163.292Z" fill="black"/>
</g>
<path d="M31.6945 164.43C31.6095 164.422 31.5285 164.39 31.4608 164.337C31.3932 164.285 31.3415 164.215 31.3118 164.135C27.1747 153.239 17.3799 144.53 3.70136 139.607C3.58854 139.566 3.49643 139.482 3.4451 139.374C3.39377 139.265 3.38736 139.141 3.42728 139.028C3.47034 138.916 3.55443 138.826 3.6622 138.775C3.76997 138.724 3.8932 138.716 4.00648 138.753C17.9384 143.77 27.9349 152.67 32.1548 163.814C32.1764 163.87 32.1869 163.929 32.1856 163.988C32.1843 164.048 32.1713 164.106 32.1473 164.16C32.1232 164.215 32.0887 164.264 32.0456 164.305C32.0025 164.346 31.9517 164.378 31.8962 164.399C31.8322 164.424 31.7632 164.435 31.6945 164.43Z" fill="white"/>
<path d="M177.742 127.443L176.796 127.991L175.663 128.659L130.222 155.09C130.573 154.294 130.284 152.706 129.461 151.186C128.505 149.417 127.046 148.021 125.997 147.974L171.133 121.718L173.31 120.472C171.95 121.351 176.362 128.328 177.742 127.443Z" fill="#726BDF"/>
<path d="M173.171 120.534C173.771 120.157 174.826 121.279 175.834 122.701C177.179 124.594 178.275 127.097 177.484 127.593L175.932 128.498L175.374 128.814C176.165 128.297 175.069 125.809 173.724 123.922C172.757 122.556 171.655 121.512 171.04 121.77L173.171 120.534Z" fill="#EBEBEB"/>
<path d="M171.495 121.506C172.886 120.632 177.292 127.645 175.901 128.519L173.791 129.75C175.182 128.876 170.781 121.868 169.39 122.742L171.495 121.506Z" fill="#726BDF"/>
<path d="M167.379 123.906L169.447 122.691C170.802 121.822 175.136 128.55 173.973 129.631L173.9 129.688L171.795 130.898C173.176 129.998 168.76 123.022 167.379 123.906Z" fill="#EBEBEB"/>
<path d="M119.765 155.132L118.255 156.869L119.765 155.132Z" fill="#E0E0E0"/>
<path d="M129.244 149.851C128.376 148.765 127.207 147.979 126.007 147.969L119.765 155.121C120.016 155.161 120.245 155.285 120.417 155.473C121.151 156.455 121.084 156.941 121.084 156.941L130.222 155.08C131.122 153.699 130.511 151.449 129.244 149.851Z" fill="#FFA8A7"/>
<path d="M120.416 155.483C120.34 155.38 120.243 155.295 120.13 155.235C120.017 155.174 119.893 155.139 119.765 155.132L118.255 156.869C118.203 156.925 118.171 156.996 118.163 157.072C118.154 157.147 118.171 157.224 118.209 157.289C118.247 157.355 118.305 157.407 118.375 157.438C118.444 157.468 118.522 157.476 118.596 157.459L121.084 156.942C121.084 156.942 121.192 156.471 120.416 155.483Z" fill="#1C1C1C"/>
<path d="M186.027 122.608L177.753 127.449C177.707 127.474 177.659 127.493 177.608 127.506C178.172 126.844 177.122 124.496 175.844 122.701C174.914 121.393 173.807 120.379 173.181 120.534L181.817 115.482C183.71 114.163 186.203 117.737 186.699 120.291C186.911 121.258 186.725 122.112 186.027 122.608Z" fill="#F28F8F"/>
<path opacity="0.15" d="M186.027 122.608C186.725 122.091 186.885 121.258 186.689 120.291C186.689 120.172 186.632 120.048 186.601 119.924L130.511 152.416L118.281 157.371C118.322 157.41 118.373 157.438 118.428 157.454C118.483 157.469 118.54 157.471 118.596 157.459L121.084 156.941L130.222 155.08L186.027 122.608Z" fill="black"/>
<path d="M150.602 2.56285C149.827 2.14396 148.823 2.20601 147.727 2.83693L38.1023 66.1202C36.7839 66.9652 35.7132 68.1447 34.9994 69.5385L30.583 66.9838C31.5501 65.148 32.9205 64.5222 34.1151 63.8292L143.75 0.535632C144.898 -0.121145 145.938 -0.152175 146.724 0.3236L150.602 2.56285Z" fill="#3F3F3F"/>
<path d="M31.2036 168.738C30.2365 168.195 29.6211 166.912 29.6211 165.087V72.4346C29.6211 70.366 29.7659 68.5095 30.5985 66.9839L35.0149 69.5386C34.9012 69.7454 34.7926 69.9626 34.684 70.185C34.5754 70.4074 34.5236 70.5419 34.4564 70.7022C34.4416 70.7278 34.4311 70.7558 34.4254 70.7849C34.3354 70.9893 34.256 71.1981 34.1875 71.4107C34.1099 71.6279 34.0427 71.8502 33.9858 72.0674C33.9339 72.2371 33.8925 72.4098 33.8617 72.5846C33.6929 73.2858 33.6061 74.0043 33.6031 74.7256V167.372C33.6031 169.219 34.2289 170.512 35.2063 171.044L31.2036 168.738Z" fill="black"/>
<path d="M147.727 2.83151L37.1091 66.6009C34.6216 68.0386 33.5977 70.5053 33.5977 73.8409V167.377C33.5977 170.697 35.6145 172.218 38.102 170.785L147.737 107.492C150.225 106.059 152.241 102.201 152.241 98.8864V6.23434C152.231 2.91942 150.194 1.39384 147.727 2.83151Z" fill="#1C1C1C"/>
<path d="M141.687 106.664L44.1424 162.982C42.8547 163.726 41.8101 162.935 41.8101 161.213V71.4053C41.8101 69.6832 42.8444 67.687 44.1424 66.9424L141.687 10.6251C142.974 9.88038 144.019 10.6716 144.019 12.3937V102.201C144.019 103.924 142.954 105.92 141.687 106.664Z" fill="#726BDF"/>
<path opacity="0.1" d="M141.687 106.664L44.1424 162.982C42.8547 163.726 41.8101 162.935 41.8101 161.213V71.4053C41.8101 69.6832 42.8444 67.687 44.1424 66.9424L141.687 10.6251C142.974 9.88038 144.019 10.6716 144.019 12.3937V102.201C144.019 103.924 142.954 105.92 141.687 106.664Z" fill="black"/>
<path d="M38.8776 121.507C38.8702 121.946 38.7603 122.378 38.5565 122.768C38.3526 123.158 38.0606 123.494 37.7037 123.751C37.0573 124.123 36.5298 123.725 36.5298 122.862C36.5372 122.422 36.6472 121.99 36.851 121.6C37.0548 121.211 37.3468 120.874 37.7037 120.617C38.3501 120.234 38.8776 120.633 38.8776 121.507Z" fill="black"/>
<path d="M37.7039 106.452C37.4254 106.652 37.1975 106.914 37.0385 107.218C36.8796 107.521 36.794 107.858 36.7886 108.2V116.196C36.7886 116.868 37.1971 117.173 37.7039 116.883C37.9811 116.684 38.2078 116.423 38.3658 116.12C38.5239 115.817 38.6089 115.482 38.6141 115.141V107.145C38.6141 106.473 38.2056 106.163 37.7039 106.452Z" fill="black"/>
<path d="M140.523 19.5409C140.451 18.9823 140.006 18.7807 139.489 19.0909L48.3677 71.6796C48.0562 71.8833 47.7974 72.158 47.6127 72.4812L45.6113 71.3435C45.7073 71.1776 45.8218 71.0232 45.9526 70.8832L46.0509 70.7849C46.1464 70.6936 46.2523 70.6137 46.3664 70.5471L137.462 17.9377C137.958 17.6778 138.53 17.6044 139.075 17.7308C139.236 17.7609 139.39 17.8186 139.53 17.9015C139.596 17.9393 139.658 17.9825 139.717 18.0308C139.759 18.0594 139.798 18.0943 139.83 18.1342C139.862 18.1578 139.889 18.1856 139.913 18.217C139.967 18.2706 140.016 18.3295 140.058 18.3928C140.097 18.4424 140.133 18.4942 140.166 18.5479C140.243 18.6666 140.308 18.7932 140.358 18.9255C140.392 18.9974 140.422 19.0717 140.446 19.1478C140.446 19.2047 140.472 19.2564 140.487 19.3185C140.504 19.3917 140.516 19.466 140.523 19.5409Z" fill="#FAFAFA"/>
<path d="M47.8968 155.592C47.5452 155.592 47.3021 155.312 47.3021 154.826V73.5308C47.3171 73.1654 47.4238 72.8097 47.6124 72.4965L45.6111 71.3433C45.4894 71.5495 45.3988 71.7726 45.3421 72.0052C45.3225 72.0921 45.3087 72.1802 45.3008 72.269C45.2982 72.312 45.2982 72.3552 45.3008 72.3982V153.673C45.313 154.033 45.4103 154.384 45.5847 154.699C45.7591 155.013 46.0056 155.282 46.304 155.483C46.6815 155.677 47.1086 155.752 47.5297 155.7C47.8255 155.686 48.1132 155.599 48.3674 155.447C48.224 155.531 48.0629 155.581 47.8968 155.592Z" fill="#E0E0E0"/>
<path d="M140.533 19.7115C140.533 19.0289 140.053 18.7548 139.468 19.0909L48.3676 71.6848C48.0578 71.8875 47.8 72.1603 47.615 72.4809C47.4299 72.8016 47.3228 73.1613 47.3022 73.531V154.826C47.3022 155.509 47.7832 155.783 48.3676 155.447L139.468 102.858C139.778 102.655 140.036 102.381 140.221 102.06C140.406 101.738 140.513 101.377 140.533 101.007V19.7115Z" fill="#F0F0F0"/>
<path d="M61.6423 94.3926L56.5898 100.821L53.642 104.565C53.0054 103.162 52.696 101.632 52.737 100.092C52.737 95.7734 54.6039 90.7829 57.6292 86.9302L58.2963 88.1713L61.6423 94.3926Z" fill="#726BDF"/>
<path d="M65.9712 81.4951L62.015 93.4671L60.2102 90.147L58.1416 86.2735C59.3047 84.8517 60.7043 83.6411 62.2788 82.6949C63.397 82.0078 64.6627 81.5965 65.9712 81.4951Z" fill="#726BDF"/>
<path d="M70.491 84.1738L63.0596 92.7325L66.7675 81.5156C67.5633 81.6045 68.3232 81.8953 68.9749 82.3606C69.6266 82.8258 70.1485 83.45 70.491 84.1738Z" fill="#726BDF"/>
<path d="M71.4789 88.7971C71.4789 95.3286 67.1866 103.127 61.9065 106.168C58.6278 108.066 55.7008 107.719 54.0459 105.263L62.3616 94.7132L62.4082 94.6564L70.8428 84.9443C71.2905 86.1784 71.5062 87.4846 71.4789 88.7971Z" fill="#726BDF"/>
<path opacity="0.7" d="M65.9712 81.4951L62.015 93.4671L60.2102 90.147L58.1416 86.2735C59.3047 84.8517 60.7043 83.6411 62.2788 82.6949C63.397 82.0078 64.6627 81.5965 65.9712 81.4951Z" fill="white"/>
<path opacity="0.3" d="M70.491 84.1738L63.0596 92.7325L66.7675 81.5156C67.5633 81.6045 68.3232 81.8953 68.9749 82.3606C69.6266 82.8258 70.1485 83.45 70.491 84.1738Z" fill="black"/>
<path opacity="0.5" d="M71.4789 88.7971C71.4789 95.3286 67.1866 103.127 61.9065 106.168C58.6278 108.066 55.7008 107.719 54.0459 105.263L62.3616 94.7132L62.4082 94.6564L70.8428 84.9443C71.2905 86.1784 71.5062 87.4846 71.4789 88.7971Z" fill="white"/>
<path d="M54.056 76.2256C54.2148 76.1266 54.3899 76.0565 54.5732 76.0187C54.7073 75.9894 54.8476 76.0116 54.9662 76.0808C55.0882 76.1623 55.1764 76.2855 55.2144 76.4273C55.2788 76.6347 55.3085 76.8514 55.3023 77.0685C55.3062 77.3843 55.2591 77.6986 55.1627 77.9994C55.0776 78.2682 54.9464 78.5202 54.7749 78.7441L55.323 80.0524C55.3283 80.0745 55.3283 80.0976 55.323 80.1197C55.3226 80.1629 55.312 80.2055 55.292 80.2438C55.2784 80.2775 55.255 80.3063 55.2248 80.3265L54.6197 80.673C54.5628 80.7092 54.5214 80.7092 54.4956 80.673C54.4692 80.6482 54.4481 80.6183 54.4335 80.5851L53.9164 79.406L53.5078 79.6439V81.1074C53.5082 81.1596 53.4957 81.2111 53.4716 81.2574C53.4539 81.2987 53.4253 81.3345 53.3889 81.3608L52.8045 81.697C52.7931 81.7072 52.7784 81.7128 52.7631 81.7128C52.7479 81.7128 52.7332 81.7072 52.7218 81.697C52.7087 81.6823 52.6987 81.6651 52.6925 81.6464C52.6863 81.6277 52.6839 81.608 52.6856 81.5884V77.1719C52.6846 77.1197 52.6971 77.068 52.7218 77.022C52.7362 76.9787 52.7655 76.9421 52.8045 76.9185L54.056 76.2256ZM53.5389 78.5889L54.056 78.2993C54.1794 78.2267 54.2853 78.1278 54.3663 78.0097C54.4505 77.8695 54.4919 77.7077 54.4852 77.5443C54.4852 77.3529 54.4439 77.2443 54.3663 77.2185C54.3128 77.2075 54.2575 77.2078 54.2041 77.2194C54.1506 77.231 54.1002 77.2535 54.056 77.2857L53.5389 77.5753V78.5889Z" fill="#3F3F3F"/>
<path d="M58.266 77.487C58.2778 77.4777 58.2923 77.4727 58.3073 77.4727C58.3223 77.4727 58.3369 77.4777 58.3487 77.487C58.3618 77.5017 58.3718 77.5189 58.378 77.5375C58.3842 77.5562 58.3866 77.5759 58.3849 77.5956V78.3247C58.3846 78.3769 58.3722 78.4282 58.3487 78.4747C58.3312 78.5162 58.3026 78.552 58.266 78.5781L56.1612 79.7934C56.1498 79.8036 56.1351 79.8092 56.1198 79.8092C56.1045 79.8092 56.0898 79.8036 56.0784 79.7934C56.0645 79.7793 56.0539 79.7622 56.0477 79.7434C56.0414 79.7245 56.0395 79.7045 56.0422 79.6848V75.2684C56.0425 75.2163 56.0549 75.1649 56.0784 75.1184C56.0959 75.077 56.1245 75.0412 56.1612 75.015L58.2298 73.8204C58.2416 73.8112 58.2561 73.8062 58.2711 73.8062C58.2861 73.8062 58.3007 73.8112 58.3125 73.8204C58.3256 73.8351 58.3356 73.8523 58.3418 73.871C58.348 73.8896 58.3504 73.9094 58.3487 73.929V74.6582C58.3484 74.7103 58.336 74.7616 58.3125 74.8081C58.295 74.8496 58.2664 74.8854 58.2298 74.9116L56.8645 75.6976V76.4372L58.1315 75.7028C58.1429 75.6926 58.1576 75.687 58.1729 75.687C58.1881 75.687 58.2029 75.6926 58.2142 75.7028C58.2282 75.7169 58.2387 75.734 58.245 75.7529C58.2513 75.7717 58.2531 75.7917 58.2504 75.8114V76.5354C58.2508 76.5876 58.2383 76.6391 58.2142 76.6854C58.1981 76.7276 58.1692 76.7638 58.1315 76.7888L56.8645 77.549V78.3144L58.266 77.487Z" fill="#3F3F3F"/>
<path d="M60.5051 72.5017C60.6637 72.4045 60.8391 72.3379 61.0223 72.3052C61.1567 72.2787 61.2962 72.3066 61.4101 72.3828C61.5299 72.4734 61.617 72.6004 61.6584 72.7448C61.7291 72.96 61.7641 73.1854 61.7618 73.4119C61.7644 73.666 61.7366 73.9195 61.6791 74.1669C61.6229 74.3901 61.5396 74.6054 61.4308 74.8082C61.3237 74.9961 61.1934 75.1699 61.043 75.3254C60.8907 75.4823 60.7165 75.6164 60.5258 75.7236L59.9621 76.0494V77.4457C59.96 77.4975 59.9477 77.5485 59.9259 77.5956C59.9095 77.6392 59.8784 77.6758 59.838 77.6991L59.2588 78.0352C59.2474 78.0454 59.2327 78.051 59.2174 78.051C59.2022 78.051 59.1874 78.0454 59.1761 78.0352C59.1627 78.0207 59.1526 78.0035 59.1463 77.9848C59.1401 77.9661 59.1379 77.9462 59.1399 77.9266V73.5102C59.1389 73.4579 59.1514 73.4063 59.1761 73.3602C59.1905 73.317 59.2198 73.2803 59.2588 73.2568L60.5051 72.5017ZM59.9414 74.9634L60.4586 74.6479C60.596 74.5695 60.7088 74.4545 60.7846 74.3157C60.8604 74.1769 60.8961 74.0198 60.8878 73.8618C60.8878 73.6705 60.8516 73.5567 60.7689 73.5153C60.7168 73.4984 60.6614 73.4943 60.6074 73.5033C60.5534 73.5123 60.5024 73.5342 60.4586 73.5671L59.9414 73.8825V74.9634Z" fill="#3F3F3F"/>
<path d="M62.2788 73.2619C62.2895 72.997 62.3259 72.7337 62.3874 72.4758C62.4489 72.2183 62.5391 71.9685 62.6563 71.7311C62.7732 71.501 62.9173 71.2857 63.0856 71.0898C63.2488 70.8967 63.4449 70.7338 63.6648 70.6089C63.8385 70.4979 64.0381 70.4338 64.244 70.4227C64.3983 70.4175 64.5492 70.469 64.668 70.5675C64.7979 70.6841 64.8928 70.8345 64.9421 71.0019C65.0084 71.2148 65.0449 71.4358 65.0507 71.6587C65.0507 71.8501 65.0507 72.0569 65.0507 72.2689C65.0507 72.481 65.0507 72.6878 65.0507 72.8792C65.0395 73.1423 65.0031 73.4038 64.9421 73.6601C64.8803 73.9199 64.7883 74.1715 64.668 74.4099C64.5548 74.641 64.4122 74.8565 64.244 75.0512C64.0782 75.2418 63.8826 75.4042 63.6648 75.5321C63.4907 75.6425 63.2913 75.7066 63.0856 75.7183C62.9284 75.726 62.7745 75.6722 62.6563 75.5683C62.5286 75.4509 62.4355 75.3007 62.3874 75.1339C62.3211 74.9211 62.2846 74.7 62.2788 74.4772C62.2788 74.291 62.2788 74.0945 62.2788 73.8824C62.2788 73.6704 62.2788 73.4584 62.2788 73.2619ZM64.2285 73.3188C64.2285 73.2308 64.2285 73.1377 64.2285 73.0395C64.2285 72.9412 64.2285 72.8326 64.2285 72.7292C64.2285 72.6258 64.2285 72.5223 64.2285 72.4241C64.2285 72.3258 64.2285 72.2431 64.2285 72.1707C64.2256 72.0725 64.2099 71.9752 64.1819 71.8811C64.1633 71.8103 64.1257 71.746 64.0733 71.6949C64.0279 71.6496 63.9668 71.6237 63.9026 71.6225C63.8182 71.6285 63.7365 71.6551 63.6648 71.7001C63.5732 71.7513 63.4924 71.8198 63.4269 71.9018C63.3559 71.9797 63.2983 72.0688 63.2562 72.1655C63.2091 72.2648 63.1727 72.3688 63.1476 72.4758C63.122 72.588 63.1064 72.7022 63.1011 72.8171C63.1011 72.8999 63.1011 72.9929 63.1011 73.0912C63.1011 73.1895 63.1011 73.2877 63.1011 73.3963C63.1011 73.5049 63.1011 73.6032 63.1011 73.7014C63.1011 73.7997 63.1011 73.8876 63.1011 73.9704C63.0955 74.1422 63.1504 74.3106 63.2562 74.4461C63.3441 74.5444 63.4786 74.5444 63.6648 74.4461C63.8477 74.3416 63.9912 74.1799 64.0733 73.9859C64.1654 73.7746 64.2196 73.5488 64.2336 73.3188H64.2285Z" fill="#3F3F3F"/>
<path d="M67.1192 68.6852C67.2784 68.587 67.4534 68.517 67.6364 68.4784C67.77 68.45 67.9093 68.4701 68.0294 68.5353C68.1503 68.6191 68.2395 68.7411 68.2828 68.8817C68.3444 69.0915 68.3723 69.3097 68.3656 69.5282C68.3683 69.8435 68.323 70.1574 68.2311 70.459C68.1431 70.7261 68.0102 70.9762 67.8381 71.1986L68.3862 72.5069C68.3904 72.5292 68.3904 72.552 68.3862 72.5742C68.3858 72.6174 68.3752 72.6599 68.3552 72.6983C68.3429 72.7327 68.3192 72.7619 68.288 72.781L67.6829 73.1327C67.626 73.1637 67.5847 73.1689 67.5588 73.1327C67.5336 73.1069 67.5127 73.0772 67.4967 73.0448L67.0055 71.8657L66.5969 72.0984V73.5619C66.5979 73.6142 66.5854 73.6658 66.5607 73.7119C66.5446 73.7556 66.5158 73.7934 66.478 73.8205L65.8936 74.1515C65.8883 74.1571 65.8819 74.1616 65.8748 74.1647C65.8676 74.1677 65.86 74.1693 65.8522 74.1693C65.8445 74.1693 65.8368 74.1677 65.8297 74.1647C65.8226 74.1616 65.8162 74.1571 65.8109 74.1515C65.7969 74.1374 65.7864 74.1202 65.7801 74.1014C65.7738 74.0826 65.7719 74.0625 65.7746 74.0429V69.6264C65.7743 69.5742 65.7868 69.5228 65.8109 69.4765C65.8286 69.4351 65.8572 69.3994 65.8936 69.373L67.1192 68.6852ZM66.6021 71.0434L67.1192 70.7538C67.2424 70.6831 67.3484 70.5859 67.4295 70.4694C67.5131 70.327 67.5543 70.1638 67.5485 69.9988C67.5485 69.8074 67.5071 69.6988 67.4295 69.673C67.3756 69.663 67.3202 69.6643 67.2668 69.6768C67.2134 69.6892 67.1632 69.7126 67.1192 69.7454L66.6021 70.035V71.0434Z" fill="#3F3F3F"/>
<path d="M71.36 66.234C71.3718 66.2247 71.3863 66.2197 71.4013 66.2197C71.4163 66.2197 71.4309 66.2247 71.4427 66.234C71.4562 66.2494 71.4664 66.2675 71.4726 66.2871C71.4788 66.3067 71.481 66.3273 71.4789 66.3477V67.0717C71.4786 67.1239 71.4662 67.1752 71.4427 67.2217C71.4252 67.2632 71.3966 67.299 71.36 67.3251L70.5791 67.7751V71.2813C70.58 71.3336 70.5676 71.3852 70.5429 71.4313C70.5285 71.4745 70.4991 71.5112 70.4601 71.5347L69.8757 71.8709C69.8644 71.881 69.8496 71.8867 69.8344 71.8867C69.8191 71.8867 69.8044 71.881 69.793 71.8709C69.779 71.8568 69.7685 71.8396 69.7622 71.8208C69.7559 71.802 69.7541 71.7819 69.7568 71.7623V68.2405L68.9759 68.6904C68.9645 68.7006 68.9498 68.7062 68.9345 68.7062C68.9193 68.7062 68.9045 68.7006 68.8932 68.6904C68.8801 68.6757 68.8701 68.6585 68.8639 68.6398C68.8577 68.6212 68.8553 68.6014 68.857 68.5818V67.8578C68.8566 67.804 68.869 67.7508 68.8932 67.7027C68.9106 67.6612 68.9393 67.6254 68.9759 67.5992L71.36 66.234Z" fill="#3F3F3F"/>
<path d="M75.4917 63.855L133.614 30.2974V34.9258L75.4917 68.4835V63.855Z" fill="#726BDF"/>
<g opacity="0.3">
<path d="M75.1303 78.4334C75.0444 78.434 74.9599 78.4118 74.8855 78.3691C74.811 78.3264 74.7491 78.2647 74.7062 78.1904C74.6453 78.0759 74.6295 77.9428 74.6621 77.8174C74.6947 77.6919 74.7731 77.5832 74.882 77.5129L108.957 57.8613C109.067 57.8282 109.185 57.8326 109.292 57.874C109.399 57.9153 109.49 57.9912 109.549 58.0897C109.608 58.1881 109.633 58.3035 109.619 58.4176C109.606 58.5317 109.555 58.638 109.474 58.7198L75.4043 78.3714C75.3205 78.4169 75.2256 78.4384 75.1303 78.4334Z" fill="#3F3F3F"/>
<path d="M75.1303 83.0621C75.0444 83.0626 74.9599 83.0404 74.8855 82.9977C74.811 82.955 74.7491 82.8934 74.7062 82.819C74.6453 82.7046 74.6295 82.5715 74.6621 82.446C74.6947 82.3206 74.7731 82.2119 74.882 82.1416L108.957 62.49C109.067 62.4568 109.185 62.4613 109.292 62.5027C109.399 62.544 109.49 62.6199 109.549 62.7183C109.608 62.8167 109.633 62.9321 109.619 63.0462C109.606 63.1603 109.555 63.2666 109.474 63.3484L75.4043 83C75.3205 83.0456 75.2256 83.0671 75.1303 83.0621Z" fill="#3F3F3F"/>
<path d="M75.1303 87.6905C75.0444 87.691 74.9599 87.6688 74.8855 87.6261C74.811 87.5834 74.7491 87.5218 74.7062 87.4474C74.6453 87.333 74.6295 87.1999 74.6621 87.0744C74.6947 86.949 74.7731 86.8403 74.882 86.77L108.957 67.1184C109.067 67.0853 109.185 67.0897 109.292 67.1311C109.399 67.1724 109.49 67.2483 109.549 67.3467C109.608 67.4452 109.633 67.5605 109.619 67.6746C109.606 67.7887 109.555 67.8951 109.474 67.9769L75.4043 87.6284C75.3205 87.674 75.2256 87.6955 75.1303 87.6905Z" fill="#3F3F3F"/>
<path d="M75.1303 92.3189C75.0444 92.3194 74.9599 92.2972 74.8855 92.2545C74.811 92.2118 74.7491 92.1502 74.7062 92.0758C74.6453 91.9614 74.6295 91.8283 74.6621 91.7028C74.6947 91.5774 74.7731 91.4687 74.882 91.3984L108.957 71.7468C109.012 71.6891 109.079 71.6448 109.154 71.6174C109.228 71.59 109.308 71.5802 109.387 71.5887C109.466 71.5972 109.542 71.6238 109.609 71.6665C109.677 71.7092 109.733 71.7668 109.774 71.8348C109.815 71.9028 109.84 71.9794 109.847 72.0587C109.854 72.1379 109.842 72.2176 109.813 72.2917C109.784 72.3657 109.739 72.4321 109.68 72.4856C109.621 72.539 109.55 72.5782 109.474 72.6001L75.4043 92.2517C75.321 92.2991 75.2261 92.3223 75.1303 92.3189Z" fill="#3F3F3F"/>
<path d="M75.1301 96.9523C75.0398 96.9499 74.9516 96.9237 74.8745 96.8765C74.7974 96.8293 74.7339 96.7628 74.6906 96.6834C74.6296 96.569 74.6139 96.4359 74.6465 96.3104C74.679 96.185 74.7575 96.0763 74.8664 96.006L108.941 76.3544C109.05 76.3232 109.167 76.3288 109.272 76.3702C109.378 76.4116 109.467 76.4866 109.526 76.5836C109.584 76.6806 109.61 76.7942 109.597 76.907C109.585 77.0198 109.536 77.1254 109.458 77.2077L75.3887 96.8592C75.3125 96.913 75.2232 96.9452 75.1301 96.9523Z" fill="#3F3F3F"/>
</g>
<path d="M114.102 53.0985L118.488 50.5697C118.782 50.399 119.005 50.5386 119.005 50.8799V55.9428C118.997 56.1261 118.946 56.3049 118.856 56.4648C118.766 56.6247 118.64 56.7612 118.488 56.8633L114.102 59.3974C113.807 59.568 113.585 59.4284 113.585 59.0871V54.0242C113.594 53.8404 113.645 53.6612 113.735 53.5005C113.824 53.3399 113.95 53.2023 114.102 53.0985Z" fill="#726BDF"/>
<path d="M121.373 48.9043L125.759 46.3754C126.053 46.2048 126.276 46.3392 126.276 46.6805V51.7434C126.268 51.9274 126.217 52.1069 126.127 52.2677C126.037 52.4284 125.911 52.5659 125.759 52.6691L121.373 55.1979C121.078 55.3686 120.856 55.2341 120.856 54.8928V49.8299C120.864 49.646 120.915 49.4664 121.005 49.3057C121.094 49.1449 121.221 49.0075 121.373 48.9043Z" fill="#726BDF"/>
<path d="M128.644 44.705L133.024 42.1761C133.319 42.0054 133.541 42.1451 133.541 42.4864V47.5544C133.533 47.7383 133.482 47.9177 133.392 48.0784C133.303 48.2391 133.177 48.3766 133.024 48.4801L128.644 51.0141C128.349 51.1848 128.127 51.0452 128.127 50.7039V45.641C128.134 45.4553 128.184 45.2739 128.274 45.1113C128.364 44.9487 128.491 44.8095 128.644 44.705Z" fill="#726BDF"/>
<path d="M114.102 61.5177L118.488 58.9837C118.782 58.8131 119.005 58.9527 119.005 59.294V64.3569C118.997 64.5408 118.946 64.7204 118.856 64.8811C118.766 65.0419 118.64 65.1794 118.488 65.2826L114.102 67.8114C113.807 67.9821 113.585 67.8425 113.585 67.5011V62.4434C113.593 62.2595 113.644 62.0799 113.734 61.9192C113.823 61.7584 113.95 61.6209 114.102 61.5177Z" fill="#726BDF"/>
<path d="M121.373 57.2973L125.759 54.7685C126.053 54.5978 126.276 54.7323 126.276 55.0736V60.1365C126.268 60.3204 126.217 60.5 126.127 60.6607C126.037 60.8215 125.911 60.959 125.759 61.0622L121.373 63.5858C121.078 63.7565 120.856 63.622 120.856 63.2807V58.2178C120.865 58.0348 120.916 57.8563 121.006 57.6965C121.096 57.5367 121.221 57.4 121.373 57.2973Z" fill="#726BDF"/>
<path d="M128.644 53.1037L133.024 50.5697C133.319 50.399 133.541 50.5386 133.541 50.8799V55.9428C133.533 56.126 133.482 56.3046 133.392 56.4645C133.302 56.6244 133.176 56.7609 133.024 56.8633L128.644 59.3974C128.349 59.568 128.127 59.4284 128.127 59.0871V54.0242C128.135 53.841 128.186 53.6624 128.276 53.5025C128.366 53.3427 128.492 53.2061 128.644 53.1037Z" fill="#726BDF"/>
<path d="M114.102 69.8903L118.488 67.3563C118.782 67.1856 119.005 67.3253 119.005 67.6666V72.7294C118.997 72.9134 118.946 73.093 118.856 73.2537C118.766 73.4145 118.64 73.5519 118.488 73.6551L114.102 76.184C113.807 76.3546 113.585 76.215 113.585 75.8789V70.8263C113.591 70.6406 113.641 70.459 113.731 70.2963C113.821 70.1337 113.948 69.9945 114.102 69.8903Z" fill="#726BDF"/>
<path d="M121.373 65.6909L125.759 63.1621C126.053 62.9914 126.276 63.131 126.276 63.4672V68.5301C126.268 68.714 126.217 68.8936 126.127 69.0543C126.037 69.2151 125.911 69.3526 125.759 69.4558L121.373 71.9898C121.078 72.1604 120.856 72.0208 120.856 71.6795V66.6166C120.864 66.4327 120.915 66.2531 121.005 66.0924C121.094 65.9316 121.221 65.7941 121.373 65.6909Z" fill="#726BDF"/>
<path d="M128.644 61.5177L133.024 58.9837C133.319 58.8131 133.541 58.9527 133.541 59.294V64.3569C133.533 64.5408 133.482 64.7202 133.392 64.8808C133.303 65.0415 133.177 65.1791 133.024 65.2826L128.644 67.8114C128.349 67.9821 128.127 67.8425 128.127 67.5011V62.4434C128.135 62.2596 128.186 62.0802 128.276 61.9195C128.366 61.7588 128.492 61.6212 128.644 61.5177Z" fill="#726BDF"/>
<path d="M53.4458 143.697L109.567 111.298V113.61L53.4458 146.014V143.697Z" fill="#3F3F3F"/>
<path d="M53.4458 141.386V127.495L58.3897 130.35L63.1475 121.527L68.8257 124.806L71.4839 121.714L75.4918 124.025L81.32 115.311L85.9743 117.256L91.5233 105.511L95.4123 112.26L100.713 104.57L102.694 108.319L109.567 97.4128V108.981L53.4458 141.386Z" fill="#726BDF"/>
<path d="M53.4458 126.208L58.0536 128.654L62.8372 119.759L68.5465 123.058L71.1115 120.064L75.1194 122.381L80.8598 113.982L85.5141 115.927L91.5233 103.2L95.5364 110.14L100.837 102.45L102.776 106.204L109.567 95.427V85.8391L102.466 96.9009L99.5443 91.626L95.5364 98.5661L91.5233 96.2544L87.5154 103.2L83.5075 100.883L77.4931 111.298L73.4852 107.828L69.5136 113.589L63.2509 110.14L58.1777 118.662L53.4458 115.927V126.208Z" fill="#726BDF"/>
<path opacity="0.3" d="M53.4458 126.208L58.0536 128.654L62.8372 119.759L68.5465 123.058L71.1115 120.064L75.1194 122.381L80.8598 113.982L85.5141 115.927L91.5233 103.2L95.5364 110.14L100.837 102.45L102.776 106.204L109.567 95.427V85.8391L102.466 96.9009L99.5443 91.626L95.5364 98.5661L91.5233 96.2544L87.5154 103.2L83.5075 100.883L77.4931 111.298L73.4852 107.828L69.5136 113.589L63.2509 110.14L58.1777 118.662L53.4458 115.927V126.208Z" fill="black"/>
<g opacity="0.3">
<path d="M113.569 84.0187C113.468 84.005 113.374 83.9618 113.297 83.8946C113.221 83.8274 113.166 83.7391 113.139 83.6408C113.113 83.5425 113.116 83.4386 113.148 83.3421C113.181 83.2455 113.241 83.1607 113.321 83.0981L133.366 71.5244C133.476 71.4913 133.594 71.4957 133.701 71.5371C133.808 71.5784 133.898 71.6543 133.958 71.7527C134.017 71.8512 134.042 71.9665 134.028 72.0806C134.015 72.1947 133.964 72.3011 133.883 72.3829L113.838 83.9514C113.757 83.9995 113.664 84.0228 113.569 84.0187Z" fill="#3F3F3F"/>
<path d="M113.569 88.6473C113.468 88.6337 113.374 88.5905 113.297 88.5233C113.221 88.4561 113.166 88.3678 113.139 88.2695C113.113 88.1712 113.116 88.0673 113.148 87.9707C113.181 87.8742 113.241 87.7893 113.321 87.7268L133.366 76.1531C133.476 76.1199 133.594 76.1244 133.701 76.1657C133.808 76.2071 133.898 76.283 133.958 76.3814C134.017 76.4798 134.042 76.5952 134.028 76.7093C134.015 76.8234 133.964 76.9297 133.883 77.0115L113.838 88.5801C113.757 88.6281 113.664 88.6515 113.569 88.6473Z" fill="#3F3F3F"/>
<path d="M113.569 93.2755C113.468 93.2618 113.374 93.2187 113.297 93.1515C113.221 93.0843 113.166 92.996 113.139 92.8977C113.113 92.7994 113.116 92.6955 113.148 92.5989C113.181 92.5024 113.241 92.4175 113.321 92.355L133.366 80.7812C133.476 80.7481 133.594 80.7526 133.701 80.7939C133.808 80.8353 133.898 80.9111 133.958 81.0096C134.017 81.108 134.042 81.2234 134.028 81.3375C134.015 81.4516 133.964 81.5579 133.883 81.6397L113.838 93.2083C113.757 93.2563 113.664 93.2797 113.569 93.2755Z" fill="#3F3F3F"/>
<path d="M113.569 97.904C113.468 97.8903 113.374 97.8471 113.297 97.7799C113.221 97.7127 113.166 97.6244 113.139 97.5261C113.113 97.4278 113.116 97.3239 113.148 97.2274C113.181 97.1308 113.241 97.046 113.321 96.9834L133.366 85.4149C133.48 85.3554 133.611 85.3405 133.736 85.373C133.86 85.4055 133.968 85.4831 134.038 85.5907C134.099 85.7051 134.115 85.8382 134.082 85.9637C134.049 86.0891 133.971 86.1978 133.862 86.2681L113.818 97.8367C113.742 97.881 113.657 97.9042 113.569 97.904Z" fill="#3F3F3F"/>
<path d="M113.569 102.532C113.468 102.519 113.374 102.476 113.297 102.408C113.221 102.341 113.166 102.253 113.139 102.155C113.113 102.056 113.116 101.952 113.148 101.856C113.181 101.759 113.241 101.674 113.321 101.612L133.366 90.0433C133.48 89.9839 133.611 89.9689 133.736 90.0014C133.86 90.034 133.968 90.1115 134.038 90.2191C134.099 90.3335 134.115 90.4666 134.082 90.5921C134.049 90.7176 133.971 90.8262 133.862 90.8966L113.818 102.465C113.742 102.509 113.657 102.533 113.569 102.532Z" fill="#3F3F3F"/>
<path d="M113.569 107.161C113.468 107.147 113.374 107.104 113.297 107.037C113.221 106.97 113.166 106.882 113.139 106.783C113.113 106.685 113.116 106.581 113.148 106.484C113.181 106.388 113.241 106.303 113.321 106.241L133.366 94.6719C133.48 94.6125 133.611 94.5976 133.736 94.6301C133.86 94.6626 133.968 94.7402 134.038 94.8478C134.099 94.9622 134.115 95.0953 134.082 95.2208C134.049 95.3462 133.971 95.4549 133.862 95.5252L113.818 107.094C113.742 107.138 113.657 107.161 113.569 107.161Z" fill="#3F3F3F"/>
<path d="M113.569 111.789C113.468 111.776 113.374 111.732 113.297 111.665C113.221 111.598 113.166 111.51 113.139 111.411C113.113 111.313 113.116 111.209 113.148 111.113C113.181 111.016 113.241 110.931 113.321 110.869L133.366 99.3002C133.475 99.269 133.591 99.2746 133.697 99.316C133.802 99.3574 133.891 99.4324 133.95 99.5294C134.009 99.6264 134.034 99.74 134.022 99.8528C134.01 99.9656 133.961 100.071 133.883 100.153L113.838 111.722C113.757 111.77 113.664 111.793 113.569 111.789Z" fill="#3F3F3F"/>
</g>
<path d="M52.8926 179.908V180.978C52.9009 181.163 52.952 181.343 53.0417 181.505C53.1314 181.666 53.2574 181.805 53.4097 181.909L113.787 216.765C113.953 216.849 114.138 216.893 114.324 216.893C114.511 216.893 114.695 216.849 114.862 216.765L158.132 191.839C158.284 191.734 158.41 191.595 158.5 191.434C158.59 191.272 158.641 191.092 158.649 190.908V189.822C158.641 189.637 158.59 189.457 158.501 189.295C158.411 189.134 158.285 188.995 158.132 188.891L97.7551 154.004C97.5892 153.92 97.4058 153.876 97.2198 153.876C97.0338 153.876 96.8505 153.92 96.6846 154.004L53.4304 178.977C53.2743 179.079 53.1443 179.217 53.0509 179.379C52.9575 179.54 52.9032 179.722 52.8926 179.908Z" fill="#726BDF"/>
<path opacity="0.5" d="M158.204 188.912C158.427 189.082 158.401 189.331 158.132 189.486L114.883 214.454C114.724 214.539 114.546 214.584 114.366 214.583V216.91C114.546 216.911 114.724 216.866 114.883 216.781L158.132 191.839C158.284 191.734 158.41 191.596 158.5 191.434C158.59 191.273 158.641 191.092 158.649 190.908V189.822C158.646 189.647 158.604 189.475 158.527 189.317C158.451 189.16 158.34 189.022 158.204 188.912Z" fill="black"/>
<path opacity="0.6" d="M53.3478 179.04L53.3013 179.076L53.2289 179.148C53.0878 179.313 52.9932 179.513 52.9548 179.727C52.9526 179.772 52.9526 179.817 52.9548 179.862V180.979C52.9643 181.163 53.0159 181.343 53.1055 181.504C53.1951 181.666 53.3205 181.804 53.472 181.91L113.849 216.765C114.008 216.851 114.186 216.895 114.366 216.895V214.593C114.186 214.596 114.008 214.553 113.849 214.469L53.4306 179.598C53.3409 179.553 53.2696 179.478 53.2289 179.386C53.2086 179.336 53.2037 179.282 53.2148 179.229C53.2258 179.177 53.2524 179.129 53.291 179.091C53.3073 179.071 53.3265 179.054 53.3478 179.04Z" fill="black"/>
<g opacity="0.3">
<path d="M52.9337 179.639C52.9146 179.705 52.9024 179.773 52.8975 179.841C52.8975 179.841 52.8975 179.8 52.8975 179.779C52.907 179.732 52.9191 179.685 52.9337 179.639Z" fill="black"/>
<path d="M158.132 189.486L114.883 214.454C114.724 214.539 114.546 214.584 114.366 214.583C114.185 214.583 114.008 214.539 113.849 214.454L53.4716 179.598C53.3796 179.556 53.3074 179.48 53.2699 179.386C53.2523 179.336 53.2487 179.282 53.2596 179.23C53.2706 179.178 53.2956 179.13 53.332 179.091C53.3437 179.074 53.3598 179.059 53.3785 179.05L53.4613 178.988L96.7103 154.015C96.8771 153.931 97.0613 153.887 97.2481 153.887C97.4349 153.887 97.6191 153.931 97.7859 154.015L158.163 188.876L158.235 188.922C158.427 189.093 158.401 189.331 158.132 189.486Z" fill="black"/>
<path opacity="0.15" d="M53.2233 179.148L53.1821 179.2C53.198 179.184 53.2118 179.167 53.2233 179.148Z" fill="black"/>
</g>
<path d="M69.2445 164.461C69.2445 165.433 70.5994 166.457 70.9718 167.321C71.0044 167.391 71.032 167.463 71.0545 167.538C70.8684 168.153 70.2995 168.572 70.1806 168.991C70.1504 169.083 70.1347 169.179 70.134 169.275V170.118C70.1467 170.309 70.1726 170.5 70.2116 170.687C70.1816 170.891 70.1349 171.091 70.072 171.287C69.9519 171.619 69.8856 171.968 69.8754 172.321V173.113C69.8571 173.262 69.8862 173.414 69.9585 173.547C70.0308 173.68 70.1428 173.786 70.2788 173.852L72.7042 175.248L90.8302 164.781V163.98L88.4048 162.578C88.0308 162.385 87.6086 162.304 87.1895 162.346H87.0292C86.6207 162.346 86.088 162.387 85.3692 162.465C84.4645 162.568 83.5522 162.589 82.6438 162.527C82.3904 162.527 82.168 162.496 81.9405 162.496C81.7677 162.494 81.595 162.502 81.4233 162.521C80.389 162.625 79.2927 163.276 77.1982 162.992H77.131C75.6468 162.775 73.8885 161.999 72.2078 161.994H72.0423C71.3689 161.998 70.7081 162.177 70.1237 162.511C69.4721 162.883 69.229 163.287 69.229 163.69C69.2393 163.794 69.2445 164.331 69.2445 164.461ZM71.9957 165.019C72.0982 164.84 72.2486 164.693 72.4301 164.595C72.5723 164.516 72.7233 164.453 72.8801 164.409C74.0124 164.158 75.1978 164.342 76.2001 164.926C76.6129 165.137 76.9533 165.467 77.1775 165.872C77.073 166.052 76.9209 166.199 76.738 166.297C75.9646 166.645 75.0934 166.711 74.2764 166.483C73.817 166.376 73.376 166.202 72.968 165.966C72.5558 165.756 72.2168 165.426 71.9957 165.019Z" fill="black"/>
<path d="M87.1899 162.315H87.0296C86.6211 162.315 86.0884 162.356 85.3696 162.433C84.4632 162.537 83.5492 162.558 82.6391 162.496C82.3908 162.496 82.1685 162.465 81.9409 162.465C81.7682 162.463 81.5955 162.471 81.4238 162.49C80.3895 162.594 79.2931 163.245 77.1987 162.961H77.1314C75.6472 162.744 73.8889 161.968 72.2082 161.963H72.0427C71.3693 161.967 70.7085 162.146 70.1241 162.48C67.9107 163.757 70.4292 165.298 70.9567 166.524C71.4842 167.75 70.3413 168.396 70.1655 169.001C69.9896 169.606 70.4758 169.937 70.0569 171.272C69.638 172.606 69.9586 172.849 70.2637 173.025L72.6892 174.426L90.8151 163.959L88.3897 162.558C88.0214 162.363 87.6049 162.279 87.1899 162.315ZM73.5993 172.502C73.4385 172.566 73.2654 172.591 73.0932 172.577C72.9211 172.562 72.7545 172.509 72.6064 172.42C72.2909 172.239 72.2237 171.98 72.4616 171.846C72.623 171.781 72.7972 171.755 72.9704 171.769C73.1436 171.784 73.3111 171.838 73.4597 171.928C73.77 172.109 73.8424 172.368 73.5993 172.502ZM76.7384 166.297C75.965 166.645 75.0938 166.711 74.2768 166.483C73.8174 166.376 73.3765 166.202 72.9684 165.966C71.779 165.278 71.5411 164.3 72.4513 163.788C72.5931 163.707 72.7442 163.643 72.9012 163.597C74.0337 163.35 75.2176 163.534 76.2213 164.114C77.39 164.792 77.6331 165.764 76.7591 166.281L76.7384 166.297ZM87.5985 164.445C87.4368 164.508 87.2628 164.534 87.0898 164.52C86.9168 164.505 86.7494 164.451 86.6004 164.362C86.2849 164.181 86.2177 163.923 86.4556 163.788C86.6168 163.723 86.7911 163.696 86.9645 163.71C87.138 163.725 87.3055 163.78 87.4537 163.871C87.7588 164.037 87.8209 164.29 87.5882 164.43L87.5985 164.445Z" fill="#1C1C1C"/>
<path d="M112.67 210.663L150.303 188.943C150.397 188.882 150.476 188.8 150.533 188.703C150.59 188.606 150.622 188.496 150.628 188.384V187.965C150.622 187.853 150.589 187.744 150.532 187.647C150.476 187.55 150.397 187.468 150.303 187.407L100.579 158.69C100.48 158.639 100.37 158.612 100.258 158.612C100.147 158.612 100.037 158.639 99.9376 158.69L62.2996 180.41C62.2059 180.471 62.1279 180.553 62.0722 180.651C62.0165 180.748 61.9845 180.857 61.979 180.968V181.387C61.9857 181.499 62.0182 181.607 62.0738 181.704C62.1294 181.801 62.2067 181.884 62.2996 181.946L112.023 210.653C112.123 210.705 112.233 210.733 112.345 210.735C112.458 210.737 112.569 210.712 112.67 210.663Z" fill="#FAFAFA"/>
<path d="M150.385 187.458C150.478 187.557 150.452 187.686 150.307 187.769L112.669 209.489C112.571 209.542 112.46 209.568 112.349 209.566V210.73C112.462 210.732 112.574 210.706 112.674 210.652L150.307 188.932C150.403 188.872 150.482 188.79 150.539 188.693C150.595 188.596 150.628 188.486 150.633 188.374V187.955C150.627 187.859 150.603 187.766 150.56 187.681C150.517 187.596 150.458 187.52 150.385 187.458Z" fill="#F0F0F0"/>
<path d="M62.2321 180.461L62.1442 180.549L62.108 180.601C62.0719 180.655 62.0408 180.712 62.0149 180.772C62.0004 180.81 61.99 180.85 61.9839 180.891C61.9813 180.918 61.9813 180.946 61.9839 180.973V181.387C61.9894 181.499 62.0213 181.608 62.0771 181.705C62.1328 181.802 62.2107 181.884 62.3045 181.946L112.028 210.658C112.127 210.71 112.237 210.737 112.349 210.735V209.577C112.235 209.579 112.123 209.553 112.023 209.499L62.2786 180.792C62.1494 180.704 62.1235 180.57 62.2321 180.461Z" fill="#E0E0E0"/>
<path d="M75.0576 175.217V176.024C75.0758 176.429 75.2245 176.817 75.4817 177.131L97.6569 164.337V163.53C96.9883 163.184 96.2482 162.998 95.4953 162.987H95.4642C94.9568 162.983 94.4544 163.087 93.9904 163.292C92.382 164.021 91.9218 164.254 90.9288 164.668C90.6785 164.757 90.41 164.785 90.1468 164.747C89.8836 164.709 89.6336 164.607 89.4188 164.45L89.3878 164.424L88.7206 163.814L86.9261 162.149C86.8121 162.046 86.6775 161.969 86.5312 161.923C86.3849 161.876 86.2304 161.862 86.078 161.88H86.0315C85.8892 161.883 85.7475 161.897 85.6074 161.922C84.9976 162.019 84.3762 162.019 83.7664 161.922C83.0421 161.853 82.3503 161.588 81.765 161.156C80.898 160.427 79.7947 160.039 78.6621 160.065H78.5742C77.8555 160.063 77.1466 160.231 76.5056 160.556C75.43 161.12 74.9542 162.046 75.1662 162.951C75.0969 163.333 75.1319 163.727 75.2675 164.091C75.4031 164.455 75.6343 164.775 75.9368 165.019C76.2087 165.267 76.3906 165.598 76.4539 165.96C76.4017 166.337 76.252 166.694 76.0195 166.995C75.8811 167.134 75.7952 167.317 75.7765 167.512C75.7765 167.703 75.7765 168.2 75.7765 168.319C75.7768 168.396 75.7947 168.473 75.8287 168.543C75.8627 168.613 75.912 168.674 75.973 168.722L78.0415 170.625L78.7035 171.235L78.7759 171.313C78.7302 171.389 78.6783 171.462 78.6208 171.53L75.9419 173.625C75.6902 173.812 75.4812 174.051 75.3287 174.326C75.1763 174.601 75.0839 174.904 75.0576 175.217ZM80.9789 163.054C80.8317 163.417 80.5528 163.711 80.1981 163.876C79.4703 164.226 78.6341 164.274 77.8709 164.011C77.544 163.9 77.2431 163.724 76.9866 163.494C76.7946 163.325 76.6472 163.112 76.5573 162.873C76.7073 162.511 76.9852 162.216 77.3382 162.046C77.4378 161.992 77.5416 161.947 77.6485 161.911C78.136 161.742 78.6586 161.701 79.1665 161.792C79.6743 161.882 80.1506 162.102 80.5497 162.428C80.7424 162.598 80.8899 162.813 80.9789 163.054Z" fill="#1C1C1C"/>
<path d="M95.495 162.987H95.464C94.9566 162.983 94.4541 163.087 93.9901 163.292C92.3818 164.021 91.9215 164.254 90.9286 164.668C90.6783 164.757 90.4098 164.785 90.1466 164.747C89.8833 164.709 89.6334 164.607 89.4185 164.45L89.3875 164.424L88.7204 163.814L86.9259 162.149C86.8119 162.046 86.6772 161.969 86.5309 161.923C86.3847 161.876 86.2301 161.862 86.0778 161.88H86.0312C85.889 161.883 85.7472 161.897 85.6072 161.922C84.9974 162.019 84.3759 162.019 83.7661 161.922C83.0419 161.853 82.3501 161.588 81.7648 161.156C80.8977 160.427 79.7945 160.039 78.6619 160.065H78.574C77.8553 160.063 77.1464 160.231 76.5054 160.556C74.9074 161.399 74.6488 163.033 75.9365 164.212C76.7484 164.957 76.5106 166.384 75.9986 166.995C75.4866 167.605 75.9572 167.936 75.9572 167.936L78.0258 169.844L78.6877 170.449C79.2049 170.904 78.605 171.551 78.605 171.551L75.9262 173.645C74.7678 174.68 74.8298 175.538 75.4349 176.36L97.6101 163.561C96.9581 163.211 96.2346 163.014 95.495 162.987ZM80.5495 161.627C81.3355 162.351 81.1856 163.359 80.1978 163.876C79.47 164.226 78.6338 164.274 77.8706 164.011C77.5437 163.9 77.2428 163.724 76.9863 163.494C76.1951 162.77 76.3502 161.761 77.338 161.244C77.4385 161.191 77.5421 161.145 77.6483 161.104C78.1362 160.936 78.659 160.896 79.1669 160.988C79.6748 161.079 80.1508 161.299 80.5495 161.627Z" fill="#3F3F3F"/>
<path opacity="0.1" d="M79.4169 187.07L91.1872 193.861C91.3045 193.922 91.4349 193.954 91.5673 193.954C91.6996 193.954 91.83 193.922 91.9474 193.861L108.191 184.485C108.403 184.361 108.403 184.164 108.191 184.045L96.4104 177.25C96.2914 177.191 96.1604 177.16 96.0277 177.16C95.8949 177.16 95.764 177.191 95.645 177.25L79.4014 186.626C79.3568 186.644 79.319 186.676 79.293 186.717C79.2669 186.757 79.2538 186.805 79.2555 186.853C79.2572 186.902 79.2735 186.948 79.3024 186.987C79.3312 187.026 79.3712 187.055 79.4169 187.07Z" fill="#726BDF"/>
<path d="M91.5749 192.015L82.623 186.848L83.2384 186.491L92.1903 191.663L91.5749 192.015Z" fill="#726BDF"/>
<path d="M92.0562 192.454L92.9508 191.937L93.2249 192.098L92.3302 192.615L92.0562 192.454Z" fill="#3F3F3F"/>
<path d="M92.7489 191.337L85.5864 187.205L86.2018 186.848L93.3643 190.985L92.7489 191.337Z" fill="#726BDF"/>
<path d="M93.23 191.777L94.1246 191.26L94.3987 191.42L93.5041 191.937L93.23 191.777Z" fill="#3F3F3F"/>
<path d="M94.5381 190.303L86.7603 185.814L87.3757 185.457L95.1535 189.951L94.5381 190.303Z" fill="#726BDF"/>
<path d="M95.019 190.742L95.9137 190.225L96.1878 190.38L95.2931 190.898L95.019 190.742Z" fill="#3F3F3F"/>
<path d="M95.7124 189.625L89.2739 185.912L89.8893 185.555L96.3278 189.273L95.7124 189.625Z" fill="#726BDF"/>
<path d="M96.1934 190.065L97.088 189.548L97.3621 189.703L96.4674 190.22L96.1934 190.065Z" fill="#3F3F3F"/>
<path d="M97.5016 188.596L93.9126 186.522L94.5332 186.166L98.117 188.239L97.5016 188.596Z" fill="#726BDF"/>
<path d="M97.9829 189.036L98.8724 188.519L99.1517 188.674L98.257 189.191L97.9829 189.036Z" fill="#3F3F3F"/>
<path d="M98.6757 187.919L94.6006 185.566L95.2212 185.209L99.2911 187.562L98.6757 187.919Z" fill="#726BDF"/>
<path d="M99.1514 188.353L100.051 187.841L100.325 187.996L99.4255 188.513L99.1514 188.353Z" fill="#3F3F3F"/>
<path d="M100.465 186.884L95.5571 184.05L96.1725 183.694L101.08 186.528L100.465 186.884Z" fill="#726BDF"/>
<path d="M100.956 187.319L101.851 186.802L102.125 186.957L101.23 187.474L100.956 187.319Z" fill="#3F3F3F"/>
<path d="M101.639 186.207L98.4429 184.361L99.0634 184.004L102.254 185.85L101.639 186.207Z" fill="#726BDF"/>
<path d="M102.13 186.641L103.025 186.124L103.299 186.279L102.404 186.797L102.13 186.641Z" fill="#3F3F3F"/>
<path d="M103.428 185.173L102.032 184.366L102.652 184.009L104.043 184.816L103.428 185.173Z" fill="#726BDF"/>
<path d="M91.5749 192.015L82.623 186.848L83.2384 186.491L92.1903 191.663L91.5749 192.015Z" fill="#726BDF"/>
<path d="M94.5381 190.303L86.7603 185.814L87.3757 185.457L95.1535 189.951L94.5381 190.303Z" fill="#726BDF"/>
<path d="M97.5016 188.596L93.9126 186.522L94.5332 186.166L98.117 188.239L97.5016 188.596Z" fill="#726BDF"/>
<path d="M100.465 186.884L95.5571 184.05L96.1725 183.694L101.08 186.528L100.465 186.884Z" fill="#726BDF"/>
<path d="M103.428 185.173L102.032 184.366L102.652 184.009L104.043 184.816L103.428 185.173Z" fill="#726BDF"/>
<path d="M103.919 185.602L104.814 185.09L105.088 185.245L104.194 185.762L103.919 185.602Z" fill="#3F3F3F"/>
<path d="M104.602 184.495L103.909 184.092L104.525 183.74L105.223 184.138L104.602 184.495Z" fill="#726BDF"/>
<path d="M105.093 184.925L105.988 184.413L106.262 184.568L105.367 185.085L105.093 184.925Z" fill="#3F3F3F"/>
<path d="M91.2597 181.501L90.5874 181.884L91.2597 182.272L91.9268 181.884L91.2597 181.501Z" fill="#726BDF"/>
<path opacity="0.25" d="M91.2597 181.501L90.5874 181.884L91.2597 182.272L91.9268 181.884L91.2597 181.501Z" fill="black"/>
<path d="M96.5451 178.553L91.7563 181.325C91.6581 181.382 91.6581 181.47 91.7563 181.527L91.8856 181.599C91.9399 181.627 92.0002 181.642 92.0614 181.642C92.1226 181.642 92.1829 181.627 92.2373 181.599L97.0364 178.832C97.0565 178.824 97.0738 178.81 97.086 178.792C97.0982 178.774 97.1047 178.753 97.1047 178.732C97.1047 178.71 97.0982 178.689 97.086 178.671C97.0738 178.653 97.0565 178.639 97.0364 178.631L96.9071 178.553C96.8514 178.523 96.7893 178.508 96.7261 178.508C96.6629 178.508 96.6007 178.523 96.5451 178.553Z" fill="#3F3F3F"/>
<path d="M92.3769 182.142L91.7046 182.53L92.3769 182.918L93.0492 182.53L92.3769 182.142Z" fill="#726BDF"/>
<path d="M97.6618 179.2L92.8627 181.971C92.8426 181.979 92.8253 181.993 92.8131 182.011C92.8009 182.029 92.7944 182.051 92.7944 182.072C92.7944 182.094 92.8009 182.115 92.8131 182.133C92.8253 182.151 92.8426 182.165 92.8627 182.173L92.9972 182.246C93.0515 182.274 93.1118 182.288 93.173 182.288C93.2342 182.288 93.2945 182.274 93.3488 182.246L98.1428 179.479C98.2411 179.422 98.2411 179.329 98.1428 179.277L98.0135 179.2C97.9592 179.171 97.8989 179.157 97.8377 179.157C97.7765 179.157 97.7162 179.171 97.6618 179.2Z" fill="#3F3F3F"/>
<path d="M91.5749 192.015L82.623 186.848L83.2384 186.491L92.1903 191.663L91.5749 192.015Z" fill="#726BDF"/>
<path d="M94.5381 190.303L86.7603 185.814L87.3757 185.457L95.1535 189.951L94.5381 190.303Z" fill="#726BDF"/>
<path d="M97.5016 188.596L93.9126 186.522L94.5332 186.166L98.117 188.239L97.5016 188.596Z" fill="#726BDF"/>
<path d="M100.465 186.884L95.5571 184.05L96.1725 183.694L101.08 186.528L100.465 186.884Z" fill="#726BDF"/>
<path d="M91.5749 192.015L82.623 186.848L83.2384 186.491L92.1903 191.663L91.5749 192.015Z" fill="#726BDF"/>
<path d="M94.5381 190.303L86.7603 185.814L87.3757 185.457L95.1535 189.951L94.5381 190.303Z" fill="#726BDF"/>
<path d="M97.5016 188.596L93.9126 186.522L94.5332 186.166L98.117 188.239L97.5016 188.596Z" fill="#726BDF"/>
<path d="M100.465 186.884L95.5571 184.05L96.1725 183.694L101.08 186.528L100.465 186.884Z" fill="#726BDF"/>
<path d="M103.428 185.173L102.032 184.366L102.652 184.009L104.043 184.816L103.428 185.173Z" fill="#726BDF"/>
<path opacity="0.25" d="M91.5749 192.015L82.623 186.848L83.2384 186.491L92.1903 191.663L91.5749 192.015Z" fill="black"/>
<path opacity="0.25" d="M94.5381 190.303L86.7603 185.814L87.3757 185.457L95.1535 189.951L94.5381 190.303Z" fill="black"/>
<path opacity="0.25" d="M97.5016 188.596L93.9126 186.522L94.5332 186.166L98.117 188.239L97.5016 188.596Z" fill="black"/>
<path opacity="0.25" d="M100.465 186.884L95.5571 184.05L96.1725 183.694L101.08 186.528L100.465 186.884Z" fill="black"/>
<path opacity="0.25" d="M103.428 185.173L102.032 184.366L102.652 184.009L104.043 184.816L103.428 185.173Z" fill="black"/>
<path opacity="0.1" d="M95.9556 196.612L111.47 205.559C111.626 205.638 111.799 205.679 111.974 205.679C112.149 205.679 112.322 205.638 112.478 205.559L128.474 196.322C128.534 196.301 128.586 196.261 128.623 196.209C128.66 196.157 128.68 196.094 128.68 196.03C128.68 195.966 128.66 195.904 128.623 195.851C128.586 195.799 128.534 195.76 128.474 195.738L112.959 186.791C112.804 186.712 112.632 186.671 112.458 186.671C112.283 186.671 112.112 186.712 111.956 186.791L95.9556 196.033C95.8948 196.053 95.8418 196.092 95.8043 196.144C95.7668 196.196 95.7466 196.258 95.7466 196.322C95.7466 196.386 95.7668 196.449 95.8043 196.501C95.8418 196.553 95.8948 196.592 95.9556 196.612Z" fill="#726BDF"/>
<path d="M98.6958 195.81L97.8115 196.322L98.6958 196.834L99.5802 196.322L98.6958 195.81Z" fill="#726BDF"/>
<path d="M102.182 194.057L99.2652 195.743C99.1876 195.785 99.1876 195.857 99.2652 195.903L99.5031 196.043C99.5468 196.063 99.5945 196.074 99.6427 196.074C99.691 196.074 99.7386 196.063 99.7824 196.043L102.699 194.357C102.777 194.311 102.777 194.243 102.699 194.197L102.461 194.057C102.417 194.037 102.37 194.026 102.322 194.026C102.273 194.026 102.226 194.037 102.182 194.057Z" fill="#3F3F3F"/>
<path d="M103.702 192.919L102.818 193.426L103.707 193.938L104.587 193.426L103.702 192.919Z" fill="#726BDF"/>
<path opacity="0.25" d="M103.702 192.919L102.818 193.426L103.707 193.938L104.587 193.426L103.702 192.919Z" fill="black"/>
<path d="M107.24 191.172L104.323 192.873C104.245 192.92 104.245 192.987 104.323 193.033L104.566 193.173C104.609 193.193 104.656 193.204 104.703 193.204C104.75 193.204 104.797 193.193 104.84 193.173L107.757 191.487C107.834 191.446 107.834 191.373 107.757 191.327L107.519 191.187C107.476 191.164 107.429 191.151 107.381 191.148C107.333 191.146 107.284 191.154 107.24 191.172Z" fill="#3F3F3F"/>
<path d="M108.713 190.023L107.829 190.535L108.713 191.042L109.597 190.535L108.713 190.023Z" fill="#726BDF"/>
<path opacity="0.4" d="M108.713 190.023L107.829 190.535L108.713 191.042L109.597 190.535L108.713 190.023Z" fill="black"/>
<path d="M112.302 188.291L109.38 189.972C109.303 190.018 109.303 190.09 109.38 190.132L109.624 190.271C109.666 190.292 109.713 190.302 109.761 190.302C109.808 190.302 109.855 190.292 109.898 190.271L112.819 188.586C112.835 188.579 112.848 188.567 112.857 188.553C112.866 188.539 112.871 188.522 112.871 188.505C112.871 188.488 112.866 188.472 112.857 188.458C112.848 188.443 112.835 188.432 112.819 188.425L112.576 188.291C112.534 188.268 112.487 188.256 112.439 188.256C112.391 188.256 112.344 188.268 112.302 188.291Z" fill="#3F3F3F"/>
<path d="M117.903 193.731C117.828 193.691 117.75 193.656 117.67 193.628L117.469 193.54C116.933 193.334 116.379 193.178 115.814 193.075L115.266 192.976C114.895 192.923 114.522 192.89 114.148 192.878C113.957 192.878 113.766 192.878 113.58 192.878C113.393 192.878 113.28 192.878 113.125 192.878L112.752 192.904L112.204 192.956L111.889 193.007L111.692 193.038L111.413 193.095C111.077 193.168 110.756 193.251 110.446 193.349L110.115 193.468C109.981 193.512 109.85 193.564 109.722 193.623C109.594 193.673 109.469 193.732 109.349 193.799L108.993 193.985C106.407 195.49 106.407 197.931 108.993 199.436C111.578 200.94 115.819 200.935 118.425 199.436C121.032 197.936 121.011 195.495 118.425 193.995C118.256 193.898 118.082 193.81 117.903 193.731ZM117.386 198.846C116.326 199.417 115.141 199.718 113.936 199.72C113.88 199.72 113.807 199.72 113.74 199.72H113.528H113.331C112.171 199.702 111.033 199.406 110.011 198.856C107.974 197.677 107.974 195.753 110.011 194.595C110.244 194.465 110.484 194.349 110.73 194.249C110.921 194.171 111.123 194.104 111.325 194.042L111.635 193.959L111.894 193.902C111.999 193.876 112.106 193.855 112.214 193.84L112.499 193.799H112.587L112.995 193.762H113.068C113.211 193.752 113.354 193.752 113.497 193.762C113.616 193.755 113.735 193.755 113.854 193.762C114.354 193.768 114.852 193.818 115.343 193.912C116.068 194.038 116.767 194.282 117.412 194.636C119.429 195.769 119.429 197.672 117.396 198.846H117.386Z" fill="#726BDF"/>
<path opacity="0.25" d="M115.814 193.074L115.353 193.866C114.862 193.771 114.364 193.721 113.864 193.716C113.745 193.708 113.626 193.708 113.507 193.716C113.364 193.705 113.221 193.705 113.078 193.716H113.006C112.871 193.716 112.731 193.716 112.597 193.752H112.509L112.225 193.793C112.117 193.809 112.01 193.829 111.904 193.855L111.645 193.912L111.335 193.995C111.133 194.057 110.932 194.124 110.74 194.202C110.493 194.3 110.252 194.415 110.022 194.548L108.987 193.954L109.344 193.767C109.464 193.701 109.589 193.642 109.716 193.592C109.845 193.533 109.976 193.481 110.11 193.436L110.44 193.318C110.751 193.219 111.071 193.137 111.408 193.064L111.687 193.007L111.883 192.976L112.199 192.924L112.747 192.873L113.119 192.847C113.274 192.847 113.419 192.847 113.574 192.847C113.73 192.847 113.952 192.847 114.143 192.847C114.521 192.847 114.893 192.899 115.26 192.945L115.814 193.074Z" fill="black"/>
<path opacity="0.4" d="M118.425 194L117.391 194.59C116.746 194.236 116.047 193.991 115.322 193.866L115.783 193.075C116.347 193.178 116.901 193.334 117.437 193.54L117.639 193.628C117.719 193.656 117.797 193.691 117.872 193.731C118.061 193.811 118.246 193.901 118.425 194Z" fill="black"/>
<path d="M73.8008 182.623C73.9484 182.532 74.1088 182.464 74.2766 182.421C74.4449 182.375 74.619 182.352 74.7937 182.354C74.9688 182.356 75.1428 182.382 75.3109 182.432C75.4919 182.491 75.6655 182.57 75.828 182.67C76.013 182.763 76.174 182.897 76.2986 183.063C76.3382 183.117 76.3632 183.181 76.3713 183.248C76.3794 183.315 76.3705 183.383 76.3452 183.445L77.8966 183.833C77.9172 183.838 77.9366 183.846 77.9535 183.859C77.9845 183.859 78 183.89 78.0052 183.911C78.0104 183.931 78.0052 183.947 77.9794 183.962L77.5088 184.237C77.465 184.262 77.4143 184.273 77.364 184.268H77.2347L75.8539 183.916L75.5333 184.102L76.5262 184.676C76.5624 184.676 76.5831 184.718 76.5882 184.743C76.5906 184.756 76.5889 184.768 76.5833 184.78C76.5777 184.791 76.5685 184.8 76.5572 184.805L76.1021 185.069C76.0682 185.078 76.0326 185.078 75.9987 185.069C75.9569 185.066 75.9163 185.054 75.8797 185.033L72.8751 183.301C72.8492 183.284 72.8278 183.261 72.8131 183.233C72.8107 183.221 72.8124 183.208 72.818 183.197C72.8236 183.186 72.8328 183.177 72.8441 183.171L73.8008 182.623ZM74.8351 183.657L75.2333 183.43C75.311 183.392 75.3705 183.325 75.3988 183.244C75.3988 183.182 75.3523 183.109 75.223 183.037C75.1155 182.967 74.9893 182.931 74.861 182.933C74.7482 182.942 74.6388 182.976 74.5403 183.032L74.1473 183.259L74.8351 183.657Z" fill="#3F3F3F"/>
<path d="M79.6187 182.163C79.6526 182.154 79.6882 182.154 79.7221 182.163C79.7639 182.166 79.8045 182.179 79.8411 182.199L80.3324 182.484C80.3686 182.484 80.3893 182.525 80.3944 182.551C80.3968 182.563 80.3951 182.576 80.3895 182.587C80.3839 182.598 80.3747 182.607 80.3634 182.613L78.7085 183.564C78.6747 183.574 78.6389 183.574 78.6051 183.564C78.5649 183.561 78.5261 183.549 78.4913 183.528L75.4867 181.791C75.4717 181.785 75.4582 181.776 75.4474 181.765C75.4366 181.753 75.4288 181.739 75.4246 181.723C75.4226 181.712 75.4245 181.7 75.4301 181.69C75.4358 181.679 75.4448 181.671 75.4557 181.667L77.0795 180.725C77.1131 180.714 77.1494 180.714 77.1829 180.725C77.2247 180.729 77.2653 180.741 77.3019 180.762L77.7932 181.046C77.8214 181.06 77.8434 181.084 77.8552 181.113C77.8585 181.125 77.857 181.137 77.8512 181.148C77.8455 181.159 77.8358 181.166 77.8242 181.17L76.7485 181.791L77.2657 182.08L78.2638 181.506C78.2974 181.495 78.3336 181.495 78.3672 181.506C78.409 181.51 78.4496 181.522 78.4862 181.542L78.9774 181.827C78.9925 181.832 79.006 181.841 79.0168 181.853C79.0276 181.865 79.0354 181.879 79.0395 181.894C79.0395 181.92 79.0395 181.935 79.0085 181.951L78.0104 182.53L78.5275 182.83L79.6187 182.163Z" fill="#3F3F3F"/>
<path d="M78.8688 179.696C79.0154 179.608 79.1739 179.542 79.3394 179.499C79.5081 179.456 79.6823 179.437 79.8565 179.442C80.0318 179.451 80.2054 179.481 80.3737 179.53C80.5634 179.586 80.7457 179.664 80.9167 179.763C81.0675 179.848 81.2051 179.954 81.3252 180.079C81.4073 180.163 81.4584 180.272 81.47 180.389C81.4733 180.496 81.4385 180.6 81.3718 180.684C81.2793 180.793 81.167 180.884 81.0408 180.953L80.596 181.211L81.5424 181.759C81.5786 181.759 81.5993 181.801 81.6045 181.827C81.6077 181.838 81.6063 181.851 81.6005 181.861C81.5947 181.872 81.585 181.88 81.5734 181.883L81.1184 182.152C81.0842 182.159 81.0491 182.159 81.0149 182.152C80.9733 182.148 80.9329 182.136 80.896 182.116L77.8914 180.379C77.8775 180.372 77.8652 180.363 77.8554 180.351C77.8456 180.34 77.8384 180.326 77.8345 180.311C77.8345 180.311 77.8345 180.27 77.8603 180.254L78.8688 179.696ZM79.8772 180.792L80.3064 180.544C80.3462 180.527 80.3813 180.5 80.4092 180.467C80.437 180.434 80.4567 180.395 80.4667 180.353C80.4667 180.287 80.4047 180.215 80.2806 180.135C80.1667 180.067 80.036 180.031 79.9031 180.032C79.7868 180.031 79.6725 180.061 79.5721 180.12L79.1429 180.368L79.8772 180.792Z" fill="#3F3F3F"/>
<path d="M81.4804 179.588C81.3293 179.499 81.1932 179.387 81.077 179.257C80.9875 179.159 80.9251 179.039 80.896 178.91C80.8771 178.79 80.9009 178.668 80.9632 178.564C81.0501 178.426 81.1737 178.315 81.32 178.243C81.4916 178.144 81.6787 178.074 81.8734 178.036C82.073 178 82.276 177.988 82.4784 178C82.6856 178.01 82.8906 178.047 83.0887 178.109C83.2893 178.166 83.4834 178.244 83.6679 178.341L84.0919 178.579L84.4953 178.822C84.6454 178.912 84.7813 179.024 84.8987 179.153C84.9936 179.253 85.0597 179.376 85.09 179.51C85.109 179.63 85.0852 179.752 85.0228 179.856C84.933 179.992 84.8102 180.102 84.666 180.177C84.4936 180.275 84.3068 180.345 84.1126 180.384C83.9133 180.422 83.71 180.434 83.5076 180.42C83.3004 180.41 83.0954 180.373 82.8973 180.312C82.6975 180.252 82.5036 180.174 82.3181 180.079L81.9044 179.846C81.7441 179.748 81.6096 179.67 81.4804 179.588ZM83.8179 179.169L83.6369 179.06L83.43 178.936L83.2231 178.817L83.037 178.719C82.9557 178.677 82.8709 178.642 82.7836 178.615C82.7008 178.591 82.616 178.573 82.5302 178.564C82.4477 178.553 82.3644 178.553 82.2819 178.564C82.2019 178.578 82.1249 178.606 82.0544 178.646C81.9934 178.677 81.9417 178.724 81.9044 178.781C81.8868 178.826 81.8868 178.876 81.9044 178.92C81.9217 178.977 81.9518 179.028 81.9923 179.07C82.0454 179.125 82.1044 179.174 82.1682 179.215L82.3388 179.324L82.5457 179.443L82.7577 179.562L82.9491 179.665C83.111 179.747 83.2861 179.799 83.4662 179.82C83.6312 179.839 83.7977 179.804 83.942 179.722C84.0868 179.639 84.1437 179.546 84.1126 179.448C84.0452 179.327 83.9424 179.229 83.8179 179.169Z" fill="#3F3F3F"/>
<path d="M84.0659 176.697C84.2135 176.606 84.3738 176.538 84.5416 176.495C84.71 176.448 84.8841 176.426 85.0588 176.428C85.2339 176.43 85.4079 176.456 85.5759 176.505C85.7566 176.565 85.9301 176.645 86.0931 176.743C86.278 176.837 86.439 176.971 86.5637 177.136C86.6032 177.191 86.6282 177.255 86.6363 177.322C86.6445 177.389 86.6355 177.457 86.6102 177.519L88.1617 177.907C88.1839 177.911 88.2049 177.92 88.2237 177.933C88.2547 177.933 88.2703 177.964 88.2754 177.984C88.2806 178.005 88.2754 178.021 88.2496 178.036L87.779 178.31C87.735 178.335 87.6845 178.346 87.6342 178.341H87.5049L86.1189 177.99L85.7983 178.176L86.7964 178.75C86.8246 178.764 86.8466 178.788 86.8584 178.817C86.8608 178.829 86.8591 178.842 86.8535 178.853C86.8479 178.865 86.8387 178.874 86.8274 178.879L86.3723 179.143C86.3387 179.154 86.3025 179.154 86.2689 179.143C86.2271 179.14 86.1865 179.127 86.15 179.107L83.1505 177.359C83.1143 177.359 83.0936 177.317 83.0885 177.292C83.0861 177.279 83.0878 177.266 83.0934 177.255C83.099 177.244 83.1082 177.235 83.1195 177.229L84.0659 176.697ZM85.1002 177.731L85.4932 177.504C85.5718 177.468 85.6331 177.403 85.6638 177.323C85.6638 177.255 85.6173 177.183 85.488 177.111C85.3803 177.041 85.2543 177.005 85.126 177.007C85.0132 177.016 84.9038 177.05 84.8054 177.105L84.4123 177.333L85.1002 177.731Z" fill="#3F3F3F"/>
<path d="M87.3965 174.773C87.4305 174.764 87.466 174.764 87.5 174.773C87.5418 174.776 87.5823 174.788 87.6189 174.809L88.1102 175.093C88.1464 175.093 88.1671 175.135 88.1723 175.161C88.1746 175.173 88.1729 175.186 88.1673 175.197C88.1617 175.208 88.1525 175.217 88.1412 175.223L87.5258 175.574L89.915 176.955C89.9289 176.961 89.9412 176.971 89.951 176.982C89.9608 176.994 89.968 177.008 89.9719 177.022C89.9719 177.022 89.9719 177.064 89.9461 177.079L89.4858 177.343C89.4523 177.355 89.4158 177.355 89.3824 177.343C89.3423 177.343 89.303 177.332 89.2686 177.312L86.8794 175.931L86.2691 176.288C86.2356 176.299 86.1993 176.299 86.1657 176.288C86.1239 176.285 86.0833 176.272 86.0468 176.252L85.5296 175.967C85.4934 175.967 85.4727 175.926 85.4676 175.9C85.4624 175.874 85.4676 175.859 85.4986 175.843L87.3965 174.773Z" fill="#3F3F3F"/>
<path d="M92.2472 175.109L107.389 166.369L104.142 164.497L88.9995 173.237L92.2472 175.109Z" fill="#726BDF"/>
<g opacity="0.3">
<path d="M99.8135 176.361L112.349 169.126" stroke="#3F3F3F" stroke-width="1.03" stroke-miterlimit="10" stroke-linecap="round"/>
<path d="M101.98 177.607L114.51 170.372" stroke="#3F3F3F" stroke-width="1.03" stroke-miterlimit="10" stroke-linecap="round"/>
<path d="M104.142 178.858L116.678 171.623" stroke="#3F3F3F" stroke-width="1.03" stroke-miterlimit="10" stroke-linecap="round"/>
<path d="M106.304 180.105L118.839 172.87" stroke="#3F3F3F" stroke-width="1.03" stroke-miterlimit="10" stroke-linecap="round"/>
<path d="M108.47 181.356L121.001 174.121" stroke="#3F3F3F" stroke-width="1.03" stroke-miterlimit="10" stroke-linecap="round"/>
</g>
<g opacity="0.3">
<path d="M117.127 186.347L129.663 179.112" stroke="#3F3F3F" stroke-width="1.03" stroke-miterlimit="10" stroke-linecap="round"/>
<path d="M119.289 187.598L131.825 180.358" stroke="#3F3F3F" stroke-width="1.03" stroke-miterlimit="10" stroke-linecap="round"/>
<path d="M121.456 188.844L133.987 181.609" stroke="#3F3F3F" stroke-width="1.03" stroke-miterlimit="10" stroke-linecap="round"/>
<path d="M123.618 190.096L136.148 182.856" stroke="#3F3F3F" stroke-width="1.03" stroke-miterlimit="10" stroke-linecap="round"/>
<path d="M125.779 191.342L138.315 184.107" stroke="#3F3F3F" stroke-width="1.03" stroke-miterlimit="10" stroke-linecap="round"/>
<path d="M127.941 192.594L140.471 185.359" stroke="#3F3F3F" stroke-width="1.03" stroke-miterlimit="10" stroke-linecap="round"/>
</g>
<path d="M190.293 79.3904L177.695 83.7758L177.344 84.3498L189.326 103.334L201.251 97.956L201.603 97.3819L190.293 79.3904Z" fill="#1C1C1C"/>
<path d="M190.645 78.8159L177.696 83.7754L189.678 102.76L201.604 97.3815L190.645 78.8159Z" fill="#3F3F3F"/>
<path d="M190.749 80.7141L179.744 85.2702L189.709 100.79L199.855 95.882L190.749 80.7141Z" fill="#F0F0F0"/>
<path opacity="0.15" d="M188.333 82.3585L187.718 81.6862C187.377 81.3035 186.378 81.2673 185.484 81.5982L183.772 82.2033C182.883 82.5395 182.433 83.1187 182.774 83.4962L183.389 84.184L188.333 82.3585Z" fill="black"/>
<path d="M186.652 79.7729C186.512 79.652 186.341 79.5728 186.158 79.5445C185.975 79.5162 185.788 79.5398 185.618 79.6126L184.961 79.8815C184.961 79.8815 183.627 78.3921 182.029 78.8472C180.431 79.3023 181.807 81.0089 181.807 81.0089L181.114 81.3088C180.731 81.4743 180.597 81.795 180.767 82.0328L181.114 82.4621L187.051 80.1918L186.652 79.7729Z" fill="#726BDF"/>
<path opacity="0.15" d="M186.652 79.7729C186.512 79.652 186.341 79.5728 186.158 79.5445C185.975 79.5162 185.788 79.5398 185.618 79.6126L184.961 79.8815C184.961 79.8815 183.627 78.3921 182.029 78.8472C180.431 79.3023 181.807 81.0089 181.807 81.0089L181.114 81.3088C180.731 81.4743 180.597 81.795 180.767 82.0328L181.114 82.4621L187.051 80.1918L186.652 79.7729Z" fill="black"/>
<path d="M186.326 80.4867C185.763 80.6781 185.509 80.7867 186.032 81.3762C186.554 81.9658 187.112 82.5398 187.112 82.5398L184.485 83.5482C184.485 83.5482 183.746 82.7001 183.451 82.3692C183.338 82.1994 183.173 82.0708 182.981 82.0027C182.789 81.9346 182.58 81.9307 182.386 81.9916L182.044 81.7279L186.228 80.2126L186.326 80.4867Z" fill="#726BDF"/>
<path opacity="0.4" d="M186.326 80.4867C185.763 80.6781 185.509 80.7867 186.032 81.3762C186.554 81.9658 187.112 82.5398 187.112 82.5398L184.485 83.5482C184.485 83.5482 183.746 82.7001 183.451 82.3692C183.338 82.1994 183.173 82.0708 182.981 82.0027C182.789 81.9346 182.58 81.9307 182.386 81.9916L182.044 81.7279L186.228 80.2126L186.326 80.4867Z" fill="black"/>
<path d="M188.509 82.426L187.894 81.7382C187.552 81.3555 186.554 81.3193 185.66 81.6502L183.948 82.2863C183.058 82.6225 182.608 83.2017 182.95 83.5792L183.56 84.267L188.509 82.426Z" fill="#726BDF"/>
<path opacity="0.15" d="M188.509 82.426L187.894 81.7382C187.552 81.3555 186.554 81.3193 185.66 81.6502L183.948 82.2863C183.058 82.6225 182.608 83.2017 182.95 83.5792L183.56 84.267L188.509 82.426Z" fill="black"/>
<path d="M196.525 88.5695C196.525 88.5695 196.701 86.4026 196.008 85.72C195.315 85.0373 192.678 85.3993 191.354 84.9443C189.906 84.4581 190.252 86.0354 190.981 86.4957C192.522 87.4266 195.527 87.6593 196.525 88.5695Z" fill="#B16668"/>
<path d="M220.009 153.503C220.391 153.647 220.609 154.366 220.779 156.119C220.883 157.205 221.255 158.643 219.595 159.522C218.988 159.835 218.315 159.994 217.632 159.987C216.95 159.98 216.28 159.806 215.68 159.481C214.248 158.591 213.798 156.559 212.117 155.24C210.643 154.087 208.269 152.929 207.463 151.144C206.78 149.67 206.78 147.566 209.226 147.679C212.21 147.819 213.88 150.167 215.918 150.214C217.025 150.239 219.626 153.363 220.009 153.503Z" fill="black"/>
<path d="M220.008 152.639V154.407C220.008 155.271 216.332 156.564 215.302 154.588C215.225 154.418 214.827 152.003 214.827 152.003L220.008 152.639Z" fill="#B16668"/>
<path d="M204.257 163.08C204.257 163.08 204.903 163.08 205.162 165.723C205.26 166.731 205.498 168.8 205.162 169.55C204.825 170.3 202.943 170.636 200.874 170.817C199.323 170.956 197.906 171.711 196.458 172.529C195.088 173.299 193.55 173.721 191.979 173.759H191.881C190.535 173.801 189.194 173.569 187.941 173.077C186.958 172.663 185.872 172.001 185.556 170.905C185.511 170.759 185.494 170.607 185.505 170.455C185.549 170.19 185.691 169.952 185.903 169.788C186.114 169.625 186.345 169.491 186.591 169.389C188.008 168.717 189.44 168.071 190.837 167.362C192.233 166.654 193.546 165.966 194.85 165.175C195.496 164.776 196.127 164.358 196.737 163.903C197.001 163.706 197.291 163.515 197.549 163.313C197.689 163.204 197.952 162.729 198.149 162.739L204.257 163.08Z" fill="black"/>
<path d="M204.091 161.12C204.091 161.12 204.091 162.449 204.091 163.189C204.091 163.928 203.201 165.081 200.864 165.014C199.219 164.963 198.066 164.528 198.128 163.189V161.255L204.091 161.12Z" fill="#B16668"/>
<path d="M221.043 130.955C220.663 128.053 220 125.195 219.062 122.422C219.062 122.422 219.611 115.048 219.854 108.056C220.068 100.893 219.869 93.7239 219.259 86.5839C219.259 86.5839 195.506 84.3343 195.113 93.0586C194.72 101.783 195.186 123.42 195.186 127.62C195.186 131.462 195.656 135.284 196.354 142.425C197.022 149.272 198.051 161.87 198.051 161.87C200.843 163.36 204.256 161.71 204.256 161.71C204.256 161.71 206.185 144.303 206.677 139.902C207.02 136.745 206.698 133.551 205.73 130.526C205.73 130.526 206.01 127.175 206.889 119.759C207.509 114.52 208.026 108.268 208.026 108.268C208.026 108.268 208.497 116.77 208.988 120.886C209.449 124.703 209.997 126.228 211.46 133.712C212.882 140.952 214.527 153.001 214.527 153.001C217.32 154.49 220.076 152.727 220.076 152.727C220.076 152.727 221.798 136.308 221.043 130.955Z" fill="#1C1C1C"/>
<path d="M208.016 108.268L209.149 100.976C209.149 100.976 213.772 99.5071 216.125 96.7559C216.125 96.7559 214.868 99.9622 210.56 101.684L208.833 107.823L208.357 113.511L208.016 108.268Z" fill="black"/>
<path d="M214.346 57.3235C218.054 56.4289 220.391 58.2234 221.762 63.2604C222.931 67.5786 224.648 76.5149 225.315 79.8556C225.563 81.0916 226.049 82.5086 223.448 84.0704C219.677 86.2522 215.785 88.2188 211.791 89.9607L210.369 84.6341L216.115 72.8741L214.346 57.3235Z" fill="#1C1C1C"/>
<path d="M204.117 54.9759L205.229 62.7693L212.913 62.3762L212.241 53.2693L204.117 54.9759Z" fill="#B16668"/>
<path d="M199.08 45.3567C199.08 45.3567 197.203 48.1131 197.404 48.3923C197.606 48.6716 198.956 48.9095 198.956 48.9095L199.08 45.3567Z" fill="#9A4A4D"/>
<path d="M199.7 47.1563C199.247 47.1491 198.807 47.0077 198.434 46.7501C198.061 46.4924 197.773 46.13 197.607 45.7087C197.44 45.2874 197.402 44.8261 197.497 44.3832C197.593 43.9403 197.817 43.5356 198.143 43.2203C198.468 42.905 198.88 42.6933 199.325 42.612C199.771 42.5306 200.231 42.5832 200.647 42.7632C201.062 42.9431 201.416 43.2423 201.661 43.623C201.907 44.0036 202.035 44.4485 202.027 44.9016C202.017 45.5088 201.766 46.0869 201.329 46.5095C200.893 46.9321 200.308 47.1646 199.7 47.1563ZM199.762 43.0864C199.411 43.0813 199.065 43.1807 198.77 43.3719C198.474 43.5631 198.242 43.8376 198.103 44.1607C197.964 44.4837 197.923 44.8409 197.987 45.1869C198.051 45.5329 198.215 45.8523 198.461 46.1047C198.706 46.3571 199.02 46.5311 199.364 46.6048C199.708 46.6784 200.066 46.6484 200.393 46.5185C200.72 46.3886 201.002 46.1647 201.201 45.8751C201.401 45.5854 201.51 45.243 201.515 44.8912C201.521 44.4198 201.34 43.9653 201.011 43.6272C200.683 43.289 200.234 43.0946 199.762 43.0864Z" fill="black"/>
<path d="M204.308 37.7287C200.574 38.4527 199.478 40.0714 199.033 45.9721C198.568 52.1365 199.168 54.0861 199.964 54.929C200.481 55.4979 203.543 55.6479 205.084 55.2497C207.013 54.7325 211.377 53.2845 213.462 50.2127C215.908 46.5926 216.616 41.6539 214.087 39.5853C210.529 36.6634 205.823 37.4288 204.308 37.7287Z" fill="#B16668"/>
<path d="M204.173 55.4049C202.57 55.5807 200.414 55.4049 199.964 54.924C201.332 54.9152 202.686 54.6504 203.956 54.1431L204.173 55.4049Z" fill="#9A4A4D"/>
<path d="M198.335 39.5801C198.335 39.6576 198.335 39.7352 198.361 39.8076C198.427 40.0894 198.554 40.3533 198.732 40.5811C198.911 40.8089 199.137 40.9949 199.395 41.1263C199.774 41.3316 200.195 41.45 200.626 41.4728C200.781 41.4728 201.872 41.5297 201.913 41.4056C201.709 41.7839 201.572 42.1952 201.51 42.6209C201.506 42.8355 201.557 43.0475 201.66 43.2361C201.762 43.4248 201.912 43.5834 202.094 43.6966C202.326 43.7807 202.549 43.8863 202.762 44.012C203.108 44.2964 202.974 44.9481 203.124 45.3256C203.17 45.4497 204.023 46.5822 204.065 46.4323C204.065 46.4323 204.716 44.0534 206.723 44.3637C208.729 44.674 208.978 47.2856 207.68 48.8318C206.382 50.3781 205.197 49.7627 205.197 49.7627C205.197 49.7627 205.197 53.1707 206.687 55.1307C206.687 55.1307 208.398 55.7151 211.574 55.0893C213.523 54.7066 216.311 52.3174 217.505 49.7627C220.039 44.3533 220.288 39.4611 216.833 37.9355C216.357 34.3776 212.489 33.3278 209.448 33.2347C207.478 33.1778 205.492 33.3743 203.532 33.1261C202.601 32.991 201.677 32.8063 200.765 32.5727C200.201 32.3959 199.607 32.3327 199.017 32.3866C198.437 32.5217 197.916 32.841 197.532 33.2968C197.148 33.7526 196.921 34.3204 196.887 34.9154C196.842 35.536 196.952 36.158 197.207 36.7254C197.48 37.3066 197.912 37.7981 198.454 38.1424C198.487 38.1599 198.514 38.1869 198.531 38.22C198.542 38.2589 198.542 38.2999 198.531 38.3389C198.403 38.7402 198.337 39.1588 198.335 39.5801Z" fill="black"/>
<path d="M216.559 38.3751L218.803 37.0978C218.724 36.9413 218.614 36.8025 218.48 36.6897C218.346 36.577 218.19 36.4928 218.022 36.4421C217.855 36.3915 217.678 36.3755 217.504 36.3951C217.33 36.4147 217.162 36.4695 217.009 36.5562C216.857 36.6429 216.724 36.7596 216.618 36.8994C216.512 37.0391 216.436 37.1989 216.394 37.369C216.352 37.5391 216.345 37.7161 216.373 37.889C216.401 38.062 216.465 38.2274 216.559 38.3751Z" fill="black"/>
<path d="M204.008 47.7666L204.117 45.1808C203.774 45.1664 203.439 45.2888 203.187 45.5211C202.934 45.7534 202.784 46.0765 202.77 46.4194C202.755 46.7623 202.878 47.0968 203.11 47.3495C203.342 47.6021 203.665 47.7522 204.008 47.7666Z" fill="black"/>
<path d="M197.668 44.3533L204.572 45.3565L204.287 45.8375L197.663 44.8756L197.668 44.3533Z" fill="black"/>
<path d="M219.977 61.4192C219.16 58.2181 218.007 57.1735 215.22 57.1011C213.783 57.198 212.353 57.381 210.938 57.6492C210.648 58.999 207.152 59.9195 203.615 59.2007C202.58 59.5058 199.783 60.2608 198.909 60.5815C196.406 61.4865 195.196 64.0877 195.03 72.331C195.03 72.331 194.549 91.8895 195.03 95.2665C201.339 97.7281 207.886 97.6143 211.501 96.8179C219.026 95.132 219.915 92.0033 219.915 92.0033C219.915 92.0033 219.522 84.153 219.269 78.1851C219.641 74.3841 220.21 71.5243 220.417 68.4938C220.602 66.1267 220.454 63.7453 219.977 61.4192Z" fill="#3F3F3F"/>
<path d="M170.249 67.3871C170.476 67.5474 172.157 68.9385 172.891 69.6108C172.891 69.6108 174.36 63.2396 174.36 63.2344C174.36 63.2292 173.683 62.6035 173.621 62.5311C173.38 62.2723 173.157 61.9976 172.953 61.7088C172.526 61.0095 172.161 60.274 171.862 59.5109C171.497 58.6812 171.033 57.8982 170.481 57.1786C169.944 56.4477 169.404 55.7202 168.863 54.9962C168.774 54.844 168.64 54.723 168.48 54.6497C168.342 54.6161 168.196 54.6337 168.069 54.6993C167.943 54.7649 167.845 54.874 167.792 55.0066C167.694 55.2764 167.673 55.5682 167.73 55.8495C167.812 56.4148 167.954 56.9696 168.154 57.5044C168.273 57.8199 168.62 58.6007 167.901 58.5387C167.675 58.4863 167.471 58.3653 167.317 58.1922C166.444 57.3772 165.628 56.5029 164.876 55.5754C164.641 55.2526 164.362 54.9637 164.048 54.717C163.888 54.5975 163.702 54.517 163.506 54.482C163.309 54.447 163.107 54.4584 162.916 54.5153C162.692 54.6389 162.496 54.8074 162.34 55.0103C162.184 55.2132 162.072 55.4461 162.011 55.6944C161.737 56.2824 161.562 56.9113 161.493 57.5561C161.485 57.9683 161.538 58.3795 161.649 58.7766C162.088 60.3495 162.919 61.7853 164.064 62.9499C164.955 63.9539 165.986 64.8246 167.125 65.5357C167.379 65.6908 167.854 65.9597 168.325 66.2545C169.023 66.6527 169.447 66.8337 170.249 67.3871Z" fill="#B16668"/>
<path d="M184.574 70.6814L173.269 62.407L171.061 67.9198C171.061 67.9198 178.626 75.1082 182.293 78.2317C183.844 79.6022 185.556 79.297 187.227 78.48C190.102 77.0733 197.44 71.3847 197.44 71.3847C197.44 71.3847 201.36 64.5584 198.909 60.5867C197.62 60.8362 196.415 61.4052 195.403 62.2415C193.65 63.7154 184.791 70.6555 184.791 70.6555" fill="#B16668"/>
<path d="M199.39 60.4109C198.17 60.3525 196.958 60.645 195.899 61.2538C194.611 61.983 184.791 70.428 184.791 70.428L176.842 64.8014C174.644 65.3496 173.165 68.2301 172.958 70.2005C172.958 70.2005 177.215 74.1411 179.743 76.701C183.881 80.8744 184.827 80.352 187.113 79.1626C189.399 77.9732 197.771 71.8605 197.771 71.8605C197.771 71.8605 200.331 69.9574 200.817 67.8061C202.157 61.8692 199.39 60.4109 199.39 60.4109Z" fill="black"/>
<path opacity="0.1" d="M184.791 70.4279C183.783 71.2232 183.04 72.305 182.66 73.5308C182.62 72.8661 182.731 72.2008 182.985 71.5854C183.24 70.9699 183.631 70.4203 184.129 69.978L184.791 70.4279Z" fill="black"/>
<path d="M176.842 64.8013L174.856 63.3792C173.831 63.9384 172.947 64.7236 172.271 65.6753C171.63 66.492 171.208 67.4584 171.045 68.4834L172.943 70.2003C173.752 68.0925 175.095 66.2317 176.842 64.8013Z" fill="black"/>
<path d="M171.914 68.4424C171.94 68.5101 171.984 68.5687 172.043 68.611C172.102 68.6533 172.171 68.6773 172.244 68.6801C172.316 68.6829 172.387 68.6644 172.449 68.6267C172.511 68.5891 172.56 68.5342 172.59 68.4687C172.621 68.4032 172.632 68.3302 172.621 68.2587C172.61 68.1873 172.579 68.1206 172.53 68.067C172.482 68.0134 172.418 67.9753 172.348 67.9574C172.278 67.9396 172.205 67.9428 172.136 67.9667C172.09 67.9828 172.048 68.0081 172.012 68.0409C171.975 68.0737 171.946 68.1134 171.925 68.1577C171.904 68.2021 171.893 68.2501 171.891 68.299C171.889 68.3479 171.897 68.3966 171.914 68.4424Z" fill="#726BDF"/>
<path d="M212.401 55.4722L212.453 56.2221C211.593 57.0796 210.483 57.6426 209.283 57.8304C205.71 58.4924 204.458 57.3805 204.458 57.3805L204.365 56.7393C204.365 56.7393 204.024 56.5996 203.444 57.0444C202.561 57.9587 201.734 58.9259 200.967 59.9404C200.967 59.9404 201.65 59.7439 203.884 60.6954C206.114 61.5623 208.572 61.6534 210.86 60.954C212.65 60.3593 213.994 58.5958 214.087 57.9442C214.18 57.2926 213.017 55.2033 212.401 55.4722Z" fill="black"/>
<defs>
<linearGradient id="paint0_linear_554_9930" x1="126.725" y1="85.4771" x2="126.725" y2="257.005" gradientUnits="userSpaceOnUse">
<stop stop-color="white"/>
<stop offset="1" stop-color="white"/>
</linearGradient>
</defs>
</svg>
