<svg width="200" height="193" viewBox="0 0 200 193" fill="none" xmlns="http://www.w3.org/2000/svg">
<path d="M100.097 193C154.888 193 199.305 167.769 199.305 136.645C199.305 105.52 154.888 80.2891 100.097 80.2891C45.305 80.2891 0.887695 105.52 0.887695 136.645C0.887695 167.769 45.305 193 100.097 193Z" fill="url(#paint0_linear_537_229)" fill-opacity="0.05"/>
<path d="M164.684 138.142C175.273 138.142 183.857 133.186 183.857 127.071C183.857 120.957 175.273 116 164.684 116C154.095 116 145.511 120.957 145.511 127.071C145.511 133.186 154.095 138.142 164.684 138.142Z" fill="#DCDAF7"/>
<path d="M139.159 150.449C139.159 150.409 139.15 150.37 139.132 150.334L133.608 138.427C133.49 138.282 133.333 138.174 133.156 138.115C132.979 138.056 132.789 138.048 132.608 138.094L33.0742 153.494C32.7053 153.551 32.4653 153.747 32.4698 153.938V156.023C32.4706 156.063 32.4797 156.102 32.4965 156.138L38.0209 168.04C38.1387 168.185 38.2953 168.294 38.4724 168.353C38.6495 168.412 38.8398 168.419 39.0209 168.374L138.576 152.974C138.95 152.916 139.19 152.72 139.181 152.507L139.159 150.449Z" fill="#1C1C1C"/>
<path d="M33.0751 153.494L132.631 138.094C132.812 138.048 133.002 138.056 133.179 138.115C133.356 138.174 133.513 138.282 133.631 138.427L139.133 150.334C139.248 150.583 138.991 150.84 138.555 150.907L39.0218 166.307C38.8407 166.353 38.6501 166.347 38.4727 166.287C38.2954 166.228 38.1388 166.119 38.0218 165.974L32.4973 154.08C32.3818 153.818 32.6395 153.56 33.0751 153.494Z" fill="#3F3F3F"/>
<path d="M38.5352 155.703L41.8418 162.818L54.1707 160.911L50.8685 153.796L38.5352 155.703Z" fill="#9A4A4D"/>
<path d="M70.1055 150.818L73.4077 157.934L85.741 156.027L82.4344 148.912L70.1055 150.818Z" fill="#9A4A4D"/>
<path opacity="0.4" d="M70.1055 150.818L73.4077 157.934L85.741 156.027L82.4344 148.912L70.1055 150.818Z" fill="white"/>
<path d="M85.8867 148.374L89.1934 155.494L101.522 153.587L98.2201 146.467L85.8867 148.374Z" fill="#9A4A4D"/>
<path opacity="0.6" d="M85.8867 148.374L89.1934 155.494L101.522 153.587L98.2201 146.467L85.8867 148.374Z" fill="white"/>
<path d="M101.671 145.934L104.978 153.054L117.306 151.142L114.004 144.027L101.671 145.934Z" fill="#9A4A4D"/>
<path opacity="0.8" d="M101.671 145.934L104.978 153.054L117.306 151.142L114.004 144.027L101.671 145.934Z" fill="white"/>
<path d="M117.456 143.493L120.758 150.609L133.092 148.702L129.785 141.582L117.456 143.493Z" fill="#9A4A4D"/>
<path d="M117.456 143.493L120.758 150.609L133.092 148.702L129.785 141.582L117.456 143.493Z" fill="white"/>
<path d="M54.3223 153.258L57.6245 160.378L69.9534 158.467L66.6512 151.352L54.3223 153.258Z" fill="#9A4A4D"/>
<path opacity="0.2" d="M54.3223 153.258L57.6245 160.378L69.9534 158.467L66.6512 151.352L54.3223 153.258Z" fill="white"/>
<path d="M38.2697 166.209V168.302C38.1636 168.255 38.0761 168.174 38.0208 168.071L32.4964 156.169C32.4813 156.134 32.4722 156.096 32.4697 156.058V153.969C32.4695 154.009 32.4786 154.049 32.4964 154.085L38.0208 165.987C38.0793 166.084 38.1661 166.162 38.2697 166.209Z" fill="#263238"/>
<path d="M133.766 131.312C133.765 131.268 133.754 131.225 133.736 131.185C133.718 131.146 133.692 131.11 133.659 131.081L122.993 120.414C122.835 120.295 122.651 120.217 122.457 120.187C122.262 120.156 122.063 120.175 121.877 120.241L32.6281 149.983C32.3703 150.072 32.2281 150.227 32.2236 150.387V152.467C32.2246 152.512 32.2345 152.556 32.2528 152.596C32.2712 152.636 32.2975 152.673 32.3303 152.703L42.997 163.37C43.1537 163.489 43.3379 163.568 43.5327 163.598C43.7276 163.628 43.9269 163.609 44.1125 163.543L133.353 133.805C133.615 133.721 133.757 133.561 133.757 133.396L133.766 131.312Z" fill="#1C1C1C"/>
<path d="M32.6286 149.982L121.869 120.236C122.054 120.17 122.254 120.152 122.448 120.182C122.643 120.212 122.827 120.29 122.984 120.409L133.651 131.076C133.878 131.302 133.744 131.591 133.353 131.72L44.1175 161.471C43.9316 161.537 43.7326 161.555 43.538 161.525C43.3433 161.494 43.1592 161.417 43.0019 161.298L32.3353 150.631C32.1041 150.405 32.2375 150.116 32.6286 149.982Z" fill="#3F3F3F"/>
<path d="M38.8945 151.298L45.2812 157.68L56.3345 153.996L49.9523 147.614L38.8945 151.298Z" fill="#726BDF"/>
<path opacity="0.6" d="M38.8945 151.298L45.2812 157.68L56.3345 153.996L49.9523 147.614L38.8945 151.298Z" fill="black"/>
<path d="M67.1973 141.867L73.5839 148.245L84.6373 144.561L78.255 138.178L67.1973 141.867Z" fill="#726BDF"/>
<g opacity="0.4">
<path d="M67.1982 141.867L73.5849 148.245L84.6382 144.56L78.256 138.178L67.1982 141.867Z" fill="black"/>
</g>
<path d="M81.3506 137.147L87.7373 143.529L98.7906 139.845L92.4084 133.462L81.3506 137.147Z" fill="#726BDF"/>
<g opacity="0.3">
<path d="M81.3496 137.147L87.7363 143.529L98.7896 139.844L92.4074 133.462L81.3496 137.147Z" fill="black"/>
</g>
<path d="M95.5 132.431L101.887 138.813L112.94 135.125L106.558 128.747L95.5 132.431Z" fill="#FFA8A7"/>
<path d="M95.5 132.431L101.887 138.813L112.94 135.125L106.558 128.747L95.5 132.431Z" fill="#726BDF"/>
<path opacity="0.2" d="M95.5 132.431L101.887 138.813L112.94 135.125L106.558 128.747L95.5 132.431Z" fill="black"/>
<path d="M109.651 127.716L116.038 134.094L127.091 130.41L120.709 124.027L109.651 127.716Z" fill="#FFA8A7"/>
<path d="M109.651 127.716L116.038 134.094L127.091 130.41L120.709 124.027L109.651 127.716Z" fill="#726BDF"/>
<path opacity="0.1" d="M109.651 127.716L116.038 134.094L127.091 130.41L120.709 124.027L109.651 127.716Z" fill="black"/>
<path d="M53.0469 146.583L59.4335 152.965L70.4869 149.276L64.1047 142.898L53.0469 146.583Z" fill="#726BDF"/>
<g opacity="0.5">
<path d="M53.0479 146.582L59.4345 152.965L70.4879 149.276L64.1056 142.898L53.0479 146.582Z" fill="black"/>
</g>
<path d="M43.4658 161.511V163.591C43.3005 163.564 43.1465 163.49 43.0214 163.378L32.3547 152.711C32.3219 152.681 32.2956 152.645 32.2773 152.605C32.2589 152.564 32.249 152.52 32.248 152.476V150.427C32.257 150.506 32.295 150.579 32.3547 150.631L43.0214 161.298C43.1465 161.41 43.3005 161.484 43.4658 161.511Z" fill="#263238"/>
<path d="M31.7988 148.085V148.836C31.8107 149.036 31.8691 149.231 31.9694 149.404C32.0697 149.578 32.2092 149.726 32.3766 149.836L47.4877 158.547C47.6664 158.639 47.8645 158.687 48.0655 158.687C48.2665 158.687 48.4646 158.639 48.6433 158.547L121.488 116.48C121.656 116.371 121.796 116.223 121.896 116.05C121.997 115.876 122.055 115.681 122.066 115.48V114.729C122.055 114.529 121.997 114.334 121.897 114.16C121.796 113.986 121.656 113.838 121.488 113.729L106.399 105.014C106.22 104.924 106.022 104.877 105.821 104.877C105.62 104.877 105.423 104.924 105.243 105.014L32.3766 147.085C32.2087 147.195 32.0689 147.342 31.9685 147.516C31.8682 147.69 31.81 147.885 31.7988 148.085Z" fill="#1C1C1C"/>
<path d="M32.3761 147.085L105.265 105.014C105.444 104.924 105.642 104.877 105.843 104.877C106.043 104.877 106.241 104.924 106.421 105.014L121.509 113.729C121.829 113.911 121.829 114.209 121.509 114.396L48.625 156.463C48.4459 156.554 48.248 156.601 48.0472 156.601C47.8464 156.601 47.6484 156.554 47.4694 156.463L32.3583 147.752C32.2888 147.727 32.2289 147.68 32.1872 147.619C32.1455 147.558 32.1241 147.486 32.1261 147.412C32.1281 147.338 32.1533 147.267 32.1982 147.208C32.2431 147.149 32.3053 147.106 32.3761 147.085Z" fill="#3F3F3F"/>
<path d="M48.0462 156.605V158.685C47.845 158.69 47.6459 158.642 47.4684 158.548L32.3795 149.836C32.2118 149.726 32.0722 149.579 31.9719 149.405C31.8716 149.231 31.8133 149.037 31.8018 148.836V148.085C31.8087 147.91 31.8517 147.737 31.9282 147.579C32.0047 147.421 32.1129 147.28 32.2462 147.165C32.0462 147.348 32.0862 147.61 32.3618 147.752L47.4506 156.463C47.6331 156.562 47.8386 156.611 48.0462 156.605Z" fill="#263238"/>
<path d="M32.3761 147.085L105.265 105.014C105.444 104.924 105.642 104.877 105.843 104.877C106.043 104.877 106.241 104.924 106.421 105.014L121.509 113.729C121.829 113.911 121.829 114.209 121.509 114.396L48.625 156.463C48.4456 156.553 48.2478 156.599 48.0472 156.599C47.8466 156.599 47.6487 156.553 47.4694 156.463L32.3583 147.751C32.2888 147.727 32.2289 147.68 32.1872 147.619C32.1455 147.558 32.1241 147.486 32.1261 147.412C32.1281 147.338 32.1533 147.267 32.1982 147.208C32.2431 147.149 32.3053 147.106 32.3761 147.085Z" fill="#3F3F3F"/>
<path d="M39.0205 147.418L48.0472 152.627L57.0738 147.413L48.0472 142.205L39.0205 147.418Z" fill="#726BDF"/>
<path d="M62.1318 134.076L71.1585 139.285L80.1807 134.071L71.1585 128.863L62.1318 134.076Z" fill="#726BDF"/>
<path opacity="0.4" d="M62.1318 134.076L71.1585 139.285L80.1807 134.071L71.1585 128.863L62.1318 134.076Z" fill="white"/>
<path d="M73.6836 127.405L82.7103 132.614L91.7369 127.401L82.7147 122.192L73.6836 127.405Z" fill="#726BDF"/>
<path opacity="0.6" d="M73.6836 127.405L82.7103 132.614L91.7369 127.401L82.7147 122.192L73.6836 127.405Z" fill="white"/>
<path d="M85.2393 120.734L94.2659 125.943L103.293 120.73L94.2659 115.521L85.2393 120.734Z" fill="#726BDF"/>
<path opacity="0.8" d="M85.2393 120.734L94.2659 125.943L103.293 120.73L94.2659 115.521L85.2393 120.734Z" fill="white"/>
<path d="M96.7939 114.062L105.821 119.271L114.847 114.058L105.821 108.849L96.7939 114.062Z" fill="#726BDF"/>
<path d="M96.7939 114.062L105.821 119.271L114.847 114.058L105.821 108.849L96.7939 114.062Z" fill="white"/>
<path d="M50.5762 140.747L59.6028 145.956L68.6295 140.743L59.6028 135.534L50.5762 140.747Z" fill="#726BDF"/>
<path opacity="0.2" d="M50.5762 140.747L59.6028 145.956L68.6295 140.743L59.6028 135.534L50.5762 140.747Z" fill="white"/>
<path d="M36.9092 146.889C37.019 146.928 37.1142 146.999 37.1816 147.094C37.249 147.189 37.2851 147.302 37.2851 147.418C37.2851 147.535 37.249 147.648 37.1816 147.743C37.1142 147.838 37.019 147.909 36.9092 147.947C36.625 148.09 36.3115 148.164 35.9936 148.164C35.6758 148.164 35.3623 148.09 35.0781 147.947C34.9683 147.909 34.8731 147.838 34.8057 147.743C34.7383 147.648 34.7021 147.535 34.7021 147.418C34.7021 147.302 34.7383 147.189 34.8057 147.094C34.8731 146.999 34.9683 146.928 35.0781 146.889C35.3616 146.745 35.6753 146.669 35.9936 146.669C36.312 146.669 36.6257 146.745 36.9092 146.889Z" fill="#263238"/>
<path d="M36.2108 146.681C35.6045 145.275 34.6293 144.059 33.3884 143.163C32.1475 142.267 30.6871 141.723 29.1622 141.589C27.6372 141.455 26.1044 141.736 24.7263 142.402C23.3481 143.069 22.176 144.096 21.334 145.374C20.4921 146.653 20.0117 148.135 19.9439 149.665C19.876 151.194 20.2232 152.713 20.9486 154.061C21.674 155.409 22.7507 156.536 24.0644 157.322C25.3781 158.108 26.8799 158.523 28.4108 158.525C30.0258 158.527 31.6074 158.064 32.9663 157.192L32.4952 156.174C32.4801 156.139 32.4711 156.101 32.4685 156.063V155.925C31.2767 156.751 29.8609 157.193 28.4108 157.192C27.1286 157.192 25.8699 156.847 24.7666 156.194C23.6633 155.541 22.7559 154.603 22.1395 153.479C21.5231 152.354 21.2203 151.085 21.2628 149.803C21.3053 148.522 21.6916 147.275 22.3812 146.195C23.0708 145.114 24.0384 144.238 25.1825 143.659C26.3267 143.081 27.6054 142.82 28.8848 142.905C30.1642 142.99 31.3971 143.418 32.4545 144.143C33.5119 144.868 34.3549 145.864 34.8952 147.027C35.0521 147.361 35.18 147.707 35.2774 148.063C35.7266 148.218 36.2149 148.218 36.6641 148.063C36.5527 147.59 36.401 147.128 36.2108 146.681Z" fill="#E0E0E0"/>
<path d="M22.3413 63.6759C22.3175 63.2619 22.1974 62.8591 21.9906 62.4995C21.7839 62.14 21.4961 61.8336 21.1502 61.6048L20.1768 61.0448C19.8065 60.8563 19.3968 60.7581 18.9813 60.7581C18.5657 60.7581 18.1561 60.8563 17.7857 61.0448L10.0879 65.4893C9.74202 65.717 9.45495 66.0234 9.25024 66.3833C9.04552 66.7433 8.92898 67.1467 8.91016 67.5604V76.4493C8.92935 76.8635 9.04602 77.2673 9.25067 77.628C9.45532 77.9886 9.74218 78.2959 10.0879 78.5248L11.0613 79.0848C11.1422 79.1318 11.227 79.172 11.3146 79.2048L11.4124 79.2359C11.4701 79.2584 11.5296 79.2762 11.5902 79.2893L11.7279 79.3204L11.879 79.3426H12.0479H12.4657C12.5402 79.3381 12.6145 79.3292 12.6879 79.3159H12.7457L12.9813 79.2671H13.0124C13.1673 79.2264 13.3166 79.1667 13.4568 79.0893L21.159 74.6448C21.505 74.416 21.7928 74.1097 21.9995 73.7501C22.2063 73.3906 22.3264 72.9878 22.3502 72.5737L22.3413 63.6759Z" fill="#726BDF"/>
<path opacity="0.4" d="M22.3286 63.4761C22.2397 62.8628 21.7464 62.6405 21.1508 62.9872L13.4486 67.4139C13.0975 67.6339 12.8084 67.9398 12.6086 68.3028L9.24414 66.3605C9.44554 65.9973 9.73616 65.6914 10.0886 65.4716L17.7864 61.0272C18.1559 60.8387 18.5649 60.7405 18.9797 60.7405C19.3945 60.7405 19.8035 60.8387 20.173 61.0272L21.1508 61.5872C21.4716 61.7986 21.7429 62.0769 21.9462 62.4029C22.1495 62.7289 22.2799 63.095 22.3286 63.4761Z" fill="white"/>
<path opacity="0.1" d="M13.2346 79.1784C13.2113 79.1919 13.1857 79.2009 13.159 79.205L12.9857 79.2628C12.8317 79.3075 12.674 79.3388 12.5146 79.3562C12.4361 79.3607 12.3575 79.3607 12.279 79.3562C11.8614 79.3649 11.4484 79.267 11.079 79.0717L10.0879 78.525C9.7439 78.2943 9.45835 77.9866 9.25391 77.6264C9.04947 77.2661 8.93178 76.8632 8.91016 76.4495V67.5606C8.91553 67.307 8.96361 67.056 9.05238 66.8184C9.09238 66.7206 9.13238 66.6228 9.18127 66.5295C9.20526 66.4792 9.23197 66.4302 9.26127 66.3828L12.6257 68.325C12.4073 68.68 12.2862 69.0862 12.2746 69.5028V78.3917C12.2746 78.9695 12.5813 79.2806 13.0168 79.2406H13.0924C13.1412 79.2232 13.1887 79.2024 13.2346 79.1784Z" fill="black"/>
<path d="M22.3413 81.4491C22.3175 81.0351 22.1974 80.6323 21.9906 80.2727C21.7839 79.9132 21.4961 79.6068 21.1502 79.378L20.1768 78.818C19.8065 78.6295 19.3968 78.5312 18.9813 78.5312C18.5657 78.5312 18.1561 78.6295 17.7857 78.818L10.0879 83.2625C9.74261 83.4897 9.45591 83.7954 9.25122 84.1546C9.04654 84.5137 8.92967 84.9162 8.91016 85.3291V94.218C8.92726 94.6339 9.04297 95.0398 9.24775 95.4022C9.45252 95.7647 9.7405 96.0732 10.0879 96.3025L11.0613 96.8669C11.1422 96.9139 11.227 96.9541 11.3146 96.9869L11.4124 97.018C11.4702 97.018 11.5279 97.058 11.5902 97.0714L11.7279 97.098L11.879 97.1247C11.9353 97.1291 11.9917 97.1291 12.0479 97.1247H12.1724H12.3679H12.4613H12.6835H12.7413C12.8208 97.1116 12.8994 97.0938 12.9768 97.0714H13.0079C13.1629 97.0307 13.3121 96.971 13.4524 96.8936L21.1546 92.4491C21.5005 92.2203 21.7883 91.914 21.9951 91.5544C22.2019 91.1949 22.3219 90.7921 22.3457 90.378L22.3413 81.4491Z" fill="#F28F8F"/>
<path opacity="0.4" d="M22.3286 81.2448C22.2397 80.6359 21.7464 80.4092 21.1508 80.7603L13.4486 85.1915C13.0965 85.4102 12.8071 85.7165 12.6086 86.0803L9.24414 84.1381C9.44425 83.774 9.73515 83.4677 10.0886 83.2492L17.7864 78.8048C18.1559 78.6163 18.5649 78.5181 18.9797 78.5181C19.3945 78.5181 19.8035 78.6163 20.173 78.8048L21.1508 79.3648C21.4706 79.5753 21.7412 79.8521 21.9445 80.1765C22.1477 80.5009 22.2787 80.8652 22.3286 81.2448Z" fill="white"/>
<path opacity="0.1" d="M13.2346 96.9513C13.2104 96.9629 13.1851 96.9718 13.159 96.978C13.1026 96.9998 13.0447 97.0176 12.9857 97.0313C12.8327 97.0803 12.6747 97.1116 12.5146 97.1247C12.4361 97.1292 12.3575 97.1292 12.279 97.1247C11.8614 97.1334 11.4484 97.0355 11.079 96.8402L10.0879 96.3024C9.74332 96.0713 9.45741 95.7629 9.25294 95.4018C9.04847 95.0407 8.9311 94.6369 8.91016 94.2224V85.3335C8.91484 85.0798 8.96294 84.8288 9.05238 84.5913C9.08995 84.4913 9.13298 84.3933 9.18127 84.298C9.20527 84.2491 9.23198 84.2016 9.26127 84.1558L12.6079 86.0802C12.3895 86.4352 12.2684 86.8414 12.2568 87.258V96.1469C12.2568 96.7247 12.5635 97.0358 12.999 96.9913H13.0746L13.2346 96.9513Z" fill="black"/>
<path d="M22.3413 99.2188C22.3192 98.8049 22.1999 98.4021 21.9929 98.043C21.7859 97.6839 21.4972 97.3787 21.1502 97.1522L20.1768 96.5877C19.8058 96.4016 19.3964 96.3047 18.9813 96.3047C18.5662 96.3047 18.1568 96.4016 17.7857 96.5877L10.0879 101.032C9.73363 101.251 9.44136 101.557 9.23905 101.921C9.03122 102.281 8.91806 102.688 8.91016 103.103V111.992C8.92728 112.409 9.04296 112.815 9.24771 113.178C9.45245 113.541 9.74041 113.851 10.0879 114.081L11.0613 114.641C11.1413 114.69 11.2262 114.73 11.3146 114.761L11.4124 114.797L11.5902 114.85L11.7279 114.877L11.879 114.903H12.0479H12.1724H12.4657H12.6879H12.7457L12.9813 114.854H13.0124C13.1675 114.812 13.3168 114.751 13.4568 114.672L21.159 110.228C21.5061 110.001 21.7948 109.696 22.0018 109.337C22.2087 108.978 22.3281 108.575 22.3502 108.161L22.3413 99.2188Z" fill="#B16668"/>
<path opacity="0.2" d="M22.3286 99.0182C22.2397 98.4048 21.7464 98.1826 21.1508 98.5293L13.4486 102.969C13.0975 103.189 12.8084 103.495 12.6086 103.858L9.24414 101.916C9.44554 101.553 9.73616 101.247 10.0886 101.027L17.7864 96.5826C18.1559 96.3942 18.5649 96.2959 18.9797 96.2959C19.3945 96.2959 19.8035 96.3942 20.173 96.5826L21.1508 97.1471C21.4695 97.3566 21.7396 97.632 21.9428 97.9548C22.1459 98.2776 22.2775 98.6402 22.3286 99.0182Z" fill="white"/>
<path opacity="0.3" d="M13.2346 114.725L13.159 114.751C13.1013 114.751 13.0435 114.791 12.9857 114.805C12.8327 114.854 12.6747 114.885 12.5146 114.898C12.4361 114.903 12.3575 114.903 12.279 114.898C11.8614 114.907 11.4484 114.809 11.079 114.614L10.0879 114.08C9.74215 113.848 9.45552 113.539 9.25099 113.176C9.04647 112.813 8.92974 112.407 8.91016 111.991V103.103C8.91534 102.85 8.96344 102.601 9.05238 102.365C9.08995 102.265 9.13298 102.167 9.18127 102.071C9.20526 102.021 9.23197 101.972 9.26127 101.925L12.6079 103.858C12.3895 104.213 12.2684 104.619 12.2568 105.036V113.925C12.2568 114.503 12.5635 114.814 12.999 114.774H13.0746L13.2346 114.725Z" fill="black"/>
<path d="M22.3413 116.991C22.3175 116.577 22.1974 116.174 21.9906 115.815C21.7839 115.455 21.4961 115.149 21.1502 114.92L20.1768 114.36C19.8065 114.172 19.3968 114.073 18.9813 114.073C18.5657 114.073 18.1561 114.172 17.7857 114.36L10.0879 118.805C9.74202 119.032 9.45495 119.339 9.25024 119.699C9.04552 120.059 8.92898 120.462 8.91016 120.876V129.765C8.92906 130.181 9.04546 130.588 9.25002 130.951C9.45457 131.315 9.74157 131.626 10.0879 131.858L11.0613 132.418C11.1422 132.465 11.227 132.505 11.3146 132.538L11.4124 132.569C11.4702 132.569 11.5279 132.609 11.5902 132.622C11.6524 132.636 11.6835 132.622 11.7279 132.649C11.7774 132.663 11.828 132.672 11.879 132.676H12.0479H12.1724C12.239 132.676 12.3057 132.676 12.3679 132.676H12.4657L12.6879 132.649H12.7457C12.8252 132.636 12.9039 132.618 12.9813 132.596H13.0124C13.1673 132.555 13.3166 132.495 13.4568 132.418L21.159 127.974C21.505 127.745 21.7928 127.438 21.9995 127.079C22.2063 126.719 22.3264 126.317 22.3502 125.902L22.3413 116.991Z" fill="#455A64"/>
<path opacity="0.1" d="M22.3286 116.787C22.2397 116.178 21.7464 115.956 21.1508 116.302L13.4486 120.747C13.0975 120.967 12.8084 121.273 12.6086 121.636L9.24414 119.694C9.44554 119.33 9.73616 119.024 10.0886 118.805L17.7864 114.36C18.1559 114.172 18.5649 114.073 18.9797 114.073C19.3945 114.073 19.8035 114.172 20.173 114.36L21.1508 114.92C21.469 115.129 21.7387 115.404 21.9419 115.726C22.145 116.048 22.2769 116.41 22.3286 116.787Z" fill="white"/>
<path opacity="0.4" d="M13.2346 132.494C13.2113 132.507 13.1857 132.516 13.159 132.52L12.9857 132.578C12.8317 132.623 12.674 132.654 12.5146 132.672H12.279C11.8614 132.68 11.4484 132.582 11.079 132.387L10.0879 131.858C9.74157 131.626 9.45457 131.315 9.25002 130.952C9.04546 130.588 8.92906 130.182 8.91016 129.765V120.876C8.91484 120.622 8.96294 120.371 9.05238 120.134C9.08995 120.034 9.13298 119.936 9.18127 119.84C9.20527 119.792 9.23198 119.744 9.26127 119.698L12.6079 121.636C12.3895 121.991 12.2684 122.397 12.2568 122.814V131.703C12.2568 132.28 12.5635 132.592 12.999 132.547H13.0746C13.1292 132.533 13.1827 132.516 13.2346 132.494Z" fill="black"/>
<path d="M122.688 5.76969C122.664 5.35523 122.543 4.95216 122.335 4.5926C122.128 4.23303 121.839 3.9269 121.492 3.69857L120.524 3.13858C120.153 2.95007 119.744 2.85181 119.328 2.85181C118.912 2.85181 118.503 2.95007 118.132 3.13858L110.435 7.58302C110.089 7.80798 109.802 8.11112 109.596 8.46787C109.39 8.82462 109.271 9.22493 109.248 9.63635V18.5252C109.272 18.9397 109.393 19.3428 109.601 19.7023C109.808 20.0619 110.097 20.368 110.444 20.5964L111.417 21.1919C111.497 21.2381 111.58 21.2782 111.666 21.3119L111.768 21.343C111.826 21.343 111.884 21.383 111.946 21.3964C112.008 21.4097 112.039 21.3964 112.084 21.423C112.133 21.4366 112.184 21.4455 112.235 21.4497H112.404H112.817L113.039 21.423H113.097C113.176 21.41 113.255 21.3922 113.332 21.3697H113.364C113.518 21.3282 113.667 21.2685 113.808 21.1919L121.51 16.7475C121.856 16.5154 122.143 16.2056 122.347 15.8429C122.552 15.4801 122.668 15.0745 122.688 14.6586V5.76969Z" fill="#F5F5F5"/>
<path opacity="0.4" d="M122.689 5.5652C122.6 4.95631 122.106 4.73409 121.511 5.08075L113.8 9.5252C113.448 9.74399 113.158 10.0502 112.96 10.4141L109.591 8.47187C109.795 8.10937 110.087 7.80379 110.44 7.58298L118.137 3.13853C118.507 2.95006 118.916 2.85181 119.331 2.85181C119.746 2.85181 120.155 2.95006 120.524 3.13853L121.502 3.69853C121.822 3.90665 122.093 4.181 122.298 4.50303C122.503 4.82505 122.636 5.18727 122.689 5.5652Z" fill="white"/>
<path opacity="0.1" d="M113.592 21.2716C113.568 21.2851 113.543 21.2941 113.516 21.2983L113.343 21.356C113.189 21.4008 113.031 21.432 112.872 21.4494C112.872 21.4494 112.872 21.4494 112.85 21.4494H112.614C112.196 21.4581 111.783 21.3602 111.414 21.1649L110.445 20.6049C110.098 20.3771 109.808 20.0712 109.6 19.7116C109.391 19.352 109.27 18.9487 109.245 18.5338V9.63603C109.252 9.38212 109.301 9.13116 109.392 8.89381C109.429 8.79375 109.472 8.69582 109.521 8.60047C109.547 8.55159 109.57 8.5027 109.596 8.45825L112.965 10.4005C112.747 10.7554 112.626 11.1616 112.614 11.5783V20.4671C112.614 21.0449 112.921 21.356 113.356 21.3116H113.432C113.486 21.3023 113.54 21.2889 113.592 21.2716Z" fill="black"/>
<path d="M122.689 23.5431C122.667 23.1281 122.548 22.7241 122.34 22.3641C122.132 22.0042 121.842 21.6985 121.494 21.472L120.525 20.9075C120.154 20.7214 119.744 20.6245 119.329 20.6245C118.914 20.6245 118.505 20.7214 118.134 20.9075L110.436 25.352C110.081 25.5704 109.789 25.8765 109.587 26.2409C109.374 26.5965 109.255 27.0001 109.24 27.4142V36.3031C109.262 36.7181 109.382 37.1221 109.59 37.4821C109.797 37.842 110.087 38.1477 110.436 38.3742L111.409 38.9387C111.488 38.9851 111.572 39.0238 111.658 39.0542L111.76 39.0898L111.938 39.1431L112.076 39.1698L112.227 39.1964H112.396H112.52H112.809H113.031H113.089C113.169 39.1849 113.247 39.1685 113.325 39.1475H113.356C113.51 39.106 113.66 39.0464 113.8 38.9698L121.502 34.5253C121.85 34.2988 122.138 33.9935 122.345 33.6344C122.552 33.2754 122.672 32.8725 122.694 32.4586L122.689 23.5431Z" fill="#E0E0E0"/>
<path opacity="0.4" d="M122.689 23.3381C122.6 22.7248 122.106 22.5025 121.511 22.8492L113.8 27.2981C113.447 27.5164 113.158 27.8228 112.96 28.187L109.591 26.2492C109.794 25.8858 110.086 25.5799 110.44 25.3603L118.137 20.9159C118.507 20.7274 118.916 20.6292 119.331 20.6292C119.746 20.6292 120.155 20.7274 120.524 20.9159L121.502 21.4759C121.821 21.6835 122.092 21.9572 122.297 22.2784C122.502 22.5996 122.635 22.961 122.689 23.3381Z" fill="white"/>
<path opacity="0.1" d="M113.592 39.0449L113.516 39.0716L113.343 39.1249C113.19 39.1739 113.032 39.2052 112.872 39.2183C112.872 39.2183 112.872 39.2183 112.85 39.2183C112.771 39.2228 112.692 39.2228 112.614 39.2183C112.196 39.227 111.783 39.1291 111.414 38.9338L110.445 38.3738C110.098 38.146 109.808 37.8401 109.6 37.4805C109.391 37.1209 109.27 36.7176 109.245 36.3027V27.4138C109.252 27.1613 109.301 26.9118 109.392 26.676C109.429 26.576 109.472 26.478 109.521 26.3827C109.547 26.3338 109.57 26.2849 109.596 26.2405L112.965 28.1783C112.747 28.5335 112.626 28.9395 112.614 29.356V38.2449C112.614 38.8183 112.921 39.1338 113.356 39.0894H113.432C113.486 39.0787 113.54 39.0638 113.592 39.0449Z" fill="black"/>
<path d="M122.689 41.3112C122.667 40.8968 122.548 40.4934 122.34 40.1342C122.132 39.7749 121.842 39.4701 121.494 39.2445L120.525 38.6801C120.154 38.4916 119.745 38.3933 119.329 38.3933C118.914 38.3933 118.504 38.4916 118.134 38.6801L110.436 43.1245C110.087 43.3502 109.796 43.6557 109.588 44.0159C109.38 44.376 109.261 44.7803 109.24 45.1956V54.0845C109.262 54.4996 109.382 54.9035 109.59 55.2635C109.797 55.6234 110.087 55.9291 110.436 56.1556L111.409 56.7156C111.489 56.7618 111.572 56.8019 111.658 56.8356L111.76 56.8668C111.818 56.8892 111.877 56.907 111.938 56.9201L112.076 56.9512H112.227H112.396H112.809C112.884 56.9467 112.958 56.9378 113.031 56.9245H113.089L113.325 56.8756H113.356C113.51 56.8307 113.659 56.7696 113.8 56.6934L121.502 52.249C121.848 52.0202 122.136 51.7138 122.343 51.3543C122.55 50.9947 122.67 50.5919 122.694 50.1779L122.689 41.3112Z" fill="#455A64"/>
<path opacity="0.2" d="M122.689 41.1116C122.6 40.4983 122.106 40.2761 121.511 40.6227L113.808 45.0672C113.456 45.286 113.167 45.5922 112.969 45.9561L109.6 44.0139C109.804 43.6514 110.096 43.3458 110.449 43.125L118.146 38.6805C118.516 38.4921 118.925 38.3938 119.34 38.3938C119.754 38.3938 120.163 38.4921 120.533 38.6805L121.511 39.2405C121.829 39.45 122.099 39.7255 122.303 40.0483C122.506 40.3711 122.637 40.7337 122.689 41.1116Z" fill="white"/>
<path opacity="0.3" d="M113.592 56.8137L113.516 56.8448L113.343 56.8981C113.189 56.9428 113.031 56.9741 112.872 56.9915C112.872 56.9915 112.872 56.9915 112.85 56.9915C112.771 56.996 112.692 56.996 112.614 56.9915C112.196 56.9988 111.783 56.8994 111.414 56.7026L110.445 56.1426C110.098 55.9147 109.808 55.6088 109.6 55.2492C109.391 54.8896 109.27 54.4863 109.245 54.0714V45.1914C109.252 44.9376 109.302 44.6868 109.392 44.4492C109.432 44.3514 109.472 44.2537 109.521 44.1603L109.596 44.0137L112.965 45.9559C112.747 46.3108 112.626 46.7171 112.614 47.1337V56.0226C112.614 56.6003 112.921 56.9114 113.356 56.8714H113.432C113.487 56.8564 113.54 56.837 113.592 56.8137Z" fill="black"/>
<path d="M122.689 59.0849C122.667 58.6698 122.548 58.2659 122.34 57.9059C122.132 57.546 121.842 57.2403 121.494 57.0138L120.525 56.4538C120.154 56.2653 119.745 56.167 119.329 56.167C118.914 56.167 118.504 56.2653 118.134 56.4538L110.436 60.8982C110.087 61.1239 109.796 61.4294 109.588 61.7895C109.38 62.1496 109.261 62.554 109.24 62.9693V71.8582C109.262 72.2726 109.382 72.676 109.59 73.0352C109.797 73.3945 110.087 73.6993 110.436 73.9249L111.409 74.4893C111.489 74.5355 111.572 74.5756 111.658 74.6093L111.76 74.6404C111.818 74.6404 111.876 74.6804 111.938 74.6938C112 74.7071 112.031 74.6938 112.076 74.7204C112.126 74.7319 112.176 74.7408 112.227 74.7471H112.396H112.716H112.809C112.884 74.7441 112.958 74.7367 113.031 74.7249H113.089C113.169 74.7118 113.247 74.694 113.325 74.6715H113.356C113.51 74.6301 113.66 74.5704 113.8 74.4938L121.502 70.0493C121.848 69.8205 122.136 69.5142 122.343 69.1546C122.55 68.7951 122.67 68.3923 122.694 67.9782L122.689 59.0849Z" fill="#263238"/>
<path opacity="0.1" d="M122.689 58.8804C122.6 58.2715 122.106 58.0493 121.511 58.3959L113.808 62.8404C113.455 63.0579 113.166 63.3644 112.969 63.7293L109.6 61.7871C109.804 61.4246 110.096 61.119 110.449 60.8982L118.146 56.4537C118.516 56.2652 118.925 56.167 119.34 56.167C119.754 56.167 120.163 56.2652 120.533 56.4537L121.511 57.0137C121.829 57.2228 122.099 57.4975 122.302 57.8195C122.505 58.1415 122.637 58.5032 122.689 58.8804Z" fill="white"/>
<path opacity="0.4" d="M113.592 74.5871C113.568 74.5986 113.542 74.6075 113.516 74.6137C113.46 74.6355 113.402 74.6534 113.343 74.6671C113.19 74.716 113.032 74.7473 112.872 74.7604H112.85C112.771 74.7649 112.692 74.7649 112.614 74.7604C112.196 74.7691 111.783 74.6712 111.414 74.4759L110.445 73.916C110.098 73.6881 109.808 73.3822 109.6 73.0226C109.391 72.663 109.27 72.2597 109.245 71.8448V62.9693C109.252 62.7154 109.301 62.4644 109.392 62.2271C109.429 62.127 109.472 62.0291 109.521 61.9337C109.547 61.8848 109.57 61.8359 109.596 61.7915L112.965 63.7337C112.747 64.0887 112.626 64.4949 112.614 64.9115V73.8004C112.614 74.3782 112.921 74.6893 113.356 74.6448H113.432L113.592 74.5871Z" fill="black"/>
<path d="M72.2356 99.1062L68.68 97.0484C68.2924 96.7976 67.9696 96.4587 67.7378 96.0594C67.5061 95.66 67.3721 95.2116 67.3467 94.7506V64.7462C67.3717 64.2851 67.5056 63.8365 67.7374 63.4371C67.9691 63.0377 68.2921 62.6989 68.68 62.4484L94.6534 47.4528C95.0663 47.2425 95.5232 47.1328 95.9867 47.1328C96.4501 47.1328 96.907 47.2425 97.32 47.4528L100.876 49.515C101.263 49.7658 101.586 50.1047 101.818 50.5041C102.049 50.9034 102.183 51.3518 102.209 51.8128V81.8128C102.183 82.2743 102.049 82.7233 101.817 83.1232C101.586 83.5232 101.263 83.863 100.876 84.115L74.9022 99.1062C74.4899 99.3186 74.0328 99.4295 73.5689 99.4295C73.105 99.4295 72.6479 99.3186 72.2356 99.1062Z" fill="#F5F5F5"/>
<path d="M74.889 66.053L100.862 51.0575C101.596 50.6352 102.196 50.9775 102.196 51.8263V81.813C102.17 82.2745 102.036 82.7235 101.804 83.1234C101.572 83.5234 101.25 83.8632 100.862 84.1152L74.889 99.1064C74.1557 99.5508 73.5557 99.1864 73.5557 98.3419V68.3508C73.5811 67.8898 73.7151 67.4414 73.9468 67.042C74.1785 66.6427 74.5014 66.3038 74.889 66.053Z" fill="#F0F0F0"/>
<path d="M74.72 99.1953C74.3243 99.3618 73.897 99.4401 73.468 99.4247C73.0389 99.4094 72.6184 99.3007 72.2356 99.1064L68.68 97.0486C68.2923 96.7968 67.9695 96.4571 67.7378 96.0571C67.5061 95.657 67.3721 95.208 67.3467 94.7464V64.7464C67.3602 64.2847 67.4935 63.8344 67.7334 63.4397L73.9556 67.0308C73.7177 67.4264 73.5846 67.8761 73.5689 68.3375V98.3286C73.5645 99.1197 74.0667 99.4753 74.72 99.1953Z" fill="#E0E0E0"/>
<path d="M81.5327 72.2268L80.4127 72.8757V70.6534L84.0083 68.5779L88.0083 80.3379L88.9949 79.769V82.0357L85.0705 84.3023V82.0357L86.346 81.3023C86.0705 80.6179 85.8749 79.8668 85.6616 79.289L80.4127 82.3201C80.2305 83.1023 79.9683 84.1246 79.7149 85.129L80.9416 84.4179V86.6846L77.0127 88.9557V86.689L77.9994 86.1201L81.5327 72.2268ZM85.026 77.4757C84.4927 75.8446 83.9638 74.0934 83.0971 71.5112C82.2083 75.2134 81.5638 77.5823 81.0349 79.7779L85.026 77.4757Z" fill="#37474F"/>
<path d="M98.7367 74.3688V76.4266L96.2345 77.871C96.2345 78.1733 96.0523 76.0933 96.0523 76.4088C95.6319 77.8191 94.7082 79.0258 93.4567 79.7999C91.2345 81.0799 89.5723 79.7777 89.5723 75.9466C89.5723 72.1155 91.3056 68.9466 93.4878 67.6844C94.55 67.071 95.5367 67.1777 96.0967 68.1644V66.3866L98.6745 64.8977V66.9999L97.55 67.6488V75.0533L98.7367 74.3688ZM91.0612 75.1822C91.0612 77.5155 92.1367 78.4622 93.5323 77.6533C95.1411 76.7244 96.0834 74.431 96.1412 72.4088C96.2034 70.1866 95.2923 68.8844 93.5323 69.9022C92.1545 70.6977 91.0612 72.871 91.0612 75.1822Z" fill="#37474F"/>
<path d="M72.2356 61.3907L68.68 59.3285C68.2924 59.0777 67.9696 58.7388 67.7378 58.3395C67.5061 57.9402 67.3721 57.4917 67.3467 57.0307V27.0396C67.3721 26.5786 67.5061 26.1302 67.7378 25.7309C67.9696 25.3315 68.2924 24.9926 68.68 24.7418L94.6534 9.74627C95.0663 9.53592 95.5232 9.42627 95.9867 9.42627C96.4501 9.42627 96.907 9.53592 97.32 9.74627L100.876 11.8085C101.263 12.0596 101.586 12.3985 101.817 12.7978C102.049 13.1971 102.183 13.6454 102.209 14.1063V44.0974C102.183 44.5583 102.049 45.0066 101.817 45.4059C101.586 45.8051 101.263 46.1441 100.876 46.3952L74.9022 61.3907C74.4893 61.6011 74.0324 61.7107 73.5689 61.7107C73.1054 61.7107 72.6486 61.6011 72.2356 61.3907Z" fill="#F5F5F5"/>
<path d="M74.889 28.3375L100.862 13.342C101.596 12.8975 102.196 13.262 102.196 14.1064V44.0975C102.17 44.5584 102.036 45.0068 101.804 45.406C101.572 45.8053 101.25 46.1443 100.862 46.3953L74.889 61.3909C74.1557 61.8353 73.5557 61.4709 73.5557 60.622V30.6353C73.5807 30.1743 73.7146 29.7257 73.9464 29.3263C74.1781 28.9269 74.5011 28.5881 74.889 28.3375Z" fill="#F0F0F0"/>
<path d="M74.72 61.4749C74.3243 61.6409 73.8974 61.7193 73.4685 61.7048C73.0397 61.6902 72.6191 61.583 72.2356 61.3904L68.68 59.3282C68.2921 59.0777 67.9691 58.7389 67.7374 58.3395C67.5056 57.9401 67.3717 57.4915 67.3467 57.0304V27.0393C67.3618 26.5779 67.495 26.128 67.7334 25.7327L73.9556 29.3238C73.7133 29.7272 73.5801 30.1867 73.5689 30.6571V60.6438C73.5645 61.4038 74.0667 61.7549 74.72 61.4749Z" fill="#E0E0E0"/>
<path d="M87.3371 39.9868L89.226 38.8757C89.5683 38.6757 89.7416 38.8757 89.7416 39.2401C89.7474 39.4362 89.7031 39.6304 89.6127 39.8045L87.5683 40.9868L88.386 44.729C88.4281 45.0454 88.3927 45.3672 88.2827 45.6669C88.1728 45.9665 87.9916 46.2349 87.7549 46.449C87.3505 46.6801 87.1638 46.4801 87.1638 46.4801L86.1371 41.809L82.4616 43.9334L81.7416 47.3645C81.3549 49.2134 80.5016 51.8312 78.8305 52.8001C77.706 53.449 77.0127 52.9157 77.0127 51.2268C77.0375 49.6353 77.4661 48.0761 78.2583 46.6955C79.0504 45.3149 80.1801 44.1581 81.5416 43.3334L83.6438 32.9734C83.7116 32.5891 83.8128 32.2114 83.946 31.8445L83.5283 29.9334C83.4928 29.6313 83.5355 29.3251 83.6522 29.0442C83.769 28.7633 83.9558 28.517 84.1949 28.329C84.5949 28.0979 84.786 28.2979 84.786 28.2979L87.3371 39.9868ZM80.706 47.4134L81.266 44.6268C80.2073 45.2725 79.3337 46.1812 78.7301 47.2645C78.1265 48.3478 77.8135 49.5689 77.8216 50.809C77.8216 51.8979 78.266 52.1823 78.8305 51.849C79.8527 51.2757 80.4305 48.7468 80.706 47.4134ZM82.7371 42.6223L85.9105 40.7912L84.4971 33.2356L82.7371 42.6223Z" fill="#726BDF"/>
<path d="M98.4794 33.3555C98.5949 33.2888 98.7371 33.4266 98.7371 34.3821C98.7371 36.8444 98.0171 38.9466 96.7327 39.6888C95.7371 40.2621 95.106 39.9199 94.8038 38.8266C94.4571 40.1599 93.8082 41.3777 92.9727 41.8621C91.386 42.7777 90.4482 41.8621 90.4482 38.2355C90.4482 34.6088 91.7193 32.4844 93.3193 31.5688C94.0527 31.1244 94.4838 31.1644 94.7282 31.3999C94.806 30.983 95.0457 30.6139 95.3949 30.3732C95.7949 30.1377 95.9416 30.3732 95.9416 30.3732V36.7466C95.9416 38.4755 96.3282 39.071 96.906 38.7377C97.7016 38.2932 98.2394 36.8266 98.2394 33.631C98.2528 33.5685 98.2818 33.5105 98.3238 33.4623C98.3658 33.4141 98.4193 33.3773 98.4794 33.3555ZM94.6305 37.0399V33.9999C94.6305 32.5377 94.0394 32.0132 93.4482 32.351C92.4971 32.9021 91.8171 33.7377 91.8171 37.4444C91.8171 41.151 92.4393 41.3021 93.1505 40.8932C93.6349 40.6132 94.6305 39.0177 94.6305 37.0399Z" fill="#726BDF"/>
<path d="M34.3186 120.995L30.763 118.933C30.3752 118.682 30.0521 118.344 29.8204 117.944C29.5886 117.545 29.4548 117.096 29.4297 116.635V86.6441C29.4558 86.1833 29.5901 85.7351 29.8218 85.3359C30.0534 84.9367 30.3759 84.5977 30.763 84.3463L56.7364 69.3508C57.1493 69.1404 57.6062 69.0308 58.0697 69.0308C58.5332 69.0308 58.9901 69.1404 59.403 69.3508L62.9586 71.413C63.346 71.6641 63.6686 72.003 63.9003 72.4023C64.132 72.8015 64.2662 73.2499 64.2919 73.7108V103.702C64.2662 104.163 64.132 104.611 63.9003 105.01C63.6686 105.41 63.346 105.749 62.9586 106L36.9852 120.995C36.5723 121.206 36.1154 121.315 35.6519 121.315C35.1884 121.315 34.7316 121.206 34.3186 120.995Z" fill="#F5F5F5"/>
<path d="M36.972 87.942L62.9453 72.9465C63.6787 72.5243 64.2787 72.8665 64.2787 73.7109V103.702C64.2529 104.163 64.1187 104.611 63.887 105.011C63.6554 105.41 63.3327 105.749 62.9453 106L36.972 120.995C36.2387 121.418 35.6387 121.075 35.6387 120.231V90.2398C35.6637 89.7788 35.7976 89.3302 36.0294 88.9308C36.2611 88.5314 36.5841 88.1926 36.972 87.942Z" fill="#F0F0F0"/>
<path d="M36.803 121.08C36.4073 121.246 35.9804 121.325 35.5516 121.31C35.1227 121.295 34.7021 121.188 34.3186 120.996L30.763 118.933C30.3752 118.683 30.0521 118.344 29.8204 117.945C29.5886 117.545 29.4548 117.097 29.4297 116.636V86.6446C29.4454 86.1832 29.5785 85.7335 29.8164 85.3379L36.0386 88.929C35.7971 89.3328 35.6639 89.792 35.6519 90.2623V120.253C35.6475 121.009 36.1497 121.36 36.803 121.08Z" fill="#E0E0E0"/>
<path d="M48.4345 102.715L42.1278 106.36L41.07 110.769L39.0967 111.906L44.2967 90.2709L46.27 89.1287L51.4656 104.746L49.4922 105.889L48.4345 102.715ZM47.75 100.644L45.2833 93.2264L42.8167 103.493L47.75 100.644Z" fill="#37474F"/>
<path d="M60.8203 90.8755V99.3644L59.1314 100.351V98.4266C58.4603 100.275 57.207 101.787 56.1003 102.427C54.1626 103.547 52.7314 102.631 52.7314 99.8932C52.7314 97.1555 54.3714 94.2799 56.3803 93.1199C57.2219 92.6386 58.1636 92.3587 59.1314 92.3021V91.8577C59.1314 90.0799 58.6026 88.5244 56.7848 89.5732C55.8959 90.0932 55.007 91.1421 54.2114 92.2399L53.5803 90.6266C54.8826 88.8488 56.0292 87.7999 57.0337 87.2221C59.4648 85.7955 60.8203 87.4132 60.8203 90.8755ZM59.1314 95.9555V94.0799C58.2504 94.1998 57.4041 94.5026 56.647 94.9688C55.9927 95.3868 55.4489 95.9566 55.062 96.6298C54.6751 97.303 54.4565 98.0597 54.4248 98.8355C54.4248 100.355 55.3137 100.769 56.4514 100.107C57.1609 99.6375 57.7653 99.0264 58.2266 98.312C58.6879 97.5975 58.996 96.7951 59.1314 95.9555Z" fill="#37474F"/>
<path d="M34.3186 83.2752L30.763 81.2174C30.3759 80.9661 30.0534 80.6271 29.8218 80.2279C29.5901 79.8286 29.4558 79.3805 29.4297 78.9196V48.9285C29.4548 48.4675 29.5886 48.0189 29.8204 47.6195C30.0521 47.2201 30.3752 46.8813 30.763 46.6307L56.7364 31.6352C57.1493 31.4248 57.6062 31.3152 58.0697 31.3152C58.5332 31.3152 58.9901 31.4248 59.403 31.6352L62.9586 33.693C63.3461 33.945 63.6687 34.2848 63.9003 34.6848C64.132 35.0847 64.2661 35.5337 64.2919 35.9952V65.9819C64.2665 66.4428 64.1325 66.8913 63.9008 67.2906C63.669 67.6899 63.3462 68.0288 62.9586 68.2796L36.9852 83.2752C36.5729 83.4876 36.1158 83.5985 35.6519 83.5985C35.1881 83.5985 34.7309 83.4876 34.3186 83.2752Z" fill="#F5F5F5"/>
<path d="M36.972 50.222L62.9453 35.2264C63.6787 34.7819 64.2787 35.1464 64.2787 35.9953V65.982C64.2533 66.4429 64.1192 66.8914 63.8875 67.2907C63.6558 67.69 63.333 68.0289 62.9453 68.2797L36.972 83.2753C36.2387 83.7197 35.6387 83.3553 35.6387 82.5108V52.5197C35.6641 52.0587 35.7981 51.6103 36.0298 51.211C36.2616 50.8117 36.5844 50.4728 36.972 50.222Z" fill="#F0F0F0"/>
<path d="M36.803 83.3641C36.4073 83.5306 35.9801 83.6089 35.551 83.5935C35.1219 83.5782 34.7014 83.4695 34.3186 83.2752L30.763 81.2129C30.3752 80.9624 30.0521 80.6236 29.8204 80.2242C29.5886 79.8248 29.4548 79.3762 29.4297 78.9152V48.924C29.444 48.4639 29.5772 48.0152 29.8164 47.6218L36.0386 51.2129C35.8007 51.6086 35.6676 52.0583 35.6519 52.5196V82.5241C35.6475 83.2885 36.1497 83.6396 36.803 83.3641Z" fill="#E0E0E0"/>
<path d="M47.5456 62.2573L42.7322 65.0395L41.8878 68.5462C41.7207 69.1501 41.6165 69.7697 41.5767 70.3951C41.5637 70.5121 41.5819 70.6306 41.6295 70.7383C41.6771 70.846 41.7524 70.9392 41.8478 71.0084C42.0256 71.1239 42.4167 71.0439 43.0167 70.7639V71.2839L39.0967 73.5462V73.0262C39.5018 72.7158 39.8442 72.3312 40.1056 71.8928C40.5625 70.8115 40.9108 69.6875 41.1456 68.5373L45.5189 50.2484L45.8389 50.0662L50.1722 63.4973C50.5189 64.5773 50.8345 65.2217 51.1189 65.4395C51.4033 65.6573 51.7989 65.6439 52.31 65.3995V65.9195L47.3989 68.7462V68.2217C47.8055 67.9864 48.1498 67.6572 48.4033 67.2617C48.5714 66.9759 48.6618 66.6511 48.6656 66.3195C48.6299 65.7212 48.5072 65.1313 48.3011 64.5684L47.5456 62.2573ZM47.2922 61.3684L45.1811 54.8484L43.0167 63.8395L47.2922 61.3684Z" fill="#37474F"/>
<path d="M57.8641 60.8486C57.0019 62.373 56.4641 63.2752 56.2419 63.5641C55.9576 63.9506 55.5996 64.2768 55.1885 64.5241C54.6063 64.8619 54.1263 64.8308 53.753 64.4352C53.3796 64.0397 53.1885 63.3464 53.1885 62.3463C53.1858 61.7429 53.2788 61.1429 53.4641 60.5686C53.7765 59.6564 54.2164 58.793 54.7708 58.0041C55.7318 56.6616 56.7706 55.3764 57.8819 54.1552V53.6352C57.8819 52.3419 57.7485 51.5375 57.4863 51.2086C57.2241 50.8797 56.833 50.8663 56.3263 51.1597C55.9263 51.3971 55.606 51.7484 55.4063 52.1686C55.1891 52.569 55.0703 53.0154 55.0596 53.4708V54.2797C55.07 54.6673 54.9957 55.0526 54.8419 55.4086C54.7313 55.6886 54.5333 55.9255 54.2774 56.0841C54.198 56.1502 54.0958 56.1825 53.9928 56.1742C53.8898 56.1659 53.7942 56.1176 53.7263 56.0397C53.5511 55.7784 53.474 55.4635 53.5085 55.1508C53.5515 54.1986 53.8294 53.2718 54.3174 52.453C54.8406 51.4828 55.624 50.6779 56.5796 50.1286C57.3263 49.6841 57.9396 49.5375 58.4152 49.6486C58.6172 49.7161 58.7977 49.8361 58.9382 49.9961C59.0787 50.1562 59.1743 50.3506 59.2152 50.5597C59.3636 51.3475 59.4188 52.1501 59.3796 52.9508V57.3419C59.3796 58.573 59.3796 59.3197 59.4241 59.5641C59.4237 59.7331 59.4766 59.898 59.5752 60.0352C59.6105 60.0616 59.6534 60.0758 59.6974 60.0758C59.7415 60.0758 59.7843 60.0616 59.8196 60.0352C59.9232 59.9727 60.0113 59.8876 60.0774 59.7863C60.351 59.3142 60.5987 58.8275 60.8196 58.3286V59.1197C60.1352 60.93 59.4804 62.0145 58.8552 62.373C58.8039 62.4161 58.7445 62.4485 58.6805 62.4683C58.6164 62.4881 58.5491 62.4949 58.4824 62.4883C58.4158 62.4817 58.3511 62.4618 58.2922 62.4297C58.2333 62.3977 58.1815 62.3543 58.1396 62.3019C57.9619 62.1108 57.873 61.6352 57.8641 60.8486ZM57.8641 59.9286V54.9997C56.9441 56.0975 56.3441 56.8441 56.0863 57.2219C55.6603 57.8069 55.3122 58.4448 55.0508 59.1197C54.8501 59.6527 54.7448 60.2168 54.7396 60.7863C54.6921 61.3034 54.8308 61.8204 55.1308 62.2441C55.233 62.3832 55.3858 62.4766 55.5563 62.504C55.7267 62.5315 55.9011 62.4908 56.0419 62.3908C56.4952 62.133 57.1085 61.3063 57.8641 59.9286Z" fill="#37474F"/>
<path d="M166.954 22.8934C166.954 23.1659 166.873 23.4323 166.722 23.6589C166.57 23.8854 166.355 24.062 166.103 24.1663C165.852 24.2706 165.574 24.2979 165.307 24.2447C165.04 24.1916 164.794 24.0603 164.602 23.8676C164.409 23.675 164.278 23.4295 164.225 23.1622C164.172 22.8949 164.199 22.6179 164.303 22.3662C164.407 22.1144 164.584 21.8992 164.811 21.7478C165.037 21.5964 165.304 21.5156 165.576 21.5156C165.757 21.515 165.937 21.5503 166.104 21.6193C166.271 21.6883 166.424 21.7898 166.552 21.9179C166.68 22.0459 166.781 22.198 166.85 22.3655C166.919 22.5329 166.954 22.7123 166.954 22.8934Z" fill="#37474F"/>
<path d="M163.926 22.9687C163.015 22.4442 163.015 21.5909 163.926 21.0664C164.437 20.8058 165.002 20.6699 165.575 20.6699C166.149 20.6699 166.714 20.8058 167.224 21.0664C168.135 21.5909 168.135 22.4442 167.224 22.9687C166.713 23.2272 166.148 23.3619 165.575 23.3619C165.003 23.3619 164.438 23.2272 163.926 22.9687Z" fill="#455A64"/>
<path d="M163.879 22.4847C162.941 21.9425 162.941 21.0669 163.879 20.5247C164.406 20.2573 164.988 20.1179 165.579 20.1179C166.17 20.1179 166.752 20.2573 167.279 20.5247C168.217 21.0669 168.217 21.9425 167.279 22.4847C166.752 22.7521 166.17 22.8915 165.579 22.8915C164.988 22.8915 164.406 22.7521 163.879 22.4847Z" fill="#37474F"/>
<path d="M163.827 21.9733C162.858 21.4133 162.858 20.511 163.827 19.951C164.37 19.6751 164.97 19.5313 165.578 19.5313C166.187 19.5312 166.787 19.6751 167.329 19.951C168.298 20.511 168.298 21.4133 167.329 21.9733C166.787 22.2492 166.187 22.393 165.578 22.393C164.97 22.393 164.37 22.2492 163.827 21.9733Z" fill="#455A64"/>
<path d="M163.773 21.4445C162.777 20.8712 162.777 19.9378 163.773 19.3601C164.333 19.0773 164.951 18.9299 165.577 18.9299C166.204 18.9299 166.822 19.0773 167.382 19.3601C168.382 19.9378 168.382 20.8712 167.382 21.4445C166.823 21.7294 166.205 21.8779 165.577 21.8779C164.95 21.8779 164.332 21.7294 163.773 21.4445Z" fill="#37474F"/>
<path d="M163.736 20.8932C162.718 20.3066 162.718 19.351 163.736 18.7643C164.307 18.475 164.938 18.3242 165.578 18.3242C166.218 18.3242 166.849 18.475 167.42 18.7643C168.438 19.351 168.438 20.3066 167.42 20.8932C166.849 21.1826 166.218 21.3334 165.578 21.3334C164.938 21.3334 164.307 21.1826 163.736 20.8932Z" fill="#455A64"/>
<path d="M165.577 4.87988C163.843 4.87988 162.18 5.56779 160.952 6.79264C159.725 8.0175 159.034 9.67924 159.03 11.4132C159.03 16.6132 163.319 17.4799 163.319 19.5732C163.337 19.7723 163.408 19.9628 163.525 20.1253C163.641 20.2878 163.799 20.4163 163.981 20.4977C164.477 20.747 165.024 20.8769 165.579 20.8769C166.134 20.8769 166.681 20.747 167.177 20.4977C167.359 20.4156 167.516 20.2868 167.632 20.1245C167.749 19.9622 167.82 19.772 167.839 19.5732C167.839 17.4799 172.128 16.6132 172.128 11.4132C172.123 9.67884 171.431 8.0171 170.203 6.79237C168.975 5.56764 167.311 4.87988 165.577 4.87988Z" fill="#726BDF"/>
<path opacity="0.1" d="M164.376 20.2266C163.713 19.8444 163.713 19.2222 164.376 18.84C164.748 18.6493 165.16 18.5498 165.578 18.5498C165.996 18.5498 166.408 18.6493 166.78 18.84C167.442 19.2222 167.442 19.8444 166.78 20.2266C166.407 20.4149 165.995 20.513 165.578 20.513C165.16 20.513 164.748 20.4149 164.376 20.2266Z" fill="black"/>
<path d="M166.451 19.3691C166.393 19.3691 166.337 19.3463 166.295 19.3056C166.254 19.2648 166.23 19.2095 166.229 19.1513C166.231 17.8915 166.385 16.6366 166.687 15.4135C166.77 15.0592 166.88 14.7116 167.016 14.3735C166.816 14.3011 166.626 14.2072 166.447 14.0935C166.115 13.8974 165.815 13.6516 165.558 13.3646C165.312 13.644 165.026 13.8852 164.709 14.0802C164.53 14.1939 164.339 14.2878 164.14 14.3602C164.272 14.7034 164.381 15.0554 164.464 15.4135C164.758 16.6393 164.907 17.8952 164.909 19.1557C164.905 19.2139 164.88 19.2687 164.838 19.3091C164.796 19.3495 164.74 19.3725 164.682 19.3735C164.653 19.3735 164.624 19.3676 164.597 19.3561C164.57 19.3446 164.545 19.3278 164.525 19.3066C164.505 19.2854 164.489 19.2604 164.478 19.2329C164.468 19.2055 164.463 19.1762 164.464 19.1468C164.457 17.9248 164.308 16.7078 164.02 15.5202C163.937 15.167 163.827 14.8208 163.691 14.4846C163.47 14.528 163.242 14.5175 163.026 14.454C162.811 14.3906 162.613 14.2761 162.451 14.1202C162.329 14.0032 162.251 13.8466 162.234 13.6781C162.216 13.5096 162.258 13.3403 162.353 13.2002C162.419 13.1031 162.512 13.0274 162.62 12.9824C162.728 12.9373 162.847 12.925 162.962 12.9468C163.309 13.0179 163.651 13.3913 163.944 13.9646C164.126 13.9045 164.299 13.8224 164.46 13.7202C164.774 13.5287 165.055 13.2869 165.291 13.0046C165.155 12.8292 165.057 12.6281 165.001 12.4134C164.945 12.1988 164.933 11.975 164.967 11.7557C165.007 11.6285 165.086 11.5174 165.194 11.4385C165.301 11.3597 165.431 11.3171 165.564 11.3171C165.698 11.3171 165.828 11.3597 165.935 11.4385C166.043 11.5174 166.122 11.6285 166.162 11.7557C166.194 11.975 166.182 12.1985 166.126 12.413C166.071 12.6275 165.973 12.8287 165.838 13.0046C166.08 13.2861 166.367 13.5263 166.687 13.7157C166.849 13.8163 167.022 13.8983 167.202 13.9602C167.496 13.3735 167.838 13.0135 168.189 12.9424C168.303 12.922 168.421 12.9351 168.528 12.98C168.636 13.025 168.728 13.0999 168.793 13.1957C168.889 13.3355 168.932 13.5051 168.914 13.6738C168.897 13.8425 168.819 13.9993 168.696 14.1157C168.534 14.2719 168.338 14.3867 168.123 14.4501C167.907 14.5136 167.68 14.5239 167.46 14.4802C167.322 14.8161 167.211 15.1624 167.127 15.5157C166.838 16.7032 166.688 17.9203 166.682 19.1424C166.683 19.1716 166.678 19.2006 166.667 19.2278C166.656 19.255 166.64 19.2798 166.62 19.3008C166.6 19.3219 166.576 19.3388 166.549 19.3505C166.522 19.3622 166.494 19.3685 166.464 19.3691H166.451ZM162.856 13.378C162.829 13.38 162.804 13.3883 162.781 13.4022C162.759 13.4161 162.74 13.4352 162.727 13.458C162.62 13.6091 162.749 13.7691 162.789 13.8135C162.883 13.9022 162.996 13.9692 163.118 14.0099C163.241 14.0505 163.371 14.0639 163.5 14.0491C163.264 13.6046 163.033 13.4091 162.887 13.3824L162.856 13.378ZM167.651 14.0491C167.78 14.0639 167.91 14.0505 168.033 14.0099C168.155 13.9692 168.268 13.9022 168.362 13.8135C168.413 13.7711 168.447 13.7122 168.458 13.6471C168.47 13.582 168.458 13.515 168.424 13.458C168.362 13.3735 168.309 13.3735 168.264 13.3824C168.118 13.4091 167.891 13.6357 167.651 14.0491ZM165.576 11.7557C165.538 11.7492 165.499 11.7576 165.468 11.7792C165.436 11.8008 165.414 11.8338 165.407 11.8713C165.374 12.1266 165.434 12.3853 165.576 12.6002C165.719 12.3861 165.779 12.1267 165.744 11.8713C165.727 11.8002 165.691 11.7557 165.576 11.7557Z" fill="white"/>
<path d="M165.576 3.44889C165.458 3.44889 165.345 3.40206 165.262 3.31871C165.179 3.23537 165.132 3.12232 165.132 3.00445V0.444445C165.132 0.326571 165.179 0.213524 165.262 0.130174C165.345 0.0468249 165.458 0 165.576 0C165.694 0 165.807 0.0468249 165.891 0.130174C165.974 0.213524 166.021 0.326571 166.021 0.444445V3.00445C166.021 3.12232 165.974 3.23537 165.891 3.31871C165.807 3.40206 165.694 3.44889 165.576 3.44889Z" fill="#726BDF"/>
<path d="M161.537 4.53338C161.486 4.56277 161.43 4.58183 161.372 4.58946C161.314 4.5971 161.255 4.59316 161.198 4.57788C161.142 4.5626 161.089 4.53626 161.042 4.5004C160.996 4.46454 160.957 4.41987 160.928 4.36894L159.648 2.14672C159.589 2.04416 159.573 1.9224 159.604 1.80821C159.635 1.69402 159.71 1.59676 159.813 1.53783C159.915 1.47889 160.037 1.4631 160.151 1.49394C160.265 1.52478 160.363 1.59972 160.422 1.70227L161.702 3.92449C161.731 3.97522 161.75 4.03126 161.758 4.08938C161.765 4.14751 161.761 4.20656 161.746 4.26316C161.731 4.31976 161.704 4.37277 161.669 4.41915C161.633 4.46552 161.588 4.50435 161.537 4.53338Z" fill="#726BDF"/>
<path d="M158.581 7.48873C158.552 7.53965 158.513 7.58434 158.467 7.6202C158.421 7.65605 158.368 7.68239 158.311 7.69767C158.254 7.71296 158.195 7.71689 158.137 7.70926C158.079 7.70162 158.023 7.68256 157.972 7.65317L155.75 6.37317C155.697 6.34539 155.65 6.30715 155.612 6.26075C155.574 6.21435 155.546 6.16076 155.529 6.10319C155.513 6.04562 155.508 5.98527 155.515 5.92576C155.522 5.86626 155.541 5.80883 155.571 5.75694C155.601 5.70504 155.642 5.65975 155.69 5.62379C155.737 5.58782 155.792 5.56193 155.85 5.54767C155.909 5.53341 155.969 5.53108 156.028 5.5408C156.087 5.55053 156.144 5.57213 156.195 5.60428L158.417 6.88428C158.518 6.94291 158.593 7.03937 158.624 7.15261C158.654 7.26585 158.639 7.38668 158.581 7.48873Z" fill="#726BDF"/>
<path d="M157.497 11.5336C157.497 11.6514 157.45 11.7645 157.367 11.8478C157.283 11.9312 157.17 11.978 157.052 11.978H154.492C154.374 11.978 154.261 11.9312 154.178 11.8478C154.095 11.7645 154.048 11.6514 154.048 11.5336C154.048 11.4157 154.095 11.3026 154.178 11.2193C154.261 11.1359 154.374 11.0891 154.492 11.0891H157.052C157.17 11.0891 157.283 11.1359 157.367 11.2193C157.45 11.3026 157.497 11.4157 157.497 11.5336Z" fill="#726BDF"/>
<path d="M158.582 15.5734C158.64 15.6755 158.655 15.7963 158.624 15.9096C158.593 16.0228 158.519 16.1192 158.417 16.1779L156.195 17.4579C156.145 17.4874 156.089 17.5068 156.031 17.5147C155.973 17.5227 155.914 17.5191 155.857 17.5043C155.801 17.4894 155.748 17.4635 155.701 17.4281C155.655 17.3927 155.616 17.3484 155.586 17.2979C155.557 17.2472 155.538 17.1911 155.53 17.133C155.523 17.0749 155.526 17.0158 155.542 16.9592C155.557 16.9026 155.583 16.8496 155.619 16.8032C155.655 16.7569 155.7 16.718 155.751 16.689L157.973 15.409C158.024 15.3796 158.08 15.3605 158.138 15.3529C158.196 15.3453 158.255 15.3492 158.312 15.3645C158.368 15.3798 158.421 15.4061 158.468 15.442C158.514 15.4778 158.553 15.5225 158.582 15.5734Z" fill="#726BDF"/>
<path d="M172.577 15.5732C172.635 15.4716 172.732 15.3972 172.845 15.3664C172.958 15.3356 173.079 15.3508 173.181 15.4088L175.403 16.6888C175.456 16.7166 175.503 16.7548 175.541 16.8012C175.579 16.8476 175.607 16.9012 175.624 16.9588C175.641 17.0163 175.646 17.0767 175.639 17.1362C175.631 17.1957 175.612 17.2531 175.582 17.305C175.552 17.3569 175.512 17.4022 175.464 17.4382C175.416 17.4741 175.361 17.5 175.303 17.5143C175.245 17.5285 175.184 17.5309 175.125 17.5212C175.066 17.5114 175.009 17.4898 174.959 17.4577L172.737 16.1777C172.636 16.1183 172.562 16.0215 172.532 15.9083C172.502 15.7952 172.518 15.6747 172.577 15.5732Z" fill="#726BDF"/>
<path d="M173.656 11.5336C173.656 11.4157 173.703 11.3026 173.786 11.2193C173.87 11.1359 173.983 11.0891 174.101 11.0891H176.665C176.783 11.0891 176.896 11.1359 176.979 11.2193C177.063 11.3026 177.11 11.4157 177.11 11.5336C177.11 11.6514 177.063 11.7645 176.979 11.8478C176.896 11.9312 176.783 11.978 176.665 11.978H174.101C173.983 11.978 173.87 11.9312 173.786 11.8478C173.703 11.7645 173.656 11.6514 173.656 11.5336Z" fill="#726BDF"/>
<path d="M172.577 7.48873C172.518 7.38721 172.502 7.26679 172.532 7.15361C172.562 7.04044 172.636 6.94365 172.737 6.88428L174.959 5.60428C175.009 5.57213 175.066 5.55053 175.125 5.5408C175.184 5.53108 175.245 5.53341 175.303 5.54767C175.361 5.56193 175.416 5.58782 175.464 5.62379C175.512 5.65975 175.552 5.70504 175.582 5.75694C175.612 5.80883 175.631 5.86626 175.639 5.92576C175.646 5.98527 175.641 6.04562 175.624 6.10319C175.607 6.16076 175.579 6.21435 175.541 6.26075C175.503 6.30715 175.456 6.34539 175.403 6.37317L173.181 7.65317C173.079 7.71112 172.958 7.72635 172.845 7.69554C172.732 7.66473 172.635 7.59039 172.577 7.48873Z" fill="#726BDF"/>
<path d="M169.616 4.53297C169.566 4.50357 169.522 4.46447 169.486 4.41793C169.451 4.37139 169.425 4.31831 169.41 4.26174C169.395 4.20518 169.392 4.14623 169.4 4.08829C169.408 4.03035 169.427 3.97455 169.457 3.92409L170.736 1.70186C170.798 1.60512 170.894 1.53588 171.006 1.50861C171.117 1.48134 171.235 1.49814 171.334 1.55551C171.433 1.61288 171.506 1.70637 171.538 1.81646C171.57 1.92656 171.559 2.04473 171.505 2.14631L170.225 4.36853C170.196 4.41946 170.158 4.46414 170.111 4.5C170.065 4.53586 170.012 4.56219 169.955 4.57747C169.899 4.59276 169.84 4.59669 169.781 4.58906C169.723 4.58142 169.667 4.56236 169.616 4.53297Z" fill="#726BDF"/>
<path d="M174.092 53.0088H158.358V37.6666C158.358 35.7511 159.119 33.9141 160.474 32.5597C161.828 31.2052 163.665 30.4443 165.581 30.4443H166.865C168.781 30.4443 170.618 31.2052 171.972 32.5597C173.326 33.9141 174.087 35.7511 174.087 37.6666V53.0088H174.092Z" fill="#263238"/>
<path d="M170.927 123.529V123.023C170.727 123.618 169.802 126.169 168.398 127.467C167.282 128.485 165.762 129.663 165.371 130.796C164.98 131.929 167.491 132.374 168.531 132.187C169.744 131.974 171.309 131.298 172.162 130.24C172.762 129.503 173.144 128.627 173.571 128.049C173.998 127.472 174.989 126.823 175.22 126.152C175.349 125.783 175.198 124.978 175.015 124.298C174.833 123.618 174.678 122.965 174.46 123.04V123.414C173.955 123.814 173.326 124.026 172.682 124.014C172.175 124.027 170.922 123.925 170.927 123.529Z" fill="#263238"/>
<path d="M167.39 128.347L168.399 127.458C169.381 126.569 170.128 125.045 170.555 124.009C170.8 123.42 170.927 122.789 170.928 122.151V120.125H174.461V123.413V123.502C174.292 124.24 172.684 126.191 171.75 127.467C171.128 128.32 169.972 129.409 168.55 129.596C167.204 129.773 166.524 129.356 167.39 128.347Z" fill="#FFA8A7"/>
<path d="M157.132 120.045V119.538C156.932 120.129 156.008 122.685 154.603 123.983C153.488 125 151.968 126.174 151.581 127.311C151.195 128.449 153.697 128.885 154.741 128.703C155.95 128.485 157.519 127.814 158.368 126.751C158.968 126.014 159.35 125.143 159.781 124.565C160.212 123.987 161.195 123.338 161.426 122.667C161.555 122.298 161.403 121.494 161.226 120.809C161.048 120.125 160.883 119.476 160.67 119.556V119.943C160.163 120.339 159.536 120.549 158.892 120.538C158.381 120.543 157.128 120.44 157.132 120.045Z" fill="#263238"/>
<path d="M153.594 124.858C153.94 124.551 154.287 124.249 154.603 123.969C155.585 123.08 156.331 121.56 156.758 120.524C157.006 119.935 157.133 119.301 157.131 118.662V116.649H160.687V119.929V120.018C160.514 120.751 158.909 122.706 157.971 123.982C157.354 124.835 156.194 125.924 154.776 126.111C153.358 126.298 152.727 125.866 153.594 124.858Z" fill="#FFA8A7"/>
<path d="M173.758 68.5692C176.501 74.5559 173.661 95.6492 173.661 95.6492C173.741 96.6225 174.852 98.5337 175.269 102.814C175.758 107.867 174.501 120.556 174.501 120.556C173.963 120.865 173.359 121.039 172.74 121.064C172.121 121.088 171.505 120.963 170.945 120.698C170.945 120.698 167.572 101.587 166.945 96.5603C166.389 92.1737 165.327 82.5337 165.327 82.5337L162.314 96.5381C162.755 97.9513 163.074 99.3995 163.269 100.867C163.554 103.823 160.692 117.583 160.692 117.583C160.692 117.583 159.469 118.027 157.136 117.689C157.136 117.689 156.123 99.427 155.856 95.867C155.412 89.8892 156.994 71.2314 158.078 67.6892L173.758 68.5692Z" fill="#37474F"/>
<path d="M165.306 82.5243L164.417 76.9643C164.417 76.9643 160.653 76.1821 158.946 74.5776C160.124 75.9576 161.663 76.9825 163.391 77.5376L164.386 81.8176L162.64 94.7821L165.306 82.5243Z" fill="#263238"/>
<path d="M163.071 47.5997C162.209 47.5265 161.344 47.6751 160.556 48.0314C159.769 48.3878 159.086 48.94 158.573 49.6353L151.737 58.5242C151.737 58.5242 143.737 54.5242 143.364 54.0797C142.991 53.6353 143.191 52.6486 143.297 52.1197C143.404 51.5908 143.586 50.422 143.702 50.0931C143.906 49.5197 143.057 49.6753 142.559 50.2086C142.062 50.742 141.835 51.7953 141.586 51.9864C141.337 52.1775 139.435 49.982 138.515 48.9286C137.595 47.8753 137.159 47.1508 136.542 47.5686C136.097 47.8842 136.382 48.5108 137.044 49.4131C137.353 49.7932 137.638 50.1925 137.897 50.6086C137.977 50.7686 137.733 50.902 137.635 50.9864C137.457 51.1464 137.137 51.4308 137.115 51.6575C137.128 51.795 137.128 51.9334 137.115 52.0708C137.026 52.3686 136.671 52.5153 136.551 52.8042C136.475 53.0175 136.551 53.2486 136.515 53.4797C136.488 53.622 136.408 53.7508 136.382 53.8931C136.373 54.0364 136.395 54.18 136.447 54.3141C136.498 54.4482 136.577 54.5699 136.679 54.6708C137.328 55.4397 138.213 55.7375 139.062 56.2042C139.768 56.5953 140.497 56.7686 141.284 57.1286C142.071 57.4886 151.533 64.0264 153.022 63.2042C154.511 62.382 162.222 53.4264 162.222 53.4264C164.466 49.6886 163.071 47.5997 163.071 47.5997Z" fill="#FFA8A7"/>
<path d="M168.91 47.7645C172.425 48.0045 172.67 49.7023 173.55 51.56C174.195 52.9897 174.256 54.6152 173.718 56.0889L171.265 63.1778C171.265 63.1778 172.416 65.9467 173.745 68.5689C167.598 72.0001 159.923 70.1956 158.074 67.6801C157.998 67.1512 158.47 63.0001 158.763 60.2889C157.683 57.5734 157.394 55.8445 157.852 54.0667C158.701 50.7378 161.994 47.4889 163.447 47.6089L168.91 47.7645Z" fill="#726BDF"/>
<path d="M174.241 32.969L173.175 34.6757C173.283 34.7514 173.406 34.8043 173.535 34.8312C173.665 34.8581 173.798 34.8585 173.928 34.8324C174.058 34.8062 174.181 34.754 174.29 34.6789C174.398 34.6039 174.491 34.5075 174.561 34.3957C174.702 34.1624 174.747 33.8839 174.688 33.6181C174.628 33.3524 174.468 33.1199 174.241 32.969Z" fill="#263238"/>
<path d="M175.42 34.915L173.425 34.635C173.4 34.7649 173.402 34.8985 173.43 35.0276C173.458 35.1568 173.512 35.2789 173.589 35.3865C173.666 35.4941 173.764 35.585 173.877 35.6537C173.99 35.7224 174.116 35.7674 174.247 35.7861C174.517 35.8209 174.79 35.7496 175.009 35.5871C175.228 35.4247 175.375 35.1838 175.42 34.915Z" fill="#263238"/>
<path d="M160.945 33.6357C160.114 34.1291 159.087 36.218 159.167 40.6002C159.256 44.3113 160.456 45.2313 161.061 45.4891C161.665 45.7469 162.839 45.5913 163.967 45.4046V47.6269C163.967 47.6269 162.399 49.4491 162.496 50.4713C162.594 51.4935 164.759 51.7335 166.225 50.7335C167.176 50.0516 167.991 49.1985 168.63 48.218V42.8269C168.749 42.9726 168.896 43.0933 169.063 43.1819C169.229 43.2705 169.411 43.3252 169.599 43.343C169.786 43.3608 169.976 43.3412 170.156 43.2854C170.336 43.2296 170.503 43.1387 170.647 43.018C171.896 42.1869 171.945 40.1291 171.216 39.3913C170.487 38.6535 168.923 38.8846 168.63 39.9069C168.63 39.9069 166.821 39.9735 164.416 38.6491C163.486 38.1435 162.687 37.4265 162.084 36.5557C161.481 35.6849 161.091 34.6848 160.945 33.6357Z" fill="#FFA8A7"/>
<path d="M163.75 39.6535C163.746 39.716 163.754 39.7787 163.774 39.838C163.794 39.8973 163.826 39.9521 163.867 39.9991C163.908 40.0462 163.959 40.0847 164.015 40.1123C164.071 40.1399 164.132 40.1562 164.195 40.1602C164.291 40.168 164.387 40.147 164.471 40.0997C164.555 40.0525 164.623 39.9812 164.667 39.895C164.71 39.8088 164.727 39.7117 164.715 39.616C164.702 39.5203 164.662 39.4304 164.598 39.3579C164.535 39.2853 164.451 39.2334 164.357 39.2089C164.264 39.1843 164.166 39.1881 164.074 39.2199C163.983 39.2516 163.904 39.3099 163.846 39.3871C163.788 39.4644 163.755 39.5571 163.75 39.6535Z" fill="#263238"/>
<path d="M163.207 42.7998L162.123 43.1465C162.142 43.2193 162.176 43.2875 162.223 43.3468C162.269 43.4061 162.327 43.4553 162.393 43.4915C162.459 43.5277 162.532 43.55 162.607 43.5572C162.682 43.5643 162.758 43.5562 162.83 43.5331C162.975 43.4833 163.096 43.3792 163.166 43.2425C163.237 43.1058 163.251 42.9472 163.207 42.7998Z" fill="#F28F8F"/>
<path d="M159.92 38.2178L160.867 37.5645C160.827 37.5006 160.775 37.4454 160.713 37.4024C160.651 37.3594 160.582 37.3295 160.508 37.3145C160.434 37.2995 160.358 37.2998 160.285 37.3153C160.211 37.3307 160.141 37.3611 160.08 37.4045C159.955 37.4942 159.868 37.6283 159.839 37.7794C159.809 37.9306 159.838 38.0874 159.92 38.2178Z" fill="#263238"/>
<path d="M160.137 39.3154C160.133 39.4074 160.156 39.4985 160.203 39.5774C160.251 39.6563 160.321 39.7194 160.404 39.7587C160.487 39.7981 160.58 39.8119 160.671 39.7986C160.762 39.7852 160.847 39.7452 160.916 39.6836C160.984 39.622 161.033 39.5415 161.056 39.4523C161.078 39.3631 161.074 39.2692 161.044 39.1823C161.013 39.0954 160.958 39.0195 160.884 38.9641C160.811 38.9087 160.722 38.8763 160.631 38.871C160.507 38.8661 160.386 38.9098 160.293 38.9928C160.201 39.0759 160.145 39.1916 160.137 39.3154Z" fill="#263238"/>
<path d="M162.416 39.0488L162.345 41.8577L160.865 41.3999L162.416 39.0488Z" fill="#F28F8F"/>
<path d="M163.986 45.3956C165.177 45.2401 167.635 44.5334 168.017 43.5601C167.864 44.0519 167.563 44.4848 167.155 44.8001C166.422 45.4312 163.986 46.1334 163.986 46.1334V45.3956Z" fill="#F28F8F"/>
<path opacity="0.1" d="M167.349 69.2313C167.83 69.1214 168.285 68.9163 168.687 68.6279C169.088 68.3396 169.428 67.9739 169.686 67.5523C169.944 67.1307 170.115 66.6618 170.189 66.1732C170.263 65.6845 170.239 65.186 170.117 64.7069C170.095 64.6313 170.073 64.5647 170.055 64.5113C169.97 64.2548 169.801 64.0345 169.575 63.8854C169.349 63.7364 169.08 63.6672 168.811 63.6891C169.205 63.4266 169.543 63.0889 169.806 62.6953C170.069 62.3018 170.252 61.8602 170.344 61.3958L171.091 56.9513C171.181 56.2277 171.118 55.4931 170.904 54.7958L173.375 51.938L173.82 52.258C174.194 53.5116 174.16 54.8519 173.722 56.0847L171.269 63.1736C171.269 63.1736 172.42 65.9424 173.749 68.5647C171.75 69.6429 169.544 70.2802 167.278 70.4336C165.013 70.5869 162.741 70.2527 160.615 69.4535C162.853 69.8068 165.138 69.7314 167.349 69.2313Z" fill="black"/>
<path d="M180.052 65.4043C176.861 52.3554 174.501 48.0087 170.621 48.071C169.492 49.4043 169.804 53.511 171.595 55.991C171.595 55.991 175.595 64.4043 176.217 67.3954C176.777 70.0221 177.408 73.3288 177.368 75.5865C177.36 75.988 177.201 76.3718 176.924 76.6621C176.199 77.4488 176.195 78.0843 175.724 78.9599C175.355 79.6443 174.95 79.8976 175.066 80.0532C175.218 80.2145 175.425 80.3131 175.646 80.3295C175.868 80.346 176.087 80.2791 176.261 80.1421C176.597 79.8882 176.896 79.5891 177.15 79.2532C177.025 80.0889 176.782 80.9028 176.43 81.671C175.612 83.5199 175.812 84.4576 178.306 83.8043C179.866 83.391 180.844 82.0888 181.079 78.3376C181.192 76.9567 181.205 75.5694 181.119 74.1865C180.804 70.631 180.564 67.5021 180.052 65.4043Z" fill="#FFA8A7"/>
<defs>
<linearGradient id="paint0_linear_537_229" x1="100.097" y1="80.2891" x2="100.097" y2="219.855" gradientUnits="userSpaceOnUse">
<stop stop-color="white"/>
<stop offset="1" stop-color="white"/>
</linearGradient>
</defs>
</svg>
