<svg width="276" height="133" viewBox="0 0 276 133" fill="none" xmlns="http://www.w3.org/2000/svg">
<path d="M62.5401 106.48L43.959 124.916C43.535 125.339 42.9604 125.577 42.3613 125.577C41.7622 125.577 41.1876 125.339 40.7636 124.916L13.5266 97.6786C13.3166 97.4689 13.15 97.2199 13.0364 96.9457C12.9228 96.6716 12.8643 96.3777 12.8643 96.0809C12.8643 95.7842 12.9228 95.4903 13.0364 95.2162C13.15 94.942 13.3166 94.693 13.5266 94.4832L32.8927 75.1172C33.1024 74.9072 33.3515 74.7406 33.6256 74.627C33.8997 74.5133 34.1936 74.4548 34.4904 74.4548C34.7871 74.4548 35.081 74.5133 35.3551 74.627C35.6293 74.7406 35.8783 74.9072 36.0881 75.1172L62.7165 101.282C62.7165 101.282 64.4629 102.869 63.8231 104.768C63.6709 105.193 62.5401 106.48 62.5401 106.48Z" fill="#DCDAF7" stroke="black" stroke-width="1.66864" stroke-linecap="round" stroke-linejoin="round"/>
<path d="M44.9648 90.7759L28.7422 106.998" stroke="black" stroke-width="1.66864" stroke-linecap="round" stroke-linejoin="round"/>
<path d="M44.9646 98.3459L32.5254 110.782" stroke="black" stroke-width="1.66864" stroke-linecap="round" stroke-linejoin="round"/>
<path d="M41.1791 86.9927L24.96 103.215" stroke="black" stroke-width="1.66864" stroke-linecap="round" stroke-linejoin="round"/>
<path d="M37.3944 83.209L21.1719 99.4281" stroke="black" stroke-width="1.66864" stroke-linecap="round" stroke-linejoin="round"/>
<path d="M49.2491 102.765C46.7039 104.024 44.4076 105.404 44.2831 105.494C43.648 105.932 43.1762 106.569 42.9416 107.304C42.7069 108.04 42.7226 108.832 42.9863 109.557C43.505 112.41 44.501 116.035 44.5183 116.042C45.4001 116.477 46.6935 115.464 46.7281 113.718C46.7281 112.998 46.4445 111.2 46.4445 109.817C46.4445 109.692 46.3926 108.738 46.8491 108.451C47.731 107.897 49.8163 108.174 49.8163 108.174C49.8163 108.174 50.3108 114.053 51.1235 114.966C53.8728 118.078 54.1702 114.738 54.1702 114.738L55.7264 113.026C57.874 113.026 59.5962 113.026 61.3357 113.026C65.6066 113.026 66.1772 110.744 66.1772 110.744H73.1905L73.2147 101.673H53.9869C52.3505 101.716 50.7394 102.088 49.2491 102.765Z" fill="#DCDAF7" stroke="black" stroke-width="1.66864" stroke-linecap="round" stroke-linejoin="round"/>
<path d="M50.2764 113.337L54.9899 116.104C55.1985 116.235 55.4316 116.321 55.6749 116.359C55.9182 116.396 56.1666 116.384 56.4049 116.322C56.6432 116.26 56.8663 116.15 57.0607 115.999C57.2551 115.848 57.4165 115.659 57.5352 115.443C58.168 114.478 59.662 111.985 59.662 111.985C59.662 111.985 60.6995 110.481 59.3784 109.654C58.0574 108.828 55.436 107.631 55.436 107.631L50.2764 113.337Z" fill="#DCDAF7" stroke="black" stroke-width="1.66864" stroke-linecap="round" stroke-linejoin="round"/>
<path d="M50.0442 114.368L52.0638 115.696C52.669 116.128 53.3607 116.387 54.2114 115.568C54.7286 115.07 55.2083 114.535 55.6465 113.967C55.6465 113.967 57.2754 112.258 56.0166 111.013C54.6782 109.689 53.5301 110.619 53.5301 110.619L52.2471 110.861L49.6016 113.652C49.7641 113.904 49.9128 114.157 50.0442 114.368Z" fill="#DCDAF7" stroke="black" stroke-width="1.66864" stroke-linecap="round" stroke-linejoin="round"/>
<path d="M43.7788 119.783C43.3362 120.644 43.0872 121.395 43.2117 121.46C43.3362 121.526 43.8065 120.886 44.2492 120.025L43.7788 119.783Z" fill="#726BDF"/>
<path d="M50.8534 102.62C50.9553 102.647 51.0633 102.64 51.1608 102.6C51.2583 102.56 51.3401 102.489 51.3937 102.398C51.4473 102.307 51.4698 102.201 51.4578 102.097C51.4458 101.992 51.3999 101.894 51.3272 101.818L55.024 95.5376C55.0821 95.438 55.1762 95.3645 55.2869 95.3323C55.3976 95.3002 55.5164 95.3117 55.6188 95.3647L56.2413 95.6863L56.5871 95.0188L55.318 94.3652C55.2142 94.3134 56.7012 94.1232 56.594 94.1577C56.4868 94.1923 54.7681 94.4551 54.7162 94.5589L50.6943 102.371C50.6866 102.389 50.6826 102.408 50.6826 102.428C50.6826 102.448 50.6866 102.467 50.6943 102.485C50.7061 102.523 50.7321 102.556 50.7669 102.575L50.8534 102.62Z" fill="#726BDF"/>
<path d="M50.7441 102.558L50.7649 102.575L50.8548 102.62C50.9568 102.647 51.0647 102.64 51.1622 102.6C51.2597 102.56 51.3415 102.489 51.3951 102.398C51.4487 102.307 51.4712 102.201 51.4592 102.097C51.4472 101.992 51.4014 101.894 51.3286 101.818L55.0254 95.5376C55.0841 95.4386 55.1782 95.3657 55.2887 95.3336C55.3991 95.3015 55.5177 95.3126 55.6202 95.3647L56.2427 95.6863L56.4156 95.3404L55.4508 94.8459C55.3556 94.7965 55.2448 94.7861 55.1421 94.8171C55.0394 94.8481 54.9529 94.918 54.9009 95.0119L50.7441 102.558Z" fill="#726BDF"/>
<path d="M56.8672 93.3905C56.9225 93.2852 57.0169 93.206 57.1302 93.1697C57.2434 93.1335 57.3663 93.1432 57.4724 93.1968L57.9185 93.4251C58.0244 93.4797 58.1043 93.5741 58.1406 93.6876C58.1769 93.8011 58.1667 93.9243 58.1122 94.0302L56.6424 96.8833L55.3975 96.2435L56.8672 93.3905Z" fill="#726BDF"/>
<path d="M43.9199 120.717C43.9571 120.737 43.9987 120.748 44.041 120.748C44.0833 120.748 44.1249 120.737 44.162 120.717L44.7914 120.323C44.9492 120.226 45.0773 120.087 45.1614 119.922L57.7909 95.382C57.8082 95.3506 57.8186 95.3159 57.8216 95.2801C57.8246 95.2444 57.82 95.2084 57.8082 95.1745C57.7867 95.1073 57.7395 95.0513 57.6768 95.0189L56.3281 94.3273C56.2642 94.2956 56.1904 94.2901 56.1226 94.3121C56.0547 94.3341 55.9982 94.3817 55.965 94.4448L43.339 118.974C43.2559 119.14 43.2177 119.325 43.2283 119.51L43.2767 120.25C43.2791 120.293 43.2924 120.334 43.3154 120.37C43.3385 120.405 43.3704 120.434 43.4081 120.454L43.9199 120.717Z" fill="#726BDF"/>
<path d="M47.5443 110.242C47.5761 110.18 47.62 110.124 47.6735 110.078C47.7269 110.033 47.7889 109.998 47.8557 109.977C47.9226 109.955 47.993 109.947 48.063 109.953C48.133 109.959 48.2012 109.978 48.2636 110.011L49.5812 110.702C49.6437 110.734 49.6993 110.777 49.7448 110.831C49.7904 110.884 49.8249 110.945 49.8465 111.012C49.868 111.078 49.8761 111.149 49.8704 111.218C49.8646 111.288 49.8451 111.356 49.8129 111.418L45.6872 119.393C45.6223 119.518 45.5106 119.612 45.3764 119.655C45.2423 119.697 45.0966 119.685 44.9714 119.621L43.6503 118.929C43.5254 118.865 43.4312 118.753 43.3884 118.619C43.3457 118.484 43.3578 118.339 43.4221 118.214L47.5443 110.242Z" fill="#726BDF"/>
<path d="M46.973 113.161C47.0129 113.082 47.0754 113.017 47.1524 112.973C47.2294 112.93 47.3176 112.911 47.4057 112.918C47.4938 112.925 47.5778 112.957 47.6472 113.012C47.7166 113.067 47.7681 113.141 47.7953 113.225C47.8226 113.309 47.8242 113.399 47.8 113.484C47.7759 113.569 47.7271 113.645 47.6597 113.702C47.5924 113.76 47.5096 113.796 47.4218 113.806C47.334 113.816 47.2452 113.799 47.1667 113.759C47.0619 113.705 46.9828 113.612 46.9465 113.5C46.9102 113.388 46.9197 113.266 46.973 113.161Z" fill="#726BDF"/>
<path d="M62.1815 101.776C56.8212 101.949 52.7958 105.674 51.3641 107.738L46.7716 113.946C46.7716 113.946 46.5122 115.008 47.8782 115.817C49.5071 116.778 51.2604 114.821 51.4921 114.568C52.9791 112.953 55.6593 109.948 55.6593 109.948H61.2166C61.2166 109.948 65.3942 109.862 66.1584 107.182" fill="#DCDAF7"/>
<path d="M62.1815 101.776C56.8212 101.949 52.7958 105.674 51.3641 107.738L46.7716 113.946C46.7716 113.946 46.5122 115.008 47.8782 115.817C49.5071 116.778 51.2604 114.821 51.4921 114.568C52.9791 112.953 55.6593 109.948 55.6593 109.948H61.2166C61.2166 109.948 65.3942 109.862 66.1584 107.182" stroke="black" stroke-width="1.66864" stroke-linecap="round" stroke-linejoin="round"/>
<path d="M73.2696 112.389C73.2696 112.473 73.2365 112.553 73.1776 112.613C73.1187 112.672 73.0387 112.706 72.9549 112.707H67.9612C67.8777 112.705 67.7982 112.671 67.7394 112.612C67.6807 112.553 67.6474 112.473 67.6465 112.389L67.6811 101.305C67.6811 101.221 67.7146 101.14 67.7743 101.08C67.8339 101.021 67.9148 100.987 67.9992 100.987L72.9894 101.005C73.0311 101.005 73.0723 101.013 73.1107 101.029C73.1491 101.045 73.1839 101.068 73.2132 101.098C73.2425 101.128 73.2656 101.163 73.2812 101.201C73.2968 101.24 73.3046 101.281 73.3042 101.323L73.2696 112.389Z" fill="#DCDAF7" stroke="black" stroke-width="1.66864" stroke-linecap="round" stroke-linejoin="round"/>
<path d="M104.111 111.117C99.8751 114.658 96.984 114.513 94.4283 114.51L72.1712 114.485C72.1297 114.486 72.0886 114.478 72.0502 114.462C72.0118 114.447 71.9769 114.424 71.9476 114.394C71.9183 114.365 71.8951 114.33 71.8795 114.292C71.8638 114.253 71.856 114.212 71.8565 114.171L71.8945 100.964C71.8954 100.88 71.9293 100.8 71.9889 100.741C72.0485 100.682 72.1289 100.649 72.2127 100.649L90.5413 100.666L117.256 77.9146L123.944 92.6708L104.111 111.117Z" fill="#D8DBD7" stroke="#010200" stroke-width="1.66864"/>
<path d="M49.2491 102.765C46.7039 104.024 44.4076 105.404 44.2831 105.494C43.648 105.932 43.1762 106.569 42.9416 107.304C42.7069 108.04 42.7226 108.832 42.9863 109.557C43.505 112.41 44.501 116.035 44.5183 116.042C45.4001 116.477 46.6935 115.464 46.7281 113.718C46.7281 112.998 46.4445 111.2 46.4445 109.817C46.4445 109.692 46.3926 108.738 46.8491 108.451C47.731 107.897 49.8163 108.174 49.8163 108.174C49.8163 108.174 50.3108 114.053 51.1235 114.966C53.8728 118.078 54.1702 114.738 54.1702 114.738L55.7264 113.026C57.874 113.026 59.5962 113.026 61.3357 113.026C65.6066 113.026 66.1772 110.744 66.1772 110.744H73.1905L73.2147 101.673H53.9869C52.3505 101.716 50.7394 102.088 49.2491 102.765Z" fill="#DCDAF7" stroke="black" stroke-width="1.66864" stroke-linecap="round" stroke-linejoin="round"/>
<path d="M50.2764 113.337L54.9899 116.104C55.1985 116.235 55.4316 116.321 55.6749 116.359C55.9182 116.396 56.1666 116.384 56.4049 116.322C56.6432 116.26 56.8663 116.15 57.0607 115.999C57.2551 115.848 57.4165 115.659 57.5352 115.443C58.168 114.478 59.662 111.985 59.662 111.985C59.662 111.985 60.6995 110.481 59.3784 109.654C58.0574 108.828 55.436 107.631 55.436 107.631L50.2764 113.337Z" fill="#DCDAF7" stroke="black" stroke-width="1.66864" stroke-linecap="round" stroke-linejoin="round"/>
<path d="M50.0442 114.368L52.0638 115.696C52.669 116.128 53.3607 116.387 54.2114 115.568C54.7286 115.07 55.2083 114.535 55.6465 113.967C55.6465 113.967 57.2754 112.258 56.0166 111.013C54.6782 109.689 53.5301 110.619 53.5301 110.619L52.2471 110.861L49.6016 113.652C49.7641 113.904 49.9128 114.157 50.0442 114.368Z" fill="#DCDAF7" stroke="black" stroke-width="1.66864" stroke-linecap="round" stroke-linejoin="round"/>
<path d="M43.7788 119.783C43.3362 120.644 43.0872 121.395 43.2117 121.46C43.3362 121.526 43.8065 120.886 44.2492 120.025L43.7788 119.783Z" fill="#726BDF"/>
<path d="M50.8534 102.62C50.9553 102.647 51.0633 102.64 51.1608 102.6C51.2583 102.56 51.3401 102.489 51.3937 102.398C51.4473 102.307 51.4698 102.201 51.4578 102.097C51.4458 101.992 51.3999 101.894 51.3272 101.818L55.024 95.5376C55.0821 95.438 55.1762 95.3645 55.2869 95.3323C55.3976 95.3002 55.5164 95.3117 55.6188 95.3647L56.2413 95.6863L56.5871 95.0188L55.318 94.3652C55.2142 94.3134 56.7012 94.1232 56.594 94.1577C56.4868 94.1923 54.7681 94.4551 54.7162 94.5589L50.6943 102.371C50.6866 102.389 50.6826 102.408 50.6826 102.428C50.6826 102.448 50.6866 102.467 50.6943 102.485C50.7061 102.523 50.7321 102.556 50.7669 102.575L50.8534 102.62Z" fill="#726BDF"/>
<path d="M50.7441 102.558L50.7649 102.575L50.8548 102.62C50.9568 102.647 51.0647 102.64 51.1622 102.6C51.2597 102.56 51.3415 102.489 51.3951 102.398C51.4487 102.307 51.4712 102.201 51.4592 102.097C51.4472 101.992 51.4014 101.894 51.3286 101.818L55.0254 95.5376C55.0841 95.4386 55.1782 95.3657 55.2887 95.3336C55.3991 95.3015 55.5177 95.3126 55.6202 95.3647L56.2427 95.6863L56.4156 95.3404L55.4508 94.8459C55.3556 94.7965 55.2448 94.7861 55.1421 94.8171C55.0394 94.8481 54.9529 94.918 54.9009 95.0119L50.7441 102.558Z" fill="#726BDF"/>
<path d="M56.8672 93.3905C56.9225 93.2852 57.0169 93.206 57.1302 93.1697C57.2434 93.1335 57.3663 93.1432 57.4724 93.1968L57.9185 93.4251C58.0244 93.4797 58.1043 93.5741 58.1406 93.6876C58.1769 93.8011 58.1667 93.9243 58.1122 94.0302L56.6424 96.8833L55.3975 96.2435L56.8672 93.3905Z" fill="#726BDF"/>
<path d="M43.9199 120.717C43.9571 120.737 43.9987 120.748 44.041 120.748C44.0833 120.748 44.1249 120.737 44.162 120.717L44.7914 120.323C44.9492 120.226 45.0773 120.087 45.1614 119.922L57.7909 95.382C57.8082 95.3506 57.8186 95.3159 57.8216 95.2801C57.8246 95.2444 57.82 95.2084 57.8082 95.1745C57.7867 95.1073 57.7395 95.0513 57.6768 95.0189L56.3281 94.3273C56.2642 94.2956 56.1904 94.2901 56.1226 94.3121C56.0547 94.3341 55.9982 94.3817 55.965 94.4448L43.339 118.974C43.2559 119.14 43.2177 119.325 43.2283 119.51L43.2767 120.25C43.2791 120.293 43.2924 120.334 43.3154 120.37C43.3385 120.405 43.3704 120.434 43.4081 120.454L43.9199 120.717Z" fill="#726BDF"/>
<path d="M47.5443 110.242C47.5761 110.18 47.62 110.124 47.6735 110.078C47.7269 110.033 47.7889 109.998 47.8557 109.977C47.9226 109.955 47.993 109.947 48.063 109.953C48.133 109.959 48.2012 109.978 48.2636 110.011L49.5812 110.702C49.6437 110.734 49.6993 110.777 49.7448 110.831C49.7904 110.884 49.8249 110.945 49.8465 111.012C49.868 111.078 49.8761 111.149 49.8704 111.218C49.8646 111.288 49.8451 111.356 49.8129 111.418L45.6872 119.393C45.6223 119.518 45.5106 119.612 45.3764 119.655C45.2423 119.697 45.0966 119.685 44.9714 119.621L43.6503 118.929C43.5254 118.865 43.4312 118.753 43.3884 118.619C43.3457 118.484 43.3578 118.339 43.4221 118.214L47.5443 110.242Z" fill="#726BDF"/>
<path d="M46.973 113.161C47.0129 113.082 47.0754 113.017 47.1524 112.973C47.2294 112.93 47.3176 112.911 47.4057 112.918C47.4938 112.925 47.5778 112.957 47.6472 113.012C47.7166 113.067 47.7681 113.141 47.7953 113.225C47.8226 113.309 47.8242 113.399 47.8 113.484C47.7759 113.569 47.7271 113.645 47.6597 113.702C47.5924 113.76 47.5096 113.796 47.4218 113.806C47.334 113.816 47.2452 113.799 47.1667 113.759C47.0619 113.705 46.9828 113.612 46.9465 113.5C46.9102 113.388 46.9197 113.266 46.973 113.161Z" fill="#726BDF"/>
<path d="M62.1815 101.776C56.8212 101.949 52.7958 105.674 51.3641 107.738L46.7716 113.946C46.7716 113.946 46.5122 115.008 47.8782 115.817C49.5071 116.778 51.2604 114.821 51.4921 114.568C52.9791 112.953 55.6593 109.948 55.6593 109.948H61.2166C61.2166 109.948 65.3942 109.862 66.1584 107.182" fill="#DCDAF7"/>
<path d="M62.1815 101.776C56.8212 101.949 52.7958 105.674 51.3641 107.738L46.7716 113.946C46.7716 113.946 46.5122 115.008 47.8782 115.817C49.5071 116.778 51.2604 114.821 51.4921 114.568C52.9791 112.953 55.6593 109.948 55.6593 109.948H61.2166C61.2166 109.948 65.3942 109.862 66.1584 107.182" stroke="black" stroke-width="1.66864" stroke-linecap="round" stroke-linejoin="round"/>
<path d="M73.2696 112.389C73.2696 112.473 73.2365 112.553 73.1776 112.613C73.1187 112.672 73.0387 112.706 72.9549 112.707H67.9612C67.8777 112.705 67.7982 112.671 67.7394 112.612C67.6807 112.553 67.6474 112.473 67.6465 112.389L67.6811 101.305C67.6811 101.221 67.7146 101.14 67.7743 101.08C67.8339 101.021 67.9148 100.987 67.9992 100.987L72.9894 101.005C73.0311 101.005 73.0723 101.013 73.1107 101.029C73.1491 101.045 73.1839 101.068 73.2132 101.098C73.2425 101.128 73.2656 101.163 73.2812 101.201C73.2968 101.24 73.3046 101.281 73.3042 101.323L73.2696 112.389Z" fill="#DCDAF7" stroke="black" stroke-width="1.66864" stroke-linecap="round" stroke-linejoin="round"/>
<path d="M224.991 110.463C224.991 110.463 227.595 107.102 228.449 106.289C229.303 105.477 226.122 104.059 224.002 106.67C223.155 107.71 222.478 108.877 221.996 110.128L218.31 113.002L224.991 110.463Z" fill="#DCDAF7" stroke="black" stroke-width="1.66864" stroke-linecap="round" stroke-linejoin="round"/>
<path d="M229.6 107.859C229.6 107.859 232.391 104.864 233.058 103.685C233.65 102.648 230.731 101.458 228.611 104.065C227.764 105.105 227.086 106.272 226.602 107.524L222.919 110.397L229.6 107.859Z" fill="#DCDAF7" stroke="black" stroke-width="1.66864" stroke-linecap="round" stroke-linejoin="round"/>
<path d="M232.506 104.813C231.347 105.477 228.702 108.022 228.245 108.24C226.002 109.246 223.527 109.621 221.087 109.322C219.907 109.156 218.922 108.887 216.266 108.112C218.417 107.365 223.251 105.515 223.967 103.793C224.887 101.572 223.369 100.217 221.09 101.735C219.195 102.997 217.514 103.578 213.392 103.523C208.661 103.461 208.132 103.903 207.167 104.56C207.021 104.659 206.887 104.775 206.77 104.906L201.489 103.689L200.354 111.954L217.106 115.81C217.106 115.81 219.492 116.612 221.384 116.094C221.988 115.889 222.561 115.604 223.089 115.246L231.022 111.442C232.163 110.899 236.247 105.909 236.448 105.639C236.905 105.034 235.826 102.928 232.506 104.813Z" fill="#DCDAF7" stroke="black" stroke-width="1.66864" stroke-linecap="round" stroke-linejoin="round"/>
<path d="M201.917 104.163C201.917 104.122 201.926 104.082 201.942 104.044C201.959 104.006 201.982 103.972 202.012 103.944C202.042 103.916 202.077 103.894 202.115 103.879C202.153 103.864 202.194 103.857 202.235 103.859H207.187C207.272 103.858 207.355 103.889 207.418 103.945C207.482 104.001 207.523 104.079 207.533 104.163V115.209C207.526 115.296 207.487 115.377 207.423 115.436C207.358 115.495 207.274 115.527 207.187 115.527H202.235C202.151 115.527 202.07 115.493 202.01 115.434C201.951 115.374 201.917 115.293 201.917 115.209V104.163Z" fill="#DCDAF7" stroke="black" stroke-width="1.66864" stroke-linecap="round" stroke-linejoin="round"/>
<path d="M159.253 74.8025L183.132 102.043H203.017C203.103 102.051 203.183 102.091 203.242 102.155C203.3 102.219 203.332 102.302 203.332 102.389V115.551C203.325 115.638 203.285 115.719 203.221 115.778C203.157 115.837 203.073 115.869 202.986 115.869H179.124C177.905 115.809 176.709 115.52 175.597 115.018C174.252 114.395 173.021 113.551 171.955 112.521L153.91 92.6988L159.253 74.8025Z" fill="#D8DBD7" stroke="#010200" stroke-width="1.66864"/>
<path opacity="0.17" d="M117.251 77.9146L90.5363 100.666H87.123C88.8277 102.899 90.6907 105.006 92.6977 106.971C95.0459 109.212 100.883 111.349 105.033 107.085C107.675 104.37 117.293 92.1417 117.293 92.1417C117.293 92.0414 117.31 94.7319 117.313 98.8403L123.939 92.6743L117.251 77.9146Z" fill="#010200"/>
<path opacity="0.17" d="M183.132 102.043L159.253 74.8025L153.91 92.7127L163.534 103.288V88.8187C163.534 88.421 164.067 88.67 164.112 89.0712L174.009 102.752C178.349 107.455 180.884 108.465 187.801 102.043H183.132Z" fill="#010200"/>
<path d="M205.984 59.0292C205.984 59.0292 214.34 56.8298 214.139 62.4356C213.907 68.9301 208.806 75.6529 203.937 77.2748C199.068 78.8967 196.751 80.0587 196.751 80.0587L192.809 73.5676L205.984 59.0292Z" fill="white" stroke="#020500" stroke-width="1.66864" stroke-linecap="round" stroke-linejoin="round"/>
<path d="M261.661 48.9415H271.586C270.747 46.9566 269.377 45.2418 267.625 43.986C265.874 42.7303 263.81 41.9823 261.661 41.8245V48.9415Z" fill="#726BDF"/>
<path d="M260.353 41.8105C258.139 41.9029 255.998 42.6222 254.177 43.8846C252.356 45.1471 250.931 46.9007 250.068 48.9414H260.367L260.353 41.8105Z" fill="#726BDF"/>
<path d="M272.047 50.2488H261.672V57.5353H271.784C272.269 56.2367 272.516 54.8615 272.513 53.4753C272.509 52.3833 272.352 51.2972 272.047 50.2488Z" fill="#726BDF"/>
<path d="M260.354 50.2488H249.595C248.904 52.6442 249 55.1983 249.868 57.5353H260.354V50.2488Z" fill="#726BDF"/>
<path d="M260.355 58.8459H250.45C251.4 60.6752 252.816 62.2211 254.555 63.327C256.295 64.4329 258.295 65.0595 260.355 65.1434V58.8459Z" fill="#726BDF"/>
<path d="M261.661 58.8459V65.1434C263.654 64.9966 265.576 64.342 267.244 63.2421C268.913 62.1422 270.272 60.6335 271.192 58.8598L261.661 58.8459Z" fill="#726BDF"/>
<path d="M260.821 65.1605C256.73 65.1605 253.403 59.9178 253.403 53.4751C253.403 47.0324 256.73 41.7932 260.821 41.7932C264.912 41.7932 268.243 47.0324 268.243 53.4751C268.243 59.9178 264.912 65.1605 260.821 65.1605ZM260.821 43.1004C257.453 43.1004 254.711 47.7552 254.711 53.4751C254.711 59.195 257.453 63.8498 260.821 63.8498C264.19 63.8498 266.932 59.1985 266.932 53.4751C266.932 47.7517 264.193 43.1004 260.821 43.1004Z" fill="#F5F5F5"/>
<path d="M205.583 28.3097C205.583 27.6113 205.324 26.9376 204.856 26.4194C204.387 25.9012 203.743 25.5754 203.048 25.5051C202.97 24.2703 202.461 23.1021 201.61 22.204C200.759 21.3058 199.62 20.7348 198.391 20.5903C197.163 20.4459 195.922 20.7372 194.886 21.4135C193.85 22.0898 193.084 23.1082 192.722 24.2913C191.847 24.3795 191.04 24.8006 190.467 25.4675C189.893 26.1344 189.599 26.996 189.643 27.8742C189.687 28.7524 190.068 29.5799 190.705 30.1856C191.343 30.7912 192.188 31.1287 193.068 31.1282H202.792C203.535 31.1218 204.246 30.8219 204.768 30.294C205.291 29.766 205.584 29.0527 205.583 28.3097Z" fill="#DCDAF7"/>
<path d="M221.401 19.794L189.122 52.0725L214.984 77.9344L247.262 45.6559L221.401 19.794Z" fill="white" stroke="#020500" stroke-width="1.66864" stroke-linecap="round" stroke-linejoin="round"/>
<path d="M217.861 68.6366L198.547 49.3224L218.895 28.9707" stroke="black" stroke-width="1.66864" stroke-linecap="round" stroke-linejoin="round"/>
<path d="M208.946 42.9448L202.671 49.2195L205.669 52.2175L211.944 45.9427L208.946 42.9448Z" fill="#726BDF"/>
<path d="M211.936 49.2829L207.336 53.8826L210.334 56.8806L214.934 52.2809L211.936 49.2829Z" fill="#726BDF"/>
<path d="M219.113 51.4346L212.002 58.5457L215 61.5436L222.111 54.4326L219.113 51.4346Z" fill="#726BDF"/>
<path d="M226.29 53.6083L216.67 63.2283L219.67 66.2287L229.29 56.6087L226.29 53.6083Z" fill="#726BDF"/>
<path d="M227.62 49.6298L235.114 46.5174L227.616 43.405C227.616 48.3088 227.616 44.7399 227.62 49.6298Z" fill="#D8DBD7" stroke="#010200" stroke-width="1.66864"/>
<path d="M210.888 40.2651L218.752 40.2686V46.4104H227.356" stroke="black" stroke-width="1.66864" stroke-linecap="round" stroke-linejoin="round"/>
<path d="M17.3044 31.453H38.0538C38.6821 31.453 39.2846 31.2035 39.7289 30.7592C40.1731 30.315 40.4227 29.7124 40.4227 29.0842V11.3918H14.9355V29.0842C14.9355 29.7124 15.1851 30.315 15.6294 30.7592C16.0736 31.2035 16.6762 31.453 17.3044 31.453Z" fill="white" stroke="black" stroke-width="1.66864" stroke-linecap="round" stroke-linejoin="round"/>
<path d="M40.4286 8.33178C40.429 8.02057 40.3681 7.71232 40.2492 7.42471C40.1303 7.1371 39.9558 6.87577 39.7358 6.65571C39.5157 6.43565 39.2544 6.26118 38.9668 6.14229C38.6791 6.0234 38.3709 5.96244 38.0597 5.96289H17.3103C16.682 5.96289 16.0795 6.21247 15.6352 6.65672C15.191 7.10098 14.9414 7.70352 14.9414 8.33178V11.3923H40.432L40.4286 8.33178Z" fill="#726BDF" stroke="black" stroke-width="1.66864" stroke-linecap="round" stroke-linejoin="round"/>
<path d="M22.2197 17.4717C24.5125 15.3242 27.3414 18.0562 25.678 20.2383C25.1039 20.9818 24.3673 21.8499 22.7523 23.6066L22.6866 23.6447H26.2659" fill="white"/>
<path d="M22.2197 17.4717C24.5125 15.3242 27.3414 18.0562 25.678 20.2383C25.1039 20.9818 24.3673 21.8499 22.7523 23.6066L22.6866 23.6447H26.2659" stroke="black" stroke-width="1.66864" stroke-linecap="round" stroke-linejoin="round"/>
<path d="M28.3516 16.78H33.0824V18.0285C31.7025 19.6094 30.8216 21.5636 30.551 23.6446" fill="white"/>
<path d="M28.3516 16.78H33.0824V18.0285C31.7025 19.6094 30.8216 21.5636 30.551 23.6446" stroke="black" stroke-width="1.66864" stroke-linecap="round" stroke-linejoin="round"/>
<path d="M38.0598 31.4536C38.688 31.4536 39.2906 31.204 39.7348 30.7597C40.1791 30.3155 40.4287 29.713 40.4287 29.0847V24.4956L33.4707 31.4536H38.0598Z" fill="#726BDF" stroke="black" stroke-width="1.66864" stroke-linecap="round" stroke-linejoin="round"/>
<path d="M36.3501 24.4363C35.5613 24.4363 34.8048 24.7496 34.2471 25.3074C33.6893 25.8651 33.376 26.6216 33.376 27.4104V31.453H33.4763L40.4411 24.4882V24.4363H36.3501Z" fill="white" stroke="black" stroke-width="1.66864" stroke-linecap="round" stroke-linejoin="round"/>
<path d="M64.1883 61.035C64.133 58.7837 63.4033 52.0436 63.4033 52.0436C63.5002 51.3174 63.9981 49.896 65.2984 49.9306C66.5987 49.9652 67.325 52.6073 67.325 52.6073C67.3837 51.6217 67.3561 48.205 69.3411 48.5197C70.7728 48.7514 70.8074 50.2695 70.8074 50.2695C70.877 49.9651 71.0569 49.6974 71.3123 49.5179C71.5678 49.3384 71.8808 49.26 72.1907 49.2978C73.574 49.3911 73.6155 51.3727 73.6155 51.3727L73.7434 52.6142C73.7434 52.6142 73.9613 51.7773 75.1267 51.9606C76.1815 52.1301 76.2437 53.8453 76.2437 53.8453L76.8973 61.0765C78.1631 62.6984 78.6265 63.3071 79.6432 64.6281C82.1469 67.865 80.7429 69.6287 80.7429 69.6287L84.8547 74.9475L77.4299 80.7054L66.1595 66.129C64.9772 64.684 64.2866 62.8995 64.1883 61.035Z" fill="white" stroke="black" stroke-width="1.66864"/>
<path d="M57.9406 33.8351L46.4473 42.7214L64.0062 65.4319L75.4996 56.5456L57.9406 33.8351Z" fill="#D8DBD7" stroke="#010200" stroke-width="1.66864"/>
<path d="M71.6244 55.6746L57.5943 37.5293L50.332 43.1489L64.3621 61.2908L71.6244 55.6746Z" fill="#DCDAF7"/>
<path d="M57.1 44.3942C58.0851 43.6322 59.2741 43.1795 60.5165 43.0933C61.759 43.007 62.9991 43.2911 64.0801 43.9096C65.1611 44.5281 66.0344 45.4532 66.5897 46.568C67.1449 47.6828 67.3571 48.9372 67.1995 50.1726C67.0419 51.408 66.5215 52.569 65.7041 53.5086C64.8867 54.4483 63.8091 55.1245 62.6074 55.4517C61.4057 55.779 60.134 55.7426 58.953 55.3471C57.7721 54.9516 56.7349 54.2148 55.9726 53.2299C55.4663 52.5758 55.0939 51.8283 54.8765 51.0302C54.6592 50.2321 54.6012 49.399 54.7059 48.5785C54.8106 47.758 55.0759 46.9662 55.4867 46.2482C55.8975 45.5302 56.4457 44.9002 57.1 44.3942Z" fill="#726BDF"/>
<path d="M63.9602 49.8337C64.1418 49.6924 64.2926 49.5155 64.4033 49.3137C64.5139 49.112 64.582 48.8897 64.6034 48.6606C64.6248 48.4315 64.599 48.2004 64.5276 47.9817C64.4562 47.7629 64.3408 47.5611 64.1884 47.3887L63.7008 46.7593C62.2864 44.9299 59.2051 46.8561 60.8651 48.9484L61.2939 49.64C62.7463 51.4832 59.9106 53.7069 58.4581 51.8325L57.9705 51.1997C57.2374 50.2486 57.4483 49.2492 58.1538 48.7028" stroke="black" stroke-width="1.66864" stroke-linecap="round" stroke-linejoin="round"/>
<path d="M55.1312 41.2089C55.3625 41.0309 55.6413 40.9254 55.9325 40.9057C56.2236 40.886 56.5141 40.9531 56.7672 41.0984C57.0203 41.2437 57.2246 41.4608 57.3544 41.7222C57.4843 41.9835 57.5337 42.2775 57.4966 42.567C57.4594 42.8564 57.3373 43.1284 57.1457 43.3485C56.9541 43.5687 56.7016 43.7271 56.42 43.8038C56.1384 43.8805 55.8404 43.872 55.5637 43.7795C55.2869 43.6869 55.0437 43.5144 54.8649 43.2838C54.6253 42.9732 54.5188 42.5803 54.5687 42.1912C54.6186 41.8022 54.8209 41.4488 55.1312 41.2089Z" fill="#726BDF"/>
<path d="M67.6402 55.0798C67.8801 55.3898 67.987 55.7824 67.9373 56.1712C67.8877 56.56 67.6857 56.9132 67.3757 57.153C67.0657 57.3929 66.6731 57.4998 66.2843 57.4502C65.8955 57.4005 65.5423 57.1985 65.3025 56.8885C64.1094 55.3461 66.4368 53.5375 67.6402 55.0798Z" fill="#726BDF"/>
<path d="M57.7676 51.805L64.3106 46.7422" stroke="black" stroke-width="1.66864" stroke-linecap="round" stroke-linejoin="round"/>
<path d="M64.8394 34.3063L61.1963 62.7844L75.6069 64.6279L79.25 36.1498L64.8394 34.3063Z" fill="#726BDF" stroke="black" stroke-width="1.66864" stroke-linecap="round" stroke-linejoin="round"/>
<path d="M73.4792 61.263L76.3876 38.5148L67.2751 37.3494L64.3633 60.0976L73.4792 61.263Z" fill="white"/>
<path d="M71.2217 42.6857C72.5223 42.8515 73.7446 43.3993 74.734 44.2598C75.7233 45.1203 76.4353 46.2549 76.7798 47.52C77.1244 48.7851 77.086 50.124 76.6696 51.3674C76.2531 52.6107 75.4774 53.7026 74.4404 54.505C73.4034 55.3074 72.1517 55.7843 70.8437 55.8754C69.5356 55.9664 68.2299 55.6675 67.0918 55.0165C65.9536 54.3655 65.0341 53.3916 64.4494 52.2179C63.8648 51.0443 63.6413 49.7236 63.8072 48.4229C64.0315 46.6797 64.9381 45.0967 66.3281 44.0211C67.7181 42.9456 69.478 42.4653 71.2217 42.6857Z" fill="white"/>
<path d="M72.285 51.8464C72.5251 51.8761 72.7689 51.8564 73.0011 51.7884C73.2334 51.7205 73.4493 51.6057 73.6356 51.4512C73.8218 51.2967 73.9745 51.1057 74.0842 50.89C74.1939 50.6743 74.2583 50.4384 74.2735 50.1968L74.3772 49.36C74.6884 46.9392 70.9536 46.0816 70.6354 48.8827L70.4521 49.7092C70.1582 52.1611 66.4025 51.715 66.7103 49.2285L66.8175 48.3951C66.9766 47.1432 67.8792 46.5553 68.8129 46.666" fill="white"/>
<path d="M72.285 51.8464C72.5251 51.8761 72.7689 51.8564 73.0011 51.7884C73.2334 51.7205 73.4493 51.6057 73.6356 51.4512C73.8218 51.2967 73.9745 51.1057 74.0842 50.89C74.1939 50.6743 74.2583 50.4384 74.2735 50.1968L74.3772 49.36C74.6884 46.9392 70.9536 46.0816 70.6354 48.8827L70.4521 49.7092C70.1582 52.1611 66.4025 51.715 66.7103 49.2285L66.8175 48.3951C66.9766 47.1432 67.8792 46.5553 68.8129 46.666" stroke="black" stroke-width="1.66864" stroke-linecap="round" stroke-linejoin="round"/>
<path d="M72.0446 39.3726C72.3341 39.4098 72.6062 39.5319 72.8263 39.7237C73.0465 39.9154 73.2049 40.1681 73.2815 40.4498C73.3581 40.7315 73.3495 41.0295 73.2567 41.3064C73.164 41.5832 72.9913 41.8263 72.7604 42.005C72.5296 42.1837 72.2509 42.2899 71.9597 42.3103C71.6685 42.3307 71.3778 42.2643 71.1243 42.1196C70.8708 41.9748 70.6658 41.7581 70.5354 41.4969C70.405 41.2358 70.3549 40.9418 70.3915 40.6522C70.4159 40.4595 70.478 40.2736 70.5743 40.105C70.6705 39.9364 70.7991 39.7884 70.9527 39.6695C71.1062 39.5507 71.2817 39.4633 71.4691 39.4123C71.6564 39.3614 71.852 39.3479 72.0446 39.3726Z" fill="#726BDF"/>
<path d="M71.0778 58.0296C71.0257 58.4162 70.8227 58.7665 70.5132 59.004C70.2037 59.2414 69.8128 59.3468 69.4259 59.297C69.039 59.2472 68.6875 59.0463 68.4482 58.7382C68.2089 58.4301 68.1012 58.0399 68.1487 57.6527C68.3977 55.7195 71.3268 56.0895 71.0778 58.0296Z" fill="#726BDF"/>
<path d="M65.5547 48.6128L75.5386 49.8923" stroke="black" stroke-width="1.66864" stroke-linecap="round" stroke-linejoin="round"/>
<path d="M68.9209 65.9562L70.4114 56.7296C70.4114 56.7296 70.5186 54.8034 72.3031 55.0005C73.8212 55.1699 74.1912 56.7538 74.1255 57.8155L73.9768 64.4069L76.1279 67.1735C76.1279 67.1735 77.6771 68.8369 77.563 70.1752C77.5237 70.882 77.3059 71.5673 76.9302 72.1671" fill="white"/>
<path d="M68.9209 65.9562L70.4114 56.7296C70.4114 56.7296 70.5186 54.8034 72.3031 55.0005C73.8212 55.1699 74.1912 56.7538 74.1255 57.8155L73.9768 64.4069L76.1279 67.1735C76.1279 67.1735 77.6771 68.8369 77.563 70.1752C77.5237 70.882 77.3059 71.5673 76.9302 72.1671" stroke="black" stroke-width="1.66864"/>
<path d="M175.025 65.1431C174.188 60.976 170.754 57.6941 166.379 56.878L150.593 54.5264C149.209 54.3119 148.106 52.8733 148.089 51.3794L147.743 42.9724H132.575L132.229 51.6699C132.195 52.354 131.925 53.0053 131.467 53.5141C131.008 54.023 130.389 54.3585 129.712 54.4641L114.122 56.8849C109.754 57.701 106.32 60.9829 105.477 65.15C105.477 65.15 116.256 80.349 117.297 80.3663C117.694 80.3663 117.297 80.6948 117.297 81.0959V119.178H162.6C162.6 78.6683 162.271 80.3836 163.333 80.425C163.538 80.4336 163.733 80.5148 163.883 80.6543C164.033 80.7938 164.129 80.9823 164.152 81.1859L175.025 65.1431Z" fill="white" stroke="#020500" stroke-width="1.66864" stroke-linecap="round" stroke-linejoin="round"/>
<path d="M141.736 68.6606L143.23 65.6416L140.197 60.3401L137.085 65.6416C139.243 70.0646 139.004 69.3142 138.814 70.286L137.085 79.2047L140.121 82.4382V82.5246L140.159 82.4797L140.194 82.5246V82.4347L143.306 79.2013C141.349 69.3488 141.238 69.6393 141.736 68.6606Z" fill="#726BDF"/>
<path d="M130.864 50.5943L128.547 54.3396L135.698 66.4261C136.19 67.2665 136.584 67.2146 137.03 66.3777L140.184 59.8071C131.127 49.3528 131.531 49.2595 130.864 50.5943Z" fill="white" stroke="#020500" stroke-width="1.66864" stroke-linecap="round" stroke-linejoin="round"/>
<path d="M149.461 50.5947L151.778 54.3399L144.626 66.4265C144.135 67.2668 143.738 67.2149 143.295 66.378L140.138 59.8074C149.24 49.3048 148.801 49.2771 149.461 50.5947Z" fill="white" stroke="#020500" stroke-width="1.66864" stroke-linecap="round" stroke-linejoin="round"/>
<path d="M176.568 65.9767C174.731 60.0354 172.238 57.4487 167.766 56.7605L158.547 55.4602L141.74 78.6788C141.598 78.9539 141.383 79.1846 141.119 79.3458C140.855 79.5069 140.552 79.5921 140.242 79.5921C139.933 79.5921 139.629 79.5069 139.365 79.3458C139.101 79.1846 138.886 78.9539 138.745 78.6788L121.941 55.4602L112.722 56.7743C107.97 57.466 105.369 59.5651 103.914 65.9905L96.3228 89.3509C96.3228 89.3509 82.7872 69.141 82.6904 69.0545C82.2754 68.6395 72.2915 75.4868 72.5509 75.8361C74.2385 78.1289 87.5077 97.4293 92.9544 102.617C95.2991 104.858 99.8121 106.601 103.675 103.82C106.756 101.614 117.287 87.2967 117.287 87.2967C117.332 86.8955 117.287 131.7 117.287 132.095H163.533V83.9768C163.533 83.5791 164.066 83.8281 164.111 84.2292L174.008 97.91C178.349 102.617 181.81 105.674 189.57 97.1872C194.129 92.2373 198.24 86.893 201.854 81.2171L192.662 72.5473L182.381 85.3912L176.568 65.9767Z" fill="#726BDF" stroke="#010200" stroke-width="1.66864"/>
<path d="M26.2451 68.9818C26.2451 75.9536 20.5943 78.983 13.6225 78.983C6.65075 78.983 1 75.9536 1 68.9818C1 62.01 6.65075 53.731 13.6225 53.731C20.5943 53.731 26.2451 62.01 26.2451 68.9818Z" fill="white" stroke="#020500" stroke-width="1.66864" stroke-linecap="round" stroke-linejoin="round"/>
<path d="M18.6872 53.8486C18.6872 53.9806 18.661 54.1112 18.6101 54.233C18.5592 54.3547 18.4846 54.4651 18.3906 54.5578C18.2967 54.6505 18.1853 54.7235 18.0628 54.7728C17.9404 54.822 17.8094 54.8464 17.6774 54.8446H9.55749C9.29335 54.8446 9.04002 54.7396 8.85324 54.5529C8.66646 54.3661 8.56152 54.1128 8.56152 53.8486C8.56152 53.5845 8.66646 53.3311 8.85324 53.1443C9.04002 52.9576 9.29335 52.8526 9.55749 52.8526H17.6774C17.8094 52.8508 17.9404 52.8752 18.0628 52.9244C18.1853 52.9737 18.2967 53.0467 18.3906 53.1394C18.4846 53.2321 18.5592 53.3425 18.6101 53.4642C18.661 53.586 18.6872 53.7166 18.6872 53.8486Z" fill="#726BDF" stroke="#010200" stroke-width="1.66864"/>
<path d="M21.4803 46.9978C21.3162 46.9968 21.1538 47.0298 21.0031 47.0946C20.1904 47.5373 19.0595 46.8594 17.6105 46.8594C16.1615 46.8594 15.4491 47.5511 14.633 47.0946C14.3131 46.9126 13.9606 46.7951 13.5955 46.7488C13.2306 46.7961 12.8783 46.9135 12.5581 47.0946C11.7454 47.5373 10.6145 46.8594 9.16553 46.8594C7.71653 46.8594 7.00413 47.5511 6.18799 47.0946C6.03851 47.0298 5.87715 46.9968 5.71421 46.9978C5.09865 46.9632 4.88424 47.7482 5.30269 48.2012L9.59435 52.8526H17.5483L21.9022 48.1978C22.3206 47.7482 22.1062 46.9632 21.4803 46.9978Z" fill="white" stroke="#020500" stroke-width="1.66864" stroke-linecap="round" stroke-linejoin="round"/>
<path d="M14.3208 65.7659V61.9342C15.756 61.9342 16.3715 62.6812 16.3715 63.6253H17.9277C17.9277 61.8961 16.6516 60.3815 14.3208 60.3815V59.2195H12.7646V60.3815C8.16514 60.4057 8.17551 67.3636 12.7646 67.336V71.1677C11.4885 71.1677 10.8418 70.393 10.8418 69.4766H9.28906C9.28906 71.178 10.579 72.7239 12.7473 72.7239V73.8858H14.3035V72.7239C18.7819 72.7239 19.5323 65.7279 14.3208 65.7659ZM12.7646 61.9342V65.7832C10.2747 65.8351 10.164 61.9619 12.7646 61.9342ZM14.3208 71.1677V67.3221C17.4574 67.2772 16.7969 71.1677 14.3208 71.1677Z" fill="#726BDF"/>
<path d="M193.477 73.1492C193.477 73.1492 195.13 66.8414 196.288 64.5244C197.447 62.2074 198.947 62.1037 202.198 62.031C204.325 61.9792 209.505 62.1555 209.505 62.1555C209.505 62.1555 210.173 65.7175 207.389 66.1809C204.605 66.6443 200.926 66.8414 200.926 66.8414C201.463 67.4257 201.815 68.1557 201.938 68.9397C202.061 69.7237 201.949 70.5265 201.617 71.2472C200.459 73.7994 196.343 75.6461 196.343 75.6461L193.477 73.1492Z" fill="white" stroke="#020500" stroke-width="1.66864" stroke-linecap="round" stroke-linejoin="round"/>
<path d="M152.714 28.2788L153.669 28.3376C155.104 28.7353 156.653 30.0909 156.29 32.2765C155.961 34.2615 155.802 34.4275 155.398 36.8933C154.827 40.3792 151.978 39.2449 151.978 39.2449L152.714 28.2788Z" fill="white" stroke="#020500" stroke-width="1.66864" stroke-linecap="round" stroke-linejoin="round"/>
<path d="M127.474 28.2788L126.523 28.3376C125.085 28.7353 123.539 30.0909 123.898 32.2765C124.244 34.2615 124.386 34.4275 124.794 36.8933C125.365 40.3792 128.214 39.2449 128.214 39.2449L127.474 28.2788Z" fill="white" stroke="#020500" stroke-width="1.66864" stroke-linecap="round" stroke-linejoin="round"/>
<path d="M140.014 18.1113L128.256 18.1597C128.256 42.229 127.71 42.3328 129.892 44.6048C135.366 50.2936 134.522 50.0688 140.108 50.0688C142.591 50.0688 144.686 50.3663 146.612 48.3639C150.212 44.636 151.855 43.5086 151.855 40.5518V18.177L140.014 18.1113Z" fill="white" stroke="#020500" stroke-width="1.66864" stroke-linecap="round" stroke-linejoin="round"/>
<path d="M128.977 31.8021V23.99C128.943 21.2822 130.817 18.5502 133.798 18.5087H138.795C140.313 19.0655 138.819 22.4165 140.324 21.839L148.623 18.4257C150.242 18.0799 151.172 19.4839 151.172 20.7911V31.7018C151.172 32.1514 153.645 30.9445 154.25 28.375L155.336 13.0516C155.374 10.9767 154.772 8.92593 151.878 8.92593H136.437C129.122 8.79797 123.617 12.3634 124.845 20.2205L126.245 28.9318C126.498 30.9514 128.977 32.2033 128.977 31.8021Z" fill="#726BDF" stroke="black" stroke-width="1.66864" stroke-linecap="round" stroke-linejoin="round"/>
<path d="M258.656 20.8777C258.636 20.0047 258.791 19.1364 259.111 18.324C259.431 17.5116 259.91 16.7713 260.521 16.1468C261.131 15.5222 261.86 15.026 262.665 14.6872C263.47 14.3484 264.334 14.1738 265.208 14.1738C266.081 14.1738 266.945 14.3484 267.75 14.6872C268.555 15.026 269.284 15.5222 269.894 16.1468C270.505 16.7713 270.984 17.5116 271.304 18.324C271.625 19.1364 271.779 20.0047 271.759 20.8777V24.08C271.779 24.9531 271.625 25.8213 271.304 26.6337C270.984 27.4462 270.505 28.1864 269.894 28.8109C269.284 29.4355 268.555 29.9317 267.75 30.2706C266.945 30.6094 266.081 30.7839 265.208 30.7839C264.334 30.7839 263.47 30.6094 262.665 30.2706C261.86 29.9317 261.131 29.4355 260.521 28.8109C259.91 28.1864 259.431 27.4462 259.111 26.6337C258.791 25.8213 258.636 24.9531 258.656 24.08V20.8777Z" fill="#DDDDDD" stroke="black" stroke-width="1.66864" stroke-linecap="round" stroke-linejoin="round"/>
<path d="M265.196 27.4487C263.896 27.4487 262.626 27.0633 261.545 26.3413C260.465 25.6193 259.622 24.5931 259.125 23.3925C258.628 22.1919 258.498 20.8707 258.751 19.5961C259.005 18.3216 259.631 17.1508 260.55 16.2319C261.468 15.313 262.639 14.6872 263.914 14.4336C265.188 14.1801 266.509 14.3102 267.71 14.8075C268.911 15.3049 269.937 16.147 270.659 17.2276C271.381 18.3081 271.766 19.5785 271.766 20.878C271.766 22.6207 271.074 24.2919 269.842 25.5242C268.61 26.7564 266.938 27.4487 265.196 27.4487Z" fill="#DCDAF7" stroke="black" stroke-width="1.66864" stroke-linecap="round" stroke-linejoin="round"/>
<path d="M263.591 2.29346H228.805V19.8993H263.591V2.29346Z" fill="#726BDF" stroke="black" stroke-width="1.66864" stroke-linecap="round" stroke-linejoin="round"/>
<path d="M232.169 16.8183H260.651V5.6897H232.169V16.8183Z" fill="#DCDAF7"/>
<path d="M253.065 11.2536C253.065 12.5593 252.678 13.8357 251.952 14.9214C251.227 16.007 250.196 16.8532 248.989 17.3528C247.783 17.8525 246.456 17.9833 245.175 17.7285C243.895 17.4738 242.718 16.845 241.795 15.9218C240.872 14.9985 240.243 13.8222 239.988 12.5416C239.733 11.2609 239.864 9.93355 240.364 8.72723C240.864 7.52092 241.71 6.48986 242.795 5.76445C243.881 5.03904 245.157 4.65186 246.463 4.65186C248.214 4.65186 249.893 5.34739 251.131 6.58546C252.369 7.82354 253.065 9.50272 253.065 11.2536Z" fill="white" stroke="black" stroke-width="1.66864" stroke-linecap="round" stroke-linejoin="round"/>
<path d="M244.152 13.4603C244.153 13.7013 244.203 13.9395 244.3 14.1603C244.397 14.3811 244.537 14.5798 244.714 14.7441C244.89 14.9084 245.098 15.0348 245.325 15.1156C245.552 15.1963 245.793 15.2297 246.034 15.2136H246.871C249.291 15.2136 249.679 11.4096 246.871 11.458L246.034 11.3784C243.571 11.4026 243.54 7.63664 246.034 7.6228H246.871C248.129 7.6228 248.821 8.43895 248.821 9.37613" fill="white"/>
<path d="M244.152 13.4603C244.153 13.7013 244.203 13.9395 244.3 14.1603C244.397 14.3811 244.537 14.5798 244.714 14.7441C244.89 14.9084 245.098 15.0348 245.325 15.1156C245.552 15.1963 245.793 15.2297 246.034 15.2136H246.871C249.291 15.2136 249.679 11.4096 246.871 11.458L246.034 11.3784C243.571 11.4026 243.54 7.63664 246.034 7.6228H246.871C248.129 7.6228 248.821 8.43895 248.821 9.37613" stroke="black" stroke-width="1.66864" stroke-linecap="round" stroke-linejoin="round"/>
<path d="M258.604 11.731C258.605 12.0856 258.5 12.4324 258.304 12.7275C258.107 13.0227 257.827 13.2528 257.5 13.3888C257.172 13.5248 256.812 13.5606 256.464 13.4916C256.116 13.4226 255.797 13.2519 255.546 13.0012C255.295 12.7504 255.125 12.4309 255.056 12.0831C254.987 11.7353 255.022 11.3748 255.159 11.0474C255.295 10.7199 255.525 10.4402 255.82 10.2436C256.115 10.047 256.462 9.94243 256.816 9.94312C257.29 9.94403 257.744 10.1327 258.08 10.4678C258.415 10.8029 258.603 11.2571 258.604 11.731Z" fill="#726BDF"/>
<path d="M236.035 13.4431C235.793 13.4537 235.552 13.4153 235.326 13.3301C235.099 13.245 234.893 13.1149 234.718 12.9476C234.543 12.7804 234.404 12.5795 234.309 12.3571C234.214 12.1347 234.165 11.8953 234.165 11.6534C234.165 11.4116 234.214 11.1722 234.309 10.9498C234.404 10.7273 234.543 10.5265 234.718 10.3592C234.893 10.192 235.099 10.0619 235.326 9.97674C235.552 9.89159 235.793 9.85317 236.035 9.86379C238.397 9.86379 238.401 13.4431 236.035 13.4431Z" fill="#726BDF"/>
<path d="M246.493 6.40869V16.4306" stroke="black" stroke-width="1.66864" stroke-linecap="round" stroke-linejoin="round"/>
<path d="M258.656 14.3281C258.636 13.4551 258.791 12.5869 259.111 11.7744C259.431 10.962 259.91 10.2218 260.521 9.59723C261.131 8.97269 261.86 8.47643 262.665 8.13761C263.47 7.7988 264.334 7.62427 265.208 7.62427C266.081 7.62427 266.945 7.7988 267.75 8.13761C268.555 8.47643 269.284 8.97269 269.894 9.59723C270.505 10.2218 270.984 10.962 271.304 11.7744C271.625 12.5869 271.779 13.4551 271.759 14.3281V17.5305C271.779 18.4035 271.625 19.2717 271.304 20.0842C270.984 20.8966 270.505 21.6368 269.894 22.2614C269.284 22.8859 268.555 23.3822 267.75 23.721C266.945 24.0598 266.081 24.2344 265.208 24.2344C264.334 24.2344 263.47 24.0598 262.665 23.721C261.86 23.3822 261.131 22.8859 260.521 22.2614C259.91 21.6368 259.431 20.8966 259.111 20.0842C258.791 19.2717 258.636 18.4035 258.656 17.5305V14.3281Z" fill="#DDDDDD" stroke="black" stroke-width="1.66864" stroke-linecap="round" stroke-linejoin="round"/>
<path d="M265.196 20.9023C263.896 20.9023 262.626 20.5169 261.545 19.7949C260.465 19.0729 259.622 18.0467 259.125 16.8461C258.628 15.6455 258.498 14.3243 258.751 13.0498C259.005 11.7752 259.631 10.6044 260.55 9.68548C261.468 8.76656 262.639 8.14077 263.914 7.88724C265.188 7.63371 266.509 7.76384 267.71 8.26115C268.911 8.75847 269.937 9.60064 270.659 10.6812C271.381 11.7617 271.766 13.0321 271.766 14.3316C271.766 16.0743 271.074 17.7455 269.842 18.9778C268.61 20.21 266.938 20.9023 265.196 20.9023Z" fill="#DCDAF7" stroke="black" stroke-width="1.66864" stroke-linecap="round" stroke-linejoin="round"/>
<path d="M266.752 16.0676C266.759 15.9163 266.728 15.7656 266.662 15.6292C266.596 15.4927 266.498 15.3748 266.375 15.286C265.969 15.0447 265.521 14.8827 265.054 14.8088C264.537 14.7124 264.035 14.5497 263.56 14.3246C263.234 14.1742 262.952 13.9433 262.74 13.6537C262.56 13.3803 262.468 13.0579 262.478 12.7304C262.477 12.4377 262.545 12.1488 262.675 11.887C262.806 11.6251 262.997 11.3976 263.231 11.2226C263.781 10.7961 264.463 10.578 265.158 10.607C265.879 10.5734 266.588 10.7992 267.157 11.2434C267.402 11.437 267.599 11.6848 267.732 11.9675C267.865 12.2501 267.931 12.5598 267.924 12.8722H266.669C266.668 12.7026 266.628 12.5356 266.553 12.3834C266.479 12.2313 266.37 12.0981 266.237 11.9938C265.931 11.742 265.543 11.6105 265.147 11.6238C264.772 11.6023 264.4 11.7057 264.089 11.9177C263.968 12.0058 263.869 12.1219 263.803 12.2562C263.736 12.3905 263.702 12.5389 263.705 12.6889C263.695 12.8247 263.721 12.9608 263.782 13.0827C263.843 13.2045 263.936 13.3075 264.051 13.3805C264.453 13.5922 264.886 13.7392 265.334 13.8163C265.854 13.921 266.359 14.0882 266.838 14.3143C267.178 14.4675 267.472 14.7057 267.693 15.0059C267.886 15.2988 267.984 15.6443 267.973 15.995C267.98 16.2987 267.913 16.5997 267.778 16.8715C267.642 17.1434 267.442 17.378 267.195 17.5546C266.604 17.9671 265.894 18.1726 265.175 18.1391C264.646 18.149 264.121 18.044 263.636 17.8313C263.218 17.6448 262.859 17.3469 262.599 16.9702C262.353 16.6198 262.221 16.2018 262.222 15.7736H263.46C263.465 15.9654 263.512 16.1536 263.599 16.3246C263.686 16.4957 263.809 16.6453 263.961 16.7627C264.317 17.0201 264.75 17.1494 265.189 17.1293C265.586 17.1482 265.98 17.0482 266.32 16.8422C266.454 16.7634 266.565 16.65 266.641 16.5138C266.717 16.3776 266.755 16.2235 266.752 16.0676Z" fill="black"/>
<path d="M265.248 10.1885V18.5954" stroke="black" stroke-width="1.66864" stroke-linecap="round" stroke-linejoin="round"/>
<path d="M43.1335 49.7888H31.334" stroke="black" stroke-width="1.66864" stroke-linecap="round" stroke-linejoin="round"/>
<path d="M43.1335 66.6892H31.334" stroke="black" stroke-width="1.66864" stroke-linecap="round" stroke-linejoin="round"/>
<path d="M38.8849 59.192C38.6761 59.1246 38.494 58.9927 38.3648 58.8153C38.2356 58.6379 38.1661 58.4241 38.1661 58.2047C38.1661 57.9852 38.2356 57.7714 38.3648 57.594C38.494 57.4166 38.6761 57.2847 38.8849 57.2173C39.7183 56.8811 40.4325 56.3041 40.9364 55.56C41.4403 54.8159 41.7109 53.9385 41.7137 53.0398V49.8306H32.667V53.0398C32.6723 53.9303 32.9407 54.7993 33.4385 55.5377C33.9362 56.2761 34.6412 56.8508 35.4647 57.1897C35.6845 57.2494 35.8785 57.3798 36.0168 57.5607C36.1552 57.7417 36.2301 57.9631 36.2301 58.1908C36.2301 58.4186 36.1552 58.64 36.0168 58.8209C35.8785 59.0019 35.6845 59.1323 35.4647 59.192C34.6366 59.5333 33.9285 60.1129 33.4304 60.8573C32.9323 61.6017 32.6666 62.4773 32.667 63.373V66.5822H41.7137V63.373C41.7107 62.474 41.44 61.5962 40.9362 60.8516C40.4324 60.107 39.7183 59.5292 38.8849 59.192Z" fill="#DCDAF7" stroke="black" stroke-width="1.66864" stroke-linecap="round" stroke-linejoin="round"/>
<path d="M33.4912 65.935L37.1673 62.9194L40.878 65.935" fill="#726BDF"/>
<path d="M66.9345 5.71021H81.881C82.1121 5.71021 82.3338 5.80203 82.4972 5.96546C82.6606 6.12889 82.7524 6.35056 82.7524 6.58169V27.7495C82.7524 27.9816 82.6603 28.2041 82.4962 28.3682C82.3321 28.5323 82.1096 28.6244 81.8775 28.6244H66.9345C66.7025 28.6244 66.4799 28.5323 66.3158 28.3682C66.1517 28.2041 66.0596 27.9816 66.0596 27.7495V6.58169C66.0596 6.46695 66.0822 6.35334 66.1262 6.24739C66.1702 6.14143 66.2348 6.0452 66.316 5.96423C66.3973 5.88327 66.4938 5.81915 66.5999 5.77555C66.7061 5.73196 66.8198 5.70976 66.9345 5.71021Z" fill="white" stroke="black" stroke-width="1.66864" stroke-linecap="round" stroke-linejoin="round"/>
<path d="M80.9626 11.9386C80.9626 11.9958 80.9401 12.0507 80.9 12.0914C80.8599 12.1322 80.8054 12.1556 80.7482 12.1565H68.0738C68.0166 12.1556 67.9621 12.1322 67.922 12.0914C67.8818 12.0507 67.8594 11.9958 67.8594 11.9386V7.59506C67.8594 7.53787 67.8818 7.48298 67.922 7.44222C67.9621 7.40146 68.0166 7.37811 68.0738 7.3772H80.7482C80.8054 7.37811 80.8599 7.40146 80.9 7.44222C80.9401 7.48298 80.9626 7.53787 80.9626 7.59506V11.9386Z" fill="#DDDDDD"/>
<path d="M73.065 14.1687H75.9007C75.9457 14.1687 75.9888 14.1866 76.0206 14.2184C76.0523 14.2501 76.0702 14.2932 76.0702 14.3382V15.8045C76.0702 15.8494 76.0523 15.8925 76.0206 15.9243C75.9888 15.9561 75.9457 15.9739 75.9007 15.9739H73.065C73.0201 15.9739 72.977 15.9561 72.9452 15.9243C72.9134 15.8925 72.8955 15.8494 72.8955 15.8045V14.3382C72.8951 14.3158 72.8991 14.2936 72.9075 14.2728C72.9158 14.252 72.9283 14.2331 72.9441 14.2173C72.96 14.2015 72.9788 14.189 72.9996 14.1807C73.0204 14.1723 73.0426 14.1683 73.065 14.1687Z" fill="#726BDF"/>
<path d="M81.1097 15.822C81.1097 15.8669 81.0918 15.91 81.06 15.9418C81.0283 15.9736 80.9852 15.9914 80.9402 15.9914H78.1079C78.0857 15.9914 78.0636 15.987 78.0431 15.9785C78.0225 15.97 78.0038 15.9575 77.9881 15.9418C77.9724 15.9261 77.9599 15.9074 77.9514 15.8868C77.9429 15.8663 77.9385 15.8442 77.9385 15.822V14.3384C77.9385 14.3161 77.9429 14.2941 77.9514 14.2735C77.9599 14.253 77.9724 14.2343 77.9881 14.2186C78.0038 14.2028 78.0225 14.1904 78.0431 14.1818C78.0636 14.1733 78.0857 14.1689 78.1079 14.1689H80.9402C80.9852 14.1689 81.0283 14.1868 81.06 14.2186C81.0918 14.2504 81.1097 14.2935 81.1097 14.3384V15.822Z" fill="#726BDF"/>
<path d="M68.0245 14.1688H70.8603C70.9043 14.1688 70.9465 14.1863 70.9776 14.2175C71.0088 14.2486 71.0263 14.2908 71.0263 14.3348V15.8046C71.0263 15.8495 71.0084 15.8926 70.9766 15.9244C70.9448 15.9562 70.9017 15.974 70.8568 15.974H68.0211C67.9761 15.974 67.933 15.9562 67.9012 15.9244C67.8695 15.8926 67.8516 15.8495 67.8516 15.8046V14.3383C67.8511 14.3156 67.8553 14.2931 67.8638 14.2721C67.8724 14.2511 67.8852 14.232 67.9014 14.2161C67.9176 14.2003 67.9369 14.1879 67.958 14.1797C67.9792 14.1716 68.0018 14.1679 68.0245 14.1688Z" fill="#726BDF"/>
<path d="M75.9036 17.741H73.0679C72.9743 17.741 72.8984 17.8168 72.8984 17.9104V19.394C72.8984 19.4876 72.9743 19.5635 73.0679 19.5635H75.9036C75.9972 19.5635 76.0731 19.4876 76.0731 19.394V17.9104C76.0731 17.8168 75.9972 17.741 75.9036 17.741Z" fill="#726BDF"/>
<path d="M80.9437 17.741H78.1079C78.0143 17.741 77.9385 17.8168 77.9385 17.9104V19.394C77.9385 19.4876 78.0143 19.5635 78.1079 19.5635H80.9437C81.0373 19.5635 81.1131 19.4876 81.1131 19.394V17.9104C81.1131 17.8168 81.0373 17.741 80.9437 17.741Z" fill="#726BDF"/>
<path d="M68.0293 17.741H70.865C70.91 17.741 70.9531 17.7588 70.9849 17.7906C71.0166 17.8224 71.0345 17.8655 71.0345 17.9104V19.394C71.0345 19.438 71.017 19.4802 70.9859 19.5114C70.9547 19.5425 70.9125 19.56 70.8685 19.56H68.0327C67.9878 19.56 67.9447 19.5421 67.9129 19.5104C67.8811 19.4786 67.8633 19.4355 67.8633 19.3905V17.9104C67.8633 17.8661 67.8807 17.8235 67.9117 17.7918C67.9427 17.7601 67.9849 17.7419 68.0293 17.741Z" fill="#726BDF"/>
<path d="M75.9036 21.459H73.0679C72.9743 21.459 72.8984 21.5349 72.8984 21.6284V23.1086C72.8984 23.2021 72.9743 23.278 73.0679 23.278H75.9036C75.9972 23.278 76.0731 23.2021 76.0731 23.1086V21.6284C76.0731 21.5349 75.9972 21.459 75.9036 21.459Z" fill="#726BDF"/>
<path d="M80.9437 21.459H78.1079C78.0143 21.459 77.9385 21.5349 77.9385 21.6284V23.1086C77.9385 23.2021 78.0143 23.278 78.1079 23.278H80.9437C81.0373 23.278 81.1131 23.2021 81.1131 23.1086V21.6284C81.1131 21.5349 81.0373 21.459 80.9437 21.459Z" fill="#726BDF"/>
<path d="M71.0306 23.112C71.0306 23.1343 71.0262 23.1563 71.0177 23.1769C71.0092 23.1974 70.9967 23.2161 70.9809 23.2318C70.9652 23.2476 70.9465 23.2601 70.926 23.2686C70.9054 23.2771 70.8834 23.2815 70.8611 23.2815H68.0254C67.981 23.2806 67.9388 23.2623 67.9078 23.2306C67.8767 23.199 67.8594 23.1564 67.8594 23.112V21.6284C67.8594 21.5841 67.8767 21.5415 67.9078 21.5098C67.9388 21.4781 67.981 21.4599 68.0254 21.459H70.8611C70.8834 21.459 70.9054 21.4634 70.926 21.4719C70.9465 21.4804 70.9652 21.4929 70.9809 21.5086C70.9967 21.5244 71.0092 21.543 71.0177 21.5636C71.0262 21.5842 71.0306 21.6062 71.0306 21.6284V23.112Z" fill="#726BDF"/>
<path d="M68.0274 25.083H70.8632C70.9072 25.083 70.9494 25.1005 70.9805 25.1317C71.0117 25.1628 71.0291 25.205 71.0291 25.249V26.7326C71.0291 26.7776 71.0113 26.8207 70.9795 26.8524C70.9477 26.8842 70.9046 26.9021 70.8597 26.9021H68.0239C67.979 26.9021 67.9359 26.8842 67.9041 26.8524C67.8723 26.8207 67.8545 26.7776 67.8545 26.7326V25.2525C67.8545 25.2299 67.859 25.2076 67.8677 25.1868C67.8764 25.1661 67.8892 25.1472 67.9053 25.1314C67.9214 25.1157 67.9405 25.1032 67.9615 25.0949C67.9825 25.0866 68.0049 25.0826 68.0274 25.083Z" fill="#726BDF"/>
<path d="M80.9522 25.083H73.1089C73.0153 25.083 72.9395 25.1589 72.9395 25.2525V26.7326C72.9395 26.8262 73.0153 26.902 73.1089 26.902H80.9522C81.0458 26.902 81.1216 26.8262 81.1216 26.7326V25.2525C81.1216 25.1589 81.0458 25.083 80.9522 25.083Z" fill="#726BDF"/>
<path d="M23.8995 123.826C23.9624 123.98 24.0835 124.103 24.2364 124.167C24.3892 124.232 24.5615 124.234 24.7156 124.172C24.7951 124.142 24.8679 124.097 24.9299 124.039C24.9919 123.981 25.0418 123.911 25.0768 123.834C25.1118 123.756 25.1312 123.673 25.1339 123.588C25.1366 123.503 25.1226 123.418 25.0926 123.339C25.058 123.251 25.0525 123.155 25.0768 123.064C25.101 122.973 25.1539 122.892 25.2275 122.834C25.4286 122.674 25.6108 122.492 25.7704 122.291C25.8266 122.215 25.9059 122.16 25.9963 122.133C26.0868 122.106 26.1834 122.109 26.2719 122.142C26.3491 122.179 26.4329 122.2 26.5184 122.204C26.6038 122.208 26.6892 122.195 26.7695 122.165C26.8498 122.136 26.9234 122.091 26.9861 122.032C27.0487 121.974 27.0991 121.904 27.1343 121.826C27.1695 121.748 27.1887 121.664 27.191 121.578C27.1932 121.493 27.1784 121.408 27.1474 121.328C27.1163 121.248 27.0697 121.175 27.0102 121.114C26.9508 121.052 26.8796 121.003 26.801 120.97C26.7087 120.927 26.6324 120.856 26.5827 120.767C26.5331 120.679 26.5126 120.576 26.5243 120.475C26.5502 120.233 26.5502 119.988 26.5243 119.746C26.5112 119.652 26.5291 119.557 26.5753 119.474C26.6215 119.392 26.6935 119.327 26.7802 119.289C26.8604 119.26 26.9339 119.214 26.9966 119.156C27.0592 119.098 27.1096 119.028 27.145 118.95C27.1804 118.872 27.2 118.788 27.2027 118.703C27.2053 118.617 27.191 118.532 27.1606 118.452C27.13 118.374 27.0843 118.302 27.026 118.242C26.9678 118.181 26.8981 118.132 26.821 118.099C26.7439 118.065 26.6609 118.047 26.5767 118.045C26.4926 118.043 26.409 118.058 26.3306 118.089C26.2414 118.125 26.1431 118.132 26.0498 118.108C25.9565 118.085 25.8732 118.032 25.8119 117.958C25.6561 117.754 25.4774 117.568 25.2793 117.404C25.2047 117.347 25.1503 117.268 25.1241 117.178C25.098 117.087 25.1015 116.991 25.1341 116.903C25.1755 116.825 25.2004 116.739 25.2073 116.652C25.2142 116.564 25.2029 116.475 25.1742 116.392C25.1455 116.308 25.0999 116.232 25.0403 116.167C24.9807 116.102 24.9083 116.05 24.8277 116.014C24.7472 115.978 24.6601 115.959 24.5718 115.958C24.4836 115.957 24.3962 115.975 24.315 116.009C24.2337 116.043 24.1605 116.094 24.0997 116.158C24.0389 116.222 23.992 116.298 23.9618 116.381C23.9235 116.464 23.8596 116.533 23.7794 116.578C23.6992 116.623 23.6068 116.641 23.5156 116.63C23.2344 116.593 22.9496 116.593 22.6684 116.63C22.584 116.638 22.4994 116.617 22.4275 116.572C22.3557 116.527 22.3006 116.46 22.2707 116.381C22.2077 116.228 22.0872 116.106 21.9352 116.041C21.7831 115.977 21.6117 115.974 21.458 116.035H21.4338C21.2804 116.097 21.1579 116.218 21.0931 116.37C21.0283 116.522 21.0264 116.694 21.088 116.848C21.1165 116.934 21.1164 117.028 21.0877 117.114C21.0591 117.201 21.0034 117.276 20.9289 117.328C20.7005 117.504 20.4939 117.706 20.3133 117.93C20.2616 117.995 20.1898 118.041 20.1091 118.061C20.0284 118.081 19.9434 118.074 19.8672 118.041C19.7946 118.008 19.7163 117.99 19.6367 117.988C19.5571 117.986 19.4778 117.999 19.4035 118.028C19.3292 118.056 19.2613 118.099 19.2038 118.155C19.1462 118.21 19.1002 118.276 19.0684 118.349L19.0441 118.407C19.0114 118.481 18.9936 118.561 18.9917 118.641C18.9898 118.722 19.0039 118.802 19.0332 118.877C19.0624 118.953 19.1063 119.021 19.1622 119.079C19.218 119.138 19.2849 119.184 19.3588 119.217C19.4387 119.257 19.5035 119.321 19.544 119.401C19.5844 119.481 19.5983 119.571 19.5836 119.659C19.5472 119.947 19.5472 120.239 19.5836 120.527C19.5952 120.61 19.5787 120.695 19.5367 120.768C19.4947 120.84 19.4297 120.897 19.3519 120.928C19.2778 120.956 19.21 120.999 19.1524 121.053C19.0948 121.107 19.0486 121.173 19.0164 121.245C18.9842 121.318 18.9668 121.396 18.965 121.475C18.9632 121.554 18.9772 121.633 19.0061 121.706L19.0303 121.769C19.0904 121.92 19.2083 122.042 19.3581 122.107C19.5079 122.172 19.6774 122.175 19.8292 122.115C19.9068 122.083 19.9924 122.078 20.0733 122.099C20.1543 122.12 20.2263 122.167 20.2787 122.232C20.4529 122.479 20.6587 122.702 20.8908 122.896C20.9584 122.947 21.0071 123.018 21.0291 123.1C21.051 123.181 21.045 123.268 21.0119 123.346C20.9791 123.419 20.9611 123.499 20.9589 123.579C20.9568 123.66 20.9706 123.74 20.9995 123.815C21.0284 123.89 21.0719 123.959 21.1274 124.017C21.183 124.075 21.2495 124.122 21.3231 124.155H21.3612C21.4372 124.189 21.5191 124.207 21.6023 124.209C21.6855 124.211 21.7682 124.196 21.8457 124.166C21.9232 124.136 21.9939 124.091 22.0538 124.033C22.1137 123.975 22.1616 123.906 22.1946 123.83C22.2337 123.749 22.2971 123.683 22.3758 123.64C22.4546 123.597 22.5448 123.58 22.6338 123.591C22.9175 123.626 23.2043 123.626 23.488 123.591C23.5729 123.579 23.6594 123.596 23.7339 123.638C23.8084 123.681 23.8666 123.747 23.8995 123.826ZM21.8246 120.6C21.7275 120.361 21.7036 120.098 21.7559 119.846C21.8081 119.593 21.9342 119.361 22.1181 119.18C22.302 118.999 22.5355 118.877 22.789 118.829C23.0424 118.781 23.3045 118.809 23.5421 118.909C23.7796 119.01 23.9818 119.179 24.1232 119.395C24.2646 119.611 24.3388 119.864 24.3363 120.122C24.3339 120.38 24.2549 120.631 24.1094 120.845C23.9639 121.058 23.7585 121.223 23.5191 121.319C23.199 121.448 22.8408 121.444 22.5232 121.31C22.2056 121.175 21.9543 120.92 21.8246 120.6Z" fill="#DDDDDD"/>
<path d="M10.5742 120.645C10.5544 120.73 10.5522 120.818 10.5678 120.905C10.5834 120.991 10.6165 121.073 10.6649 121.146C10.7133 121.219 10.7762 121.281 10.8496 121.329C10.923 121.377 11.0053 121.409 11.0917 121.424C11.178 121.439 11.2664 121.436 11.3516 121.415C11.4367 121.395 11.5168 121.357 11.5868 121.305C11.6569 121.252 11.7155 121.186 11.759 121.11C11.8025 121.034 11.83 120.949 11.8399 120.862L11.9022 120.475C11.9274 120.374 11.9864 120.285 12.0694 120.222C12.1525 120.159 12.2545 120.126 12.3586 120.129C12.6216 120.124 12.8838 120.101 13.1437 120.06C13.2446 120.045 13.3476 120.066 13.4352 120.118C13.5227 120.17 13.5896 120.251 13.6244 120.347L13.7523 120.693C13.7775 120.777 13.8195 120.855 13.8759 120.922C13.9322 120.989 14.0016 121.044 14.0799 121.083C14.1582 121.122 14.2436 121.145 14.3311 121.15C14.4185 121.155 14.506 121.142 14.5883 121.112C14.6706 121.083 14.7459 121.036 14.8097 120.976C14.8734 120.916 14.9241 120.844 14.9589 120.763C14.9936 120.683 15.0115 120.596 15.0116 120.508C15.0117 120.421 14.9938 120.334 14.9592 120.254L14.8347 119.908C14.8007 119.808 14.8031 119.698 14.8417 119.6C14.8803 119.501 14.9526 119.419 15.0457 119.368C15.2742 119.233 15.4937 119.083 15.7028 118.919C15.7834 118.854 15.8842 118.818 15.9881 118.818C16.0919 118.818 16.1927 118.854 16.2734 118.919L16.5327 119.137C16.6646 119.234 16.8286 119.277 16.9912 119.257C17.1539 119.238 17.3029 119.157 17.4079 119.031C17.5129 118.905 17.5659 118.744 17.5562 118.581C17.5466 118.417 17.4749 118.264 17.3558 118.151L17.1172 117.951C17.0378 117.88 16.9857 117.784 16.9699 117.679C16.9541 117.574 16.9756 117.467 17.0307 117.377C17.1638 117.141 17.2793 116.896 17.3765 116.643C17.4158 116.546 17.4866 116.465 17.5775 116.413C17.6685 116.361 17.7743 116.341 17.878 116.356L18.1546 116.405C18.2396 116.424 18.3276 116.426 18.4133 116.41C18.499 116.394 18.5805 116.361 18.653 116.313C18.7255 116.264 18.7875 116.202 18.8351 116.129C18.8827 116.056 18.9149 115.974 18.93 115.888C18.945 115.802 18.9424 115.714 18.9224 115.63C18.9023 115.545 18.8653 115.465 18.8135 115.395C18.7617 115.325 18.6962 115.266 18.621 115.222C18.5458 115.178 18.4624 115.15 18.376 115.139L18.1304 115.098C18.0322 115.078 17.9438 115.025 17.8807 114.947C17.8175 114.87 17.7835 114.772 17.7846 114.672C17.7876 114.384 17.768 114.096 17.7258 113.811C17.7086 113.706 17.7276 113.598 17.7797 113.505C17.8319 113.412 17.9141 113.339 18.0129 113.299L18.2169 113.223C18.3765 113.165 18.5064 113.046 18.5781 112.892C18.6497 112.738 18.6573 112.561 18.599 112.402C18.5408 112.242 18.4215 112.112 18.2675 112.041C18.1135 111.969 17.9373 111.962 17.7777 112.02L17.5944 112.085C17.4988 112.121 17.3936 112.122 17.2974 112.088C17.2012 112.054 17.1202 111.987 17.0688 111.899C16.9252 111.643 16.761 111.398 16.5777 111.169C16.5091 111.085 16.4717 110.98 16.4717 110.872C16.4717 110.763 16.5091 110.658 16.5777 110.574L16.6849 110.446C16.7452 110.382 16.7917 110.307 16.8217 110.224C16.8517 110.142 16.8645 110.054 16.8594 109.967C16.8542 109.879 16.8311 109.793 16.7916 109.715C16.7521 109.637 16.6969 109.567 16.6295 109.511C16.5622 109.455 16.484 109.413 16.3998 109.388C16.3157 109.363 16.2273 109.356 16.1401 109.366C16.053 109.377 15.9689 109.405 15.8931 109.449C15.8173 109.493 15.7513 109.553 15.6993 109.623L15.599 109.741C15.5343 109.819 15.4443 109.872 15.3445 109.891C15.2447 109.91 15.1415 109.894 15.0526 109.845C14.7851 109.689 14.5051 109.556 14.2157 109.447C14.1182 109.411 14.0362 109.343 13.9838 109.253C13.9314 109.163 13.9119 109.058 13.9287 108.956L13.9529 108.814C13.9721 108.729 13.9738 108.641 13.958 108.555C13.9421 108.47 13.909 108.388 13.8607 108.316C13.8124 108.243 13.7499 108.181 13.6769 108.134C13.604 108.086 13.5221 108.054 13.4363 108.039C13.3504 108.024 13.2625 108.026 13.1777 108.046C13.0929 108.066 13.013 108.103 12.943 108.155C12.8729 108.207 12.8141 108.272 12.7702 108.348C12.7262 108.423 12.698 108.506 12.6872 108.593L12.663 108.734C12.6452 108.836 12.5922 108.929 12.5132 108.996C12.4342 109.063 12.3342 109.1 12.2307 109.101C11.9338 109.104 11.6377 109.132 11.3454 109.184C11.2402 109.206 11.1308 109.19 11.036 109.139C10.9413 109.089 10.8672 109.007 10.8266 108.907L10.7748 108.762C10.7116 108.608 10.5913 108.485 10.439 108.418C10.2867 108.351 10.1144 108.345 9.95823 108.402C9.80203 108.46 9.6741 108.575 9.60131 108.725C9.52852 108.875 9.51653 109.047 9.56785 109.205L9.62664 109.364C9.66199 109.46 9.66305 109.566 9.62967 109.663C9.59628 109.76 9.53048 109.842 9.44335 109.896C9.19249 110.049 8.95426 110.221 8.73096 110.412C8.65124 110.484 8.54878 110.526 8.44139 110.53C8.33399 110.535 8.22844 110.501 8.14306 110.436L7.99436 110.311C7.93054 110.251 7.85507 110.205 7.77258 110.175C7.69009 110.145 7.60233 110.132 7.51471 110.137C7.42709 110.142 7.34146 110.165 7.26308 110.205C7.18471 110.244 7.11525 110.299 7.05899 110.367C7.00273 110.434 6.96085 110.512 6.93594 110.596C6.91102 110.681 6.90359 110.769 6.91411 110.856C6.92464 110.943 6.95288 111.027 6.99711 111.103C7.04134 111.179 7.10062 111.245 7.1713 111.297L7.33729 111.435C7.41717 111.508 7.46991 111.606 7.48687 111.713C7.50384 111.82 7.48402 111.929 7.43066 112.023C7.29709 112.268 7.18151 112.522 7.08484 112.784C7.05173 112.884 6.98425 112.969 6.89436 113.024C6.80447 113.079 6.69798 113.101 6.59377 113.085L6.34824 113.04C6.18004 113.012 6.00753 113.051 5.86828 113.15C5.72903 113.248 5.6343 113.398 5.60472 113.566C5.58984 113.649 5.59159 113.734 5.60986 113.816C5.62812 113.898 5.66255 113.976 5.71113 114.045C5.75971 114.114 5.82147 114.172 5.89285 114.217C5.96423 114.262 6.04379 114.292 6.12691 114.306L6.40357 114.354C6.50969 114.378 6.60456 114.437 6.67248 114.522C6.7404 114.607 6.7773 114.712 6.77706 114.821C6.7871 115.092 6.81832 115.361 6.87043 115.627C6.88885 115.728 6.87083 115.832 6.81956 115.922C6.76829 116.011 6.68708 116.079 6.59031 116.114L6.29637 116.222C6.14245 116.285 6.019 116.405 5.95194 116.557C5.88487 116.71 5.87941 116.882 5.9367 117.038C5.99398 117.194 6.10957 117.322 6.25917 117.395C6.40877 117.468 6.58076 117.48 6.73902 117.428L7.05718 117.311C7.15835 117.277 7.26809 117.279 7.36814 117.316C7.46819 117.353 7.5525 117.423 7.60703 117.515C7.74882 117.741 7.90596 117.957 8.07735 118.162C8.14322 118.24 8.17932 118.339 8.17932 118.442C8.17932 118.544 8.14322 118.643 8.07735 118.722L7.84565 119.002C7.74852 119.134 7.70537 119.298 7.72501 119.46C7.74464 119.623 7.82558 119.772 7.95131 119.877C8.07703 119.982 8.23808 120.035 8.4016 120.025C8.56511 120.016 8.71878 119.944 8.83125 119.825L9.07332 119.538C9.14156 119.458 9.23545 119.404 9.33891 119.386C9.44237 119.368 9.54898 119.386 9.64047 119.438C9.87213 119.569 10.1125 119.685 10.3598 119.783C10.4565 119.819 10.5378 119.887 10.589 119.976C10.6403 120.065 10.6583 120.17 10.6399 120.271L10.5742 120.645ZM10.3217 114.309C10.3898 113.917 10.5727 113.554 10.8472 113.265C11.1217 112.977 11.4755 112.777 11.8639 112.69C12.2522 112.602 12.6578 112.632 13.0291 112.776C13.4005 112.919 13.7211 113.169 13.9503 113.494C14.1795 113.82 14.3071 114.206 14.3169 114.604C14.3266 115.002 14.2182 115.394 14.0053 115.73C13.7924 116.066 13.4845 116.332 13.1206 116.493C12.7567 116.655 12.3531 116.705 11.9609 116.637C11.7005 116.591 11.4515 116.495 11.2281 116.354C11.0048 116.212 10.8115 116.028 10.6592 115.812C10.507 115.596 10.3989 115.352 10.341 115.094C10.2831 114.836 10.2765 114.57 10.3217 114.309Z" fill="#726BDF"/>
<path d="M248.583 86.4631C248.547 86.4984 248.501 86.5225 248.452 86.5327C248.402 86.5428 248.351 86.5385 248.304 86.5203C248.257 86.502 248.216 86.4706 248.187 86.4299C248.157 86.3891 248.14 86.3406 248.137 86.2902L244.699 75.7253L255.257 79.1559C255.308 79.1591 255.357 79.1768 255.399 79.2071C255.44 79.2374 255.471 79.279 255.49 79.3267C255.508 79.3745 255.512 79.4265 255.501 79.4766C255.491 79.5266 255.466 79.5726 255.43 79.6089L252.605 81.6009L255.499 84.492C255.554 84.5466 255.598 84.6115 255.627 84.683C255.657 84.7545 255.672 84.8312 255.672 84.9087C255.672 84.9861 255.657 85.0628 255.627 85.1343C255.598 85.2058 255.554 85.2708 255.499 85.3254L254.22 86.6015C254.109 86.7115 253.959 86.7733 253.803 86.7733C253.647 86.7733 253.497 86.7115 253.386 86.6015L250.492 83.7069L248.583 86.4631Z" fill="#726BDF"/>
<path d="M162.062 27.6494C161.992 27.6491 161.924 27.6349 161.86 27.6075C161.797 27.5802 161.739 27.5404 161.692 27.4904C161.602 27.3923 161.555 27.2629 161.56 27.1302C161.565 26.9975 161.622 26.8722 161.719 26.7814L171.478 17.7658C171.572 17.6789 171.696 17.6318 171.824 17.6344C171.956 17.6419 172.08 17.7001 172.17 17.7969L179.463 25.7854L195.686 8.57729C195.776 8.48516 195.898 8.43125 196.027 8.42674C196.156 8.42223 196.281 8.46748 196.378 8.55308L202.838 14.4148L214.547 2.05507C214.593 2.00716 214.647 1.96866 214.707 1.94177C214.768 1.91488 214.833 1.90014 214.899 1.89837C214.965 1.89661 215.03 1.90786 215.092 1.93148C215.154 1.9551 215.21 1.99063 215.258 2.03605C215.306 2.08146 215.344 2.13587 215.371 2.19616C215.398 2.25645 215.413 2.32145 215.415 2.38744C215.416 2.45343 215.405 2.51913 215.381 2.58077C215.358 2.64241 215.322 2.6988 215.277 2.74672L203.228 15.4661C203.138 15.5582 203.016 15.6121 202.887 15.6166C202.759 15.6211 202.633 15.5759 202.537 15.4903L196.077 9.6113L179.823 26.854C179.776 26.9038 179.719 26.9435 179.656 26.9708C179.593 26.9982 179.525 27.0125 179.457 27.0131C179.387 27.0116 179.319 26.9962 179.256 26.9677C179.193 26.9391 179.137 26.8981 179.09 26.8471L171.772 18.8344L162.404 27.518C162.311 27.6035 162.188 27.6504 162.062 27.6494Z" fill="#231F20"/>
<path d="M215.801 7.20752C215.735 7.20798 215.669 7.19534 215.608 7.17035C215.547 7.14535 215.491 7.10849 215.444 7.06188C215.397 7.01527 215.36 6.95984 215.335 6.89877C215.309 6.83771 215.296 6.77222 215.296 6.70608V2.00288H210.666C210.533 2.00288 210.405 1.95005 210.311 1.85601C210.217 1.76198 210.164 1.63443 210.164 1.50144C210.164 1.36845 210.217 1.24091 210.311 1.14687C210.405 1.05283 210.533 1 210.666 1H215.801C215.866 1.00063 215.929 1.01411 215.989 1.03963C216.048 1.06516 216.102 1.10224 216.147 1.1487C216.239 1.2405 216.292 1.36439 216.296 1.49452V6.69916C216.296 6.76501 216.284 6.8304 216.26 6.89159C216.236 6.95278 216.199 7.00857 216.154 7.05578C216.108 7.10298 216.053 7.14068 215.992 7.16672C215.932 7.19275 215.867 7.20662 215.801 7.20752Z" fill="#231F20"/>
<path d="M173.479 40.9014L178.158 49.9274C180.545 48.7067 182.354 46.5943 183.194 44.0484L173.479 40.9014Z" fill="#DDDDDD" stroke="black" stroke-width="1.66864" stroke-linecap="round" stroke-linejoin="round"/>
<path d="M163.326 40.4999C163.402 41.4371 163.233 41.1535 163.454 42.5126C163.888 45.169 165.356 47.5453 167.538 49.1213L173.483 40.9011L171.861 30.7996C169.536 31.1804 167.415 32.3551 165.859 34.1237C164.303 35.8923 163.408 38.1456 163.326 40.4999Z" fill="#726BDF" stroke="black" stroke-width="1.66864" stroke-linecap="round" stroke-linejoin="round"/>
<path d="M173.48 40.9014L167.535 49.1216C169.059 50.2233 170.858 50.8816 172.733 51.0239C174.608 51.1661 176.486 50.7866 178.159 49.9274L173.48 40.9014Z" fill="white" stroke="black" stroke-width="1.66864" stroke-linecap="round" stroke-linejoin="round"/>
<path d="M176.643 31.1452C175.103 30.6525 173.467 30.534 171.871 30.7993L173.493 40.8974L183.211 44.0478C183.631 42.7696 183.794 41.4209 183.691 40.0794C183.587 38.7379 183.22 37.4301 182.61 36.231C182 35.0319 181.158 33.9653 180.134 33.0925C179.11 32.2197 177.924 31.5579 176.643 31.1452Z" fill="#DCDAF7" stroke="black" stroke-width="1.66864" stroke-linecap="round" stroke-linejoin="round"/>
<path d="M51.9371 76.7631C51.899 76.1371 52.0626 75.5153 52.4039 74.989C52.6579 74.6107 53.0192 74.3168 53.4414 74.1452C53.7838 74.0139 54.1467 73.9436 54.5134 73.9377C55.1728 73.9377 55.8106 74.1732 56.3117 74.6017C56.8477 75.0409 57.1175 75.7637 57.1175 76.7631C57.114 77.1978 57.0344 77.6285 56.8823 78.0358C56.7086 78.5165 56.384 78.9282 55.9571 79.2093C55.5301 79.4904 55.0237 79.6258 54.5134 79.5954C54.2132 79.5929 53.9149 79.5463 53.6281 79.4571C53.3237 79.357 53.0418 79.1984 52.7982 78.9902C52.5218 78.7478 52.3052 78.4448 52.1653 78.1049C51.9976 77.6782 51.9199 77.2213 51.9371 76.7631ZM53.4206 76.7631C53.3813 77.2225 53.5036 77.6812 53.7665 78.06C53.854 78.1804 53.9675 78.2797 54.0986 78.3503C54.2297 78.421 54.375 78.4612 54.5238 78.468C54.6727 78.4619 54.8183 78.422 54.9495 78.3513C55.0808 78.2806 55.1942 78.181 55.2812 78.06C55.5457 77.6819 55.6682 77.2227 55.627 76.7631C55.6435 76.4077 55.5796 76.0531 55.4402 75.7257C55.3525 75.5089 55.2004 75.3243 55.0045 75.1965C54.86 75.1064 54.6941 75.0563 54.5238 75.0513C54.3534 75.0553 54.1872 75.1055 54.0431 75.1965C53.8478 75.3258 53.695 75.5099 53.6039 75.7257C53.4664 76.056 53.4038 76.4126 53.4206 76.77V76.7631ZM54.0431 84.0254L60.3509 74.1349H62.6334L56.3048 84.0219L54.0431 84.0254ZM59.7319 81.3799C59.7319 80.3874 60.0017 79.6507 60.5411 79.2185C61.0393 78.788 61.6758 78.551 62.3342 78.551C62.9927 78.551 63.6291 78.788 64.1273 79.2185C64.6668 79.6646 64.9365 80.3874 64.9365 81.3799C64.9638 81.9669 64.8209 82.5493 64.525 83.0571C64.2865 83.4486 63.9359 83.7594 63.5187 83.9493C63.1484 84.1182 62.7464 84.2066 62.3394 84.2087C61.9292 84.205 61.5243 84.1167 61.1498 83.9493C60.7331 83.7569 60.3829 83.4452 60.1434 83.0536C59.8461 82.5465 59.703 81.9636 59.7319 81.3764V81.3799ZM61.2293 81.3799C61.2026 81.8337 61.324 82.2839 61.5751 82.6629C61.6612 82.7913 61.7767 82.8972 61.9121 82.9718C62.0475 83.0464 62.1987 83.0875 62.3532 83.0917C62.5227 83.0856 62.6875 83.0342 62.8305 82.943C63.0263 82.8167 63.1784 82.6331 63.2662 82.4173C63.404 82.0895 63.4666 81.735 63.4495 81.3799C63.4884 80.9173 63.3663 80.4555 63.1037 80.0727C63.016 79.9534 62.9028 79.8553 62.7724 79.7853C62.642 79.7153 62.4976 79.6752 62.3498 79.668C62.1914 79.67 62.0361 79.7119 61.8983 79.7899C61.7605 79.8679 61.6446 79.9794 61.5613 80.1142C61.3234 80.4907 61.2075 80.9315 61.2293 81.3764V81.3799Z" fill="#DCDAF7"/>
<path d="M274.872 122.204C274.872 122.7 274.675 123.176 274.324 123.527C273.974 123.878 273.498 124.075 273.002 124.075H243.33C242.834 124.075 242.358 123.878 242.007 123.527C241.656 123.176 241.459 122.7 241.459 122.204V101.821H274.872V122.204Z" fill="white" stroke="black" stroke-width="1.66864" stroke-miterlimit="10"/>
<path d="M264.342 101.821H264.359C264.104 100.355 263.34 99.0263 262.201 98.0685C261.062 97.1106 259.622 96.5854 258.134 96.5854C256.646 96.5854 255.206 97.1106 254.067 98.0685C252.928 99.0263 252.164 100.355 251.909 101.821" fill="white"/>
<path d="M264.342 101.821H264.359C264.104 100.355 263.34 99.0263 262.201 98.0685C261.062 97.1106 259.622 96.5854 258.134 96.5854C256.646 96.5854 255.206 97.1106 254.067 98.0685C252.928 99.0263 252.164 100.355 251.909 101.821" stroke="black" stroke-width="1.66864" stroke-miterlimit="10"/>
<path d="M274.872 101.821H241.459V102.043C242.213 105.945 244.302 109.464 247.368 111.994C250.433 114.525 254.284 115.909 258.259 115.91C272.939 115.91 274.872 101.821 274.872 101.821Z" fill="#DDDDDD" stroke="black" stroke-width="1.66864" stroke-linecap="round" stroke-linejoin="round"/>
<path d="M251.177 112.355H249.437C249.025 112.355 248.69 112.689 248.69 113.102V116.284C248.69 116.696 249.025 117.031 249.437 117.031H251.177C251.589 117.031 251.924 116.696 251.924 116.284V113.102C251.924 112.689 251.589 112.355 251.177 112.355Z" fill="white" stroke="black" stroke-width="1.66864" stroke-miterlimit="10"/>
<path d="M267.633 116.284C267.633 116.382 267.614 116.479 267.576 116.57C267.538 116.661 267.483 116.744 267.413 116.813C267.344 116.882 267.261 116.937 267.17 116.975C267.079 117.012 266.981 117.031 266.883 117.031H265.154C265.055 117.031 264.958 117.012 264.867 116.975C264.776 116.937 264.693 116.882 264.623 116.813C264.554 116.744 264.498 116.661 264.461 116.57C264.423 116.479 264.403 116.382 264.403 116.284V113.102C264.404 112.904 264.484 112.714 264.624 112.574C264.765 112.434 264.955 112.355 265.154 112.355H266.883C267.081 112.355 267.272 112.434 267.412 112.574C267.553 112.714 267.632 112.904 267.633 113.102V116.284Z" fill="white" stroke="black" stroke-width="1.66864" stroke-miterlimit="10"/>
<path d="M182.468 10.3339C182.292 10.3313 182.119 10.3715 181.962 10.451C181.805 10.5305 181.67 10.647 181.569 10.7903C181.537 10.8302 181.498 10.8626 181.452 10.8854C181.407 10.9081 181.357 10.9205 181.306 10.9218C181.241 10.9213 181.177 10.9013 181.124 10.8643C181.07 10.8273 181.029 10.775 181.005 10.7143V7.69523H178.08C178.001 7.68262 177.929 7.64342 177.877 7.58423C177.824 7.52504 177.793 7.44945 177.789 7.37015C177.789 7.31875 177.801 7.26807 177.824 7.22234C177.848 7.17661 177.882 7.13717 177.924 7.10732C178.067 7.00374 178.184 6.86686 178.263 6.70843C178.341 6.55 178.381 6.37477 178.377 6.19781C178.377 5.88505 178.253 5.5851 178.032 5.36395C177.81 5.1428 177.51 5.01855 177.198 5.01855C176.885 5.01855 176.585 5.1428 176.364 5.36395C176.143 5.5851 176.018 5.88505 176.018 6.19781C176.015 6.37477 176.054 6.55 176.133 6.70843C176.212 6.86686 176.328 7.00374 176.471 7.10732C176.524 7.14686 176.563 7.20107 176.584 7.26299C176.605 7.32491 176.607 7.39173 176.59 7.45488C176.573 7.51804 176.537 7.57465 176.488 7.61747C176.438 7.66029 176.377 7.68737 176.312 7.69523H173.394V10.5932C173.392 10.6623 173.413 10.7301 173.453 10.7866C173.493 10.843 173.55 10.8853 173.615 10.9073C173.681 10.9293 173.752 10.9298 173.818 10.9088C173.883 10.8877 173.941 10.8463 173.981 10.7903C174.083 10.6474 174.218 10.5315 174.375 10.4525C174.532 10.3736 174.705 10.334 174.881 10.3373C175.184 10.3537 175.469 10.4856 175.678 10.706C175.886 10.9263 176.003 11.2183 176.003 11.5218C176.003 11.8253 175.886 12.1172 175.678 12.3376C175.469 12.5579 175.184 12.6898 174.881 12.7062C174.704 12.7066 174.531 12.6636 174.375 12.581C174.22 12.4984 174.087 12.3786 173.988 12.2324C173.959 12.1906 173.919 12.1565 173.873 12.133C173.828 12.1096 173.777 12.0974 173.726 12.0976C173.638 12.1028 173.555 12.1416 173.494 12.2059C173.434 12.2702 173.4 12.3551 173.401 12.4434V15.3448H176.319C176.399 15.3534 176.473 15.3914 176.527 15.4515C176.581 15.5115 176.61 15.5894 176.61 15.6699C176.608 15.7207 176.596 15.7705 176.573 15.816C176.551 15.8614 176.518 15.9013 176.478 15.9327C176.335 16.0358 176.219 16.1721 176.14 16.3299C176.061 16.4877 176.022 16.6624 176.025 16.8388C176.025 17.1515 176.15 17.4515 176.371 17.6726C176.592 17.8938 176.892 18.018 177.205 18.018C177.517 18.018 177.817 17.8938 178.038 17.6726C178.26 17.4515 178.384 17.1515 178.384 16.8388C178.387 16.6624 178.348 16.4877 178.269 16.3299C178.19 16.1721 178.074 16.0358 177.931 15.9327C177.877 15.8944 177.836 15.8405 177.814 15.7784C177.792 15.7163 177.789 15.6488 177.805 15.585C177.822 15.5212 177.858 15.464 177.908 15.4211C177.959 15.3782 178.021 15.3516 178.086 15.3448H181.012V12.3293C181.036 12.2685 181.077 12.2162 181.131 12.1792C181.184 12.1422 181.248 12.1222 181.313 12.1218C181.364 12.123 181.414 12.1355 181.459 12.1582C181.504 12.1809 181.544 12.2133 181.576 12.2532C181.678 12.3961 181.813 12.5121 181.969 12.591C182.126 12.6699 182.299 12.7095 182.475 12.7062C182.778 12.6898 183.063 12.5579 183.272 12.3376C183.481 12.1172 183.597 11.8253 183.597 11.5218C183.597 11.2183 183.481 10.9263 183.272 10.706C183.063 10.4856 182.778 10.3537 182.475 10.3373L182.468 10.3339Z" fill="#726BDF"/>
<path d="M82.2139 47.458L83.9672 45.7289V45.1825L82.2139 43.4292H85.7067L87.4565 45.1825V45.7289L85.7067 47.458H82.2139Z" fill="white" stroke="black" stroke-width="1.66864" stroke-linecap="round" stroke-linejoin="round"/>
<path d="M114.201 45.4661C114.201 47.9968 113.451 50.4707 112.045 52.5749C110.639 54.6791 108.64 56.3191 106.302 57.2876C103.964 58.256 101.392 58.5094 98.9096 58.0157C96.4275 57.522 94.1475 56.3033 92.3581 54.5139C90.5686 52.7244 89.3499 50.4445 88.8562 47.9624C88.3625 45.4803 88.6159 42.9076 89.5844 40.5695C90.5528 38.2314 92.1928 36.2331 94.297 34.8271C96.4012 33.4211 98.8751 32.6707 101.406 32.6707C104.799 32.6707 108.054 34.0187 110.454 36.4184C112.853 38.818 114.201 42.0725 114.201 45.4661Z" fill="#726BDF"/>
<path d="M112.373 45.4659C112.373 47.6371 111.73 49.7598 110.524 51.5654C109.319 53.371 107.604 54.7784 105.598 55.6096C103.593 56.4408 101.385 56.6584 99.2558 56.235C97.1263 55.8116 95.1701 54.7661 93.6348 53.2308C92.0996 51.6956 91.0541 49.7394 90.6307 47.6099C90.2072 45.4804 90.4249 43.2731 91.2561 41.2673C92.0873 39.2614 93.4947 37.5472 95.3003 36.3413C97.1059 35.1355 99.2286 34.4922 101.4 34.4929C104.31 34.4938 107.1 35.6502 109.158 37.7078C111.215 39.7655 112.372 42.556 112.373 45.4659Z" fill="#DCDAF7"/>
<path d="M110.525 45.4659C110.526 47.2727 109.991 49.0391 108.987 50.5417C107.984 52.0442 106.557 53.2154 104.888 53.907C103.219 54.5986 101.382 54.7796 99.6098 54.427C97.8377 54.0744 96.21 53.2041 94.9326 51.9263C93.6552 50.6484 92.7856 49.0204 92.4337 47.2482C92.0818 45.476 92.2634 43.6392 92.9557 41.9702C93.6479 40.3013 94.8196 38.8752 96.3225 37.8723C97.8255 36.8694 99.5921 36.3348 101.399 36.3362C103.82 36.3371 106.141 37.2994 107.852 39.0114C109.564 40.7235 110.525 43.0452 110.525 45.4659Z" fill="#726BDF"/>
<path d="M108.627 45.4073C108.63 46.8478 108.206 48.2569 107.408 49.4563C106.61 50.6557 105.475 51.5914 104.145 52.1451C102.815 52.6987 101.351 52.8453 99.9374 52.5664C98.5242 52.2875 97.2254 51.5955 96.2056 50.5782C95.1858 49.5608 94.4908 48.2637 94.2085 46.8511C93.9262 45.4386 94.0694 43.974 94.6199 42.6428C95.1703 41.3117 96.1033 40.1737 97.3008 39.3731C98.4983 38.5724 99.9064 38.145 101.347 38.145C103.275 38.145 105.124 38.9096 106.488 40.271C107.853 41.6325 108.622 43.4796 108.627 45.4073Z" fill="#DCDAF7"/>
<path d="M106.898 45.4076C106.899 46.509 106.573 47.586 105.961 48.5021C105.35 49.4183 104.48 50.1324 103.463 50.5543C102.445 50.9761 101.325 51.0867 100.245 50.872C99.1647 50.6572 98.1723 50.1269 97.3935 49.348C96.6146 48.5691 96.0842 47.5767 95.8695 46.4964C95.6548 45.416 95.7653 44.2962 96.1872 43.2787C96.609 42.2612 97.3232 41.3917 98.2393 40.7802C99.1555 40.1686 100.232 39.8426 101.334 39.8433C102.81 39.8433 104.225 40.4295 105.268 41.473C106.312 42.5165 106.898 43.9318 106.898 45.4076Z" fill="#726BDF"/>
<path d="M105.149 45.4073C105.149 46.1597 104.926 46.8952 104.508 47.5207C104.09 48.1463 103.496 48.6339 102.801 48.9218C102.106 49.2097 101.341 49.2851 100.603 49.1383C99.865 48.9915 99.1872 48.6292 98.6552 48.0972C98.1232 47.5652 97.7609 46.8874 97.6141 46.1495C97.4673 45.4115 97.5427 44.6467 97.8306 43.9516C98.1185 43.2565 98.6061 42.6624 99.2317 42.2444C99.8572 41.8264 100.593 41.6033 101.345 41.6033C102.354 41.6033 103.322 42.0041 104.035 42.7175C104.748 43.4309 105.149 44.3984 105.149 45.4073Z" fill="#DCDAF7"/>
<path d="M103.555 45.4072C103.555 45.8466 103.426 46.2763 103.182 46.6419C102.938 47.0076 102.591 47.2927 102.186 47.4611C101.78 47.6296 101.333 47.6739 100.902 47.5883C100.471 47.5028 100.075 47.2912 99.7645 46.9805C99.4538 46.6698 99.2423 46.2739 99.1568 45.8429C99.0712 45.4119 99.1155 44.9652 99.2839 44.5594C99.4524 44.1536 99.7375 43.8069 100.103 43.5632C100.469 43.3195 100.898 43.1897 101.338 43.1904C101.926 43.1904 102.49 43.424 102.905 43.8397C103.321 44.2554 103.555 44.8192 103.555 45.4072Z" fill="#726BDF"/>
<g style="mix-blend-mode:multiply" opacity="0.46">
<path d="M100.257 44.9919L91.5527 53.7378L92.0196 54.2427L100.627 45.6732L100.257 44.9919Z" fill="#707070"/>
</g>
<path d="M100.819 45.4316C100.819 45.5343 100.778 45.6328 100.705 45.7054C100.633 45.7781 100.534 45.8189 100.431 45.8189H83.9287V45.0408H100.431C100.534 45.0417 100.633 45.0833 100.705 45.1565C100.778 45.2296 100.819 45.3285 100.819 45.4316Z" fill="#010200"/>
<path d="M274.355 74.7397C274.089 74.9976 273.732 75.1397 273.361 75.1352C272.991 75.1306 272.637 74.9798 272.377 74.7155L266.865 69.1997C266.44 68.7743 266.384 68.342 266.765 67.9651L267.508 67.2216C267.985 66.7409 268.411 66.7858 268.843 67.2216L274.376 72.7374C274.509 72.8646 274.616 73.0172 274.69 73.1862C274.763 73.3552 274.802 73.5371 274.804 73.7214C274.807 73.9057 274.772 74.0885 274.703 74.2592C274.633 74.43 274.531 74.5851 274.4 74.7155L274.355 74.7397Z" fill="#726BDF" stroke="#010200" stroke-width="1.66864"/>
<path d="M270.983 63.7009C270.983 65.1942 270.541 66.6539 269.711 67.8955C268.881 69.137 267.702 70.1046 266.322 70.6759C264.943 71.2472 263.425 71.3965 261.96 71.1049C260.496 70.8134 259.15 70.094 258.095 69.0379C257.039 67.9817 256.32 66.6363 256.029 65.1716C255.739 63.707 255.888 62.1889 256.46 60.8095C257.032 59.4301 258 58.2513 259.242 57.4222C260.484 56.5931 261.944 56.1509 263.438 56.1516C264.429 56.1516 265.41 56.3469 266.326 56.7263C267.242 57.1058 268.074 57.6619 268.774 58.363C269.475 59.064 270.031 59.8963 270.41 60.8122C270.789 61.7281 270.984 62.7097 270.983 63.7009Z" fill="white" stroke="black" stroke-width="1.66864" stroke-linecap="round" stroke-linejoin="round"/>
<path d="M268.947 63.7046C268.947 64.795 268.623 65.8609 268.017 66.7675C267.412 67.674 266.55 68.3806 265.543 68.7977C264.536 69.2148 263.427 69.3238 262.358 69.1108C261.288 68.8978 260.306 68.3725 259.535 67.6012C258.764 66.8299 258.24 65.8474 258.027 64.7779C257.815 63.7083 257.925 62.5999 258.342 61.5927C258.76 60.5854 259.467 59.7248 260.374 59.1195C261.281 58.5142 262.347 58.1915 263.438 58.1921C264.161 58.1921 264.878 58.3348 265.547 58.6118C266.215 58.8889 266.823 59.295 267.334 59.8069C267.846 60.3188 268.252 60.9265 268.528 61.5953C268.805 62.2641 268.947 62.9808 268.947 63.7046Z" fill="#DDDDDD"/>
<path d="M260.059 63.3558C260.05 63.4488 260.008 63.5355 259.939 63.5993C259.871 63.6631 259.782 63.6995 259.688 63.7017C259.641 63.7018 259.594 63.6921 259.55 63.6732C259.507 63.6543 259.467 63.6267 259.435 63.592C259.403 63.5572 259.378 63.5162 259.362 63.4714C259.346 63.4266 259.339 63.379 259.343 63.3316C259.43 62.3697 259.854 61.4693 260.54 60.7888C261.225 60.1083 262.129 59.6911 263.091 59.6106C263.138 59.6075 263.184 59.6144 263.227 59.6307C263.271 59.647 263.31 59.6723 263.343 59.7051C263.375 59.7378 263.401 59.7772 263.417 59.8205C263.433 59.8639 263.44 59.9102 263.437 59.9564C263.432 60.0524 263.392 60.1431 263.325 60.2114C263.257 60.2796 263.167 60.3206 263.071 60.3264C262.298 60.4121 261.579 60.7592 261.031 61.3103C260.483 61.8613 260.14 62.5831 260.059 63.3558Z" fill="white"/>
<path d="M226.203 77.8245H224.208V82.0746H226.203V77.8245Z" fill="#D8DBD7" stroke="#010200" stroke-width="1.66864"/>
<path d="M234.465 89.2852C234.465 91.132 233.918 92.9372 232.892 94.4727C231.866 96.0082 230.408 97.205 228.701 97.9117C226.995 98.6184 225.118 98.8033 223.307 98.443C221.495 98.0828 219.832 97.1935 218.526 95.8876C217.22 94.5818 216.331 92.9181 215.97 91.1068C215.61 89.2956 215.795 87.4182 216.502 85.712C217.208 84.0059 218.405 82.5476 219.941 81.5216C221.476 80.4956 223.282 79.948 225.128 79.948C227.605 79.948 229.98 80.9317 231.731 82.6828C233.482 84.4339 234.465 86.8088 234.465 89.2852Z" fill="#726BDF" stroke="black" stroke-width="1.66864" stroke-linecap="round" stroke-linejoin="round"/>
<path d="M227.452 76.697H222.956C222.61 76.697 222.33 76.9773 222.33 77.323V78.4746C222.33 78.8202 222.61 79.1005 222.956 79.1005H227.452C227.797 79.1005 228.078 78.8202 228.078 78.4746V77.323C228.078 76.9773 227.797 76.697 227.452 76.697Z" fill="#D8DBD7" stroke="#010200" stroke-width="1.66864"/>
<path d="M232.48 89.314C232.497 85.2554 229.221 81.9515 225.162 81.9345C221.104 81.9175 217.8 85.1938 217.783 89.2524C217.766 93.311 221.042 96.6149 225.101 96.6319C229.159 96.6489 232.463 93.3725 232.48 89.314Z" fill="white"/>
<path d="M225.547 89.085C225.538 89.1881 225.49 89.2839 225.413 89.3537C225.337 89.4235 225.237 89.4622 225.134 89.4622C225.03 89.4622 224.93 89.4235 224.854 89.3537C224.778 89.2839 224.73 89.1881 224.72 89.085V86.0971C224.715 86.0397 224.722 85.9818 224.74 85.9271C224.759 85.8724 224.788 85.8221 224.827 85.7795C224.866 85.7369 224.913 85.7029 224.966 85.6796C225.019 85.6563 225.076 85.6443 225.134 85.6443C225.191 85.6443 225.248 85.6563 225.301 85.6796C225.354 85.7029 225.401 85.7369 225.44 85.7795C225.479 85.8221 225.509 85.8724 225.527 85.9271C225.545 85.9818 225.552 86.0397 225.547 86.0971V89.085Z" fill="#010200"/>
<path d="M229.666 89.261C229.666 89.292 229.661 89.3228 229.649 89.3515C229.637 89.3803 229.62 89.4064 229.598 89.4283C229.576 89.4503 229.55 89.4675 229.521 89.4792C229.493 89.4909 229.462 89.4966 229.431 89.4962H224.956C224.893 89.4962 224.834 89.4714 224.79 89.4273C224.745 89.3832 224.721 89.3234 224.721 89.261C224.721 89.1986 224.745 89.1388 224.79 89.0947C224.834 89.0506 224.893 89.0258 224.956 89.0258H229.414C229.446 89.0229 229.479 89.0269 229.509 89.0374C229.54 89.048 229.568 89.0649 229.592 89.0871C229.616 89.1092 229.635 89.1362 229.648 89.1662C229.66 89.1961 229.667 89.2285 229.666 89.261Z" fill="#010200"/>
<path d="M229.414 89.6692H224.956C224.848 89.6692 224.744 89.6262 224.667 89.5496C224.591 89.4731 224.548 89.3693 224.548 89.2611C224.548 89.1529 224.591 89.0491 224.667 88.9725C224.744 88.896 224.848 88.853 224.956 88.853H229.414C229.522 88.853 229.626 88.896 229.702 88.9725C229.779 89.0491 229.822 89.1529 229.822 89.2611C229.822 89.3693 229.779 89.4731 229.702 89.5496C229.626 89.6262 229.522 89.6692 229.414 89.6692ZM224.956 89.1989C224.939 89.1989 224.924 89.2054 224.912 89.2171C224.9 89.2288 224.894 89.2446 224.894 89.2611C224.894 89.2776 224.9 89.2934 224.912 89.3051C224.924 89.3168 224.939 89.3234 224.956 89.3234H229.414C229.43 89.3234 229.446 89.3168 229.458 89.3051C229.469 89.2934 229.476 89.2776 229.476 89.2611C229.476 89.2446 229.469 89.2288 229.458 89.2171C229.446 89.2054 229.43 89.1989 229.414 89.1989H224.956Z" fill="#010200"/>
<path d="M225.547 83.1263C225.552 83.1837 225.545 83.2416 225.527 83.2963C225.509 83.351 225.479 83.4013 225.44 83.4439C225.401 83.4865 225.354 83.5205 225.301 83.5438C225.248 83.5671 225.191 83.5791 225.134 83.5791C225.076 83.5791 225.019 83.5671 224.966 83.5438C224.913 83.5205 224.866 83.4865 224.827 83.4439C224.788 83.4013 224.759 83.351 224.74 83.2963C224.722 83.2416 224.715 83.1837 224.72 83.1263V82.7805C224.715 82.723 224.722 82.6651 224.74 82.6104C224.759 82.5557 224.788 82.5055 224.827 82.4629C224.866 82.4203 224.913 82.3862 224.966 82.3629C225.019 82.3397 225.076 82.3276 225.134 82.3276C225.191 82.3276 225.248 82.3397 225.301 82.3629C225.354 82.3862 225.401 82.4203 225.44 82.4629C225.479 82.5055 225.509 82.5557 225.527 82.6104C225.545 82.6651 225.552 82.723 225.547 82.7805V83.1263Z" fill="#010200"/>
<path d="M225.547 95.877C225.552 95.9344 225.545 95.9923 225.527 96.047C225.509 96.1017 225.479 96.1519 225.44 96.1946C225.401 96.2372 225.354 96.2712 225.301 96.2945C225.248 96.3178 225.191 96.3298 225.134 96.3298C225.076 96.3298 225.019 96.3178 224.966 96.2945C224.913 96.2712 224.866 96.2372 224.827 96.1946C224.788 96.1519 224.759 96.1017 224.74 96.047C224.722 95.9923 224.715 95.9344 224.72 95.877V95.5139C224.73 95.4108 224.778 95.315 224.854 95.2452C224.93 95.1754 225.03 95.1367 225.134 95.1367C225.237 95.1367 225.337 95.1754 225.413 95.2452C225.49 95.315 225.538 95.4108 225.547 95.5139V95.877Z" fill="#010200"/>
<path d="M218.945 88.9153C219.003 88.91 219.061 88.9168 219.115 88.9352C219.17 88.9536 219.22 88.9831 219.263 89.022C219.305 89.0609 219.339 89.1083 219.363 89.161C219.386 89.2138 219.398 89.2709 219.398 89.3286C219.398 89.3863 219.386 89.4433 219.363 89.4961C219.339 89.5489 219.305 89.5962 219.263 89.6351C219.22 89.674 219.17 89.7036 219.115 89.7219C219.061 89.7403 219.003 89.7471 218.945 89.7418H218.599C218.542 89.7471 218.484 89.7403 218.429 89.7219C218.375 89.7036 218.324 89.674 218.282 89.6351C218.239 89.5962 218.205 89.5489 218.182 89.4961C218.159 89.4433 218.146 89.3863 218.146 89.3286C218.146 89.2709 218.159 89.2138 218.182 89.161C218.205 89.1083 218.239 89.0609 218.282 89.022C218.324 88.9831 218.375 88.9536 218.429 88.9352C218.484 88.9168 218.542 88.91 218.599 88.9153H218.945Z" fill="#010200"/>
<path d="M231.682 88.9153C231.74 88.91 231.798 88.9168 231.852 88.9352C231.907 88.9536 231.957 88.9831 232 89.022C232.043 89.0609 232.077 89.1083 232.1 89.161C232.123 89.2138 232.135 89.2709 232.135 89.3286C232.135 89.3863 232.123 89.4433 232.1 89.4961C232.077 89.5489 232.043 89.5962 232 89.6351C231.957 89.674 231.907 89.7036 231.852 89.7219C231.798 89.7403 231.74 89.7471 231.682 89.7418H231.337C231.279 89.7471 231.221 89.7403 231.167 89.7219C231.112 89.7036 231.062 89.674 231.019 89.6351C230.976 89.5962 230.942 89.5489 230.919 89.4961C230.896 89.4433 230.884 89.3863 230.884 89.3286C230.884 89.2709 230.896 89.2138 230.919 89.161C230.942 89.1083 230.976 89.0609 231.019 89.022C231.062 88.9831 231.112 88.9536 231.167 88.9352C231.221 88.9168 231.279 88.91 231.337 88.9153H231.682Z" fill="#010200"/>
<path d="M226.039 89.2854C226.039 89.4638 225.986 89.6382 225.887 89.7865C225.788 89.9349 225.647 90.0506 225.482 90.119C225.317 90.1874 225.136 90.2055 224.961 90.1709C224.786 90.1364 224.625 90.0507 224.499 89.9249C224.373 89.799 224.286 89.6385 224.251 89.4636C224.216 89.2888 224.233 89.1074 224.301 88.9424C224.369 88.7774 224.484 88.6362 224.632 88.5366C224.78 88.437 224.954 88.3835 225.133 88.3828C225.251 88.3824 225.369 88.4054 225.479 88.4505C225.589 88.4957 225.689 88.5621 225.773 88.646C225.857 88.7298 225.924 88.8295 225.97 88.9392C226.015 89.0489 226.039 89.1666 226.039 89.2854Z" fill="#D8DBD7" stroke="#010200" stroke-width="1.66864"/>
<path d="M204.172 72.7272L198.639 69.4419L195.468 74.2281L198.753 77.2817L204.172 72.7272Z" fill="white"/>
<path d="M77.8877 66.7339L74.6611 69.3863L75.1211 72.8999L79.271 70.078L77.8877 66.7339Z" fill="white"/>
<path d="M108.78 12.613C108.78 11.1235 108.189 9.695 107.135 8.64177C106.082 7.58853 104.654 6.99683 103.164 6.99683C101.675 6.99683 100.246 7.58853 99.1929 8.64177C98.1396 9.695 97.5479 11.1235 97.5479 12.613C97.5432 13.5382 97.7606 14.4511 98.1818 15.2749C98.6031 16.0987 99.2158 16.8094 99.9687 17.3473C100.083 17.4235 100.178 17.5261 100.245 17.6464C100.312 17.7668 100.349 17.9014 100.353 18.039V19.9479C100.353 20.7917 101.023 20.7225 101.85 20.7225H104.478C105.305 20.7225 105.972 20.7917 105.972 19.9479V18.0424C105.977 17.9046 106.015 17.7699 106.082 17.6496C106.149 17.5293 106.244 17.4268 106.36 17.3508C107.113 16.8128 107.726 16.1016 108.148 15.277C108.569 14.4525 108.786 13.5389 108.78 12.613Z" fill="#726BDF"/>
<path d="M104.133 15.0198V18.9345" stroke="white" stroke-width="1.66864" stroke-miterlimit="10" stroke-linecap="round"/>
<path d="M102.108 14.688V18.9347" stroke="white" stroke-width="1.66864" stroke-miterlimit="10" stroke-linecap="round"/>
<path d="M104.713 22.0191C104.713 22.4502 104.541 22.8636 104.237 23.1684C103.932 23.4733 103.518 23.6445 103.087 23.6445C102.656 23.6445 102.243 23.4733 101.938 23.1684C101.633 22.8636 101.462 22.4502 101.462 22.0191C101.462 21.0993 102.192 21.1096 103.087 21.1096C103.983 21.1096 104.713 21.0993 104.713 22.0191Z" fill="#726BDF"/>
<path d="M100.358 18.6753V20.4597C100.357 20.6014 100.384 20.742 100.437 20.8734C100.49 21.0049 100.568 21.1246 100.667 21.2257C100.766 21.3269 100.885 21.4075 101.015 21.463C101.145 21.5185 101.285 21.5477 101.427 21.5491H104.903C105.044 21.5477 105.184 21.5185 105.315 21.463C105.445 21.4075 105.563 21.3269 105.662 21.2257C105.762 21.1246 105.84 21.0049 105.893 20.8734C105.946 20.742 105.973 20.6014 105.971 20.4597V18.6753H100.358Z" fill="white" stroke="black" stroke-width="1.66864" stroke-linecap="round" stroke-linejoin="round"/>
<path d="M102.057 14.6706C101.869 14.819 101.636 14.8995 101.397 14.8988C101.252 14.897 101.109 14.8668 100.977 14.8098C100.844 14.7529 100.724 14.6704 100.623 14.567C100.522 14.4635 100.443 14.3413 100.389 14.2072C100.335 14.073 100.309 13.9297 100.311 13.7853C100.311 13.1732 101.365 11.9317 103.098 13.7853C103.81 14.5184 104.184 14.8919 104.779 14.8919C105.074 14.8919 105.357 14.7746 105.566 14.5657C105.775 14.3569 105.892 14.0737 105.892 13.7783C105.892 13.483 105.775 13.1998 105.566 12.9909C105.357 12.7821 105.074 12.6648 104.779 12.6648C104.539 12.6655 104.307 12.7458 104.118 12.893" stroke="white" stroke-width="1.66864" stroke-miterlimit="10" stroke-linecap="round"/>
<path d="M92.1191 12.4783H94.7543" stroke="black" stroke-width="1.66864" stroke-linecap="round" stroke-linejoin="round"/>
<path d="M111.536 12.4783H114.171" stroke="black" stroke-width="1.66864" stroke-linecap="round" stroke-linejoin="round"/>
<path d="M95.3486 20.2763L97.2092 18.4124" stroke="black" stroke-width="1.66864" stroke-linecap="round" stroke-linejoin="round"/>
<path d="M109.075 6.54685L110.939 4.68286" stroke="black" stroke-width="1.66864" stroke-linecap="round" stroke-linejoin="round"/>
<path d="M103.143 4.0883V1.45312" stroke="black" stroke-width="1.66864" stroke-linecap="round" stroke-linejoin="round"/>
<path d="M110.939 20.2763L109.075 18.4124" stroke="black" stroke-width="1.66864" stroke-linecap="round" stroke-linejoin="round"/>
<path d="M97.2092 6.54685L95.3486 4.68286" stroke="black" stroke-width="1.66864" stroke-linecap="round" stroke-linejoin="round"/>
</svg>
