<svg width="235" height="219" viewBox="0 0 235 219" fill="none" xmlns="http://www.w3.org/2000/svg">
<g opacity="0.5">
<path d="M147.212 4.013C144.135 1.81084 140.532 0.460457 136.766 0.0985123C133 -0.263432 129.205 0.375908 125.766 1.95183C91.8037 17.5521 -20.294 72.6821 3.31261 109.53C31.0763 152.834 129.511 221.146 165.633 217.888C201.756 214.629 242.676 154.061 233.478 114.189C225.755 80.6884 173.808 23.1545 147.212 4.013Z" fill="url(#paint0_linear_259_15451)" fill-opacity="0.05"/>
<path d="M147.212 4.013C144.135 1.81084 140.532 0.460457 136.766 0.0985123C133 -0.263432 129.205 0.375908 125.766 1.95183C91.8037 17.5521 -20.294 72.6821 3.31261 109.53C31.0763 152.834 129.511 221.146 165.633 217.888C201.756 214.629 242.676 154.061 233.478 114.189C225.755 80.6884 173.808 23.1545 147.212 4.013Z" fill="url(#paint1_linear_259_15451)" fill-opacity="0.05"/>
</g>
<g opacity="0.07">
<path d="M36.0975 138.153H28.6475V217.739H36.0975V138.153Z" fill="black"/>
<path d="M45.9354 160.458H38.4854V217.734H45.9354V160.458Z" fill="black"/>
<path d="M55.7703 63.3896H48.3203V217.739H55.7703V63.3896Z" fill="black"/>
<path d="M65.6033 159.202H58.1533V217.739H65.6033V159.202Z" fill="black"/>
<path d="M75.4383 108.005H67.9883V217.739H75.4383V108.005Z" fill="black"/>
<path d="M85.2771 60.688H77.8271V217.739H85.2771V60.688Z" fill="black"/>
<path d="M95.1102 141.531H87.6602V217.739H95.1102V141.531Z" fill="black"/>
<path d="M104.945 161.149H97.4951V217.734H104.945V161.149Z" fill="black"/>
<path d="M114.784 21.9033H107.334V217.739H114.784V21.9033Z" fill="black"/>
<path d="M124.619 38.9688H117.169V217.739H124.619V38.9688Z" fill="black"/>
<path d="M134.453 108.005H127.003V217.739H134.453V108.005Z" fill="black"/>
<path d="M144.291 156.873H136.841V217.734H144.291V156.873Z" fill="black"/>
<path d="M154.125 139.807H146.675V217.734H154.125V139.807Z" fill="black"/>
<path d="M163.959 69.9956H156.509V217.734H163.959V69.9956Z" fill="black"/>
<path d="M173.794 108.005H166.344V217.739H173.794V108.005Z" fill="black"/>
<path d="M183.633 108.005H176.183V217.739H183.633V108.005Z" fill="black"/>
<path d="M193.466 144.466H186.016V217.739H193.466V144.466Z" fill="black"/>
<path d="M203.301 45.1724H195.851V217.734H203.301V45.1724Z" fill="black"/>
</g>
<path d="M183.835 180.648C185.087 181.194 188.141 181.144 188.141 181.144C188.141 181.144 187.486 179.158 187.426 179.024C186.756 177.623 184.635 175.308 182.911 175.547C182.627 175.594 182.355 175.7 182.113 175.858C181.872 176.017 181.667 176.225 181.511 176.468C181.355 176.711 181.252 176.984 181.208 177.269C181.165 177.555 181.181 177.846 181.258 178.125C181.546 179.297 182.772 180.186 183.835 180.648Z" fill="#0F0F0F"/>
<path d="M184.888 189.499C186.185 189.687 188.911 188.898 189.13 188.833C189.577 190.394 190.129 191.922 190.784 193.407C191.156 194.277 191.564 195.141 191.981 196C191.728 195.632 191.484 195.31 191.484 195.27C190.491 194.093 187.809 192.419 186.21 193.099C185.946 193.219 185.711 193.393 185.52 193.61C185.328 193.827 185.185 194.082 185.099 194.358C185.012 194.634 184.985 194.925 185.019 195.212C185.053 195.5 185.147 195.776 185.296 196.025C185.887 197.103 187.307 197.634 188.455 197.803C189.602 197.972 191.956 197.346 192.572 197.172L193.069 198.165C193.858 199.74 194.653 201.304 195.388 202.864C195.646 203.41 195.885 203.962 196.118 204.513C195.895 204.19 195.706 203.917 195.671 203.882C194.678 202.705 192.001 201.031 190.396 201.712C190.134 201.832 189.899 202.006 189.708 202.223C189.517 202.44 189.374 202.695 189.289 202.971C189.203 203.247 189.176 203.538 189.21 203.825C189.245 204.112 189.339 204.389 189.488 204.637C190.079 205.715 191.474 206.246 192.641 206.415C193.809 206.584 195.919 206.018 196.65 205.814C196.878 206.385 197.101 206.956 197.295 207.518C197.419 207.905 197.563 208.268 197.663 208.665C197.762 209.062 197.881 209.44 197.986 209.822C198.164 210.567 198.353 211.312 198.512 212.062C198.621 212.559 198.721 213.056 198.82 213.552C198.572 213.001 198.055 211.938 198 211.854C197.176 210.537 194.802 208.481 193.118 208.908C192.84 208.988 192.581 209.124 192.36 209.31C192.138 209.496 191.957 209.726 191.83 209.986C191.703 210.246 191.633 210.53 191.623 210.819C191.613 211.109 191.664 211.397 191.772 211.665C192.194 212.817 193.516 213.557 194.623 213.9C195.845 214.272 198.552 213.93 198.889 213.9C199.053 214.709 199.202 215.499 199.332 216.244C199.431 216.795 199.515 217.327 199.6 217.833H200.682C200.578 217.267 200.469 216.676 200.345 216.055C200.186 215.231 199.997 214.357 199.793 213.463C200.607 213.133 201.401 212.758 202.172 212.34C203.061 213.304 205.346 214.436 205.649 214.58C205.341 215.34 205.033 216.07 204.725 216.776C204.566 217.143 204.412 217.491 204.258 217.833H205.406L205.679 217.178C205.997 216.403 206.32 215.569 206.647 214.695C206.975 214.764 209.652 215.305 210.904 215.027C212.031 214.769 213.387 214.128 213.914 213.011C214.041 212.752 214.113 212.468 214.125 212.18C214.136 211.891 214.086 211.603 213.979 211.335C213.872 211.066 213.709 210.823 213.502 210.622C213.295 210.42 213.048 210.265 212.776 210.165C211.127 209.609 208.609 211.481 207.685 212.733C207.631 212.807 207.129 213.671 206.821 214.223C206.955 213.87 207.084 213.527 207.214 213.165C207.477 212.445 207.71 211.724 207.983 210.945C208.098 210.567 208.212 210.18 208.326 209.792C208.44 209.405 208.53 208.993 208.639 208.586C208.863 207.647 209.041 206.678 209.205 205.705C209.831 205.933 212.081 206.698 213.243 206.634C214.405 206.569 215.851 206.137 216.521 205.094C216.686 204.857 216.799 204.589 216.854 204.306C216.908 204.023 216.903 203.731 216.838 203.451C216.773 203.17 216.65 202.906 216.476 202.675C216.303 202.445 216.083 202.254 215.831 202.114C214.281 201.314 211.51 202.789 210.407 203.882C210.343 203.952 209.637 204.826 209.26 205.317C209.354 204.726 209.449 204.14 209.523 203.544C209.737 201.816 209.901 200.068 210.069 198.314C210.124 197.783 210.184 197.247 210.238 196.715C210.462 196.8 213.109 197.783 214.41 197.709C215.573 197.624 217.023 197.212 217.693 196.169C217.858 195.932 217.971 195.664 218.026 195.381C218.08 195.098 218.075 194.806 218.01 194.526C217.945 194.245 217.822 193.981 217.648 193.75C217.475 193.52 217.255 193.329 217.003 193.189C215.453 192.394 212.682 193.864 211.579 194.957C211.495 195.041 210.487 196.303 210.248 196.636C210.372 195.459 210.507 194.291 210.685 193.159C210.919 191.607 211.251 190.07 211.679 188.56C211.783 188.6 214.544 189.643 215.875 189.553C217.038 189.474 218.488 189.057 219.158 188.019C219.322 187.782 219.435 187.513 219.489 187.23C219.543 186.947 219.538 186.656 219.473 186.376C219.408 186.095 219.285 185.831 219.112 185.601C218.939 185.371 218.72 185.179 218.468 185.039C216.918 184.244 214.147 185.714 213.044 186.812C212.96 186.896 211.872 188.252 211.694 188.515C211.723 188.426 211.738 188.331 211.763 188.247C212.241 186.746 212.851 185.29 213.586 183.896C213.983 183.121 214.405 182.406 214.828 181.716C215.324 181.964 217.594 183.067 218.801 183.111C220.008 183.156 221.448 182.898 222.228 181.944C222.419 181.728 222.562 181.473 222.648 181.198C222.734 180.922 222.761 180.631 222.727 180.345C222.693 180.058 222.6 179.782 222.452 179.533C222.304 179.285 222.106 179.071 221.87 178.905C220.42 177.941 217.5 179.098 216.288 180.067C216.218 180.117 215.607 180.727 215.17 181.179C215.364 180.872 215.563 180.549 215.756 180.256C216.486 179.163 217.221 178.199 217.877 177.355C218.255 176.858 218.602 176.456 218.935 176.064C219.546 176.064 222.009 175.979 223.087 175.473C224.165 174.966 225.342 174.057 225.595 172.855C225.665 172.575 225.674 172.283 225.624 171.998C225.573 171.713 225.462 171.443 225.3 171.204C225.137 170.965 224.926 170.763 224.68 170.611C224.434 170.459 224.158 170.361 223.872 170.322C222.143 170.134 220.087 172.508 219.451 173.923C219.397 174.047 218.766 176.064 218.796 176.064H218.836C218.508 176.436 218.16 176.839 217.788 177.286C217.112 178.12 216.352 179.064 215.602 180.146C214.775 181.306 214.017 182.513 213.333 183.762C212.557 185.157 211.907 186.618 211.391 188.128V188.182C211.391 187.686 211.391 186.245 211.366 186.136C211.162 184.597 209.876 181.736 208.162 181.418C207.876 181.373 207.584 181.389 207.305 181.464C207.025 181.539 206.765 181.673 206.541 181.856C206.316 182.038 206.133 182.266 206.002 182.525C205.872 182.783 205.797 183.066 205.783 183.355C205.684 184.582 206.573 185.808 207.437 186.578C208.43 187.452 211.122 188.297 211.341 188.361C210.856 189.911 210.473 191.49 210.194 193.09C210.03 194.023 209.891 194.967 209.766 195.911C209.766 195.469 209.766 195.076 209.742 195.022C209.543 193.482 208.252 190.621 206.538 190.303C206.253 190.259 205.961 190.275 205.682 190.351C205.403 190.427 205.144 190.56 204.92 190.743C204.696 190.926 204.513 191.153 204.383 191.411C204.253 191.669 204.178 191.952 204.164 192.24C204.065 193.467 204.949 194.689 205.818 195.464C206.687 196.238 208.992 197.013 209.603 197.212C209.558 197.574 209.508 197.937 209.464 198.3C209.255 200.048 209.056 201.776 208.803 203.495C208.719 204.096 208.609 204.682 208.505 205.273C208.505 204.88 208.505 204.553 208.48 204.503C208.281 202.958 206.99 200.097 205.282 199.785C204.996 199.74 204.704 199.755 204.424 199.831C204.145 199.906 203.884 200.04 203.66 200.222C203.436 200.405 203.252 200.633 203.122 200.891C202.991 201.15 202.916 201.433 202.903 201.722C202.803 202.943 203.692 204.17 204.556 204.945C205.421 205.72 207.507 206.435 208.232 206.653C208.108 207.254 207.978 207.855 207.829 208.432C207.715 208.824 207.636 209.206 207.502 209.594C207.368 209.981 207.258 210.359 207.134 210.736C206.871 211.456 206.608 212.196 206.335 212.892C206.151 213.388 205.962 213.835 205.778 214.297C205.873 213.701 206.032 212.529 206.032 212.43C206.013 211.061 205.644 209.721 204.959 208.536C204.965 208.385 204.957 208.233 204.934 208.084C204.898 207.797 204.802 207.521 204.652 207.274C204.502 207.026 204.302 206.814 204.064 206.649C203.827 206.484 203.557 206.371 203.273 206.317C202.989 206.263 202.697 206.269 202.416 206.336C200.732 206.783 199.664 209.733 199.585 211.302C199.585 211.392 199.639 212.39 199.689 213.021C199.605 212.658 199.525 212.301 199.436 211.923C199.257 211.183 199.058 210.433 198.85 209.648C198.736 209.271 198.621 208.888 198.502 208.501C198.383 208.114 198.229 207.716 198.095 207.324C197.762 206.415 197.385 205.506 196.977 204.602C197.628 204.448 199.932 203.862 200.856 203.152C201.78 202.442 202.754 201.289 202.749 200.058C202.756 199.769 202.702 199.482 202.591 199.215C202.48 198.948 202.315 198.708 202.105 198.509C201.895 198.311 201.646 198.159 201.373 198.063C201.101 197.967 200.811 197.929 200.524 197.952C198.79 198.141 197.29 200.897 196.977 202.422C196.977 202.516 196.853 203.634 196.808 204.25C196.56 203.708 196.312 203.167 196.049 202.626C195.279 201.071 194.444 199.516 193.625 197.967C193.372 197.47 193.128 197.013 192.88 196.536C193.108 196.482 195.86 195.846 196.898 195.046C197.822 194.341 198.795 193.184 198.79 191.952C198.797 191.663 198.744 191.376 198.633 191.11C198.522 190.843 198.356 190.602 198.146 190.404C197.937 190.205 197.687 190.053 197.415 189.957C197.143 189.861 196.853 189.823 196.565 189.846C194.832 190.035 193.332 192.792 193.019 194.316C192.994 194.431 192.85 196.04 192.835 196.452C192.289 195.399 191.752 194.351 191.271 193.293C190.609 191.87 190.042 190.405 189.572 188.908C189.681 188.883 192.552 188.227 193.62 187.418C194.539 186.712 195.517 185.555 195.507 184.328C195.514 184.039 195.461 183.752 195.35 183.485C195.239 183.218 195.073 182.977 194.864 182.778C194.654 182.58 194.405 182.427 194.132 182.33C193.86 182.234 193.57 182.195 193.282 182.217C191.554 182.406 190.049 185.163 189.736 186.687C189.736 186.807 189.557 188.535 189.552 188.853C189.522 188.764 189.488 188.679 189.463 188.59C189.03 187.075 188.734 185.524 188.579 183.956C188.484 183.092 188.44 182.262 188.415 181.472C188.961 181.403 191.464 181.07 192.502 180.444C193.54 179.819 194.593 178.8 194.717 177.579C194.757 177.292 194.736 176.999 194.655 176.721C194.575 176.443 194.436 176.185 194.248 175.964C194.061 175.743 193.828 175.564 193.567 175.439C193.305 175.315 193.021 175.246 192.731 175.239C190.988 175.239 189.195 177.812 188.713 179.287C188.688 179.372 188.514 180.216 188.395 180.837C188.395 180.469 188.395 180.092 188.395 179.739C188.395 178.423 188.479 177.221 188.559 176.153C188.613 175.547 188.673 175.001 188.733 174.489C189.229 174.142 191.246 172.721 191.867 171.708C192.487 170.695 192.964 169.284 192.512 168.142C192.415 167.87 192.262 167.621 192.063 167.412C191.864 167.203 191.623 167.039 191.356 166.929C191.09 166.819 190.803 166.766 190.514 166.774C190.225 166.782 189.942 166.85 189.681 166.975C188.132 167.774 187.724 170.889 187.983 172.438C187.983 172.567 188.589 174.599 188.613 174.584H188.643C188.579 175.08 188.509 175.602 188.45 176.178C188.34 177.246 188.231 178.453 188.201 179.774C188.151 181.197 188.186 182.621 188.306 184.04C188.428 185.63 188.692 187.206 189.095 188.749V188.803C188.822 188.371 188.017 187.194 187.943 187.115C186.95 185.938 184.273 184.264 182.668 184.944C182.405 185.064 182.171 185.239 181.98 185.456C181.789 185.673 181.646 185.928 181.56 186.204C181.475 186.48 181.448 186.771 181.482 187.058C181.517 187.345 181.611 187.621 181.759 187.87C182.326 188.798 183.741 189.33 184.888 189.499Z" fill="#0F0F0F"/>
<path d="M214.734 181.323C214.763 181.323 215.29 179.292 215.31 179.157C215.523 177.618 215.032 174.519 213.467 173.759C213.203 173.641 212.917 173.579 212.628 173.579C212.339 173.578 212.053 173.639 211.788 173.756C211.523 173.873 211.286 174.044 211.092 174.258C210.898 174.473 210.751 174.726 210.661 175C210.244 176.158 210.775 177.573 211.406 178.547C212.146 179.694 214.734 181.318 214.734 181.323Z" fill="#0F0F0F"/>
<path d="M6.84848 191.545C7.73255 191.927 9.89305 191.883 9.89305 191.883C9.89305 191.883 9.43115 190.467 9.39638 190.393C8.92455 189.399 7.40972 187.765 6.20778 187.909C6.00635 187.942 5.81413 188.017 5.6436 188.13C5.47308 188.242 5.32807 188.389 5.218 188.561C5.10792 188.732 5.03524 188.926 5.00468 189.127C4.97412 189.329 4.98636 189.535 5.04062 189.732C5.23432 190.586 6.09852 191.217 6.84848 191.545Z" fill="#0F0F0F"/>
<path d="M7.59341 197.798C8.51225 197.932 10.4393 197.37 10.5734 197.301C10.8925 198.413 11.2874 199.501 11.7555 200.559C12.0187 201.175 12.3068 201.786 12.5998 202.392C12.426 202.134 12.267 201.895 12.2372 201.895C11.522 201.066 9.64465 199.884 8.51225 200.36C8.32645 200.446 8.16069 200.569 8.0257 200.723C7.89071 200.877 7.7895 201.057 7.72863 201.252C7.66776 201.448 7.64859 201.653 7.67235 201.857C7.69611 202.06 7.76229 202.256 7.86658 202.432C8.28378 203.191 9.28705 203.569 10.0966 203.688C10.9062 203.807 12.5799 203.365 13.012 203.241C13.1263 203.47 13.2355 203.703 13.3547 203.936C13.911 205.049 14.4722 206.152 14.9937 207.254C15.1725 207.642 15.3414 208.034 15.4904 208.421C15.3364 208.193 15.2023 207.999 15.1775 207.974C14.4573 207.145 12.5849 205.963 11.4525 206.44C11.2662 206.525 11.0999 206.648 10.9644 206.801C10.829 206.955 10.7275 207.135 10.6665 207.331C10.6056 207.526 10.5866 207.732 10.6108 207.936C10.635 208.139 10.7018 208.335 10.8068 208.511C11.2588 209.266 12.2521 209.628 13.0567 209.762C13.8613 209.896 15.3712 209.479 15.8877 209.335C16.0516 209.737 16.2106 210.145 16.3447 210.542C16.4341 210.815 16.5334 211.074 16.6079 211.352C16.6824 211.63 16.7569 211.898 16.8364 212.171C16.9605 212.698 17.0946 213.239 17.2039 213.751C17.2834 214.108 17.3529 214.456 17.4224 214.799C17.2436 214.411 16.8811 213.656 16.8463 213.597C16.2602 212.668 14.5865 211.213 13.3696 211.516C13.1728 211.571 12.9898 211.668 12.8327 211.799C12.6756 211.93 12.5479 212.092 12.4579 212.276C12.3679 212.46 12.3177 212.66 12.3105 212.865C12.3033 213.069 12.3392 213.273 12.416 213.462C12.714 214.277 13.6478 214.803 14.4325 215.042C15.2967 215.305 17.2089 215.042 17.4473 215.042C17.5615 215.613 17.6658 216.174 17.7602 216.701C17.8297 217.088 17.8893 217.466 17.9489 217.823H18.7138C18.6442 217.426 18.5648 217.004 18.4754 216.567C18.3611 215.986 18.227 215.365 18.083 214.734C18.6588 214.503 19.221 214.239 19.7667 213.944C20.5094 214.579 21.3348 215.11 22.2202 215.524C22.0017 216.065 21.7782 216.587 21.5646 217.078C21.4554 217.336 21.3411 217.575 21.2319 217.823H22.0464C22.106 217.669 22.1706 217.52 22.2351 217.361C22.4636 216.815 22.6921 216.224 22.9205 215.618C23.154 215.663 25.0463 216.05 25.9303 215.851C26.73 215.668 27.6985 215.216 28.0561 214.426C28.1432 214.244 28.1915 214.046 28.1977 213.844C28.204 213.643 28.1681 213.442 28.0923 213.255C28.0166 213.068 27.9027 212.899 27.7579 212.759C27.6132 212.618 27.4407 212.509 27.2515 212.439C26.0893 212.047 24.3062 213.373 23.6556 214.252C23.6159 214.307 23.2632 214.918 23.0447 215.31C23.1391 215.062 23.2334 214.813 23.3228 214.565C23.5116 214.068 23.6804 213.542 23.8642 212.996C23.9486 212.727 24.0281 212.454 24.1125 212.181C24.197 211.908 24.2566 211.615 24.3311 211.327C24.49 210.661 24.6142 209.981 24.7284 209.29C25.1754 209.449 26.7598 210.006 27.5842 209.946C28.4087 209.886 29.4269 209.588 29.9037 208.858C30.0208 208.691 30.1013 208.5 30.1398 208.299C30.1783 208.098 30.1739 207.891 30.1271 207.692C30.0802 207.493 29.9918 207.306 29.8678 207.143C29.7437 206.98 29.5867 206.845 29.407 206.748C28.3143 206.186 26.3575 207.244 25.5777 207.999C25.528 208.049 25.0314 208.665 24.7681 208.992C24.8327 208.575 24.8973 208.163 24.9519 207.741C25.1009 206.519 25.2151 205.282 25.3393 204.046C25.3741 203.668 25.4138 203.291 25.4535 202.913C25.6125 202.973 27.4849 203.668 28.4037 203.604C29.2232 203.549 30.2513 203.246 30.7232 202.521C30.8403 202.353 30.9208 202.163 30.9593 201.962C30.9978 201.761 30.9934 201.554 30.9466 201.355C30.8997 201.155 30.8113 200.968 30.6873 200.805C30.5632 200.643 30.4062 200.508 30.2265 200.41C29.1338 199.844 27.172 200.882 26.3922 201.657C26.3376 201.716 25.6224 202.61 25.4535 202.844C25.5429 202.014 25.6373 201.185 25.7615 200.36C25.9275 199.263 26.1648 198.178 26.4717 197.112C26.5462 197.137 28.4931 197.877 29.4517 197.808C30.2712 197.753 31.2993 197.45 31.7711 196.725C31.8883 196.557 31.9687 196.366 32.0072 196.165C32.0457 195.964 32.0414 195.758 31.9945 195.558C31.9477 195.359 31.8593 195.172 31.7352 195.009C31.6112 194.847 31.4542 194.712 31.2745 194.614C30.1818 194.048 28.22 195.111 27.4402 195.866C27.3806 195.925 26.6157 196.884 26.4866 197.068C26.4866 197.008 26.5164 196.938 26.5363 196.879C26.8728 195.818 27.3033 194.789 27.8226 193.804C28.1057 193.258 28.4037 192.751 28.7017 192.265C29.0544 192.439 30.6586 193.218 31.5129 193.258C32.3671 193.298 33.3853 193.109 33.9366 192.434C34.0708 192.28 34.1714 192.1 34.2317 191.905C34.2921 191.71 34.311 191.505 34.2871 191.302C34.2632 191.1 34.1972 190.904 34.0932 190.729C33.9892 190.553 33.8496 190.401 33.6833 190.283C32.6552 189.603 30.594 190.422 29.71 191.108C29.6653 191.142 29.2133 191.574 28.9203 191.892C29.0593 191.674 29.1984 191.445 29.3375 191.242C29.8341 190.467 30.3705 189.791 30.8275 189.19C31.0907 188.858 31.3241 188.555 31.5725 188.277C32.0046 188.277 33.7479 188.217 34.5078 187.859C35.2677 187.502 36.1021 186.866 36.2809 186.012C36.3302 185.813 36.3371 185.607 36.3013 185.405C36.2654 185.204 36.1875 185.013 36.0727 184.844C35.9579 184.674 35.8087 184.531 35.635 184.424C35.4612 184.316 35.2666 184.246 35.064 184.219C33.8373 184.09 32.387 185.763 31.94 186.767C31.9003 186.856 31.4433 188.281 31.4731 188.257H31.5029C31.2695 188.52 31.0063 188.808 30.7629 189.121C30.2662 189.712 29.7696 190.377 29.2183 191.147C28.633 191.965 28.0973 192.818 27.614 193.7C27.0656 194.685 26.6068 195.717 26.2432 196.784C26.241 196.798 26.241 196.811 26.2432 196.824C26.2432 196.462 26.2432 195.453 26.2432 195.379C26.0992 194.291 25.1853 192.265 23.9784 192.041C23.7764 192.01 23.57 192.021 23.3726 192.074C23.1753 192.128 22.9914 192.222 22.833 192.352C22.6746 192.481 22.5452 192.642 22.4534 192.825C22.3615 193.008 22.3091 193.208 22.2997 193.412C22.2302 194.276 22.856 195.145 23.4669 195.692C24.1572 196.308 26.0744 196.904 26.2234 196.948C25.8831 198.044 25.6127 199.161 25.4138 200.291C25.2996 200.951 25.2002 201.617 25.1108 202.278C25.1108 201.965 25.1108 201.687 25.1108 201.647C24.9668 200.559 24.0579 198.538 22.846 198.314C22.6459 198.286 22.4421 198.3 22.2477 198.356C22.0534 198.411 21.8726 198.506 21.717 198.635C21.5614 198.764 21.4344 198.924 21.344 199.105C21.2537 199.286 21.2019 199.483 21.1921 199.685C21.1226 200.554 21.7484 201.418 22.3593 201.965C22.9702 202.511 24.6042 203.062 25.0363 203.196C25.0016 203.455 24.9668 203.693 24.937 203.971C24.793 205.203 24.6489 206.455 24.4751 207.642C24.4105 208.064 24.336 208.481 24.2615 208.898C24.2615 208.62 24.2615 208.401 24.2615 208.352C24.1175 207.264 23.2036 205.243 21.9967 205.019C21.795 204.987 21.5887 204.997 21.3913 205.05C21.194 205.103 21.01 205.197 20.8515 205.326C20.693 205.455 20.5635 205.616 20.4716 205.799C20.3797 205.981 20.3273 206.181 20.318 206.385C20.2435 207.249 20.8743 208.118 21.4852 208.665C22.0961 209.211 23.5712 209.708 24.0827 209.872C23.9933 210.299 23.9039 210.721 23.7996 211.128C23.7202 211.406 23.6606 211.674 23.5662 211.948C23.4718 212.221 23.3924 212.489 23.3079 212.757C23.1242 213.254 22.9354 213.79 22.7417 214.282C22.6126 214.625 22.4785 214.948 22.3494 215.275C22.4139 214.853 22.5282 214.024 22.5282 213.954C22.5134 212.987 22.2518 212.04 21.7683 211.203C21.7806 211.097 21.7806 210.99 21.7683 210.885C21.743 210.682 21.6754 210.487 21.5698 210.312C21.4641 210.137 21.3228 209.986 21.1551 209.87C20.9874 209.753 20.797 209.673 20.5963 209.635C20.3956 209.597 20.1891 209.601 19.9902 209.648C18.8032 209.966 18.0482 212.052 18.0035 213.15C18.0035 213.214 18.0433 213.919 18.0731 214.361C18.0135 214.103 17.9588 213.865 17.8943 213.587C17.7701 213.06 17.631 212.539 17.482 211.977C17.4026 211.709 17.3181 211.441 17.2337 211.168C17.1493 210.895 17.045 210.617 16.9506 210.333C16.7122 209.693 16.4539 209.052 16.1609 208.411C16.6178 208.302 18.2469 207.915 18.9025 207.388C19.5581 206.862 20.2435 206.072 20.2336 205.203C20.2399 204.999 20.2029 204.795 20.1252 204.606C20.0475 204.418 19.9307 204.247 19.7825 204.106C19.6343 203.966 19.4581 203.858 19.2654 203.79C19.0726 203.722 18.8677 203.696 18.6641 203.713C17.4423 203.842 16.3794 205.794 16.1808 206.867C16.1808 206.936 16.0963 207.726 16.0665 208.158C15.8877 207.776 15.7189 207.393 15.5301 207.011C14.9788 205.913 14.3928 204.816 13.8117 203.718L13.2852 202.725C13.4491 202.685 15.396 202.228 16.1261 201.672C16.7768 201.175 17.4671 200.355 17.4622 199.486C17.4677 199.282 17.4302 199.079 17.3522 198.891C17.2742 198.702 17.1574 198.532 17.0094 198.392C16.8614 198.251 16.6855 198.143 16.4931 198.075C16.3007 198.007 16.0962 197.98 15.8927 197.996C14.6659 198.13 13.608 200.077 13.4094 201.155C13.4094 201.235 13.2902 202.372 13.2802 202.645C12.8928 201.905 12.5154 201.155 12.1727 200.415C11.7063 199.409 11.3064 198.374 10.9757 197.316C11.0502 197.316 13.0816 196.819 13.8315 196.263C14.4822 195.766 15.1725 194.947 15.1676 194.078C15.1731 193.874 15.1356 193.671 15.0576 193.482C14.9796 193.293 14.8628 193.123 14.7148 192.983C14.5668 192.842 14.3909 192.735 14.1985 192.666C14.0061 192.598 13.8016 192.571 13.5981 192.588C12.3713 192.717 11.3134 194.669 11.0899 195.741C11.0899 195.826 10.9658 197.053 10.9608 197.271C10.9608 197.212 10.9161 197.152 10.8962 197.087C10.5916 196.017 10.3838 194.922 10.2754 193.814C10.2059 193.203 10.1761 192.617 10.1562 192.046C10.5436 191.997 12.3117 191.763 13.0418 191.316C13.7719 190.869 14.5318 190.159 14.6113 189.295C14.6393 189.092 14.6243 188.886 14.5673 188.69C14.5102 188.493 14.4125 188.311 14.2803 188.155C14.1482 187.999 13.9846 187.873 13.8003 187.784C13.616 187.695 13.4151 187.647 13.2107 187.641C11.9839 187.641 10.7274 189.459 10.3747 190.502C10.3747 190.556 10.2307 191.157 10.1512 191.594C10.1512 191.336 10.1512 191.068 10.1512 190.819C10.1512 189.891 10.2108 189.036 10.2704 188.286C10.3052 187.854 10.3499 187.472 10.3896 187.109C10.7472 186.866 12.1677 185.858 12.6097 185.123C13.0518 184.388 13.3845 183.409 13.0667 182.605C12.9981 182.414 12.8905 182.24 12.7508 182.094C12.6111 181.947 12.4424 181.831 12.2554 181.754C12.0684 181.676 11.8673 181.638 11.6649 181.643C11.4625 181.647 11.2633 181.694 11.08 181.78C9.98735 182.346 9.69928 184.547 9.88305 185.629C9.88305 185.724 10.3102 187.159 10.33 187.144C10.2804 187.492 10.2357 187.864 10.191 188.272C10.1165 189.026 10.037 189.881 10.0171 190.814C9.98221 191.82 10.0054 192.827 10.0867 193.829C10.1772 194.953 10.365 196.066 10.6479 197.157C10.6501 197.17 10.6501 197.184 10.6479 197.197C10.4542 196.894 9.88801 196.059 9.83835 196C9.11818 195.17 7.24078 193.988 6.10838 194.47C5.92274 194.555 5.75706 194.678 5.6221 194.831C5.48714 194.984 5.38593 195.164 5.32503 195.359C5.26414 195.554 5.24492 195.759 5.26864 195.962C5.29237 196.165 5.35849 196.361 5.46271 196.536C5.79548 197.301 6.78881 197.678 7.59341 197.798Z" fill="#0F0F0F"/>
<path d="M28.6872 192.016C28.6872 192.016 29.0796 190.581 29.0945 190.492C29.2435 189.404 28.9008 187.209 27.7932 186.677C27.6068 186.592 27.4044 186.546 27.1993 186.545C26.9941 186.543 26.791 186.585 26.6032 186.667C26.4155 186.75 26.2474 186.872 26.11 187.024C25.9727 187.176 25.8692 187.356 25.8065 187.551C25.5085 188.366 25.886 189.369 26.333 190.06C26.8595 190.889 28.6872 192.016 28.6872 192.016Z" fill="#0F0F0F"/>
<path d="M2.98438 217.798H230.497" stroke="#0F0F0F" stroke-miterlimit="10"/>
<path d="M59.6447 24.2424C59.6461 22.6094 60.2953 21.0437 61.45 19.889C62.6047 18.7343 64.1704 18.085 65.8034 18.0837H73.5862V14.3537C73.5862 13.7402 73.4653 13.1327 73.2303 12.566C72.9954 11.9992 72.6511 11.4843 72.217 11.0507C71.7829 10.6171 71.2677 10.2733 70.7007 10.039C70.1337 9.80469 69.5261 9.68441 68.9125 9.68506H52.6219C52.0084 9.68441 51.4007 9.80469 50.8337 10.039C50.2667 10.2733 49.7515 10.6171 49.3174 11.0507C48.8834 11.4843 48.539 11.9992 48.3041 12.566C48.0692 13.1327 47.9482 13.7402 47.9482 14.3537V29.4723L52.1004 25.8069C52.2653 25.8259 52.4311 25.8358 52.597 25.8367H59.6199L59.6447 24.2424Z" fill="#0F0F0F"/>
<path d="M54.3193 16.2856H68.1614" stroke="white" stroke-miterlimit="10"/>
<path d="M54.3193 19.3054H63.0209" stroke="white" stroke-miterlimit="10"/>
<path d="M65.8025 19.5735H82.0981C82.7112 19.5735 83.3183 19.6942 83.8847 19.9289C84.4511 20.1635 84.9658 20.5074 85.3993 20.9409C85.8329 21.3744 86.1768 21.8891 86.4114 22.4555C86.646 23.022 86.7668 23.6291 86.7668 24.2422V39.3607L82.6146 35.6953C82.4498 35.7145 82.2839 35.7244 82.118 35.7251H65.8025C65.1894 35.7251 64.5823 35.6043 64.0158 35.3697C63.4494 35.1351 62.9347 34.7912 62.5012 34.3577C62.0677 33.9241 61.7238 33.4095 61.4892 32.843C61.2545 32.2766 61.1338 31.6695 61.1338 31.0564V24.2422C61.1338 23.6291 61.2545 23.022 61.4892 22.4555C61.7238 21.8891 62.0677 21.3744 62.5012 20.9409C62.9347 20.5074 63.4494 20.1635 64.0158 19.9289C64.5823 19.6942 65.1894 19.5735 65.8025 19.5735Z" fill="#0F0F0F"/>
<path d="M66.1855 26.1741H81.7709" stroke="white" stroke-miterlimit="10"/>
<path d="M66.1855 28.9453H81.7709" stroke="white" stroke-miterlimit="10"/>
<path d="M186.502 28.9707H169.119C167.654 28.9707 166.467 30.1581 166.467 31.6229V48.0129C166.467 49.4777 167.654 50.6651 169.119 50.6651H186.502C187.967 50.6651 189.155 49.4777 189.155 48.0129V31.6229C189.155 30.1581 187.967 28.9707 186.502 28.9707Z" fill="#726BDF"/>
<path d="M183.13 39.4357L174.2 34.2803V44.5911L183.13 39.4357Z" fill="#0F0F0F"/>
<path d="M35.4867 140.745H18.1034C16.6386 140.745 15.4512 141.933 15.4512 143.398V159.788C15.4512 161.252 16.6386 162.44 18.1034 162.44H35.4867C36.9515 162.44 38.1389 161.252 38.1389 159.788V143.398C38.1389 141.933 36.9515 140.745 35.4867 140.745Z" fill="#0F0F0F"/>
<path d="M32.1137 151.211L23.1836 146.055V156.366L32.1137 151.211Z" fill="white"/>
<path d="M153.003 3.25293H128.07C126.63 3.25293 125.463 4.42035 125.463 5.86043V29.467C125.463 30.9071 126.63 32.0745 128.07 32.0745H153.003C154.443 32.0745 155.611 30.9071 155.611 29.467V5.86043C155.611 4.42035 154.443 3.25293 153.003 3.25293Z" fill="#0F0F0F"/>
<path d="M130.006 27.1078H151.626L143.689 11.8452L138.484 22.4441L135.092 17.3582L130.006 27.1078Z" fill="#726BDF"/>
<path d="M135.395 14.4329C137.628 14.4329 139.438 12.6228 139.438 10.39C139.438 8.15722 137.628 6.34717 135.395 6.34717C133.163 6.34717 131.353 8.15722 131.353 10.39C131.353 12.6228 133.163 14.4329 135.395 14.4329Z" fill="#726BDF"/>
<path d="M65.6637 69.1257H49.378C47.9379 69.1257 46.7705 70.2931 46.7705 71.7332V87.0753C46.7705 88.5154 47.9379 89.6828 49.378 89.6828H65.6637C67.1038 89.6828 68.2712 88.5154 68.2712 87.0753V71.7332C68.2712 70.2931 67.1038 69.1257 65.6637 69.1257Z" fill="#726BDF"/>
<path d="M50.0078 86.1371H65.4293L59.7673 75.2551L56.0572 82.8144L53.6384 79.1838L50.0078 86.1371Z" fill="#0F0F0F"/>
<path d="M56.739 74.2168C56.74 73.6456 56.5715 73.087 56.2548 72.6117C55.9381 72.1364 55.4875 71.7658 54.96 71.5468C54.4325 71.3278 53.8519 71.2702 53.2917 71.3814C52.7314 71.4926 52.2168 71.7675 51.813 72.1714C51.4091 72.5752 51.1342 73.0898 51.023 73.6501C50.9118 74.2103 50.9694 74.7909 51.1884 75.3184C51.4074 75.8459 51.778 76.2965 52.2533 76.6132C52.7286 76.9299 53.2872 77.0984 53.8584 77.0974C54.622 77.0961 55.3539 76.7922 55.8939 76.2523C56.4338 75.7123 56.7377 74.9804 56.739 74.2168Z" fill="#0F0F0F"/>
<path d="M208.365 36.0797C213.717 34.8272 217.041 29.4729 215.788 24.1205C214.536 18.7681 209.182 15.4444 203.829 16.6969C198.477 17.9493 195.153 23.3036 196.405 28.656C197.658 34.0084 203.012 37.3321 208.365 36.0797Z" fill="#726BDF"/>
<path d="M211.29 23.0154C210.971 22.6953 210.592 22.4412 210.174 22.2679C209.757 22.0946 209.309 22.0054 208.857 22.0054C208.405 22.0054 207.957 22.0946 207.539 22.2679C207.122 22.4412 206.742 22.6953 206.423 23.0154L206.085 23.3581L205.743 23.0154C205.423 22.6953 205.044 22.4412 204.626 22.2679C204.209 22.0946 203.761 22.0054 203.309 22.0054C202.857 22.0054 202.409 22.0946 201.991 22.2679C201.574 22.4412 201.195 22.6953 200.875 23.0154C200.555 23.3347 200.301 23.714 200.128 24.1316C199.954 24.5492 199.865 24.9969 199.865 25.4491C199.865 25.9012 199.954 26.3489 200.128 26.7666C200.301 27.1842 200.555 27.5635 200.875 27.8828L206.031 33.0382L206.085 32.9885L206.135 33.0382L211.29 27.8828C211.611 27.5635 211.865 27.1842 212.038 26.7666C212.211 26.3489 212.3 25.9012 212.3 25.4491C212.3 24.9969 212.211 24.5492 212.038 24.1316C211.865 23.714 211.611 23.3347 211.29 23.0154Z" fill="white"/>
<path d="M199.245 88.8442C205.244 82.845 205.244 73.1184 199.245 67.1192C193.246 61.12 183.519 61.12 177.52 67.1192C171.521 73.1184 171.521 82.845 177.52 88.8442C183.519 94.8434 193.246 94.8434 199.245 88.8442Z" fill="#0F0F0F"/>
<path d="M196.401 72.7915C195.908 72.2977 195.323 71.906 194.678 71.6387C194.034 71.3714 193.343 71.2338 192.646 71.2338C191.948 71.2338 191.258 71.3714 190.613 71.6387C189.969 71.906 189.384 72.2977 188.891 72.7915L188.365 73.3179L187.868 72.7915C187.375 72.2976 186.789 71.9057 186.144 71.6384C185.5 71.371 184.809 71.2334 184.111 71.2334C183.413 71.2334 182.722 71.371 182.077 71.6384C181.432 71.9057 180.846 72.2976 180.353 72.7915C179.359 73.7879 178.8 75.1383 178.8 76.5463C178.8 77.9543 179.359 79.3047 180.353 80.3011L188.3 88.2477L188.379 88.1683L188.459 88.2477L196.406 80.3011C196.899 79.808 197.29 79.2225 197.557 78.578C197.824 77.9336 197.961 77.2428 197.961 76.5452C197.96 75.8477 197.822 75.1571 197.555 74.513C197.287 73.8689 196.895 73.2839 196.401 72.7915Z" fill="#726BDF"/>
<path d="M33.4497 70.3975C30.102 70.3975 26.8912 69.069 24.5222 66.7038C22.1532 64.3385 20.8197 61.1298 20.8145 57.7822C20.8145 54.4311 22.1457 51.2173 24.5152 48.8477C26.8848 46.4782 30.0986 45.147 33.4497 45.147C36.8007 45.147 40.0145 46.4782 42.3841 48.8477C44.7536 51.2173 46.0849 54.4311 46.0849 57.7822C46.0796 61.1298 44.7461 64.3385 42.3771 66.7038C40.0081 69.069 36.7973 70.3975 33.4497 70.3975Z" fill="#0F0F0F"/>
<path d="M33.451 52.0851C35.2986 52.0851 35.5221 52.0851 36.2522 52.1248C36.6914 52.1302 37.1265 52.2108 37.5385 52.3632C37.8366 52.478 38.1073 52.654 38.3331 52.8798C38.559 53.1057 38.735 53.3764 38.8497 53.6744C39.0021 54.0864 39.0827 54.5215 39.0881 54.9608C39.1229 55.6959 39.1279 55.9144 39.1279 57.762C39.1279 59.6096 39.1279 59.8331 39.0881 60.5632C39.0833 61.0025 39.0027 61.4377 38.8497 61.8496C38.735 62.1476 38.559 62.4183 38.3331 62.6442C38.1073 62.87 37.8366 63.046 37.5385 63.1608C37.1272 63.3156 36.6917 63.3963 36.2522 63.3992C35.5221 63.4339 35.2986 63.4439 33.451 63.4439C31.6034 63.4439 31.3799 63.4439 30.6498 63.3992C30.2103 63.3963 29.7747 63.3156 29.3634 63.1608C29.0653 63.046 28.7946 62.87 28.5688 62.6442C28.3429 62.4183 28.167 62.1476 28.0522 61.8496C27.8992 61.4377 27.8186 61.0025 27.8138 60.5632C27.779 59.8331 27.7741 59.6146 27.7741 57.762C27.7741 55.9094 27.7741 55.6959 27.8138 54.9608C27.8192 54.5215 27.8998 54.0864 28.0522 53.6744C28.167 53.3764 28.3429 53.1057 28.5688 52.8798C28.7946 52.654 29.0653 52.478 29.3634 52.3632C29.7754 52.2108 30.2105 52.1302 30.6498 52.1248C31.3799 52.0901 31.6034 52.0851 33.451 52.0851ZM33.451 50.8335C31.5686 50.8335 31.3352 50.8335 30.5951 50.8782C30.0193 50.8867 29.4495 50.996 28.9114 51.201C28.4501 51.3746 28.0317 51.6457 27.6847 51.9957C27.3347 52.3438 27.0623 52.7618 26.885 53.2225C26.6847 53.7617 26.5772 54.331 26.5672 54.9062C26.5324 55.6462 26.5225 55.8995 26.5225 57.762C26.5225 59.6245 26.5225 59.8778 26.5672 60.6178C26.5767 61.193 26.6842 61.7624 26.885 62.3015C27.0635 62.7615 27.3358 63.1793 27.6847 63.5282C28.0336 63.8771 28.4514 64.1495 28.9114 64.3279C29.4508 64.5283 30.0199 64.6374 30.5951 64.6508C31.3352 64.6806 31.5885 64.6905 33.451 64.6905C35.3135 64.6905 35.5668 64.6905 36.3068 64.6508C36.8821 64.6374 37.4511 64.5283 37.9905 64.3279C38.4505 64.1495 38.8683 63.8771 39.2172 63.5282C39.5661 63.1793 39.8384 62.7615 40.0169 62.3015C40.2177 61.7624 40.3252 61.193 40.3348 60.6178C40.3695 59.8778 40.3795 59.6245 40.3795 57.762C40.3795 55.8995 40.3795 55.6462 40.3348 54.9062C40.3247 54.331 40.2172 53.7617 40.0169 53.2225C39.8397 52.7618 39.5672 52.3438 39.2173 51.9957C38.8702 51.6457 38.4518 51.3746 37.9905 51.201C37.4524 50.996 36.8826 50.8867 36.3068 50.8782C35.5668 50.8434 35.3135 50.8335 33.451 50.8335Z" fill="white"/>
<path d="M33.4496 54.2061C32.7471 54.2061 32.0604 54.4141 31.476 54.804C30.8917 55.1939 30.4359 55.7481 30.1661 56.3968C29.8964 57.0454 29.8248 57.7594 29.9604 58.4487C30.0961 59.138 30.4328 59.7716 30.9281 60.2697C31.4235 60.7679 32.0553 61.1081 32.7438 61.2475C33.4323 61.387 34.1467 61.3194 34.7968 61.0533C35.4469 60.7872 36.0037 60.3345 36.3968 59.7523C36.7899 59.1701 37.0018 58.4845 37.0058 57.7821C37.0058 56.8389 36.6311 55.9344 35.9642 55.2675C35.2973 54.6006 34.3928 54.2259 33.4496 54.2259M33.4496 60.0916C32.9929 60.0916 32.5463 59.9561 32.1665 59.7023C31.7867 59.4486 31.4907 59.0879 31.3159 58.6659C31.1411 58.2439 31.0954 57.7795 31.1845 57.3315C31.2736 56.8835 31.4936 56.472 31.8166 56.149C32.1396 55.826 32.5511 55.606 32.9991 55.5169C33.4471 55.4278 33.9114 55.4736 34.3334 55.6484C34.7554 55.8232 35.1161 56.1192 35.3699 56.499C35.6237 56.8788 35.7591 57.3253 35.7591 57.7821C35.7591 58.3946 35.5158 58.982 35.0827 59.4151C34.6496 59.8482 34.0622 60.0916 33.4496 60.0916Z" fill="white"/>
<path d="M37.9803 54.0666C37.9803 54.2318 37.9313 54.3934 37.8393 54.5307C37.7474 54.668 37.6168 54.7749 37.4641 54.8379C37.3113 54.9009 37.1433 54.9172 36.9813 54.8846C36.8193 54.852 36.6706 54.772 36.5542 54.6548C36.4377 54.5376 36.3586 54.3885 36.327 54.2263C36.2953 54.0641 36.3126 53.8962 36.3765 53.7438C36.4404 53.5914 36.5481 53.4615 36.686 53.3704C36.8238 53.2793 36.9857 53.2312 37.1509 53.2322C37.2602 53.2322 37.3685 53.2538 37.4695 53.2958C37.5704 53.3378 37.6621 53.3993 37.7392 53.4769C37.8162 53.5544 37.8772 53.6465 37.9186 53.7477C37.96 53.8489 37.981 53.9573 37.9803 54.0666Z" fill="white"/>
<path d="M157.129 184.928C155.47 184.929 153.827 184.603 152.294 183.968C150.761 183.334 149.369 182.404 148.195 181.231C147.022 180.058 146.091 178.665 145.456 177.133C144.821 175.6 144.494 173.957 144.494 172.298C144.494 168.947 145.825 165.733 148.195 163.364C150.564 160.994 153.778 159.663 157.129 159.663C160.48 159.663 163.694 160.994 166.064 163.364C168.433 165.733 169.765 168.947 169.765 172.298C169.765 173.957 169.438 175.6 168.803 177.133C168.168 178.665 167.237 180.058 166.063 181.231C164.89 182.404 163.497 183.334 161.964 183.968C160.431 184.603 158.788 184.929 157.129 184.928Z" fill="#726BDF"/>
<path d="M157.13 166.612C158.977 166.612 159.196 166.612 159.926 166.651C160.365 166.656 160.8 166.737 161.212 166.89C161.514 167.002 161.787 167.18 162.012 167.411C162.236 167.635 162.406 167.907 162.509 168.206C162.662 168.618 162.742 169.053 162.747 169.492C162.782 170.222 162.787 170.441 162.787 172.293C162.787 174.146 162.787 174.36 162.747 175.09C162.742 175.529 162.662 175.964 162.509 176.376C162.405 176.676 162.235 176.949 162.012 177.176C161.785 177.398 161.512 177.568 161.212 177.672C160.8 177.825 160.365 177.906 159.926 177.911C159.196 177.946 158.977 177.951 157.13 177.951C155.282 177.951 155.059 177.951 154.328 177.911C153.889 177.906 153.454 177.825 153.042 177.672C152.744 177.566 152.473 177.397 152.247 177.176C152.024 176.949 151.855 176.676 151.751 176.376C151.596 175.965 151.513 175.529 151.507 175.09C151.478 174.36 151.468 174.141 151.468 172.293C151.468 170.446 151.468 170.222 151.507 169.492C151.513 169.053 151.596 168.617 151.751 168.206C151.854 167.907 152.024 167.635 152.247 167.411C152.471 167.181 152.742 167.003 153.042 166.89C153.454 166.737 153.889 166.656 154.328 166.651C155.059 166.622 155.277 166.612 157.13 166.612ZM157.13 165.365C155.247 165.365 155.014 165.365 154.274 165.405C153.699 165.418 153.13 165.527 152.59 165.728C152.128 165.902 151.709 166.175 151.363 166.527C151.013 166.875 150.74 167.293 150.564 167.754C150.363 168.293 150.254 168.862 150.241 169.438C150.211 170.173 150.201 170.431 150.201 172.293C150.201 174.156 150.201 174.409 150.241 175.149C150.254 175.723 150.363 176.29 150.564 176.828C150.739 177.29 151.011 177.708 151.363 178.055C151.708 178.409 152.127 178.682 152.59 178.854C153.129 179.057 153.698 179.166 154.274 179.177C155.014 179.212 155.267 179.217 157.13 179.217C158.992 179.217 159.245 179.217 159.986 179.177C160.559 179.166 161.127 179.057 161.664 178.854C162.125 178.678 162.544 178.407 162.894 178.057C163.243 177.708 163.514 177.289 163.691 176.828C163.893 176.291 164.003 175.723 164.013 175.149C164.048 174.409 164.058 174.156 164.058 172.293C164.058 170.431 164.058 170.173 164.013 169.438C164.003 168.862 163.893 168.293 163.691 167.754C163.514 167.293 163.243 166.874 162.894 166.525C162.544 166.175 162.125 165.904 161.664 165.728C161.127 165.527 160.559 165.418 159.986 165.405C159.245 165.37 158.992 165.365 157.13 165.365Z" fill="#0F0F0F"/>
<path d="M157.131 168.732C156.426 168.731 155.737 168.939 155.151 169.33C154.564 169.721 154.107 170.276 153.837 170.927C153.567 171.578 153.495 172.294 153.632 172.985C153.769 173.676 154.108 174.311 154.606 174.81C155.104 175.308 155.738 175.648 156.429 175.786C157.12 175.923 157.836 175.853 158.487 175.584C159.138 175.314 159.695 174.858 160.086 174.272C160.478 173.686 160.687 172.998 160.687 172.293C160.687 171.826 160.596 171.363 160.417 170.931C160.239 170.499 159.977 170.106 159.647 169.776C159.317 169.445 158.924 169.182 158.493 169.003C158.061 168.824 157.598 168.732 157.131 168.732ZM157.131 174.603C156.674 174.603 156.227 174.467 155.847 174.214C155.468 173.96 155.172 173.599 154.997 173.177C154.822 172.755 154.776 172.291 154.865 171.843C154.955 171.395 155.174 170.983 155.497 170.66C155.82 170.337 156.232 170.117 156.68 170.028C157.128 169.939 157.592 169.985 158.014 170.16C158.436 170.334 158.797 170.63 159.051 171.01C159.305 171.39 159.44 171.836 159.44 172.293C159.44 172.906 159.197 173.493 158.764 173.926C158.33 174.359 157.743 174.603 157.131 174.603Z" fill="#0F0F0F"/>
<path d="M161.659 168.593C161.66 168.758 161.612 168.92 161.521 169.058C161.43 169.196 161.3 169.304 161.147 169.368C160.995 169.431 160.827 169.449 160.665 169.417C160.503 169.385 160.354 169.306 160.236 169.19C160.119 169.073 160.039 168.925 160.007 168.763C159.974 168.601 159.99 168.433 160.053 168.28C160.116 168.127 160.223 167.997 160.361 167.905C160.498 167.813 160.659 167.764 160.825 167.764C160.934 167.763 161.042 167.784 161.144 167.825C161.245 167.867 161.337 167.928 161.414 168.005C161.492 168.082 161.553 168.174 161.595 168.275C161.637 168.376 161.659 168.484 161.659 168.593Z" fill="#0F0F0F"/>
<path d="M141.768 75.8708C138.45 75.8708 135.268 74.5527 132.921 72.2064C130.575 69.8601 129.257 66.6779 129.257 63.3598C129.254 61.7151 129.576 60.0861 130.204 58.5659C130.831 57.0457 131.752 55.6641 132.914 54.5003C134.076 53.3364 135.456 52.4131 136.976 51.7831C138.495 51.1531 140.123 50.8289 141.768 50.8289C145.087 50.8289 148.271 52.1475 150.618 54.4947C152.965 56.8419 154.284 60.0254 154.284 63.3449C154.286 64.9895 153.964 66.6184 153.335 68.1383C152.707 69.6583 151.785 71.0395 150.623 72.2029C149.461 73.3663 148.08 74.2891 146.561 74.9185C145.041 75.5478 143.413 75.8714 141.768 75.8708Z" fill="#0F0F0F"/>
<path d="M135.104 67.5464C136.305 68.3171 137.694 68.7425 139.121 68.776C140.548 68.8095 141.956 68.45 143.192 67.7366C144.428 67.0233 145.444 65.9837 146.128 64.7316C146.813 63.4795 147.14 62.0633 147.073 60.6378C147.608 60.2501 148.071 59.7709 148.439 59.2223C147.94 59.4425 147.411 59.5881 146.87 59.6544C147.439 59.3105 147.866 58.7727 148.071 58.1396C147.533 58.4571 146.946 58.682 146.333 58.8051C145.922 58.3664 145.377 58.0755 144.784 57.9772C144.191 57.8789 143.582 57.9789 143.051 58.2615C142.52 58.5442 142.097 58.9939 141.847 59.541C141.598 60.0881 141.535 60.7022 141.669 61.2884C140.582 61.2343 139.517 60.9516 138.546 60.4587C137.575 59.9658 136.718 59.2737 136.032 58.4276C135.683 59.0304 135.576 59.7433 135.733 60.422C135.89 61.1007 136.299 61.6944 136.877 62.0831C136.443 62.0683 136.019 61.9509 135.64 61.7404C135.632 62.3781 135.847 62.9985 136.248 63.4946C136.649 63.9906 137.21 64.3311 137.835 64.4572C137.432 64.5668 137.009 64.5821 136.598 64.5019C136.773 65.0452 137.113 65.5205 137.571 65.8615C138.028 66.2025 138.581 66.3922 139.151 66.4041C138.586 66.8525 137.937 67.1843 137.242 67.3804C136.547 67.5765 135.82 67.6329 135.104 67.5464Z" fill="white"/>
<path d="M210.02 166.617C206.7 166.617 203.517 165.298 201.17 162.951C198.823 160.604 197.504 157.42 197.504 154.101C197.504 150.781 198.823 147.598 201.17 145.251C203.517 142.903 206.7 141.585 210.02 141.585C211.663 141.585 213.291 141.908 214.809 142.538C216.327 143.167 217.706 144.089 218.868 145.251C220.03 146.413 220.952 147.793 221.58 149.311C222.208 150.83 222.532 152.457 222.531 154.101C222.531 157.419 221.213 160.602 218.867 162.949C216.521 165.296 213.339 166.615 210.02 166.617Z" fill="#726BDF"/>
<path d="M203.351 158.288C204.552 159.058 205.941 159.484 207.368 159.517C208.795 159.551 210.203 159.191 211.439 158.478C212.675 157.764 213.691 156.725 214.375 155.473C215.06 154.221 215.387 152.804 215.32 151.379C215.857 150.994 216.32 150.514 216.686 149.964C216.188 150.186 215.659 150.332 215.117 150.396C215.688 150.053 216.115 149.515 216.319 148.881C215.781 149.199 215.193 149.424 214.58 149.546C214.169 149.108 213.624 148.817 213.031 148.718C212.438 148.62 211.829 148.72 211.298 149.003C210.767 149.285 210.344 149.735 210.094 150.282C209.845 150.829 209.782 151.443 209.917 152.03C208.829 151.974 207.765 151.691 206.794 151.198C205.823 150.705 204.966 150.014 204.279 149.169C203.93 149.771 203.823 150.484 203.981 151.162C204.139 151.841 204.549 152.433 205.129 152.819C204.693 152.805 204.268 152.688 203.887 152.477C203.879 153.114 204.094 153.735 204.495 154.231C204.896 154.727 205.457 155.067 206.082 155.193C205.679 155.302 205.256 155.319 204.846 155.243C205.021 155.787 205.361 156.262 205.82 156.602C206.279 156.942 206.832 157.131 207.403 157.14C206.837 157.589 206.187 157.921 205.491 158.118C204.796 158.315 204.068 158.373 203.351 158.288Z" fill="#0F0F0F"/>
<path d="M186.979 139.464C184.746 139.464 182.535 139.024 180.472 138.169C178.409 137.315 176.535 136.062 174.956 134.483C173.377 132.904 172.125 131.029 171.271 128.966C170.417 126.902 169.978 124.691 169.979 122.458C169.98 117.95 171.772 113.627 174.96 110.44C178.148 107.253 182.471 105.462 186.979 105.462C191.485 105.466 195.805 107.258 198.989 110.445C202.174 113.632 203.964 117.953 203.965 122.458C203.967 126.965 202.178 131.289 198.993 134.477C195.808 137.666 191.487 139.46 186.979 139.464Z" fill="#0F0F0F"/>
<path d="M184.286 132.739H188.423V122.373H191.309L191.617 118.897H188.423V116.91C188.423 116.091 188.587 115.768 189.377 115.768H191.617V112.167H188.751C185.671 112.167 184.281 113.523 184.281 116.14V118.907H182.11V122.423H184.266L184.286 132.739Z" fill="white"/>
<path d="M34.129 125.885C30.6765 125.885 27.3654 124.513 24.9241 122.072C22.4828 119.631 21.1113 116.32 21.1113 112.867C21.1126 109.416 22.4847 106.106 24.9259 103.666C27.367 101.225 30.6773 99.8545 34.129 99.8545C35.8378 99.8545 37.5299 100.191 39.1087 100.845C40.6875 101.499 42.122 102.457 43.3303 103.666C44.5386 104.874 45.4972 106.309 46.1511 107.887C46.805 109.466 47.1416 111.158 47.1416 112.867C47.1423 114.576 46.8062 116.269 46.1525 117.848C45.4989 119.428 44.5405 120.863 43.3321 122.072C42.1237 123.281 40.6889 124.24 39.1098 124.894C37.5307 125.548 35.8382 125.885 34.129 125.885Z" fill="#726BDF"/>
<path d="M32.0689 120.735H35.2376V112.788H37.4478L37.6812 110.131H35.2376V108.616C35.2376 107.99 35.3618 107.742 35.9677 107.742H37.6812V104.986H35.4859C33.1317 104.986 32.0689 106.024 32.0689 108.01V110.131H30.4199V112.818H32.0689V120.735Z" fill="#0F0F0F"/>
<path d="M144.549 141.326H135.678L139.781 119.771C139.842 119.476 139.835 119.17 139.761 118.878C139.687 118.586 139.547 118.314 139.352 118.084C139.157 117.854 138.913 117.671 138.637 117.549C138.361 117.428 138.061 117.371 137.759 117.382L132.857 117.347C132.172 117.358 131.509 117.598 130.976 118.029C130.443 118.461 130.07 119.058 129.917 119.726L125.8 141.351H66.2692L70.3717 119.796C70.4375 119.499 70.434 119.19 70.3615 118.894C70.2889 118.598 70.1493 118.323 69.9535 118.09C69.7576 117.856 69.5107 117.671 69.2318 117.548C68.953 117.426 68.6496 117.369 68.3453 117.382L63.4482 117.347C62.7626 117.358 62.1003 117.598 61.5672 118.029C61.0342 118.461 60.6612 119.058 60.5079 119.726L56.3905 141.351H47.1823C46.4978 141.376 45.8413 141.63 45.3181 142.072C44.7949 142.514 44.4352 143.119 44.2967 143.79L43.4126 148.613C43.3434 148.908 43.343 149.216 43.4113 149.512C43.4796 149.808 43.6149 150.084 43.8068 150.32C43.9987 150.556 44.242 150.744 44.5181 150.871C44.7941 150.997 45.0956 151.059 45.3993 151.051H54.5429L47.3413 188.867H38.2274C37.5423 188.892 36.8851 189.146 36.3611 189.588C35.837 190.03 35.4764 190.635 35.3368 191.306L34.4577 196.129C34.3876 196.425 34.3865 196.733 34.4544 197.03C34.5223 197.326 34.6575 197.603 34.8495 197.84C35.0414 198.076 35.2851 198.265 35.5616 198.392C35.8382 198.519 36.1402 198.58 36.4444 198.572H45.4937L42.3001 215.35C42.2343 215.647 42.2378 215.956 42.3103 216.252C42.3828 216.548 42.5224 216.823 42.7183 217.056C42.9142 217.289 43.1611 217.475 43.44 217.597C43.7188 217.72 44.0221 217.777 44.3265 217.763L49.2286 217.798C49.9138 217.788 50.5758 217.549 51.1082 217.117C51.6406 216.686 52.0124 216.088 52.1639 215.419L55.3773 198.533H114.908L111.709 215.335C111.643 215.632 111.647 215.941 111.719 216.237C111.792 216.533 111.932 216.808 112.127 217.041C112.323 217.274 112.57 217.46 112.849 217.582C113.128 217.705 113.431 217.762 113.736 217.749L118.638 217.783C119.323 217.774 119.985 217.534 120.517 217.102C121.05 216.671 121.422 216.073 121.573 215.404L124.786 198.518H133.816C134.502 198.493 135.159 198.239 135.684 197.795C136.208 197.352 136.568 196.746 136.706 196.074L137.586 191.251C137.655 190.956 137.655 190.648 137.587 190.352C137.519 190.056 137.383 189.78 137.191 189.544C137 189.308 136.756 189.12 136.48 188.993C136.204 188.867 135.903 188.805 135.599 188.813H126.659L133.856 150.997H142.796C143.48 150.971 144.136 150.717 144.659 150.275C145.182 149.833 145.542 149.228 145.681 148.558L146.56 143.735C146.625 143.439 146.621 143.133 146.549 142.839C146.477 142.545 146.338 142.271 146.144 142.039C145.95 141.806 145.706 141.621 145.429 141.498C145.153 141.374 144.851 141.316 144.549 141.326ZM116.736 188.843H57.2249L64.4018 151.026H123.957L116.736 188.843Z" fill="#726BDF" stroke="#0F0F0F" stroke-miterlimit="10"/>
<path opacity="0.34" d="M68.6532 128.805L54.4685 151.473L47.3562 188.842H40.0204L37.4229 198.547H45.4987L42.3001 215.35C42.2343 215.647 42.2378 215.956 42.3103 216.252C42.3829 216.547 42.5225 216.823 42.7183 217.056C42.9142 217.289 43.1611 217.474 43.44 217.597C43.7188 217.72 44.0222 217.777 44.3265 217.763L49.2286 217.798C49.9138 217.788 50.5759 217.548 51.1082 217.117C51.6406 216.685 52.0124 216.087 52.1639 215.419L55.3774 198.532H82.2818L77.1264 188.828H57.225L64.4018 151.026H109.966L119.666 141.326H66.2692L68.6532 128.805Z" fill="black"/>
<path d="M107.965 167.223C107.965 167.223 111.273 172.88 113.185 174.474C115.097 176.069 115.415 176.704 113.98 177.34C112.544 177.976 107.771 176.843 107.294 176.386C106.818 175.93 102.993 163.329 104.588 163.806C106.182 164.283 107.965 167.223 107.965 167.223Z" fill="white" stroke="#0F0F0F" stroke-miterlimit="10"/>
<path d="M106.177 173.506C106.177 173.506 110.205 177.087 114.789 176.863C114.789 176.863 114.446 179.446 107.294 176.366L106.177 173.506Z" fill="white" stroke="#0F0F0F" stroke-miterlimit="10"/>
<path d="M74.0968 125.573C74.0968 125.573 70.8833 132.347 73.9279 141.322C76.9725 150.297 94.5843 167.735 94.7531 168.241C94.922 168.748 101.528 186.529 104.746 192.623C107.964 198.717 117.615 216.835 118.653 217.511C119.691 218.186 123.396 215.991 124.071 215.822C124.747 215.653 133.19 210.259 136.418 206.336C139.647 202.412 136.418 200.922 136.418 200.922C136.418 200.922 122.701 205.154 121.518 205.154C120.336 205.154 119.656 202.953 118.976 202.785C118.295 202.616 108.65 170.779 107.974 167.223C107.299 163.667 107.294 164.01 106.618 161.298C105.943 158.586 98.8208 145.196 98.8208 145.196C98.8208 145.196 118.121 142.991 128.79 139.44C139.458 135.888 140.923 130.46 140.412 128.597C139.9 126.735 116.537 125.583 109.792 125.483C103.047 125.384 97.8722 125.558 97.8722 125.558L74.0968 125.573Z" fill="#0F0F0F" stroke="#0F0F0F" stroke-miterlimit="10"/>
<path d="M130.822 133.022C130.822 133.022 125.066 134.378 122.185 136.916C120.045 138.808 109.56 150.262 104.33 155.998L105.448 158.442C105.955 159.448 106.364 160.501 106.669 161.586C114.964 155.869 136.335 139.469 140.254 137.368C144.997 134.83 144.828 128.925 143.304 128.056C141.779 127.186 132.347 127.092 132.347 127.092" fill="#0F0F0F"/>
<path d="M130.822 133.022C130.822 133.022 125.066 134.378 122.185 136.916C120.045 138.808 109.56 150.262 104.33 155.998L105.448 158.442C105.955 159.448 106.364 160.501 106.669 161.586C114.964 155.869 136.335 139.469 140.254 137.368C144.997 134.83 144.828 128.925 143.304 128.056C141.779 127.186 132.347 127.092 132.347 127.092" stroke="#0F0F0F" stroke-miterlimit="10"/>
<path d="M73.2532 122.846C73.2532 122.846 71.7284 125.891 72.7565 127.078C73.7846 128.265 82.5856 130.554 90.0306 131.523C97.4756 132.491 102.214 130.634 103.401 129.447C104.588 128.26 104.121 126.238 104.121 126.238C104.121 126.238 80.0277 126.76 73.2532 122.846Z" fill="#726BDF" stroke="#0F0F0F" stroke-miterlimit="10"/>
<path d="M97.6096 78.2896C97.6096 78.2896 84.89 80.3607 83.2659 84.5625C81.6418 88.7643 76.8738 114.74 76.8738 114.74C76.8738 114.74 70.2383 121.514 71.8624 123.68C73.4865 125.845 85.0042 130.996 93.676 130.32C102.348 129.645 103.57 128.423 104.106 126.258C104.642 124.092 106.137 117.318 106.545 114.74C106.952 112.162 110.612 104.439 110.612 104.439C110.612 104.439 112.51 110.538 114.402 111.889C116.294 113.24 121.316 114.596 121.316 114.596L124.569 108.229C124.569 108.229 119.686 99.9641 119.284 96.845C118.882 93.726 119.826 83.296 117.114 79.5014C114.402 75.7069 109.117 75.7119 106.545 75.9801C103.972 76.2483 97.6096 78.2896 97.6096 78.2896Z" fill="#726BDF" stroke="#0F0F0F" stroke-miterlimit="10"/>
<path d="M112.429 95.0322C112.18 95.5683 112.024 96.1426 111.967 96.7308C111.833 98.9013 112.106 102.964 110.616 104.454" stroke="#0F0F0F" stroke-miterlimit="10"/>
<path d="M114.566 91.7046C114.085 92.2789 113.645 92.8863 113.25 93.5224" stroke="#0F0F0F" stroke-miterlimit="10"/>
<path d="M93.9346 112.833C96.1696 111.576 98.9012 109.888 100.605 108.363" stroke="#0F0F0F" stroke-miterlimit="10"/>
<path d="M90.334 114.74C90.334 114.74 91.0343 114.397 92.0922 113.836" stroke="#0F0F0F" stroke-miterlimit="10"/>
<path d="M103.639 108.631C103.639 108.631 96.3031 113.906 94.7783 114.462" stroke="#0F0F0F" stroke-miterlimit="10"/>
<path d="M113.791 109.466C113.791 109.466 115.46 105.438 118.932 103.357" stroke="#0F0F0F" stroke-miterlimit="10"/>
<path d="M114.764 104.608C114.764 104.608 112.544 107.246 112.405 108.353" stroke="#0F0F0F" stroke-miterlimit="10"/>
<path d="M106.55 75.9853C103.978 76.2584 97.6104 78.2898 97.6104 78.2898C97.6104 78.2898 96.2794 78.7318 94.4814 79.4868C95.4548 82.3759 96.73 85.1544 98.2859 87.7761C100.725 91.7048 103.029 95.6334 103.029 95.6334C103.029 95.6334 108.314 84.1157 109.938 79.5066C110.378 78.3998 110.608 77.221 110.618 76.03C109.269 75.8573 107.903 75.8423 106.55 75.9853Z" fill="#726BDF" stroke="#0F0F0F" stroke-miterlimit="10"/>
<path d="M113.771 56.7889C113.771 56.7889 114.64 57.6581 115.261 60.0967C115.881 62.5353 115.519 62.0138 117.436 64.1892C119.353 66.3646 119.001 68.9771 118.216 72.0217C117.431 75.0662 116.726 77.5943 114.824 78.6373C112.921 79.6803 108.292 78.8111 108.292 78.8111C108.292 78.8111 105.163 87.17 104.205 88.9977C103.246 90.8255 103.594 91.8685 102.377 90.1252C101.16 88.3819 96.7945 80.3806 96.4469 79.1389C96.2483 78.5817 96.1589 77.9915 96.1836 77.4006C95.3419 76.6177 94.663 75.6764 94.1857 74.6307C93.7084 73.5849 93.4422 72.4553 93.4023 71.3065C93.3129 67.4772 95.3145 65.9971 96.879 63.2108C98.4435 60.4245 100.271 50.3273 104.19 49.8008C108.109 49.2743 113.244 54.8022 113.771 56.7889Z" fill="#FFBF9D" stroke="#0F0F0F" stroke-miterlimit="10"/>
<path d="M106.544 52.8754C107.493 53.3246 108.283 54.0522 108.809 54.9614C109.504 56.357 109.067 57.5738 110.026 56.948C110.984 56.3222 110.637 54.2511 110.637 54.2511L113.771 56.7891C113.771 56.7891 115.335 53.1336 114.377 50.7844C113.418 48.4352 108.635 47.1289 107.155 47.3077C105.675 47.4865 102.889 48.6984 102.889 48.6984C102.889 48.6984 105.586 51.0427 106.544 52.8754Z" fill="#0F0F0F" stroke="#0F0F0F" stroke-miterlimit="10"/>
<path d="M106.808 53.7444C106.808 53.7444 106.892 56.9628 104.28 60.8815C101.667 64.8002 99.2337 65.9276 99.2337 65.9276C99.2337 65.9276 99.5813 68.9771 98.886 69.2354C98.1907 69.4937 97.6642 68.6295 97.1427 68.5401C96.6212 68.4507 94.8829 68.103 94.7935 71.3264C94.7041 74.5497 98.5383 75.7666 98.5383 75.7666L100.366 74.9818C100.366 74.9818 99.929 77.5049 96.5368 78.4585C93.1445 79.4121 90.0056 76.4718 90.0056 76.4718L91.8333 74.207L88.4411 69.6824H86.6978C87.0324 69.31 87.2517 68.8486 87.3293 68.354C87.4069 67.8595 87.3394 67.3531 87.1349 66.8961C86.4396 65.2422 85.9131 59.759 88.6994 55.3188C91.4857 50.8786 100.451 48.2711 100.451 48.2711C100.451 48.2711 103.326 47.1387 105.238 48.7032C107.151 50.2677 106.808 53.7444 106.808 53.7444Z" fill="#0F0F0F" stroke="#0F0F0F" stroke-miterlimit="10"/>
<path d="M109.6 60.7922C109.6 60.7922 106.292 61.2293 105.423 63.4941" stroke="#0F0F0F" stroke-miterlimit="10"/>
<path d="M112.551 59.7689C112.551 59.7689 113.42 58.4627 114.726 58.8998" stroke="#0F0F0F" stroke-miterlimit="10"/>
<path d="M112.116 62.0139C112.599 63.2726 113.28 64.4462 114.133 65.4906C115.414 66.9806 116.328 67.07 116.144 68.0137C115.96 68.9573 114.495 70.4374 113.661 70.4374" stroke="#0F0F0F" stroke-miterlimit="10"/>
<path d="M111.054 72.6826C111.776 72.9788 112.554 73.1165 113.335 73.0865C114.115 73.0565 114.88 72.8595 115.578 72.5088" stroke="#0F0F0F" stroke-miterlimit="10"/>
<path d="M109.828 64.9541C109.996 65.6544 109.773 66.31 109.331 66.4143C108.889 66.5186 108.387 66.0418 108.223 65.3366C108.059 64.6313 108.278 63.9807 108.72 63.8764C109.162 63.7721 109.664 64.2389 109.828 64.9541Z" fill="#0F0F0F"/>
<path d="M115.489 62.466C115.653 63.1663 115.429 63.8219 114.992 63.9262C114.555 64.0305 114.053 63.5537 113.885 62.8484C113.716 62.1431 113.939 61.4925 114.381 61.3882C114.823 61.2839 115.32 61.7557 115.489 62.466Z" fill="#0F0F0F"/>
<path d="M108.282 78.8112L104.666 77.644L107.239 81.4435L108.282 78.8112Z" fill="#0F0F0F" stroke="#0F0F0F" stroke-miterlimit="10"/>
<path d="M111.586 61.8105C109.069 62.4863 106.689 63.5955 104.553 65.0886C104.553 65.0886 105.789 68.4858 106.932 68.744C108.074 69.0023 110.999 67.3434 112.276 66.5786C113.552 65.8137 111.859 61.8105 111.586 61.8105Z" stroke="#0F0F0F" stroke-miterlimit="10"/>
<path d="M118.202 58.8252C116.165 59.3741 114.239 60.2732 112.51 61.4824C112.51 61.4824 113.503 64.2339 114.437 64.4624C115.371 64.6908 117.73 63.33 118.758 62.7091C119.786 62.0883 118.44 58.8252 118.202 58.8252Z" stroke="#0F0F0F" stroke-miterlimit="10"/>
<path d="M111.566 61.8105L112.51 61.4827" stroke="#0F0F0F" stroke-miterlimit="10"/>
<path d="M104.533 65.0881L97.1426 68.54" stroke="#0F0F0F" stroke-miterlimit="10"/>
<path d="M86.5881 81.3892C85.0309 81.9015 83.5913 82.7187 82.3532 83.7932C81.115 84.8676 80.1031 86.1777 79.3765 87.6472C77.8865 90.8258 73.7592 112.704 74.3006 115.957C74.8419 119.21 86.7669 129.238 90.0201 131.543C93.2732 133.847 94.356 134.791 94.356 134.791L97.8773 125.578C97.8773 125.578 94.356 123.546 93.8146 122.463C93.2732 121.381 85.411 112.033 85.411 112.033L91.2617 94.7296" fill="#726BDF"/>
<path d="M86.5881 81.3892C85.0309 81.9015 83.5913 82.7187 82.3532 83.7932C81.115 84.8676 80.1031 86.1777 79.3765 87.6472C77.8865 90.8258 73.7592 112.704 74.3006 115.957C74.8419 119.21 86.7669 129.238 90.0201 131.543C93.2732 133.847 94.356 134.791 94.356 134.791L97.8773 125.578C97.8773 125.578 94.356 123.546 93.8146 122.463C93.2732 121.381 85.411 112.033 85.411 112.033L91.2617 94.7296" stroke="#0F0F0F" stroke-miterlimit="10"/>
<path d="M94.2522 123.144C94.2522 123.144 91.7688 128.006 91.2324 129.104" stroke="#0F0F0F" stroke-miterlimit="10"/>
<path d="M120.619 108.875L99.4561 122.871L116.248 132.58L138.022 114.735L120.619 108.875Z" fill="#A1A1A1" stroke="#0F0F0F" stroke-miterlimit="10"/>
<path d="M120.139 111.919L104.409 122.319L116.89 129.536L133.072 116.275L120.139 111.919Z" fill="#787878"/>
<path d="M139.4 93.4232C139.4 93.4232 142.266 93.1799 143.493 92.5243C144.719 91.8687 144.64 93.751 143.989 94.5705C143.339 95.39 141.372 96.0605 140.304 96.1251L139.241 96.2095L139.4 93.4232Z" fill="white" stroke="#0F0F0F" stroke-miterlimit="10"/>
<path d="M116.901 106.302L116.25 132.581L138.024 114.735L140.82 90.1255L116.901 106.302Z" fill="#858585" stroke="#0F0F0F" stroke-miterlimit="10"/>
<path d="M141.908 95.4642C141.908 95.4642 138.745 97.2026 138.009 97.6545C137.274 98.1065 137.86 99.2389 138.894 99.3134C139.927 99.3879 142.057 98.5585 142.718 97.5006C143.378 96.4427 143.234 95.0321 141.908 95.4642Z" fill="white" stroke="#0F0F0F" stroke-miterlimit="10"/>
<path d="M142.672 97.6794C142.672 97.6794 143.665 99.5668 143 100.545C142.334 101.524 140.218 102.596 139.15 102.348C138.083 102.1 138.008 101.529 138.336 100.858C138.689 100.36 139.169 99.9652 139.727 99.7158C140.743 99.0886 141.726 98.4089 142.672 97.6794Z" fill="white" stroke="#0F0F0F" stroke-miterlimit="10"/>
<path d="M142.265 101.449C142.423 101.779 142.483 102.146 142.439 102.509C142.395 102.871 142.249 103.213 142.017 103.495C141.202 104.394 138.907 104.807 138.58 104.394C138.252 103.982 140.566 102.512 140.566 102.512L142.265 101.449Z" fill="white" stroke="#0F0F0F" stroke-miterlimit="10"/>
<path d="M142.016 103.476C142.016 103.476 141.609 105.03 141.117 105.462C140.626 105.895 138.823 106.456 138.907 105.87C138.992 105.284 140.397 104.38 140.397 104.38C140.975 104.153 141.52 103.849 142.016 103.476Z" fill="white" stroke="#0F0F0F" stroke-miterlimit="10"/>
<path d="M97.8771 125.577C97.8771 125.577 100.589 124.544 101.985 123.953C103.229 123.458 104.511 123.064 105.819 122.776C106.256 122.702 107.88 123.66 108.834 123.66C109.787 123.66 111.267 123.884 111.317 124.395C111.367 124.907 110.577 125.135 109.767 125.503C108.958 125.87 105.352 125.354 105.352 125.354L104.855 125.796L112.365 130.509C112.365 130.509 110.011 131.175 109.201 131.468C108.392 131.761 108.461 131.691 107.135 131.691C105.809 131.691 105.074 131.761 101.468 131.984C97.8622 132.208 96.1885 130.142 96.1885 130.142L97.8771 125.577Z" fill="white" stroke="#0F0F0F" stroke-miterlimit="10"/>
<path d="M85.412 112.028C84.2375 111.902 83.0889 111.599 82.0049 111.129" stroke="#0F0F0F" stroke-miterlimit="10"/>
<path d="M136.419 200.921C136.419 200.921 122.701 205.153 121.519 205.153C121.519 205.153 120.724 210.433 119.159 213.343C118.688 214.206 118.079 214.986 117.356 215.653C117.713 216.318 118.143 216.941 118.638 217.51C119.631 218.19 123.381 215.99 124.056 215.821C124.732 215.653 133.19 210.259 136.419 206.335C139.647 202.411 136.419 200.921 136.419 200.921Z" fill="white" stroke="#0F0F0F" stroke-miterlimit="10"/>
<path d="M136.418 206.335C137.874 204.572 138.013 203.295 137.725 202.426C135.981 204.716 129.142 212.97 118.399 217.252C118.468 217.347 118.548 217.434 118.638 217.51C119.631 218.19 123.381 215.99 124.056 215.821C124.732 215.653 133.19 210.259 136.418 206.335Z" fill="white" stroke="#0F0F0F" stroke-miterlimit="10"/>
<path d="M95.7715 137.428L98.1406 142.673" stroke="#5C5C5C" stroke-miterlimit="10"/>
<path d="M97.4453 141.188L99.6455 133.331" stroke="#5C5C5C" stroke-miterlimit="10"/>
<path d="M101.061 133.961L99.333 138.203" stroke="#5C5C5C" stroke-miterlimit="10"/>
<path d="M126.516 133.33C126.516 133.33 129.496 131.761 132.644 131.915" stroke="#5C5C5C" stroke-miterlimit="10"/>
<path d="M78.7461 133.018C78.7461 133.018 84.875 132.074 88.4907 133.018" stroke="#5C5C5C" stroke-miterlimit="10"/>
<defs>
<linearGradient id="paint0_linear_259_15451" x1="117.433" y1="0" x2="117.433" y2="269.941" gradientUnits="userSpaceOnUse">
<stop stop-color="white"/>
<stop offset="1" stop-color="white"/>
</linearGradient>
<linearGradient id="paint1_linear_259_15451" x1="117.433" y1="0" x2="117.433" y2="269.941" gradientUnits="userSpaceOnUse">
<stop stop-color="white"/>
<stop offset="1" stop-color="white"/>
</linearGradient>
</defs>
</svg>
