<svg width="241" height="183" viewBox="0 0 241 183" fill="none" xmlns="http://www.w3.org/2000/svg">
<g filter="url(#filter0_d_171_150)">
<rect x="22" y="40.2705" width="184.537" height="118.854" rx="10.5933" transform="rotate(-6.93154 22 40.2705)" fill="white"/>
</g>
<path d="M174.038 44.0242L172.122 44.2572L171.367 38.0475L173.368 37.8042C173.97 37.7309 174.501 37.7926 174.96 37.9891C175.418 38.1836 175.79 38.4985 176.075 38.9336C176.359 39.3667 176.54 39.9047 176.618 40.5475C176.697 41.1943 176.65 41.7652 176.476 42.2602C176.302 42.7531 176.01 43.1517 175.6 43.4559C175.189 43.7581 174.669 43.9476 174.038 44.0242ZM172.793 43.4987L173.908 43.3631C174.422 43.3007 174.835 43.1499 175.149 42.9107C175.462 42.6716 175.68 42.359 175.801 41.973C175.922 41.587 175.952 41.1413 175.891 40.6359C175.83 40.1346 175.695 39.713 175.488 39.3711C175.28 39.0271 175.001 38.7779 174.652 38.6234C174.303 38.4669 173.886 38.4181 173.401 38.4771L172.2 38.6231L172.793 43.4987ZM179.545 43.4655C179.25 43.5013 178.976 43.4783 178.722 43.3964C178.467 43.3124 178.257 43.1729 178.089 42.9779C177.922 42.7808 177.82 42.5307 177.783 42.2275C177.75 41.9606 177.776 41.738 177.861 41.5594C177.946 41.3789 178.071 41.2304 178.235 41.114C178.399 40.9976 178.585 40.9033 178.791 40.831C179 40.7564 179.21 40.6918 179.423 40.6373C179.702 40.5665 179.928 40.5113 180.102 40.4717C180.277 40.4299 180.402 40.3808 180.477 40.3245C180.555 40.2679 180.586 40.182 180.572 40.0668L180.569 40.0425C180.533 39.7434 180.423 39.5209 180.239 39.375C180.057 39.2289 179.801 39.1759 179.472 39.2159C179.13 39.2575 178.872 39.3648 178.696 39.538C178.52 39.7112 178.403 39.8875 178.345 40.0668L177.636 39.9068C177.723 39.6091 177.858 39.3691 178.041 39.1869C178.225 39.0024 178.434 38.8641 178.667 38.7722C178.902 38.6781 179.137 38.6167 179.371 38.5882C179.521 38.57 179.695 38.5673 179.893 38.5801C180.093 38.5907 180.291 38.6394 180.486 38.7265C180.683 38.8133 180.856 38.9595 181.004 39.165C181.152 39.3706 181.249 39.6584 181.294 40.0283L181.667 43.0968L180.951 43.1838L180.875 42.5531L180.838 42.5575C180.802 42.6645 180.734 42.7825 180.635 42.9115C180.536 43.0404 180.397 43.1568 180.219 43.2605C180.041 43.3642 179.816 43.4325 179.545 43.4655ZM179.576 42.8094C179.859 42.775 180.091 42.6904 180.272 42.5556C180.454 42.4206 180.584 42.2592 180.662 42.0712C180.742 41.8831 180.77 41.692 180.746 41.4979L180.667 40.843C180.641 40.8831 180.578 40.9245 180.479 40.9674C180.381 41.008 180.267 41.0475 180.136 41.086C180.007 41.1221 179.881 41.1559 179.758 41.1873C179.636 41.2165 179.538 41.2408 179.462 41.2602C179.279 41.3071 179.11 41.3676 178.955 41.4419C178.802 41.5139 178.682 41.6094 178.596 41.7286C178.512 41.8455 178.481 41.9949 178.503 42.1769C178.533 42.4255 178.648 42.6023 178.847 42.7073C179.048 42.81 179.291 42.844 179.576 42.8094ZM182.973 42.938L182.407 38.2807L183.122 38.1937L183.688 42.851L182.973 42.938ZM182.676 37.4602C182.537 37.4772 182.411 37.4443 182.298 37.3616C182.187 37.2786 182.124 37.1704 182.108 37.037C182.092 36.9036 182.127 36.7834 182.215 36.6763C182.304 36.569 182.419 36.5069 182.558 36.49C182.698 36.473 182.823 36.506 182.933 36.589C183.046 36.6717 183.11 36.7798 183.127 36.9132C183.143 37.0466 183.106 37.1669 183.017 37.2742C182.929 37.3813 182.816 37.4433 182.676 37.4602ZM184.96 36.3949L185.715 42.6047L184.999 42.6917L184.244 36.4819L184.96 36.3949ZM187.699 44.1358C187.577 44.1506 187.468 44.1536 187.37 44.1449C187.273 44.1383 187.205 44.1281 187.167 44.1143L187.272 43.4615C187.451 43.4849 187.607 43.4824 187.739 43.454C187.871 43.4257 187.982 43.3517 188.072 43.232C188.164 43.1141 188.239 42.9316 188.297 42.6845L188.387 42.3045L186.095 37.8323L186.871 37.7379L188.608 41.2929L188.657 41.287L189.491 37.4194L190.267 37.325L188.939 42.9019C188.88 43.1533 188.794 43.3658 188.681 43.5394C188.569 43.7151 188.431 43.8519 188.267 43.9498C188.104 44.0475 187.915 44.1095 187.699 44.1358Z" fill="#6C757D"/>
<path d="M37.9441 62.0163L36.9833 54.1129L40.1014 53.7339C40.6983 53.6613 41.2206 53.7061 41.6685 53.8684C42.1187 54.0277 42.478 54.2882 42.7465 54.6498C43.0172 55.0085 43.1843 55.4489 43.2478 55.9712C43.3116 56.496 43.2533 56.9613 43.0729 57.367C42.8922 57.7702 42.5992 58.0982 42.1939 58.3511C41.7912 58.6037 41.2863 58.7669 40.6792 58.8407L38.5914 59.0945L38.4282 57.7515L40.2458 57.5306C40.5648 57.4918 40.8245 57.4158 41.0248 57.3027C41.2251 57.1896 41.3661 57.0393 41.4477 56.8519C41.532 56.6641 41.5583 56.4403 41.5267 56.1804C41.4948 55.918 41.4151 55.7032 41.2878 55.5359C41.163 55.3683 40.9882 55.2512 40.7634 55.1846C40.5408 55.115 40.2688 55.0998 39.9472 55.1389L38.8203 55.2759L39.6151 61.8131L37.9441 62.0163ZM41.775 57.9008L44.1765 61.2586L42.3319 61.4828L39.9728 58.1198L41.775 57.9008ZM47.6647 60.952C47.0549 61.0261 46.5151 60.9664 46.0451 60.7729C45.5774 60.5766 45.1976 60.2651 44.9055 59.8385C44.6132 59.4093 44.429 58.8822 44.353 58.257C44.2788 57.6473 44.3321 57.0978 44.5128 56.6085C44.6935 56.1192 44.9831 55.7198 45.3814 55.4103C45.7824 55.1005 46.2736 54.9102 46.855 54.8395C47.246 54.792 47.6177 54.8108 47.9701 54.8958C48.3247 54.9781 48.6432 55.1286 48.9257 55.3475C49.2107 55.5661 49.447 55.8559 49.6345 56.2169C49.8216 56.5753 49.9459 57.0066 50.0072 57.5109L50.0621 57.9624L45.0569 58.5709L44.933 57.5521L48.3907 57.1317C48.3619 56.895 48.285 56.6916 48.1599 56.5214C48.0348 56.3513 47.8746 56.2259 47.6795 56.1452C47.4865 56.0616 47.2705 56.0343 47.0312 56.0634C46.7816 56.0938 46.5674 56.1785 46.3885 56.3178C46.2119 56.4541 46.0813 56.6253 45.9967 56.8314C45.9118 57.0349 45.8823 57.2539 45.9082 57.4883L46.026 58.457C46.0616 58.7502 46.1464 58.9971 46.2805 59.1975C46.417 59.3976 46.5927 59.5433 46.8075 59.6347C47.0222 59.7261 47.2672 59.755 47.5425 59.7215C47.7252 59.6993 47.8892 59.6533 48.0348 59.5834C48.1803 59.5135 48.3009 59.4205 48.3964 59.3044C48.4919 59.1884 48.5589 59.0523 48.5974 58.8962L50.1301 58.8117C50.0973 59.1864 49.9779 59.5247 49.7718 59.8265C49.5679 60.1254 49.2874 60.3736 48.9302 60.571C48.5753 60.7656 48.1535 60.8926 47.6647 60.952ZM56.0904 53.7951L54.7387 59.9745L52.8864 60.1997L50.0934 54.5241L51.83 54.313L53.5766 58.4045L53.6384 58.397L54.35 54.0067L56.0904 53.7951ZM60.1767 59.4309C59.5669 59.505 59.0271 59.4453 58.5571 59.2518C58.0894 59.0555 57.7096 58.744 57.4175 58.3174C57.1252 57.8882 56.941 57.361 56.865 56.7359C56.7909 56.1262 56.8441 55.5766 57.0248 55.0874C57.2055 54.5981 57.4951 54.1987 57.8934 53.8892C58.2944 53.5794 58.7856 53.3891 59.367 53.3184C59.758 53.2709 60.1297 53.2897 60.4821 53.3747C60.8367 53.4569 61.1552 53.6075 61.4377 53.8264C61.7227 54.045 61.959 54.3348 62.1465 54.6958C62.3336 55.0542 62.4579 55.4855 62.5192 55.9897L62.5741 56.4413L57.5689 57.0497L57.445 56.031L60.9027 55.6106C60.8739 55.3739 60.797 55.1705 60.6719 55.0003C60.5468 54.8302 60.3866 54.7048 60.1915 54.6241C59.9985 54.5405 59.7825 54.5132 59.5432 54.5423C59.2936 54.5727 59.0794 54.6574 58.9006 54.7967C58.7239 54.933 58.5933 55.1042 58.5087 55.3103C58.4238 55.5138 58.3943 55.7328 58.4202 55.9672L58.538 56.9359C58.5736 57.2291 58.6585 57.476 58.7925 57.6764C58.929 57.8765 59.1047 58.0222 59.3195 58.1136C59.5342 58.2049 59.7792 58.2339 60.0545 58.2004C60.2372 58.1782 60.4013 58.1322 60.5468 58.0623C60.6923 57.9924 60.8129 57.8994 60.9084 57.7833C61.0039 57.6673 61.0709 57.5312 61.1094 57.3751L62.6421 57.2906C62.6093 57.6653 62.4899 58.0036 62.2838 58.3054C62.0799 58.6043 61.7994 58.8525 61.4422 59.0499C61.0873 59.2445 60.6655 59.3715 60.1767 59.4309ZM65.1834 55.2273L65.6 58.6541L63.956 58.8539L63.2354 52.9264L64.8022 52.736L64.9293 53.7818L64.9988 53.7733C65.0881 53.4126 65.2749 53.1132 65.5592 52.875C65.8433 52.6342 66.2052 52.4871 66.6452 52.4336C67.0568 52.3836 67.4266 52.43 67.7547 52.5728C68.0827 52.7157 68.352 52.944 68.5624 53.2579C68.7726 53.5691 68.9056 53.955 68.9616 54.4155L69.4205 58.1896L67.7765 58.3895L67.3533 54.9086C67.3118 54.5456 67.1848 54.2738 66.9723 54.0934C66.7594 53.9104 66.4884 53.839 66.1591 53.879C65.9378 53.9059 65.7481 53.9773 65.5898 54.0931C65.4342 54.2086 65.3199 54.3635 65.2469 54.5577C65.1762 54.7491 65.155 54.9722 65.1834 55.2273ZM74.2105 55.0462L73.7967 51.6425L75.4406 51.4426L76.1613 57.3701L74.5829 57.562L74.452 56.4853L74.3903 56.4929C74.2987 56.8564 74.1101 57.1626 73.8245 57.4114C73.5414 57.6599 73.1773 57.8112 72.7322 57.8653C72.336 57.9135 71.9765 57.8658 71.6536 57.7223C71.3307 57.5788 71.0642 57.3515 70.854 57.0402C70.6464 56.7287 70.5132 56.3415 70.4544 55.8788L69.9955 52.1046L71.6395 51.9048L72.0627 55.3856C72.1078 55.7352 72.2353 56.0003 72.4452 56.1811C72.6552 56.3618 72.9158 56.4332 73.2271 56.3954C73.4252 56.3713 73.6049 56.3038 73.7664 56.1928C73.9275 56.0792 74.0498 55.9259 74.1334 55.733C74.2196 55.5398 74.2453 55.3109 74.2105 55.0462ZM80.1916 56.9976C79.5819 57.0718 79.0421 57.0121 78.5721 56.8186C78.1044 56.6222 77.7245 56.3107 77.4325 55.8841C77.1401 55.455 76.9559 54.9278 76.8799 54.3026C76.8058 53.6929 76.8591 53.1434 77.0398 52.6541C77.2205 52.1648 77.51 51.7654 77.9084 51.4559C78.3093 51.1461 78.8005 50.9558 79.382 50.8852C79.773 50.8376 80.1447 50.8564 80.4971 50.9415C80.8517 51.0237 81.1702 51.1742 81.4527 51.3931C81.7377 51.6117 81.974 51.9015 82.1614 52.2625C82.3486 52.6209 82.4728 53.0522 82.5341 53.5565L82.589 54.008L77.5838 54.6165L77.46 53.5977L80.9177 53.1773C80.8889 52.9407 80.812 52.7372 80.6869 52.5671C80.5617 52.3969 80.4016 52.2715 80.2064 52.1908C80.0135 52.1072 79.7974 52.08 79.5582 52.1091C79.3086 52.1394 79.0944 52.2242 78.9155 52.3634C78.7389 52.4997 78.6083 52.671 78.5237 52.8771C78.4388 53.0806 78.4093 53.2995 78.4352 53.534L78.5529 54.5026C78.5886 54.7959 78.6734 55.0427 78.8074 55.2431C78.944 55.4432 79.1197 55.5889 79.3344 55.6803C79.5492 55.7717 79.7942 55.8006 80.0695 55.7672C80.2521 55.745 80.4162 55.6989 80.5618 55.629C80.7073 55.5591 80.8278 55.4661 80.9234 55.3501C81.0189 55.234 81.0859 55.098 81.1244 54.9419L82.657 54.8574C82.6243 55.2321 82.5048 55.5703 82.2987 55.8721C82.0949 56.171 81.8144 56.4192 81.4572 56.6166C81.1023 56.8112 80.6805 56.9382 80.1916 56.9976ZM91.1074 50.1254C91.0305 49.9442 90.9344 49.7875 90.8192 49.6553C90.7036 49.5205 90.5689 49.4116 90.4152 49.3284C90.2638 49.2424 90.0947 49.1833 89.9081 49.1512C89.724 49.1188 89.5239 49.1157 89.3078 49.142C88.9039 49.1911 88.5611 49.3346 88.2793 49.5724C88.0001 49.81 87.7989 50.1308 87.6757 50.5348C87.5522 50.9362 87.5239 51.4122 87.5909 51.9627C87.6578 52.5133 87.7983 52.9713 88.0125 53.3369C88.2266 53.7025 88.4991 53.9683 88.83 54.1343C89.1605 54.2978 89.5342 54.3542 89.951 54.3035C90.3292 54.2575 90.6439 54.1514 90.8952 53.9851C91.1487 53.8159 91.3313 53.5992 91.4427 53.335C91.5568 53.0705 91.5933 52.7697 91.5523 52.4327L91.898 52.4416L89.8605 52.6893L89.7075 51.4313L93.0147 51.0292L93.1358 52.0248C93.2202 52.7195 93.1461 53.3342 92.9135 53.8689C92.6806 54.4011 92.3233 54.8335 91.8416 55.1662C91.3596 55.4963 90.7867 55.7017 90.1229 55.7824C89.382 55.8725 88.7112 55.7883 88.1107 55.5297C87.5098 55.2686 87.0157 54.8548 86.6283 54.2884C86.2432 53.7191 86 53.0177 85.8986 52.1841C85.8207 51.5435 85.8439 50.9611 85.9682 50.4369C86.0947 49.9098 86.3052 49.4509 86.5997 49.06C86.8941 48.6691 87.2541 48.3552 87.6796 48.1181C88.105 47.881 88.5788 47.7307 89.1011 47.6672C89.5488 47.6128 89.9735 47.6277 90.3754 47.712C90.7769 47.7937 91.1413 47.9348 91.4685 48.1352C91.7983 48.3353 92.0782 48.5872 92.3083 48.8907C92.5381 49.1918 92.7038 49.5345 92.8053 49.919L91.1074 50.1254ZM94.7532 55.1099L94.0326 49.1824L95.6264 48.9886L95.7521 50.0228L95.8138 50.0153C95.8772 49.6343 96.0248 49.3344 96.2566 49.1156C96.4882 48.8943 96.7699 48.7634 97.1018 48.7231C97.1841 48.7131 97.2735 48.7074 97.3699 48.7062C97.4664 48.7049 97.5517 48.7089 97.6259 48.7181L97.8033 50.1768C97.7233 50.1631 97.614 50.1555 97.4755 50.154C97.3369 50.1526 97.211 50.1588 97.0978 50.1725C96.856 50.2019 96.6463 50.2809 96.4688 50.4096C96.2935 50.5353 96.1618 50.6975 96.0737 50.8962C95.9881 51.0946 95.9601 51.3147 95.9895 51.5565L96.3972 54.91L94.7532 55.1099ZM101.616 54.393C101.017 54.4659 100.483 54.4016 100.014 54.2C99.5484 53.9956 99.1692 53.6788 98.8768 53.2497C98.5842 52.8179 98.4009 52.2985 98.3271 51.6913C98.2527 51.079 98.306 50.5295 98.487 50.0428C98.6677 49.5535 98.9599 49.1551 99.3638 48.8475C99.7698 48.5371 100.273 48.3454 100.872 48.2726C101.471 48.1997 102.004 48.2655 102.47 48.4699C102.939 48.6714 103.319 48.988 103.612 49.4198C103.904 49.8489 104.088 50.3697 104.162 50.982C104.236 51.5891 104.182 52.1374 104.002 52.6266C103.821 53.1134 103.527 53.5119 103.121 53.8224C102.717 54.1299 102.216 54.3201 101.616 54.393ZM101.469 53.1186C101.742 53.0854 101.96 52.9806 102.124 52.804C102.288 52.6249 102.399 52.3946 102.459 52.1132C102.521 51.8315 102.532 51.5183 102.49 51.1735C102.448 50.8288 102.363 50.5271 102.235 50.2686C102.109 50.0097 101.946 49.8129 101.744 49.6782C101.542 49.5435 101.305 49.4927 101.032 49.5258C100.757 49.5593 100.535 49.6659 100.366 49.8457C100.2 50.0251 100.086 50.2557 100.023 50.5374C99.9637 50.8188 99.9548 51.1319 99.9967 51.4766C100.039 51.8214 100.122 52.1232 100.248 52.382C100.376 52.6406 100.542 52.8371 100.746 52.9715C100.953 53.103 101.194 53.1521 101.469 53.1186ZM106.609 53.6685L104.275 47.9371L105.939 47.7349L107.341 51.6058L107.395 51.5992L107.868 47.5003L109.501 47.3019L110.954 51.1431L111.005 51.137L111.426 47.0678L113.086 46.8661L112.197 52.9892L110.457 53.2008L108.985 49.5968L108.911 49.6057L108.346 53.4574L106.609 53.6685ZM117.115 46.3761L117.266 47.611L113.696 48.045L113.546 46.8101L117.115 46.3761ZM114.184 45.2915L115.828 45.0916L116.499 50.6178C116.518 50.7695 116.555 50.8851 116.612 50.9643C116.668 51.041 116.74 51.0911 116.826 51.1145C116.915 51.1377 117.015 51.1425 117.125 51.1291C117.203 51.1197 117.279 51.1039 117.355 51.0816C117.43 51.0568 117.488 51.038 117.528 51.0253L117.935 52.2172C117.856 52.2529 117.744 52.2966 117.599 52.3482C117.454 52.4023 117.275 52.4462 117.063 52.4799C116.668 52.5435 116.315 52.533 116.001 52.4484C115.691 52.3634 115.438 52.2036 115.242 51.9689C115.047 51.7343 114.926 51.4225 114.882 51.0337L114.184 45.2915ZM120.262 48.5313L120.678 51.9581L119.034 52.158L118.074 44.2546L119.671 44.0604L120.039 47.082L120.108 47.0736C120.199 46.7074 120.382 46.4072 120.656 46.1728C120.93 45.9359 121.293 45.79 121.743 45.7353C122.154 45.6852 122.524 45.7316 122.852 45.8745C123.183 46.0145 123.453 46.2414 123.663 46.5552C123.876 46.8661 124.009 47.2533 124.063 47.7167L124.522 51.4908L122.878 51.6907L122.455 48.2098C122.413 47.8442 122.286 47.5712 122.073 47.3908C121.863 47.21 121.591 47.14 121.257 47.1807C121.033 47.2079 120.841 47.2796 120.68 47.3957C120.521 47.5115 120.405 47.6667 120.329 47.8613C120.256 48.0529 120.233 48.2763 120.262 48.5313Z" fill="#1A1A1A"/>
<path d="M48.5557 103.208L62.5276 101.51L67.4347 141.873L53.4627 143.572L48.5557 103.208Z" fill="#EBEAFA"/>
<path d="M72.3047 78.2656L86.2767 76.567L93.826 138.665L79.854 140.363L72.3047 78.2656Z" fill="#726BDF"/>
<path d="M102.377 105.33L116.349 103.631L120.218 135.456L106.246 137.155L102.377 105.33Z" fill="#EBEAFA"/>
<path d="M126.976 87.373L140.948 85.6744L146.61 132.248L132.638 133.946L126.976 87.373Z" fill="#726BDF"/>
<path d="M156.765 112.109L170.737 110.41L173.001 129.039L159.029 130.738L156.765 112.109Z" fill="#EBEAFA"/>
<path d="M178.909 73.9702L192.881 72.2716L199.392 125.831L185.42 127.529L178.909 73.9702Z" fill="#726BDF"/>
<defs>
<filter id="filter0_d_171_150" x="0.929085" y="0.459949" width="239.674" height="182.398" filterUnits="userSpaceOnUse" color-interpolation-filters="sRGB">
<feFlood flood-opacity="0" result="BackgroundImageFix"/>
<feColorMatrix in="SourceAlpha" type="matrix" values="0 0 0 0 0 0 0 0 0 0 0 0 0 0 0 0 0 0 127 0" result="hardAlpha"/>
<feMorphology radius="1.56387" operator="erode" in="SourceAlpha" result="effect1_dropShadow_171_150"/>
<feOffset dy="3.53111"/>
<feGaussianBlur stdDeviation="11.9175"/>
<feColorMatrix type="matrix" values="0 0 0 0 0 0 0 0 0 0 0 0 0 0 0 0 0 0 0.1 0"/>
<feBlend mode="normal" in2="BackgroundImageFix" result="effect1_dropShadow_171_150"/>
<feBlend mode="normal" in="SourceGraphic" in2="effect1_dropShadow_171_150" result="shape"/>
</filter>
</defs>
</svg>
