<svg width="61" height="64" viewBox="0 0 61 64" fill="none" xmlns="http://www.w3.org/2000/svg">
<path d="M17.5333 26.84C15.1229 29.4447 15.2395 31.894 17.8443 32.5938C20.2546 33.2547 24.6866 29.3281 23.3259 27.6953C21.8875 25.9847 18.7385 25.5182 17.5333 26.84Z" fill="black"/>
<path d="M16.8338 56.1918C15.2399 56.464 13.0239 61.5183 13.957 62.6458C15.823 64.9006 18.4278 64.3171 20.5272 61.1681C22.7431 57.7469 21.0714 55.4532 16.8338 56.1918Z" fill="black"/>
<path d="M9.01962 12.0283C7.30903 12.6892 6.41486 16.4214 7.65892 17.5488C9.56389 19.2594 11.2745 18.8313 13.2961 16.1488C15.3565 13.4663 12.4797 10.6676 9.01962 12.0283Z" fill="black"/>
<path d="M2.64363 38.9314C1.63283 39.7478 0 42.4688 0 43.363C0 46.6286 6.22031 45.2295 8.20303 41.4973C9.17495 39.6701 4.43197 37.493 2.64363 38.9314Z" fill="black"/>
<path d="M30.9845 41.8077C28.9241 42.1188 27.6411 46.3956 29.2351 47.523C30.6735 48.5338 31.6458 48.2613 33.5508 46.2008C36.6221 42.9741 34.4057 41.3023 30.9845 41.8077Z" fill="black"/>
<path d="M39.3037 55.9199C35.9992 60.5462 36.1547 63.6952 39.6536 63.6952C40.8199 63.6952 45.524 58.3695 45.524 57.0477C45.4851 54.6762 40.781 53.8205 39.3037 55.9199Z" fill="black"/>
<path d="M48.5963 35.432C46.6525 36.404 45.1752 41.8852 46.6525 42.6628C48.6352 43.7124 51.1233 42.2351 53.3005 38.6973C54.6223 36.5202 51.2011 34.1491 48.5963 35.432Z" fill="black"/>
<path d="M29.1575 0.831298C24.6866 5.61316 24.4922 9.30646 28.7298 9.30646C30.1683 9.30646 34.056 5.76866 35.4167 3.24166C36.6218 0.909051 31.0624 -1.22918 29.1575 0.831298Z" fill="black"/>
<path d="M44.2804 19.1811C42.2976 18.1703 40.5093 18.4429 39.6151 19.8813C36.0385 25.674 40.3538 27.9677 44.6691 22.5249C46.0687 20.8144 45.9521 20.0364 44.2804 19.1811Z" fill="black"/>
<path d="M60.9201 14.5552C60.4536 13.1557 57.1879 12.0671 55.7106 12.8058C54.5443 13.3889 52.5616 18.7154 53.2225 19.493C54.9331 21.5923 61.8143 17.16 60.9201 14.5552Z" fill="black"/>
</svg>
