<svg width="62" height="35" viewBox="0 0 62 35" fill="none" xmlns="http://www.w3.org/2000/svg">
<path d="M8.32371 29.8552C10.9703 29.0257 13.496 27.8249 15.8312 26.2861L23.5252 21.3981C25.3741 20.211 27.2528 18.8765 29.0198 17.7437C29.7653 17.2393 30.645 16.6264 31.5098 16.0678C32.4059 15.4926 33.3345 14.9744 34.2907 14.516C34.7877 14.2729 35.3021 14.0479 35.8339 13.841C36.5199 13.5709 37.2325 13.3809 37.9587 13.2746C38.7048 13.1534 39.4671 13.1984 40.1953 13.4065L40.7246 13.5617C40.9004 13.6177 41.0647 13.7072 41.2092 13.8255C41.4926 14.0451 41.7437 14.3065 41.9548 14.6013C42.1772 14.8696 42.3469 15.1806 42.4543 15.5169C42.525 15.8534 42.5625 16.1966 42.5661 16.541C42.5119 17.2858 42.3354 18.0153 42.0442 18.698C41.8951 19.0549 41.7535 19.4273 41.5895 19.761L41.3584 20.2343L41.1869 20.5756L40.4935 21.8946L40.0313 22.7559C39.9244 22.9499 39.8322 23.1522 39.7555 23.3611C39.6532 23.5694 39.6267 23.8091 39.6809 24.0361C39.8014 24.2263 40.0154 24.3286 40.2326 24.2999C40.4333 24.2932 40.6329 24.2672 40.829 24.2223L41.1272 24.1447L41.5522 24.005L41.9846 23.8654L42.5512 23.6559C42.9389 23.5085 43.2967 23.3611 43.7068 23.1904C45.25 22.5309 46.7709 21.7472 48.2844 20.9558C50.2381 19.8578 52.2464 18.8685 54.3008 17.9919C56.4176 17.071 58.6739 16.5457 60.9659 16.4402C62.457 16.4402 62.1811 16.9833 61.115 17.6738L60.1831 18.2557C59.8252 18.4652 59.4376 18.6825 59.0126 18.9463C58.1702 19.4196 57.2159 20.0092 56.1348 20.4981L54.696 21.2739C54.2188 21.5377 53.7491 21.7938 53.2571 22.0498C52.2879 22.5619 51.3262 23.0973 50.3346 23.6481C48.3185 24.801 46.2428 25.8371 44.1168 26.7517L43.2818 27.0931C43.17 27.1396 42.9016 27.225 42.7152 27.287L42.1412 27.5276L41.5224 27.7293L41.2167 27.8302L40.829 27.9077C40.3421 28.0427 39.8417 28.1182 39.338 28.1327C38.8916 28.1663 38.4431 28.1217 38.0109 28.0008C37.632 27.8702 37.2748 27.6792 36.9522 27.4344C36.7867 27.2949 36.6298 27.1446 36.4826 26.9844C36.3541 26.8068 36.2418 26.6172 36.1471 26.418C35.9639 26.0421 35.8621 25.6289 35.8489 25.2077C35.8342 24.2357 36.0466 23.2745 36.4676 22.4067C36.6615 21.9334 36.9448 21.3981 37.1461 21.0024L37.6381 20.1256L38.488 18.6359C38.5816 18.5089 38.6687 18.3768 38.749 18.2402C38.876 18.0564 38.9196 17.824 38.8683 17.604C38.5888 17.3441 38.1883 17.2802 37.8469 17.4411L37.6829 17.4954C37.5685 17.5379 37.4564 17.5871 37.3474 17.6428C37.1163 17.7437 36.8851 17.86 36.6466 17.9842C36.1843 18.2402 35.7072 18.5273 35.2375 18.8377C34.3056 19.4661 33.3513 20.1256 32.3821 20.855L31.6366 21.4058L30.8389 21.949L29.3478 22.9576L21.5793 27.9698L17.7025 30.4682C16.368 31.2906 14.9962 32.0975 13.5499 32.7958C11.736 33.7214 9.80987 34.387 7.8242 34.7743C6.76956 34.9734 5.69589 35.0412 4.62586 34.976C3.96545 34.9252 3.31659 34.7681 2.70238 34.5105C2.06641 34.2311 1.50214 33.8007 1.05475 33.2536C0.727277 32.8358 0.474739 32.3601 0.309215 31.8492C0.145635 31.3476 0.0453908 30.826 0.0110007 30.2975C-0.0297805 29.4223 0.0429423 28.5454 0.227206 27.6905C0.57508 26.1514 1.07475 24.6537 1.71828 23.2214C2.91374 20.4532 4.36175 17.8109 6.04238 15.3307C7.33961 13.422 8.71885 11.6142 10.1503 9.89948C10.8958 9.03825 11.5966 8.17702 12.3421 7.34683C13.0877 6.51663 13.8332 5.72523 14.6533 4.93383C15.4734 4.14243 16.0027 3.545 16.7184 2.8855C19.3651 0.410429 20.3939 -0.12493 21.5719 0.0224878C21.8356 0.0316051 22.0978 0.067992 22.3547 0.131111C22.7125 0.263012 22.72 0.697506 22.4367 1.36477C21.9843 2.31672 21.4045 3.19707 20.7145 3.97949L13.0728 13.1116C10.5863 16.0712 8.47643 19.3517 6.79537 22.8723C6.1914 24.1518 5.66841 25.471 5.22974 26.8215C5.03402 27.4191 4.88199 28.0312 4.77497 28.6526C4.69023 29.0917 4.65272 29.5393 4.66314 29.9871C4.66314 30.0337 4.66314 29.9871 4.66314 30.0569C4.66314 30.0569 4.66314 30.1268 4.66314 30.0569H4.70787C4.70787 30.0569 4.70787 30.0569 4.7526 30.0569H4.89425C5.41608 30.1051 5.94154 30.0895 6.45988 30.0104C7.06944 29.93 7.67248 29.8029 8.26407 29.6302L8.32371 29.8552Z" fill="#231F20"/>
</svg>
