<svg width="268" height="172" viewBox="0 0 268 172" fill="none" xmlns="http://www.w3.org/2000/svg">
<g filter="url(#filter0_d_171_161)">
<rect x="35.6865" y="73.2798" width="188.047" height="60.4093" rx="12.9033" transform="rotate(-12.6464 35.6865 73.2798)" fill="white"/>
</g>
<path d="M72.1168 82.4004C73.4077 82.1108 74.6143 82.3214 75.7366 83.0324C76.859 83.7434 77.5649 84.7443 77.8546 86.0352L81.3596 101.656C81.6492 102.947 81.4386 104.154 80.7276 105.276C80.0166 106.398 79.0157 107.104 77.7248 107.394L74.6657 108.08L72.4933 98.3986L75.7314 97.672L75.3725 93.7874L71.6463 94.6235L71.1059 92.2153C70.9696 91.6078 70.9949 91.1236 71.1816 90.7627C71.3684 90.4017 71.8306 90.1385 72.5683 89.973L74.5498 89.5113L73.794 86.143C73.0887 86.1987 72.1123 86.3666 70.8648 86.6465C69.3895 86.9775 68.3071 87.6761 67.6177 88.7423C66.9284 89.8085 66.7614 91.1335 67.1167 92.7173L67.741 95.4998L64.4867 96.23L65.3337 100.005L68.5881 99.2748L70.7605 108.957L62.1038 110.899C60.8129 111.189 59.6063 110.978 58.484 110.267C57.3617 109.556 56.6557 108.555 56.3661 107.264L52.8611 91.6432C52.5714 90.3523 52.7821 89.1457 53.4931 88.0234C54.204 86.901 55.205 86.1951 56.4959 85.9054L72.1168 82.4004Z" fill="#337EFF"/>
<path d="M104.269 75.186L90.9916 78.1652C87.7564 78.8911 85.7223 82.1023 86.4482 85.3375L89.4274 98.6153C90.1533 101.85 93.3644 103.885 96.5996 103.159L109.877 100.18C113.113 99.4536 115.147 96.2425 114.421 93.0073L111.442 79.7295C110.716 76.4943 107.505 74.4601 104.269 75.186Z" fill="url(#paint0_radial_171_161)"/>
<path d="M104.269 75.186L90.9916 78.1652C87.7564 78.8911 85.7223 82.1023 86.4482 85.3375L89.4274 98.6153C90.1533 101.85 93.3644 103.885 96.5996 103.159L109.877 100.18C113.113 99.4536 115.147 96.2425 114.421 93.0073L111.442 79.7295C110.716 76.4943 107.505 74.4601 104.269 75.186Z" fill="url(#paint1_radial_171_161)"/>
<path d="M98.2454 79.4092C95.594 80.0041 95.2637 80.0904 94.233 80.3714C93.2043 80.6522 92.5318 80.9759 91.9652 81.3567C91.3789 81.7501 90.9091 82.2059 90.4883 82.8705C90.0669 83.5351 89.8555 84.1546 89.7494 84.8527C89.6466 85.528 89.6412 86.2747 89.8275 87.3241C90.0146 88.3759 90.0771 88.7116 90.6721 91.3632C91.267 94.0147 91.3532 94.3438 91.6341 95.3746C91.9151 96.4032 92.2389 97.0758 92.6194 97.6424C93.013 98.2286 93.4688 98.6985 94.1334 99.1193C94.7978 99.5407 95.4175 99.7528 96.1152 99.8582C96.7906 99.9603 97.5371 99.9655 98.587 99.78C99.639 99.5937 99.9742 99.5307 102.626 98.9358C105.277 98.3408 105.606 98.2547 106.637 97.9737C107.666 97.6929 108.339 97.369 108.906 96.9882C109.492 96.5948 109.961 96.1384 110.382 95.4735C110.803 94.809 111.014 94.1895 111.121 93.4915C111.221 92.8166 111.227 92.0699 111.042 91.02C110.856 89.9682 110.793 89.6335 110.198 86.9819C109.603 84.3304 109.516 84.0004 109.236 82.9694C108.954 81.941 108.63 81.2686 108.251 80.7017C107.856 80.1156 107.401 79.6458 106.736 79.2249C106.071 78.8037 105.453 78.592 104.754 78.4872C104.078 78.3853 103.331 78.3799 102.281 78.5656C101.229 78.7519 100.895 78.8147 98.2424 79.4098L98.2454 79.4092ZM97.7643 81.3651C98.0242 81.3064 98.3144 81.2417 98.6402 81.1686C101.247 80.5836 101.558 80.5237 102.598 80.3395C103.56 80.1695 104.112 80.2126 104.486 80.269C104.981 80.3437 105.354 80.4824 105.772 80.7475C106.19 81.0126 106.475 81.2905 106.754 81.7064C106.965 82.02 107.24 82.501 107.497 83.4431C107.775 84.4619 107.855 84.7687 108.439 87.3743C109.024 89.9798 109.083 90.2913 109.267 91.3309C109.437 92.2926 109.394 92.845 109.338 93.2187C109.263 93.714 109.124 94.086 108.859 94.5042C108.594 94.9226 108.317 95.2069 107.901 95.4861C107.587 95.6975 107.105 95.9722 106.163 96.2293C105.145 96.507 104.838 96.5865 102.231 97.1714C99.6239 97.7564 99.3127 97.8156 98.273 97.9997C97.3113 98.1694 96.7589 98.1262 96.3845 98.0699C95.8892 97.9951 95.5163 97.8567 95.0979 97.5916C94.6795 97.3266 94.3952 97.0494 94.1155 96.6334C93.9048 96.3196 93.6296 95.8387 93.3727 94.8965C93.095 93.8778 93.0162 93.5708 92.4312 90.9635C91.8462 88.3563 91.7866 88.0468 91.6024 87.007C91.4324 86.0454 91.4755 85.493 91.5319 85.1189C91.6067 84.6235 91.7456 84.2506 92.0107 83.8322C92.2758 83.4138 92.5537 83.1292 92.9695 82.8497C93.2836 82.6382 93.7648 82.3636 94.7069 82.1063C95.5984 81.8635 95.9447 81.773 97.7638 81.3626L97.7643 81.3651ZM104.215 81.6203C103.569 81.7654 103.162 82.4074 103.307 83.0543C103.452 83.7011 104.094 84.1082 104.741 83.963C105.388 83.8179 105.795 83.1754 105.65 82.5286C105.505 81.8818 104.862 81.4748 104.215 81.6199L104.215 81.6203ZM99.3111 84.1585C96.5423 84.7798 94.801 87.5284 95.4223 90.2973C96.0436 93.0662 98.792 94.8064 101.561 94.1851C104.33 93.5638 106.07 90.8164 105.449 88.0475C104.828 85.2787 102.08 83.5373 99.3109 84.1586L99.3111 84.1585ZM99.7058 85.9179C101.503 85.5146 103.287 86.6446 103.69 88.4421C104.094 90.2394 102.964 92.0235 101.166 92.4268C99.369 92.83 97.585 91.6998 97.1817 89.9025C96.7784 88.1051 97.9085 86.3212 99.7058 85.9179Z" fill="white"/>
<path d="M137.595 67.7087L124.317 70.6879C121.082 71.4139 119.047 74.625 119.773 77.8602L122.753 91.138C123.479 94.3732 126.69 96.4074 129.925 95.6815L143.203 92.7022C146.438 91.9763 148.472 88.7652 147.746 85.53L144.767 72.2522C144.041 69.017 140.83 66.9828 137.595 67.7087Z" fill="white"/>
<path d="M137.595 67.7087L124.317 70.6879C121.082 71.4139 119.047 74.625 119.773 77.8602L122.753 91.138C123.479 94.3732 126.69 96.4074 129.925 95.6815L143.203 92.7022C146.438 91.9763 148.472 88.7652 147.746 85.53L144.767 72.2522C144.041 69.017 140.83 66.9828 137.595 67.7087Z" fill="#1D9BF0"/>
<path d="M139.946 76.555C139.992 76.7075 140.026 76.8624 140.061 77.0188C141.13 81.7829 138.736 88.0912 132.105 89.5792L132.104 89.5763C130.145 90.0187 128.101 89.8881 126.215 89.2C126.507 89.1703 126.797 89.1234 127.085 89.0595C128.709 88.6965 130.164 87.798 131.215 86.5084C130.46 86.663 129.675 86.5776 128.97 86.2642C128.266 85.9508 127.677 85.425 127.285 84.7605C127.849 84.7434 128.401 84.5972 128.899 84.3331C127.141 84.3707 125.599 83.1644 125.214 81.448L125.204 81.4023C125.768 81.5691 126.364 81.598 126.941 81.4864C125.12 80.7831 124.158 78.7851 124.745 76.9226C125.9 77.8335 127.234 78.4911 128.66 78.8528C130.086 79.2145 131.572 79.2722 133.021 79.0221C132.74 78.439 132.617 77.7923 132.665 77.1467C132.712 76.5011 132.928 75.8793 133.291 75.3434C134.437 73.6525 136.737 73.21 138.427 74.3551C139.199 74.0146 139.907 73.5448 140.521 72.9661C140.439 73.8613 140.034 74.6963 139.383 75.3158C140.079 75.0711 140.734 74.7232 141.326 74.2837C141.005 75.1169 140.538 75.886 139.946 76.555Z" fill="white"/>
<rect x="151.784" y="64.5249" width="25.788" height="25.788" rx="3.6189" transform="rotate(-12.6464 151.784 64.5249)" fill="black"/>
<path d="M170.043 71.6911C171.241 72.1972 172.603 72.3474 173.97 72.0408L173.38 69.4131C173.121 69.4713 172.858 69.5021 172.593 69.5053L173.057 71.5737C171.69 71.8802 170.328 71.73 169.13 71.224L170.333 76.5865C170.935 79.2691 169.247 81.9318 166.563 82.5339C165.562 82.7586 164.563 82.6649 163.674 82.3194C164.758 83.0233 166.115 83.3066 167.476 83.0011C170.16 82.3989 171.848 79.7362 171.246 77.0535L170.043 71.691L170.043 71.6911ZM170.397 68.827C169.74 68.3692 169.227 67.7023 168.967 66.8958L168.891 66.5578L168.162 66.7214C168.58 67.7266 169.407 68.4801 170.397 68.827ZM164.909 79.88C164.528 79.5599 164.262 79.1229 164.154 78.6367C163.879 77.4098 164.651 76.1917 165.878 75.9162C166.107 75.8648 166.342 75.8488 166.576 75.869L165.973 73.1825C165.711 73.2048 165.45 73.2477 165.194 73.3108L165.663 75.4018C165.43 75.3817 165.194 75.3976 164.965 75.4492C163.738 75.7246 162.966 76.9426 163.241 78.1697C163.436 79.0373 164.102 79.6769 164.909 79.88Z" fill="#FF004F"/>
<path d="M169.129 71.224C170.327 71.7299 171.69 71.8802 173.056 71.5737L172.592 69.5053C171.793 69.514 171.028 69.2672 170.396 68.8271C169.406 68.4801 168.579 67.7266 168.161 66.7215L166.246 67.1512L168.601 77.6467C168.871 78.8713 168.1 80.0849 166.875 80.3598C166.153 80.5218 165.434 80.3218 164.908 79.88C164.101 79.6769 163.435 79.0373 163.24 78.1698C162.965 76.9428 163.737 75.7247 164.965 75.4492C165.2 75.3965 165.435 75.3822 165.663 75.4019L165.193 73.3109C162.569 73.957 160.932 76.586 161.526 79.2342C161.823 80.5562 162.619 81.6362 163.673 82.3195C164.563 82.6649 165.561 82.7588 166.563 82.5341C169.246 81.9319 170.934 79.269 170.332 76.5865L169.129 71.224Z" fill="white"/>
<path d="M172.593 69.5052L172.467 68.9461C171.78 69.1014 171.062 69.0601 170.397 68.8271C171.041 69.2763 171.808 69.5135 172.593 69.5053M168.162 66.7214C168.122 66.6254 168.086 66.5277 168.054 66.4288L167.978 66.0908L165.334 66.6842L167.689 77.1798C167.959 78.4043 167.188 79.6179 165.962 79.8928C165.615 79.9713 165.254 79.9669 164.909 79.8802C165.435 80.3218 166.153 80.5218 166.875 80.3598C168.1 80.0849 168.872 78.8714 168.602 77.6468L166.247 67.1512L168.162 66.7214ZM165.194 73.3109L165.061 72.7155C164.833 72.7349 164.607 72.7698 164.384 72.8199C161.7 73.4221 160.012 76.0849 160.614 78.7673C160.991 80.449 162.179 81.7392 163.674 82.3194C162.62 81.6361 161.823 80.5561 161.527 79.2342C160.933 76.586 162.57 73.957 165.194 73.3109Z" fill="#00F2EA"/>
<path d="M204.413 52.7159L191.135 55.6951C187.9 56.4211 185.866 59.6322 186.592 62.8674L189.571 76.1452C190.297 79.3804 193.508 81.4146 196.743 80.6887L210.021 77.7094C213.256 76.9835 215.29 73.7724 214.564 70.5372L211.585 57.2594C210.859 54.0242 207.648 51.99 204.413 52.7159Z" fill="#F4F2ED"/>
<path d="M193.79 75.9203L196.897 75.2233L195.204 67.6791L190.02 65.3466L192.16 74.8877C192.326 75.6244 193.056 76.0851 193.79 75.9203Z" fill="#4285F4"/>
<path d="M207.548 72.8334L210.654 72.1364C211.391 71.9711 211.852 71.2407 211.687 70.5063L209.546 60.9651L205.855 65.2892" fill="#34A853"/>
<path d="M204.56 59.5201L205.855 65.2892L209.546 60.9652L209.147 59.1899C208.778 57.5436 206.688 57.0266 205.594 58.3093" fill="#FBBC04"/>
<path d="M195.204 67.6789L193.909 61.9099L200.131 64.7088L204.56 59.5199L205.854 65.289L201.425 70.478" fill="#EA4335"/>
<path d="M189.621 63.5714L190.019 65.3465L195.204 67.6791L193.909 61.9101L192.458 61.2569C190.918 60.5652 189.251 61.9251 189.621 63.5714Z" fill="#C5221F"/>
<defs>
<filter id="filter0_d_171_161" x="0.195312" y="0.619019" width="267.692" height="171.095" filterUnits="userSpaceOnUse" color-interpolation-filters="sRGB">
<feFlood flood-opacity="0" result="BackgroundImageFix"/>
<feColorMatrix in="SourceAlpha" type="matrix" values="0 0 0 0 0 0 0 0 0 0 0 0 0 0 0 0 0 0 127 0" result="hardAlpha"/>
<feOffset dy="4"/>
<feGaussianBlur stdDeviation="19"/>
<feComposite in2="hardAlpha" operator="out"/>
<feColorMatrix type="matrix" values="0 0 0 0 0 0 0 0 0 0 0 0 0 0 0 0 0 0 0.08 0"/>
<feBlend mode="normal" in2="BackgroundImageFix" result="effect1_dropShadow_171_161"/>
<feBlend mode="normal" in="SourceGraphic" in2="effect1_dropShadow_171_161" result="shape"/>
</filter>
<radialGradient id="paint0_radial_171_161" cx="0" cy="0" r="1" gradientUnits="userSpaceOnUse" gradientTransform="translate(97.8126 104.908) rotate(-102.646) scale(25.3863 23.6113)">
<stop stop-color="#FFDD55"/>
<stop offset="0.1" stop-color="#FFDD55"/>
<stop offset="0.5" stop-color="#FF543E"/>
<stop offset="1" stop-color="#C837AB"/>
</radialGradient>
<radialGradient id="paint1_radial_171_161" cx="0" cy="0" r="1" gradientUnits="userSpaceOnUse" gradientTransform="translate(81.3512 82.2194) rotate(66.0346) scale(11.3478 46.7761)">
<stop stop-color="#3771C8"/>
<stop offset="0.128" stop-color="#3771C8"/>
<stop offset="1" stop-color="#6600FF" stop-opacity="0"/>
</radialGradient>
</defs>
</svg>
