<svg width="260" height="202" viewBox="0 0 260 202" fill="none" xmlns="http://www.w3.org/2000/svg">
<g filter="url(#filter0_d_171_133)">
<path d="M46.1611 57.8008C47.9933 46.2917 58.8085 38.4469 70.3176 40.2791L205.121 61.7387C216.63 63.5709 224.475 74.3861 222.642 85.8952L213.83 141.249C211.998 152.758 201.183 160.603 189.674 158.771L54.8708 137.311C43.3617 135.479 35.517 124.664 37.3492 113.155L46.1611 57.8008Z" fill="white"/>
<path d="M68.6679 99.3192L65.0047 98.7361L74.6901 80.8531L78.9267 81.5276L82.5896 101.535L78.9265 100.952L76.2639 85.0873L76.1159 85.0637L68.6679 99.3192ZM69.9706 91.9103L79.961 93.5007L79.5221 96.2573L69.5318 94.6669L69.9706 91.9103ZM88.9799 102.847C88.0795 102.703 87.2941 102.414 86.6236 101.978C85.9603 101.538 85.4695 100.966 85.1513 100.264C84.8392 99.5635 84.7573 98.7474 84.9055 97.8162C85.0332 97.0145 85.2867 96.3751 85.6662 95.8981C86.0456 95.421 86.5163 95.066 87.0782 94.8329C87.6401 94.5999 88.2545 94.4543 88.9214 94.396C89.5954 94.3326 90.2837 94.3189 90.9862 94.3548C91.8324 94.401 92.52 94.4314 93.0488 94.446C93.5786 94.4545 93.9724 94.4034 94.2304 94.2927C94.4954 94.1768 94.6535 93.9585 94.7045 93.6378L94.7133 93.5823C94.8243 92.8855 94.7036 92.313 94.3513 91.8649C93.999 91.4168 93.4343 91.1308 92.6573 91.0071C91.8371 90.8766 91.158 90.9518 90.62 91.2329C90.0882 91.515 89.7003 91.8864 89.4563 92.3471L86.4003 91.4053C86.7844 90.5813 87.3063 89.9245 87.966 89.4352C88.6266 88.9396 89.39 88.6122 90.2564 88.4529C91.1237 88.2875 92.0538 88.2838 93.0467 88.4419C93.7312 88.5508 94.3999 88.7395 95.0527 89.0078C95.7055 89.2761 96.2831 89.64 96.7854 90.0993C97.2886 90.5525 97.6598 91.1206 97.8988 91.8036C98.144 92.4876 98.1915 93.3014 98.0413 94.2449L96.5275 103.754L93.3084 103.242L93.6191 101.29L93.5081 101.272C93.2418 101.635 92.8961 101.959 92.4711 102.245C92.0533 102.527 91.5502 102.728 90.9618 102.849C90.3805 102.965 89.7199 102.965 88.9799 102.847ZM90.2411 100.525C90.9133 100.632 91.5172 100.592 92.0527 100.405C92.5893 100.212 93.0255 99.915 93.3613 99.5132C93.7034 99.1124 93.9161 98.6499 93.9996 98.1257L94.2661 96.4514C94.1475 96.5211 93.9559 96.5728 93.6913 96.6065C93.4328 96.6412 93.145 96.6618 92.8278 96.6682C92.5106 96.6747 92.1975 96.6754 91.8885 96.6705C91.5794 96.6655 91.3115 96.6608 91.0845 96.6563C90.5742 96.6446 90.1095 96.6844 89.6902 96.7758C89.271 96.8671 88.9252 97.0334 88.6529 97.2746C88.3815 97.5096 88.2115 97.8429 88.1427 98.2746C88.0446 98.8913 88.1955 99.3927 88.5956 99.7789C88.9958 100.165 89.5442 100.414 90.2411 100.525Z" fill="#3F3F3F"/>
<path d="M127.604 114.843L121.743 113.91L137.24 85.2973L144.018 86.3764L149.879 118.389L144.018 117.456L139.758 92.072L139.521 92.0343L127.604 114.843ZM129.689 102.989L145.673 105.533L144.971 109.944L128.987 107.399L129.689 102.989ZM160.104 120.487C158.663 120.258 157.406 119.795 156.334 119.098C155.272 118.393 154.487 117.479 153.978 116.355C153.478 115.234 153.347 113.928 153.585 112.438C153.789 111.156 154.194 110.133 154.802 109.369C155.409 108.606 156.162 108.038 157.061 107.665C157.96 107.292 158.943 107.059 160.01 106.966C161.088 106.864 162.19 106.842 163.314 106.9C164.668 106.974 165.768 107.023 166.614 107.046C167.462 107.06 168.092 106.978 168.504 106.801C168.928 106.615 169.181 106.266 169.263 105.753L169.277 105.664C169.455 104.549 169.261 103.633 168.698 102.916C168.134 102.199 167.231 101.742 165.987 101.544C164.675 101.335 163.589 101.455 162.728 101.905C161.877 102.356 161.256 102.951 160.866 103.688L155.976 102.181C156.591 100.862 157.426 99.8115 158.481 99.0286C159.538 98.2357 160.76 97.7118 162.146 97.457C163.534 97.1923 165.022 97.1864 166.61 97.4393C167.706 97.6136 168.776 97.9155 169.82 98.3448C170.865 98.7741 171.789 99.3563 172.592 100.091C173.398 100.816 173.991 101.725 174.374 102.818C174.766 103.913 174.842 105.215 174.602 106.724L172.18 121.939L167.029 121.119L167.526 117.996L167.349 117.968C166.923 118.548 166.37 119.067 165.69 119.525C165.021 119.975 164.216 120.297 163.275 120.491C162.345 120.677 161.288 120.676 160.104 120.487ZM162.122 116.772C163.197 116.943 164.163 116.879 165.02 116.581C165.879 116.272 166.577 115.796 167.114 115.153C167.661 114.512 168.002 113.772 168.135 112.933L168.561 110.255C168.372 110.366 168.065 110.449 167.642 110.503C167.228 110.558 166.768 110.591 166.26 110.601C165.753 110.612 165.252 110.613 164.757 110.605C164.263 110.597 163.834 110.59 163.471 110.582C162.655 110.564 161.911 110.627 161.24 110.774C160.569 110.92 160.016 111.186 159.58 111.572C159.146 111.948 158.874 112.481 158.764 113.172C158.607 114.158 158.849 114.961 159.489 115.579C160.129 116.196 161.007 116.594 162.122 116.772Z" fill="#726BDF"/>
<rect x="113.235" y="71.6495" width="83.416" height="49.7858" transform="rotate(9.04515 113.235 71.6495)" stroke="#1A89AE" stroke-width="0.989134"/>
<rect x="110.874" y="68.3962" width="6.01388" height="6.01388" transform="rotate(9.04515 110.874 68.3962)" fill="white" stroke="#1A89AE" stroke-width="0.738553"/>
<rect x="103.1" y="117.238" width="6.01388" height="6.01388" transform="rotate(9.04515 103.1 117.238)" fill="white" stroke="#1A89AE" stroke-width="0.738553"/>
<rect x="185.804" y="130.404" width="6.01388" height="6.01388" transform="rotate(9.04515 185.804 130.404)" fill="white" stroke="#1A89AE" stroke-width="0.738553"/>
<rect x="193.579" y="81.5624" width="6.01388" height="6.01388" transform="rotate(9.04515 193.579 81.5624)" fill="white" stroke="#1A89AE" stroke-width="0.738553"/>
</g>
<g filter="url(#filter1_d_171_133)">
<path d="M188.155 135.133C188.254 134.577 188.963 134.398 189.313 134.841L202.751 151.852C203.105 152.301 202.753 152.957 202.183 152.91L192.679 152.116C192.526 152.103 192.374 152.144 192.248 152.232L185.404 157.049C184.926 157.385 184.281 156.975 184.383 156.4L188.155 135.133Z" fill="#FF9933"/>
<path d="M202.238 152.258L192.733 151.463C192.428 151.438 192.123 151.521 191.872 151.697L185.028 156.514L188.799 135.247L202.238 152.258Z" stroke="white" stroke-width="1.30822"/>
</g>
<defs>
<filter id="filter0_d_171_133" x="0.156319" y="8.36126" width="259.68" height="192.878" filterUnits="userSpaceOnUse" color-interpolation-filters="sRGB">
<feFlood flood-opacity="0" result="BackgroundImageFix"/>
<feColorMatrix in="SourceAlpha" type="matrix" values="0 0 0 0 0 0 0 0 0 0 0 0 0 0 0 0 0 0 127 0" result="hardAlpha"/>
<feOffset dy="5.27538"/>
<feGaussianBlur stdDeviation="18.4638"/>
<feComposite in2="hardAlpha" operator="out"/>
<feColorMatrix type="matrix" values="0 0 0 0 0 0 0 0 0 0 0 0 0 0 0 0 0 0 0.08 0"/>
<feBlend mode="normal" in2="BackgroundImageFix" result="effect1_dropShadow_171_133"/>
<feBlend mode="normal" in="SourceGraphic" in2="effect1_dropShadow_171_133" result="shape"/>
</filter>
<filter id="filter1_d_171_133" x="181.757" y="133.284" width="23.7534" height="27.8109" filterUnits="userSpaceOnUse" color-interpolation-filters="sRGB">
<feFlood flood-opacity="0" result="BackgroundImageFix"/>
<feColorMatrix in="SourceAlpha" type="matrix" values="0 0 0 0 0 0 0 0 0 0 0 0 0 0 0 0 0 0 127 0" result="hardAlpha"/>
<feOffset dy="1.30822"/>
<feGaussianBlur stdDeviation="1.30822"/>
<feColorMatrix type="matrix" values="0 0 0 0 0 0 0 0 0 0 0 0 0 0 0 0 0 0 0.28 0"/>
<feBlend mode="normal" in2="BackgroundImageFix" result="effect1_dropShadow_171_133"/>
<feBlend mode="normal" in="SourceGraphic" in2="effect1_dropShadow_171_133" result="shape"/>
</filter>
</defs>
</svg>
