<svg width="59" height="43" viewBox="0 0 59 43" fill="none" xmlns="http://www.w3.org/2000/svg">
<path d="M44.3082 25.7068C40.6054 25.1653 36.7669 24.872 32.9057 24.4733C30.9676 24.2778 29.0144 24.0446 27.0536 23.7212C26.0506 23.5783 25.1306 23.3903 24.0371 23.2023L22.0386 22.7961C21.6723 22.7222 21.3119 22.6216 20.9602 22.4953L19.8215 22.1343C19.297 21.9995 18.7907 21.8025 18.3132 21.5476C17.9437 21.3367 17.5996 21.0844 17.2876 20.7955C17.0128 20.5048 16.7862 20.1722 16.6164 19.8103C16.432 19.3922 16.3743 18.9294 16.4505 18.479C16.6153 17.629 17.091 16.8704 17.7853 16.3506C17.951 16.1783 18.1329 16.0222 18.3283 15.8843L19.0372 15.4706C19.2785 15.3352 19.4972 15.1848 19.7536 15.0645L20.5831 14.726L21.3373 14.4252C21.5786 14.3349 21.8275 14.2823 22.0914 14.2071L22.8455 13.9889L23.2075 13.8836L23.4564 13.831C24.12 13.6881 24.7761 13.5753 25.4247 13.4775C26.7218 13.2895 27.9887 13.1691 29.2331 13.0563C31.5859 12.9156 33.9223 12.5733 36.2163 12.0335C36.4727 11.9728 36.7247 11.8949 36.9705 11.8003C37.099 11.7579 37.2228 11.7024 37.34 11.6348C37.548 11.5081 37.6762 11.2837 37.6794 11.0407C37.6704 10.7714 37.584 10.5103 37.4305 10.2886C37.1798 9.87495 36.864 9.5042 36.4954 9.19048C35.6143 8.45422 34.6501 7.82318 33.6221 7.31021C32.5437 6.73861 31.4879 6.21965 30.3718 5.76086C26.3244 4.23651 22.0919 3.2552 17.7853 2.84268C15.0321 2.51658 12.2624 2.34833 9.48983 2.33876C8.10977 2.33876 6.72216 2.33876 5.33456 2.41398C3.94695 2.48919 2.53672 2.54183 1.22453 2.71482C0.402521 2.81259 0.0405366 2.84268 0.00282989 2.71482C-0.0348768 2.58696 0.304483 2.24099 1.00583 1.85741C1.9618 1.37513 2.97546 1.01625 4.02236 0.789419C5.47217 0.418457 6.95476 0.189235 8.44913 0.105C11.3764 -0.0604842 14.3115 -0.0303324 17.2348 0.195253C20.1705 0.406683 23.0898 0.803591 25.9752 1.38359C28.929 1.98705 31.7982 2.94678 34.5195 4.2416C35.9847 4.89068 37.3588 5.72756 38.6069 6.73108C38.9588 7.023 39.2843 7.34514 39.5798 7.69378C39.7424 7.8747 39.8936 8.06561 40.0323 8.26539L40.2434 8.58127C40.3113 8.69409 40.3867 8.84451 40.4546 8.97237C41.0669 10.0774 41.203 11.383 40.8316 12.59C40.5621 13.2783 40.0952 13.8721 39.4893 14.2973C39.1923 14.5124 38.8739 14.6964 38.5391 14.8463C38.2933 14.9667 38.0416 15.0746 37.7849 15.1698C37.3249 15.3352 36.8649 15.4706 36.4049 15.621C35.9449 15.7714 35.4773 15.8767 35.0173 15.9745C33.1696 16.3581 31.3522 16.5461 29.595 16.7266C27.9063 16.9024 26.2293 17.1762 24.5725 17.5464C24.0748 17.6592 24.0069 17.6893 23.8184 17.742L23.3885 17.8849C23.1261 17.9928 22.8737 18.1237 22.6344 18.276C22.5062 18.3662 22.3478 18.4941 22.3554 18.6671C22.3629 18.84 22.5213 18.9378 22.6495 19.013C22.946 19.1541 23.257 19.2625 23.5771 19.3364H23.7053H23.7656L23.8184 19.4342L24.2859 19.5395C24.6027 19.6147 24.8666 19.6899 25.3945 19.7727C26.3221 19.9456 27.2572 20.0961 28.1999 20.2314C31.9706 20.7579 35.8317 21.0287 39.7231 21.3972C42.1212 21.6229 44.5344 21.8936 46.9401 22.2922L48.75 22.6156L50.5449 22.9992L51.382 23.1722L52.385 23.3677C53.2598 23.5483 54.1119 23.7588 54.9189 24.007C55.714 24.2392 56.4748 24.5756 57.1813 25.0073C57.7831 25.3546 58.2987 25.8328 58.6895 26.4063C58.9058 26.7697 59.0131 27.1873 58.9987 27.6096C58.9723 28.029 58.7987 28.4257 58.5085 28.7303C57.9252 29.2997 57.2143 29.7226 56.4347 29.9637C55.4772 30.2964 54.4934 30.548 53.4935 30.7159L51.9325 31.0167L50.8239 31.2047C49.3156 31.4604 47.8903 31.6936 46.4575 31.9568C45.0307 32.2227 43.6186 32.5616 42.2268 32.9722L41.812 33.1076L41.5104 33.2129C41.3143 33.2881 41.1182 33.3633 40.9297 33.4535C40.5653 33.6072 40.2424 33.8442 39.987 34.1455C39.8281 34.3711 39.8281 34.6719 39.987 34.8976C40.1471 35.1162 40.3633 35.2877 40.6129 35.394C41.079 35.6101 41.5706 35.7668 42.076 35.8603C43.9688 36.3416 45.8994 36.8531 47.8375 37.2968L51.3593 38.0865C55.771 39.1395 57.1134 39.8239 57.7544 41.1702C57.9264 41.4581 58.0679 41.7631 58.1767 42.0802C58.3577 43.0429 56.397 43.261 53.1165 42.6819C50.1527 42.1404 47.1287 41.5237 44.0669 40.749L41.8045 40.1398L41.254 39.9969L40.9598 39.9142L40.4621 39.7412C40.1529 39.6509 39.7759 39.5155 39.4289 39.3952C39.082 39.2749 38.7351 39.132 38.3958 38.9891C37.1874 38.5082 36.1411 37.6943 35.3792 36.6425C35.0797 36.1432 34.8871 35.5875 34.8137 35.0104L34.7759 34.5516L34.8363 34.0928V33.98C34.791 33.98 34.8363 33.9048 34.8363 33.8672L34.8891 33.6566C34.8891 33.5137 34.9494 33.3633 34.9871 33.2354L35.515 32.2802C35.6081 32.1161 35.725 31.9666 35.8619 31.8365C35.983 31.6828 36.1167 31.5395 36.2616 31.4078C36.9419 30.8321 37.7044 30.3606 38.524 30.0089C38.9735 29.8051 39.4343 29.6268 39.9041 29.4749L40.6582 29.2267L41.1182 29.0988C41.6612 28.9409 42.1891 28.813 42.717 28.6852C43.7728 28.437 44.8436 28.2414 45.8315 28.0609C46.8195 27.8804 47.8903 27.6999 48.9009 27.5344L51.2462 27.1433C51.2462 27.1433 51.3141 27.1433 51.3292 27.1433C51.3347 27.1314 51.3347 27.1177 51.3292 27.1057L50.6278 26.9553L48.9763 26.6018C48.4635 26.4965 47.9582 26.3837 47.468 26.2935C46.4349 26.0979 45.3866 25.94 44.3384 25.7971L44.3082 25.7068Z" fill="#231F20"/>
</svg>
