<svg width="43" height="41" viewBox="0 0 43 41" fill="none" xmlns="http://www.w3.org/2000/svg">
<path d="M10.4892 21.2225C13.0386 17.4691 10.6131 13.9105 6.71804 15.681C3.23021 17.2744 0.698424 20.9923 0.0256444 25.5247C-0.505498 29.048 7.35542 25.808 10.4892 21.2225ZM3.10629 23.7897C4.34562 20.8861 6.13381 18.6377 8.11674 17.4869C9.17902 16.8672 9.30293 16.9381 9.10818 18.0535C8.86031 19.3459 5.65576 23.2055 3.79676 24.3917C2.52202 25.2061 2.50433 25.2061 3.10629 23.7897Z" fill="black"/>
<path d="M37.2409 12.2286C33.2928 13.3086 29.3623 16.761 29.3623 19.1866C29.3623 20.3197 30.46 21.1518 30.9203 20.3374C31.0619 20.0895 31.2036 20.1072 32.1951 20.6029C34.8685 21.9485 39.5425 19.6823 41.2953 16.2298C42.6762 13.521 40.4809 11.3434 37.2409 12.2286ZM39.0645 14.4772C38.3563 16.5309 32.4429 20.3728 31.9472 19.0804C31.6816 18.4076 35.3642 15.5041 37.8429 14.4241C39.3123 13.769 39.2946 13.7867 39.0645 14.4772Z" fill="black"/>
<path d="M7.14311 28.4638C5.01855 29.2251 1.56612 33.0847 1.56612 34.7136C1.56612 34.8375 1.28285 35.5279 0.946459 36.2361C-0.894833 40.078 3.33659 41.4768 7.17852 38.3076C13.1096 33.4034 13.0919 26.3393 7.14311 28.4638ZM9.26768 30.8185C8.01065 34.9792 2.41593 38.5023 3.14183 37.8295C2.89396 37.9181 2.62837 37.7057 2.68149 37.4402C3.12411 35.2625 6.11622 31.6153 8.54177 30.3228C9.44471 29.8448 9.55096 29.9156 9.26768 30.8185Z" fill="black"/>
<path d="M38.0903 22.303C33.5048 23.7371 27.8393 29.2432 29.1849 30.9428C31.0793 33.3507 37.7363 30.7834 41.4897 26.1802C43.7913 23.3474 41.8437 21.1168 38.0903 22.303ZM39.9139 24.5337C38.9225 26.375 31.3625 31.2969 30.5658 30.7834C30.0347 30.447 30.4419 29.792 31.097 29.8982C31.752 30.0221 31.7875 29.9867 32.8498 28.8005C34.1953 27.2956 36.4438 25.3127 38.232 24.3212C39.8254 23.4537 40.1795 24.0557 39.9139 24.5337Z" fill="black"/>
<path d="M34.9923 8.72328C41.2775 4.96988 41.8795 -1.26219 35.8245 0.22501C31.8763 1.19877 28.3177 4.93443 27.5387 6.47474C26.7597 8.05047 27.1138 9.11278 28.3885 8.90033C28.6364 8.86492 28.8311 8.88259 28.8311 8.95341C28.8311 10.299 32.6022 10.1574 34.9923 8.72328ZM32.4429 4.98748C34.4081 3.32323 37.5065 1.62372 37.5065 2.20797C37.5065 3.19944 33.2219 7.14752 31.2213 7.97965C29.9642 8.49308 30.8495 6.33304 32.4429 4.98748Z" fill="black"/>
<path d="M14.0479 22.7098C14.1895 22.5504 14.9154 21.2226 14.9862 21.1164C15.181 21.736 15.6944 22.2317 16.3141 22.4088C18.3678 23.0107 20.9705 21.4704 23.874 17.8586C24.9717 16.4953 25.556 15.4154 25.6268 14.5832C26.0517 9.76755 13.9594 13.4678 13.4636 21.2225C13.3928 22.3733 13.7292 23.2232 14.0479 22.7098ZM18.0669 17.2035C20.6518 14.6009 23.7678 12.8659 23.4314 14.2115C23.1481 15.38 21.5901 17.1151 19.979 18.4606C18.899 19.3813 16.916 20.833 16.4911 20.3904C15.836 19.6999 18.0492 17.2212 18.0669 17.2035Z" fill="black"/>
<path d="M16.2254 12.317C19.3768 12.317 24.7591 7.25352 24.7591 4.29683C24.7591 2.40242 22.1742 1.34017 19.7132 2.20771C13.0917 4.54473 10.4182 12.317 16.2254 12.317ZM16.2431 9.51972C16.845 7.43057 18.4385 5.57157 20.6161 4.38535C21.9086 3.67716 21.944 3.67716 21.6962 4.38535C21.0234 6.40369 15.7119 11.3964 16.2431 9.51972Z" fill="black"/>
<path d="M21.5721 24.0376C17.5177 25.454 12.4541 31.7745 14.2246 33.1732C14.4725 33.3679 14.6672 33.6513 14.6672 33.8106C14.6672 37.6172 23.2717 33.7928 25.5025 29.0126C27.1491 25.5424 24.9891 22.8337 21.5721 24.0376ZM23.4311 26.8525C22.7229 29.0302 18.1373 33.3325 16.5439 33.3857C15.4639 33.4211 16.8272 31.4913 17.0928 31.084C17.9603 29.7208 20.9701 27.0474 22.6698 26.1091C23.7498 25.5071 23.8383 25.6132 23.4311 26.8525Z" fill="black"/>
</svg>
