<svg width="63" height="55" viewBox="0 0 63 55" fill="none" xmlns="http://www.w3.org/2000/svg">
<path d="M42.5244 20.1087C43.174 20.3174 43.9079 20.4202 44.5825 20.2956C45.432 20.1399 45.9192 19.4515 46.041 18.6353C46.0659 18.4702 46.0784 18.302 46.0784 18.1307C46.3689 17.6105 46.2159 16.947 45.8879 16.4486C45.5069 15.8723 44.9791 15.3552 44.3888 14.9969C43.2458 14.2992 41.5655 14.2556 40.6192 15.324C39.6698 16.3956 39.8728 18.031 40.7973 19.0496C41.2564 19.5574 41.881 19.9 42.5275 20.1087H42.5244Z" fill="black"/>
<path d="M47.1278 37.6122C46.6625 36.5718 45.7443 35.7182 44.5794 35.5874C43.3801 35.4534 42.287 36.1948 41.9997 37.3661C41.7186 38.5124 41.906 39.9142 42.9491 40.6151C43.4176 40.9328 44.0078 41.045 44.5669 41.0792C45.1634 41.1166 45.813 41.0574 46.3314 40.7428C46.9404 40.3752 47.2933 39.718 47.3496 39.0171C47.3777 38.6682 47.3152 38.3286 47.1965 38.0109C47.209 37.8801 47.1872 37.7399 47.1278 37.6091V37.6122Z" fill="black"/>
<path d="M39.5324 42.3408C38.4549 41.8331 37.0277 41.5589 36.1501 42.5776C35.8065 42.9794 35.591 43.4778 35.5005 43.998C35.4036 44.5743 35.3662 45.2098 35.6223 45.7518C35.8752 46.2876 36.4624 46.733 36.959 47.0352C37.4493 47.3374 38.0364 47.5305 38.6205 47.4744C39.3232 47.409 39.954 47.0695 40.3788 46.5056C40.5818 46.2377 40.7129 45.9356 40.7848 45.6178C40.9472 45.5431 41.0783 45.4029 41.1314 45.2222C41.4937 43.9824 40.613 42.8455 39.5355 42.3377L39.5324 42.3408Z" fill="black"/>
<path d="M37.0839 29.4975C37.4056 29.1704 37.6242 28.7654 37.771 28.3355C37.8459 28.2328 37.8928 28.105 37.9084 27.9618C37.9146 27.915 37.9084 27.8683 37.9084 27.8247C37.9146 27.7935 37.924 27.7624 37.9271 27.7343C37.9584 27.5817 37.9365 27.4197 37.8709 27.2827C37.7241 26.4727 37.1838 25.7096 36.4499 25.3513C35.4599 24.8716 34.2762 25.0772 33.4673 25.8155C32.6928 26.5226 32.4804 27.6939 32.8771 28.6502C33.3049 29.6719 34.3137 30.3479 35.4443 30.2326C36.0564 30.1703 36.6435 29.9429 37.0808 29.4975H37.0839Z" fill="black"/>
<path d="M30.2505 34.9613C29.6696 35.2167 29.2012 35.6902 29.0794 36.3288C28.9732 36.8957 29.0325 37.5 29.1793 38.0545C29.3198 38.5903 29.5822 39.1074 30.0288 39.4501C30.5285 39.8363 31.2281 39.9235 31.8433 39.8612C32.5835 39.7896 33.255 39.4968 33.7047 38.8862C33.7203 38.8644 33.7328 38.8395 33.7515 38.8146C33.8952 38.7741 34.0201 38.6869 34.0826 38.5436C34.5198 37.525 34.3262 36.4098 33.6141 35.5625C32.7865 34.575 31.378 34.466 30.2536 34.9582L30.2505 34.9613Z" fill="black"/>
<path d="M52.3965 17.9936C52.9368 18.3923 53.602 18.601 54.2704 18.4858C54.8856 18.3799 55.4322 17.9718 55.7726 17.4578C56.0943 16.9688 56.2036 16.3551 56.1442 15.7726C56.1817 14.9097 55.7539 14.0375 54.9575 13.5921C53.7676 12.9223 52.2029 13.4488 51.3971 14.4892C50.5008 15.6449 51.3909 17.2522 52.3965 17.9936Z" fill="black"/>
<path d="M53.3147 28.5817C53.4053 28.4727 53.4646 28.3325 53.4802 28.1736C53.5895 27.0833 53.0617 25.8685 52.0623 25.3483C50.9786 24.7844 49.6419 25.0274 48.9236 26.0336C48.1928 27.0584 48.452 28.4228 49.2141 29.348C49.8574 30.1298 51.0504 30.5971 52.0373 30.242C52.6432 30.0239 53.1242 29.5318 53.271 28.8932C53.296 28.7873 53.3085 28.6845 53.3147 28.5817Z" fill="black"/>
<path d="M28.4735 23.7035C29.1043 23.5104 29.6603 23.121 30.0319 22.5696C30.3598 22.0805 30.3848 21.4669 30.1069 21.0152C30.0881 20.5947 29.9788 20.1866 29.7602 19.8066C29.4541 19.2801 28.9857 18.8845 28.4204 18.6571C27.3023 18.2117 25.9594 18.7038 25.2973 19.6726C24.6851 20.5698 24.7851 21.8905 25.4284 22.7441C26.1374 23.6848 27.3491 24.0461 28.4766 23.7004L28.4735 23.7035Z" fill="black"/>
<path d="M23.3484 40.9796C23.3047 40.802 23.2672 40.6058 23.1548 40.4562C23.1111 40.4002 23.0611 40.3628 23.0111 40.3316C22.7551 39.8208 22.3022 39.4002 21.7588 39.2133C20.7063 38.852 19.4602 39.4688 18.9698 40.4282C18.4233 41.4998 18.6763 42.8922 19.5226 43.7457C19.9973 44.2223 20.6501 44.3282 21.2997 44.294C21.8868 44.2628 22.4677 44.0977 22.9018 43.6865C23.3734 43.238 23.5452 42.5682 23.5015 41.9359C23.4796 41.615 23.4234 41.2942 23.3453 40.9827L23.3484 40.9796Z" fill="black"/>
<path d="M35.5879 5.24684C36.2063 5.27177 36.8778 5.09733 37.29 4.60826C37.6054 4.23446 37.7741 3.75474 37.696 3.28749C38.0146 2.23149 37.4087 1.12876 36.5248 0.54625C36.0626 0.240976 35.4942 0.0447309 34.9414 0.00423526C34.3106 -0.0424904 33.7453 0.303268 33.333 0.751835C32.5585 1.58978 32.3055 2.75792 32.799 3.80458C33.2924 4.85435 34.5167 5.20635 35.5942 5.24684H35.5879Z" fill="black"/>
<path d="M19.5851 5.87607C20.522 6.68598 22.0836 7.00682 23.0299 6.02247C23.5015 5.53341 23.692 4.87614 23.7701 4.21886C23.8075 3.91671 23.8294 3.58963 23.7701 3.28747C23.7513 3.19402 23.717 3.10679 23.6732 3.02268C23.6483 2.91054 23.6201 2.79841 23.5795 2.68939C23.3235 2.029 22.8238 1.5337 22.1648 1.26893C21.5183 1.01038 20.7844 1.09136 20.1472 1.34368C19.8131 1.47452 19.457 1.62092 19.1666 1.83275C18.8387 2.06949 18.6481 2.41526 18.5576 2.80152C18.2952 3.91048 18.7325 5.13781 19.5882 5.87919L19.5851 5.87607Z" fill="black"/>
<path d="M23.9075 28.4166C23.4546 28.0895 22.8643 27.9275 22.2928 27.9493C21.8837 27.7749 21.434 27.7094 21.0061 27.8309C20.1348 28.0833 19.6194 28.9243 19.5289 29.7872C19.4383 30.6407 19.735 31.597 20.1066 32.3602C20.497 33.1608 21.2528 33.6592 22.1429 33.7028C22.9643 33.7433 23.7763 33.3228 24.2885 32.6935C25.3191 31.4319 25.2879 29.4165 23.9043 28.4166H23.9075Z" fill="black"/>
<path d="M58.1992 39.3068C57.0749 38.5187 55.5165 38.2975 54.3297 39.0794C53.7519 39.4594 53.2991 40.0357 53.1554 40.721C52.9993 41.4842 53.1554 42.2567 53.4053 42.9825C53.6457 43.6803 53.9862 44.3531 54.6764 44.6989C55.3072 45.0167 56.0568 45.0758 56.7501 44.9917C57.5621 44.8921 58.3804 44.5805 58.9082 43.9295C59.1143 43.6772 59.2736 43.3906 59.3767 43.0884C59.4516 43.0417 59.5234 42.9763 59.5797 42.8828C60.4167 41.5558 59.2705 40.0544 58.1961 39.3037L58.1992 39.3068Z" fill="black"/>
<path d="M5.10635 18.7475C3.98203 17.9594 2.42359 17.7382 1.23681 18.5201C0.65903 18.9001 0.206186 19.4764 0.0625225 20.1617C-0.093633 20.9249 0.0625187 21.6974 0.312368 22.4232C0.552847 23.121 0.893269 23.7938 1.58348 24.1396C2.21434 24.4574 2.96389 24.5165 3.65722 24.4324C4.46923 24.3328 5.28748 24.0212 5.81529 23.3702C6.02141 23.1179 6.18069 22.8313 6.28376 22.5291C6.35871 22.4824 6.43055 22.417 6.48677 22.3235C7.32376 20.9965 6.17757 19.4951 5.10322 18.7444L5.10635 18.7475Z" fill="black"/>
<path d="M16.8867 10.9817C15.6437 10.3929 14.1852 10.6639 13.1577 11.5455C12.6018 12.0221 12.2146 12.7136 12.1271 13.4394C12.0272 14.2618 12.4207 14.9907 12.9766 15.5701C13.8667 16.5015 15.2284 17.0373 16.5151 16.8099C17.5801 16.6199 18.5108 15.701 18.6607 14.6637C18.7481 14.5546 18.8043 14.4176 18.8137 14.268C18.9074 12.9317 18.1016 11.5611 16.8899 10.9848L16.8867 10.9817Z" fill="black"/>
<path d="M15.3876 22.1117C14.9067 21.7067 14.2883 21.442 13.6574 21.4575C13.6418 21.4513 13.6293 21.4451 13.6137 21.4389C12.9891 21.227 12.352 21.498 11.9616 21.9996C11.1839 23.0026 11.4869 24.5695 12.3083 25.451C13.1702 26.3762 14.838 26.5351 15.7062 25.5258C16.5807 24.5103 16.4026 22.9652 15.3845 22.1117H15.3876Z" fill="black"/>
<path d="M28.7015 13.7447C29.2136 13.7322 29.7696 13.6325 30.2068 13.3584C30.7752 13.0033 31.1031 12.3834 31.0813 11.7137C31.0813 11.6482 31.0719 11.5797 31.0657 11.5143C31.0875 11.452 31.1 11.3866 31.0969 11.318C31.0625 10.1935 30.466 9.01292 29.2855 8.7388C28.7545 8.61419 28.1643 8.68894 27.7208 9.01914C27.3085 9.32753 27.0431 9.74807 26.8869 10.234C26.7495 10.6639 26.7058 11.1312 26.6995 11.5797C26.6933 12.1685 26.7558 12.8039 27.1992 13.24C27.5928 13.6263 28.1643 13.7571 28.7015 13.7447Z" fill="black"/>
<path d="M2.155 45.8297C2.66719 45.8172 3.22311 45.7175 3.66034 45.4434C4.22875 45.0883 4.55668 44.4684 4.53482 43.7987C4.53482 43.7332 4.52544 43.6647 4.5192 43.5993C4.54106 43.537 4.55355 43.4716 4.55043 43.403C4.51608 42.2785 3.91956 41.0979 2.73903 40.8238C2.2081 40.6992 1.61783 40.7739 1.17435 41.1041C0.762096 41.4125 0.496628 41.8331 0.340472 42.319C0.203055 42.7489 0.15933 43.2161 0.153083 43.6647C0.146837 44.2535 0.209301 44.8889 0.652783 45.325C1.0463 45.7113 1.61782 45.8421 2.155 45.8297Z" fill="black"/>
<path d="M48.858 7.27786C49.0922 6.75765 49.1516 6.17202 48.9923 5.61754C48.8237 5.02568 48.4177 4.52416 47.8867 4.21889C47.6525 4.08494 47.4058 3.9915 47.1528 3.93543C46.5625 3.67999 45.8536 3.69555 45.3102 4.07559C44.8323 4.4089 44.5169 4.89486 44.4388 5.47426C44.3576 6.08481 44.6043 6.68289 44.9354 7.18442C45.2664 7.68594 45.6537 8.14074 46.2315 8.35568C46.6843 8.527 47.2371 8.51455 47.6868 8.33699C48.1928 8.13762 48.6332 7.78562 48.8611 7.28098L48.858 7.27786Z" fill="black"/>
<path d="M8.50117 4.76402C7.74225 4.1379 6.5211 4.18774 5.6966 4.70795C5.18441 5.03192 4.80964 5.52099 4.75967 6.13465C4.70345 6.77946 5.13133 7.36197 5.53733 7.81988C6.30874 8.68586 7.69228 9.36494 8.76975 8.59552C9.66609 7.95694 9.96901 6.71715 9.47869 5.7328C9.26631 5.30604 8.91654 4.98207 8.50117 4.7609V4.76402Z" fill="black"/>
<path d="M50.3509 48.3747C49.592 47.7485 48.3708 47.7984 47.5463 48.3186C47.0341 48.6426 46.6594 49.1316 46.6094 49.7453C46.5532 50.3901 46.981 50.9726 47.387 51.4305C48.1584 52.2965 49.542 52.9756 50.6195 52.2062C51.5158 51.5676 51.8187 50.3278 51.3284 49.3434C51.116 48.9167 50.7663 48.5927 50.3509 48.3715V48.3747Z" fill="black"/>
<path d="M14.6724 47.1349C14.61 47.0757 14.5444 47.0196 14.4788 46.9605C14.2414 46.7081 13.9666 46.4932 13.6543 46.3468C13.6043 46.325 13.5512 46.3063 13.4982 46.2938C13.3482 46.2222 13.1921 46.1599 13.0328 46.1131C12.4332 45.9356 11.7429 45.9823 11.1964 46.3001C10.0565 46.9605 10.0502 48.4806 10.4313 49.5864C10.8341 50.7452 11.8616 51.7856 13.1827 51.661C14.4382 51.5427 15.2627 50.3963 15.3189 49.1971C15.347 48.5834 15.1659 47.9573 14.838 47.4277C14.813 47.3187 14.7599 47.2128 14.6756 47.1349H14.6724Z" fill="black"/>
<path d="M28.7858 52.1127C28.8732 51.9726 28.9045 51.8012 28.8607 51.6268C28.7358 51.1377 28.4016 50.7577 27.98 50.5178C27.9113 50.4649 27.8301 50.4213 27.7427 50.3995C27.4647 50.2811 27.1618 50.2188 26.8588 50.225C25.8844 50.2437 25.088 50.9446 24.8694 51.8822C24.632 52.8946 24.9943 53.9475 25.8251 54.5767C26.2311 54.8851 26.762 55.0533 27.2711 54.9848C27.8207 54.9101 28.2798 54.5954 28.5734 54.1251C28.8888 53.6173 28.9513 53.013 28.8607 52.4336C28.8451 52.3246 28.817 52.2218 28.7889 52.1159L28.7858 52.1127Z" fill="black"/>
<path d="M62.9682 30.0208C62.9557 29.9398 62.9183 29.8651 62.8683 29.8028C62.7309 29.2857 62.3936 28.8091 61.9501 28.51C61.035 27.8932 59.8295 28.0833 59.0393 28.8091C58.2586 29.5286 58.0806 30.6874 58.6146 31.6032C59.1362 32.5004 60.2417 33.0486 61.2661 32.7434C61.8314 32.5751 62.3061 32.192 62.6278 31.7029C62.9589 31.1983 63.0588 30.6064 62.9682 30.0177V30.0208Z" fill="black"/>
<path d="M11.4369 33.4474C11.4244 33.3664 11.3869 33.2916 11.3369 33.2293C11.1995 32.7122 10.8622 32.2356 10.4188 31.9366C9.50368 31.3198 8.29816 31.5098 7.50801 32.2356C6.72723 32.9552 6.54922 34.114 7.08327 35.0298C7.60483 35.9269 8.71041 36.4752 9.73479 36.1699C10.3001 36.0017 10.7748 35.6186 11.0965 35.1295C11.4275 34.6249 11.5275 34.033 11.4369 33.4443V33.4474Z" fill="black"/>
<path d="M56.7064 6.62059C57.6465 7.39624 59.2236 7.65477 60.12 6.64861C60.3823 6.35268 60.5322 6.00068 60.6696 5.63622C60.7821 5.33718 60.882 5.03502 60.9413 4.7204C61.0163 4.32167 61.0257 3.91984 60.9382 3.54292C61.0194 2.93237 60.8195 2.33116 60.4073 1.86079C59.9607 1.35304 59.2674 1.10072 58.5959 1.10695C57.2686 1.12253 56.1193 2.0695 55.7164 3.30618C55.3322 4.47743 55.7632 5.83871 56.7095 6.61747L56.7064 6.62059Z" fill="black"/>
</svg>
