<svg width="52" height="43" viewBox="0 0 52 43" fill="none" xmlns="http://www.w3.org/2000/svg">
<path d="M13.0989 28.0194C12.4211 27.7064 11.7927 27.296 11.2337 26.8014C10.6387 26.2776 10.152 25.6427 9.80092 24.9325C9.46166 24.2512 9.24328 23.5164 9.15551 22.7606C9.046 22.0181 9.05908 21.2627 9.19424 20.5244C9.47041 19.059 10.1836 17.7112 11.2402 16.6576C12.1604 15.7365 13.224 14.9704 14.3898 14.3891C16.5486 13.3288 18.8657 12.6257 21.2504 12.3075C21.8377 12.2302 22.438 12.1657 23.0511 12.1335C23.6642 12.1013 24.2774 12.1335 24.884 12.1335C26.0779 12.2081 27.2644 12.3718 28.4338 12.6233C31.7922 13.3407 34.9876 14.6759 37.8567 16.5609C39.1095 17.4163 40.2844 18.3802 41.3677 19.4417C41.6323 19.7188 41.9098 19.9766 42.1615 20.2666L42.9167 21.143L43.6266 22.1355C43.8525 22.4771 44.0268 22.8509 44.2268 23.2053C44.9558 24.6781 45.3335 26.2993 45.3305 27.9421C45.3218 29.5433 44.9811 31.1253 44.3301 32.5886C43.7035 34.0188 42.8296 35.3277 41.7485 36.4554C41.2002 37.0288 40.6043 37.5548 39.9672 38.0279C39.6509 38.2534 39.3218 38.479 39.012 38.6723C38.6649 38.8818 38.305 39.0691 37.9341 39.233C36.4787 39.9001 34.8878 40.22 33.2872 40.1675C32.384 40.1341 31.5061 39.8605 30.7443 39.3748C29.9375 38.823 29.3647 37.9916 29.1373 37.0418C28.9543 36.2481 28.99 35.4196 29.2405 34.6445C29.4594 33.9501 29.772 33.2888 30.1699 32.6789C30.9246 31.5075 31.8844 30.4815 33.0032 29.6499C35.2082 27.9629 37.9335 27.0968 40.7094 27.201C44.2939 27.3171 47.6408 29.02 49.8419 31.8475C50.1137 32.1928 50.3575 32.5592 50.5712 32.9431C50.7984 33.3195 51.0031 33.709 51.1843 34.1095C51.5479 34.9117 51.7915 35.7629 51.9072 36.6358C52.1006 38.3108 51.9913 40.0069 51.5845 41.6433C51.365 42.6357 51.1843 43.0417 51.0939 42.9966C51.0036 42.9515 50.9649 42.4488 50.8745 41.5982C50.7556 40.4579 50.5287 39.3315 50.1968 38.2341C49.9826 37.5672 49.7105 36.9203 49.3836 36.3007C49.0502 35.6328 48.6502 35.0002 48.1896 34.4124C47.9973 34.1345 47.7813 33.8736 47.5442 33.6326C47.4376 33.4994 47.3188 33.3765 47.1892 33.2653C47.1284 33.2047 47.0614 33.1507 46.9892 33.1042L46.8085 32.9237C46.5647 32.6897 46.3036 32.4743 46.0275 32.2793C45.7607 32.0695 45.4756 31.884 45.1756 31.7251C44.0017 31.0618 42.7072 30.639 41.3677 30.4812C38.6855 30.0769 35.9641 30.9061 33.9649 32.7369C33.4814 33.1986 33.0487 33.7107 32.6741 34.2642C32.348 34.719 32.1094 35.2304 31.9706 35.7723C31.8852 36.0989 31.9315 36.446 32.0997 36.7389C32.3286 37.0401 32.6719 37.2336 33.0484 37.2738C34.3461 37.4294 35.6615 37.2242 36.8499 36.6809C37.0112 36.6165 37.1532 36.5392 37.3081 36.4683C37.4526 36.3972 37.5927 36.3176 37.7276 36.2298C38.018 36.0171 38.3343 35.8367 38.6118 35.5854C39.1747 35.1614 39.6956 34.6845 40.1672 34.1611C40.7343 33.5024 41.2157 32.7749 41.6 31.9957C41.971 31.2148 42.2316 30.3863 42.3745 29.5339C42.5819 28.2687 42.4868 26.9724 42.097 25.7509C42.0325 25.5511 41.9356 25.3642 41.8582 25.1645C41.7841 24.9649 41.6912 24.7729 41.5807 24.5909C40.6278 23.0355 39.3804 21.6805 37.9083 20.6017C36.395 19.4471 34.7664 18.4515 33.0484 17.6307C29.2663 15.8134 25.0648 14.8273 21.0245 15.6007C18.9916 15.9078 17.0267 16.5618 15.2159 17.5341C14.3795 17.993 13.6373 18.6052 13.0279 19.3386C12.4885 20.0059 12.1865 20.8334 12.1696 21.6908C12.1225 22.7418 12.5291 23.7625 13.2861 24.4942C14.1792 25.2189 15.265 25.6669 16.4099 25.7831C18.9602 26.1013 21.5496 25.8436 23.9869 25.0291C25.8226 24.3633 27.5397 23.4082 29.0727 22.2C30.6085 21.0629 31.8498 19.5759 32.6934 17.8627C33.4612 16.2205 33.4941 14.3298 32.7838 12.662C31.9994 10.9399 30.8104 9.43217 29.318 8.26676C26.9548 6.40294 24.209 5.08265 21.2762 4.40001C20.5532 4.21137 19.8207 4.06079 19.0818 3.94889C18.3461 3.82644 17.5974 3.77489 16.8552 3.69111C15.3684 3.6072 13.8772 3.63952 12.3954 3.78777L11.4209 3.87155C11.1046 3.87155 10.7755 3.98756 10.4721 4.04556L9.51694 4.22601L8.56819 4.4709L7.6969 4.68357C7.43228 4.76091 7.18703 4.85113 6.94177 4.92847C6.46417 5.08314 6.00594 5.17336 5.61224 5.32803C4.8313 5.62448 4.16008 5.79204 3.6373 5.97249C2.84225 6.2703 1.99387 6.39979 1.14603 6.35272C0.832922 6.34837 0.52038 6.3247 0.210196 6.28183C-0.183501 6.17227 -0.015696 5.7276 0.642617 4.92202C0.826428 4.69265 1.02706 4.47724 1.24284 4.27756C1.49455 4.07778 1.77853 3.85867 2.09478 3.6331C2.84055 3.10598 3.63601 2.65271 4.46987 2.27974C7.26647 0.983306 10.2849 0.230906 13.3636 0.0628044C16.5188 -0.14842 19.6871 0.174049 22.7348 1.0166C25.9097 1.86878 28.868 3.38202 31.4155 5.45692C32.7521 6.55298 33.9161 7.84342 34.8685 9.28501C35.3662 10.0652 35.7774 10.8971 36.0947 11.7662C36.4181 12.6888 36.6114 13.6518 36.6691 14.6276C36.7332 16.0854 36.4685 17.539 35.8947 18.881C35.354 20.1164 34.6271 21.2618 33.739 22.2773C32.0666 24.1406 30.0563 25.6712 27.8142 26.7885C27.272 27.0721 26.7105 27.3298 26.1426 27.5683C25.5499 27.8206 24.942 28.0358 24.3225 28.2128C23.138 28.5316 21.9324 28.7664 20.7147 28.9152C19.4796 29.0695 18.2325 29.104 16.9907 29.0183C15.6393 28.9392 14.3117 28.6274 13.0667 28.0968L13.0989 28.0194Z" fill="#231F20"/>
</svg>
