<svg width="112" height="53" viewBox="0 0 112 53" fill="none" xmlns="http://www.w3.org/2000/svg">
<g clip-path="url(#clip0_299_578)">
<g filter="url(#filter0_d_299_578)">
<path d="M48.0186 41.7963H48.9386V50.065H52.4837V50.949H48.0186V41.7963Z" fill="#1C1C1C"/>
<path d="M61.9211 41.5665C63.3164 41.5665 64.4838 42.0297 65.4235 42.9544C66.3631 43.879 66.833 45.0176 66.833 46.3701C66.833 47.7226 66.3631 48.847 65.4253 49.7787C64.4874 50.7122 63.3431 51.1789 61.9941 51.1789C60.6451 51.1789 59.4741 50.714 58.5345 49.7858C57.5948 48.8558 57.125 47.7332 57.125 46.4143C57.125 45.5356 57.3386 44.7206 57.7675 43.9692C58.1963 43.2178 58.7801 42.6308 59.5186 42.2048C60.259 41.7805 61.058 41.5665 61.9194 41.5665H61.9211ZM61.9621 42.4558C61.2805 42.4558 60.6345 42.6326 60.024 42.9844C59.4136 43.338 58.9367 43.8118 58.5932 44.4094C58.2497 45.007 58.0789 45.6735 58.0789 46.409C58.0789 47.4963 58.458 48.4156 59.2179 49.1635C59.976 49.9131 60.8925 50.2879 61.9621 50.2879C62.6775 50.2879 63.3395 50.1164 63.9481 49.7716C64.5568 49.4269 65.0302 48.9566 65.3719 48.359C65.7118 47.7615 65.8826 47.0967 65.8826 46.3666C65.8826 45.6364 65.7118 44.984 65.3719 44.3953C65.0302 43.8083 64.5514 43.338 63.9321 42.9844C63.3128 42.6308 62.6561 42.4558 61.9621 42.4558Z" fill="#1C1C1C"/>
<path d="M81.1604 43.3346L80.4468 44.0064C79.9325 43.5043 79.3701 43.1242 78.7597 42.8643C78.1475 42.6044 77.5513 42.4753 76.9712 42.4753C76.2486 42.4753 75.5617 42.6521 74.9068 43.0039C74.2519 43.3558 73.7464 43.8349 73.3887 44.4378C73.0292 45.0406 72.8495 45.6789 72.8495 46.3507C72.8495 47.0225 73.0346 47.6944 73.4065 48.3131C73.7785 48.9337 74.291 49.4199 74.9477 49.7752C75.6026 50.1306 76.3216 50.3074 77.1028 50.3074C78.0514 50.3074 78.8522 50.0422 79.5071 49.5118C80.1621 48.9814 80.5518 48.2919 80.6728 47.4468H77.7364V46.5629H81.7068C81.6979 47.9772 81.2761 49.0999 80.4379 49.9326C79.5997 50.7653 78.4803 51.1808 77.0779 51.1808C75.3748 51.1808 74.0258 50.6044 73.0328 49.4517C72.2693 48.5642 71.8867 47.537 71.8867 46.3719C71.8867 45.5056 72.1056 44.6977 72.5452 43.9516C72.983 43.2055 73.5845 42.6221 74.3497 42.1995C75.1132 41.7787 75.9781 41.5684 76.9427 41.5684C77.7239 41.5684 78.4589 41.708 79.1477 41.9891C79.8364 42.2685 80.5091 42.7175 81.164 43.3363L81.1604 43.3346Z" fill="#1C1C1C"/>
<path d="M86.918 41.7963H87.838V50.949H86.918V41.7963Z" fill="#1C1C1C"/>
<path d="M102.121 43.4953L101.395 44.0487C100.995 43.5307 100.512 43.1364 99.9518 42.8695C99.3912 42.6025 98.7737 42.4681 98.101 42.4681C97.366 42.4681 96.6862 42.6432 96.0597 42.9932C95.4333 43.3433 94.9475 43.8153 94.604 44.4058C94.2587 44.9963 94.0879 45.6611 94.0879 46.4001C94.0879 47.5157 94.4723 48.4474 95.2429 49.1935C96.0135 49.9395 96.9852 50.3126 98.1579 50.3126C99.4482 50.3126 100.527 49.8105 101.395 48.8063L102.121 49.3543C101.662 49.9342 101.089 50.3833 100.402 50.7015C99.7151 51.018 98.9481 51.1771 98.101 51.1771C96.4886 51.1771 95.218 50.645 94.2872 49.5789C93.506 48.679 93.1162 47.5917 93.1162 46.3187C93.1162 44.9786 93.5896 43.8524 94.5346 42.9366C95.4796 42.0226 96.6648 41.5647 98.0885 41.5647C98.9481 41.5647 99.7258 41.7344 100.418 42.0721C101.112 42.4098 101.68 42.8836 102.121 43.4935V43.4953Z" fill="#1C1C1C"/>
<path d="M106.608 49.2449L107.391 48.7781C107.943 49.7859 108.578 50.2897 109.301 50.2897C109.611 50.2897 109.901 50.219 110.171 50.0758C110.442 49.9326 110.65 49.7417 110.791 49.4994C110.931 49.2572 111.004 49.0044 111.004 48.7339C111.004 48.4263 110.899 48.1257 110.691 47.8323C110.403 47.4256 109.876 46.9359 109.112 46.3648C108.344 45.7885 107.867 45.3712 107.678 45.1149C107.352 44.6835 107.189 44.2168 107.189 43.7147C107.189 43.3169 107.285 42.9544 107.477 42.6256C107.669 42.2985 107.94 42.0404 108.288 41.8512C108.637 41.6621 109.016 41.5684 109.426 41.5684C109.86 41.5684 110.266 41.6744 110.645 41.8884C111.022 42.1023 111.422 42.4948 111.844 43.0676L111.093 43.6333C110.746 43.1772 110.451 42.8767 110.207 42.7317C109.963 42.5867 109.696 42.5142 109.408 42.5142C109.036 42.5142 108.732 42.6256 108.497 42.8501C108.26 43.0747 108.142 43.3505 108.142 43.6775C108.142 43.8773 108.185 44.07 108.267 44.2557C108.351 44.4431 108.502 44.6464 108.724 44.8656C108.845 44.9823 109.242 45.2864 109.915 45.7796C110.712 46.3648 111.259 46.8846 111.556 47.3408C111.851 47.7969 112.001 48.2548 112.001 48.7162C112.001 49.3792 111.746 49.9556 111.239 50.4453C110.732 50.935 110.114 51.179 109.388 51.179C108.829 51.179 108.322 51.0305 107.867 50.7335C107.411 50.4365 106.991 49.9397 106.608 49.2431V49.2449Z" fill="#1C1C1C"/>
<path d="M70.1501 2.05072C72.2857 2.05072 74.1223 2.81978 75.6599 4.35437C77.1975 5.89073 77.9663 7.76301 77.9663 9.97296C77.9663 12.1829 77.2082 14.0145 75.6919 15.5297C74.1757 17.0448 72.3355 17.8033 70.1715 17.8033C68.0074 17.8033 66.0231 17.0254 64.5229 15.4678C63.0227 13.912 62.2734 12.0627 62.2734 9.92169C62.2734 8.48787 62.6222 7.16897 63.3216 5.96499C64.0193 4.76101 64.9803 3.80807 66.2029 3.10442C67.4255 2.40077 68.7407 2.04895 70.1519 2.04895L70.1501 2.05072ZM70.1199 4.8441C68.7229 4.8441 67.5483 5.32675 66.5962 6.29206C65.6441 7.25737 65.1689 8.48434 65.1689 9.97296C65.1689 11.6313 65.7687 12.9431 66.9664 13.9084C67.8971 14.6634 68.9667 15.0399 70.1715 15.0399C71.5347 15.0399 72.695 14.5502 73.6542 13.5725C74.6135 12.5931 75.0922 11.3873 75.0922 9.95351C75.0922 8.5197 74.6081 7.31748 73.6436 6.32919C72.6772 5.3409 71.5027 4.84587 70.1199 4.84587V4.8441Z" fill="#C8F906"/>
<path d="M60.218 4.99619L58.2088 6.90029C56.8421 5.4647 55.3027 4.74691 53.5942 4.74691C52.1509 4.74691 50.9372 5.23663 49.9495 6.21608C48.9618 7.19554 48.4671 8.40305 48.4671 9.83864C48.4671 10.8393 48.686 11.7268 49.1238 12.503C49.5615 13.2791 50.1791 13.8873 50.9799 14.3293C51.779 14.7713 52.6688 14.9923 53.6458 14.9923C54.4805 14.9923 55.2422 14.8384 55.9327 14.5273C56.6232 14.2179 57.3813 13.6539 58.2088 12.8389L60.1575 14.8579C59.0417 15.9399 57.9881 16.6895 56.9969 17.1067C56.0056 17.5257 54.872 17.7344 53.5996 17.7344C51.2522 17.7344 49.332 16.9954 47.8371 15.5173C46.3422 14.0393 45.5947 12.1441 45.5947 9.83334C45.5947 8.33764 45.9346 7.00813 46.6162 5.84658C47.2961 4.68503 48.2713 3.74977 49.542 3.04259C50.8109 2.3354 52.1776 1.98181 53.6423 1.98181C54.888 1.98181 56.0857 2.24347 57.2389 2.76502C58.3921 3.28657 59.3852 4.03088 60.2198 4.99442L60.218 4.99619Z" fill="#C8F906"/>
<path d="M91.1554 17.3596H93.9103V9.4002H91.0468L91.7445 12.4994L84.7469 2.36194H81.8301V17.3596H84.7024L84.7167 8.15555L88.9469 14.499H86.3646V17.3596H91.0237" fill="#C8F906"/>
<path d="M62.6152 22.2975H70.8568V25.0909H65.468V27.8029H70.8568V30.545H65.468V34.4911H70.8568V37.2951H62.6152V22.2975Z" fill="#C8F906"/>
<path d="M73.7314 22.2975H76.7764C78.4439 22.2975 79.631 22.446 80.3393 22.7412C81.0458 23.0365 81.6153 23.528 82.0459 24.214C82.4766 24.8999 82.6919 25.7132 82.6919 26.6502C82.6919 27.635 82.4535 28.4606 81.9783 29.1236C81.5031 29.7866 80.7859 30.2869 79.8285 30.6281L83.4056 37.2969H80.2645L76.869 30.9446H76.6056V37.2969H73.7314V22.2993V22.2975ZM76.6038 28.1601H77.5043C78.419 28.1601 79.0472 28.0398 79.3925 27.8029C79.7377 27.5642 79.9086 27.1682 79.9086 26.6166C79.9086 26.2895 79.8232 26.0049 79.6523 25.7627C79.4815 25.5205 79.2537 25.3472 78.9672 25.2411C78.6806 25.1351 78.1556 25.082 77.3922 25.082H76.6038V28.1618V28.1601Z" fill="#C8F906"/>
<path d="M99.6662 24.7443L97.6427 26.7332C96.3614 25.3878 94.8683 24.7142 93.1634 24.7142C91.6774 24.7142 90.4316 25.2039 89.4297 26.1816C88.426 27.1611 87.9241 28.3492 87.9241 29.7511C87.9241 31.1531 88.4438 32.4261 89.4866 33.432C90.5277 34.438 91.8126 34.9419 93.3395 34.9419C94.3326 34.9419 95.1708 34.735 95.8524 34.3196C96.534 33.9059 97.0839 33.2553 97.5021 32.373H93.1296V29.691H100.725L100.746 30.324C100.746 31.6358 100.405 32.8804 99.7196 34.0561C99.0362 35.2318 98.1499 36.13 97.0608 36.7487C95.9716 37.3675 94.6974 37.6769 93.2328 37.6769C91.6667 37.6769 90.2679 37.3392 89.0399 36.6621C87.812 35.9868 86.8403 35.0214 86.1249 33.7715C85.4095 32.5215 85.0518 31.1708 85.0518 29.7229C85.0518 27.7374 85.712 26.0119 87.0325 24.5427C88.5986 22.796 90.638 21.9226 93.1491 21.9226C94.4625 21.9226 95.6905 22.1648 96.833 22.6457C97.7976 23.0541 98.7425 23.7542 99.6662 24.746V24.7443Z" fill="#C8F906"/>
<path d="M103.393 22.2975H111.634V25.0909H106.245V27.8029H111.634V30.545H106.245V34.4911H111.634V37.2951H103.393V22.2975Z" fill="#C8F906"/>
<path d="M49.8945 22.3646H47.1396V30.324H50.0031L49.3055 27.223L56.303 37.3623H59.2199V22.3646H56.3475L56.3333 31.5686L52.1031 25.2252H54.6853V22.3646H50.0262" fill="#C8F906"/>
</g>
<g filter="url(#filter1_d_299_578)">
<path d="M4.54865 52.9999H30.5047L32.7382 46.2233H13.9345L16.0362 39.8445C13.6925 39.4927 11.5284 38.8085 9.56013 37.7902L4.54688 52.9999H4.54865Z" fill="#C8F906"/>
<path d="M18.9074 31.1426L24.0096 15.6624H16.8572L12.5273 28.7983C12.9509 29.1183 13.3994 29.4118 13.8781 29.677C15.3997 30.5185 17.0886 31.0065 18.9074 31.1426Z" fill="#C8F906"/>
<path d="M8.75228 26.081C7.6667 24.1574 7.12569 21.9563 7.12569 19.4759C7.12569 15.917 8.35008 12.922 10.7989 10.4929C13.2477 8.06368 16.2606 6.84909 19.8359 6.84909C24.0732 6.84909 27.887 8.62943 31.2772 12.1883L36.2602 7.46964C35.7423 6.87207 35.2013 6.30986 34.6336 5.78124C34.0677 5.25262 33.4751 4.75759 32.8593 4.29615C31.6278 3.37504 30.2966 2.59007 28.8676 1.94299C26.0095 0.648842 23.0375 0 19.9498 0C16.3193 0 12.9309 0.87691 9.78447 2.62896C6.63806 4.38278 4.21953 6.69881 2.53243 9.58059C0.84355 12.4624 0 15.7579 0 19.4653C0 25.1952 1.85261 29.8927 5.5596 33.5577C6.87298 34.8572 8.32161 35.9215 9.90193 36.7595L12.1745 29.8662C10.7544 28.862 9.61007 27.6032 8.75228 26.0828V26.081Z" fill="#C8F906"/>
<path d="M19.8484 39.0561C23.0037 39.0561 25.812 38.5381 28.2715 37.5003C30.7309 36.4642 33.3434 34.6043 36.109 31.9241L31.279 26.9172C29.2271 28.9416 27.346 30.3382 25.6358 31.1055C23.9238 31.8728 22.0338 32.2565 19.9659 32.2565C19.4889 32.2565 19.0244 32.2282 18.5653 32.1858L16.3799 38.8156C17.4922 38.973 18.6471 39.0543 19.8502 39.0543L19.8484 39.0561Z" fill="#C8F906"/>
<path d="M12.1749 29.8644L9.90234 36.7577C11.8582 37.7955 14.0151 38.4815 16.3785 38.8139L18.5639 32.184C16.6863 32.0107 14.9476 31.4892 13.3548 30.6088C12.9402 30.3789 12.5505 30.1279 12.1749 29.8627V29.8644Z" fill="#C8F906"/>
</g>
</g>
<defs>
<filter id="filter0_d_299_578" x="44.956" y="1.34305" width="70.6647" height="53.4574" filterUnits="userSpaceOnUse" color-interpolation-filters="sRGB">
<feFlood flood-opacity="0" result="BackgroundImageFix"/>
<feColorMatrix in="SourceAlpha" type="matrix" values="0 0 0 0 0 0 0 0 0 0 0 0 0 0 0 0 0 0 127 0" result="hardAlpha"/>
<feOffset dx="1.49045" dy="1.49045"/>
<feGaussianBlur stdDeviation="1.06461"/>
<feColorMatrix type="matrix" values="0 0 0 0 0 0 0 0 0 0 0 0 0 0 0 0 0 0 0.3 0"/>
<feBlend mode="normal" in2="BackgroundImageFix" result="effect1_dropShadow_299_578"/>
<feBlend mode="normal" in="SourceGraphic" in2="effect1_dropShadow_299_578" result="shape"/>
</filter>
<filter id="filter1_d_299_578" x="-0.638764" y="-0.638764" width="40.5182" height="57.2584" filterUnits="userSpaceOnUse" color-interpolation-filters="sRGB">
<feFlood flood-opacity="0" result="BackgroundImageFix"/>
<feColorMatrix in="SourceAlpha" type="matrix" values="0 0 0 0 0 0 0 0 0 0 0 0 0 0 0 0 0 0 127 0" result="hardAlpha"/>
<feOffset dx="1.49045" dy="1.49045"/>
<feGaussianBlur stdDeviation="1.06461"/>
<feColorMatrix type="matrix" values="0 0 0 0 0 0 0 0 0 0 0 0 0 0 0 0 0 0 0.3 0"/>
<feBlend mode="normal" in2="BackgroundImageFix" result="effect1_dropShadow_299_578"/>
<feBlend mode="normal" in="SourceGraphic" in2="effect1_dropShadow_299_578" result="shape"/>
</filter>
<clipPath id="clip0_299_578">
<rect width="112" height="53" fill="white"/>
</clipPath>
</defs>
</svg>
